<?xml version="1.0" encoding="utf-8" standalone="no"?>
<!DOCTYPE svg PUBLIC "-//W3C//DTD SVG 1.1//EN"
  "http://www.w3.org/Graphics/SVG/1.1/DTD/svg11.dtd">
<svg xmlns:xlink="http://www.w3.org/1999/xlink" width="2849.809375pt" height="2002.009375pt" viewBox="0 0 2849.809375 2002.009375" xmlns="http://www.w3.org/2000/svg" version="1.1">
 <metadata>
  <rdf:RDF xmlns:dc="http://purl.org/dc/elements/1.1/" xmlns:cc="http://creativecommons.org/ns#" xmlns:rdf="http://www.w3.org/1999/02/22-rdf-syntax-ns#">
   <cc:Work>
    <dc:type rdf:resource="http://purl.org/dc/dcmitype/StillImage"/>
    <dc:date>2024-12-12T11:27:27.424487</dc:date>
    <dc:format>image/svg+xml</dc:format>
    <dc:creator>
     <cc:Agent>
      <dc:title>Matplotlib v3.8.4, https://matplotlib.org/</dc:title>
     </cc:Agent>
    </dc:creator>
   </cc:Work>
  </rdf:RDF>
 </metadata>
 <defs>
  <style type="text/css">*{stroke-linejoin: round; stroke-linecap: butt}</style>
 </defs>
 <g id="figure_1">
  <g id="patch_1">
   <path d="M 0 2002.009375 
L 2849.809375 2002.009375 
L 2849.809375 0 
L 0 0 
z
" style="fill: #ffffff"/>
  </g>
  <g id="axes_1">
   <g id="patch_2">
    <path d="M 331.609375 1670.4 
L 2842.609375 1670.4 
L 2842.609375 7.2 
L 331.609375 7.2 
z
" style="fill: #eaeaf2"/>
   </g>
   <g id="matplotlib.axis_1">
    <g id="xtick_1">
     <g id="line2d_1">
      <path d="M 445.745739 1670.4 
L 445.745739 7.2 
" clip-path="url(#p8740ed59dd)" style="fill: none; stroke: #ffffff; stroke-linecap: round"/>
     </g>
     <g id="text_1">
      <!-- age -->
      <g style="fill: #262626" transform="translate(459.319567 1771.655469) rotate(-90) scale(0.55 -0.55)">
       <defs>
        <path id="ArialMT-61" d="M 2588 409 
Q 2275 144 1986 34 
Q 1697 -75 1366 -75 
Q 819 -75 525 192 
Q 231 459 231 875 
Q 231 1119 342 1320 
Q 453 1522 633 1644 
Q 813 1766 1038 1828 
Q 1203 1872 1538 1913 
Q 2219 1994 2541 2106 
Q 2544 2222 2544 2253 
Q 2544 2597 2384 2738 
Q 2169 2928 1744 2928 
Q 1347 2928 1158 2789 
Q 969 2650 878 2297 
L 328 2372 
Q 403 2725 575 2942 
Q 747 3159 1072 3276 
Q 1397 3394 1825 3394 
Q 2250 3394 2515 3294 
Q 2781 3194 2906 3042 
Q 3031 2891 3081 2659 
Q 3109 2516 3109 2141 
L 3109 1391 
Q 3109 606 3145 398 
Q 3181 191 3288 0 
L 2700 0 
Q 2613 175 2588 409 
z
M 2541 1666 
Q 2234 1541 1622 1453 
Q 1275 1403 1131 1340 
Q 988 1278 909 1158 
Q 831 1038 831 891 
Q 831 666 1001 516 
Q 1172 366 1500 366 
Q 1825 366 2078 508 
Q 2331 650 2450 897 
Q 2541 1088 2541 1459 
L 2541 1666 
z
" transform="scale(0.015625)"/>
        <path id="ArialMT-67" d="M 319 -275 
L 866 -356 
Q 900 -609 1056 -725 
Q 1266 -881 1628 -881 
Q 2019 -881 2231 -725 
Q 2444 -569 2519 -288 
Q 2563 -116 2559 434 
Q 2191 0 1641 0 
Q 956 0 581 494 
Q 206 988 206 1678 
Q 206 2153 378 2554 
Q 550 2956 876 3175 
Q 1203 3394 1644 3394 
Q 2231 3394 2613 2919 
L 2613 3319 
L 3131 3319 
L 3131 450 
Q 3131 -325 2973 -648 
Q 2816 -972 2473 -1159 
Q 2131 -1347 1631 -1347 
Q 1038 -1347 672 -1080 
Q 306 -813 319 -275 
z
M 784 1719 
Q 784 1066 1043 766 
Q 1303 466 1694 466 
Q 2081 466 2343 764 
Q 2606 1063 2606 1700 
Q 2606 2309 2336 2618 
Q 2066 2928 1684 2928 
Q 1309 2928 1046 2623 
Q 784 2319 784 1719 
z
" transform="scale(0.015625)"/>
        <path id="ArialMT-65" d="M 2694 1069 
L 3275 997 
Q 3138 488 2766 206 
Q 2394 -75 1816 -75 
Q 1088 -75 661 373 
Q 234 822 234 1631 
Q 234 2469 665 2931 
Q 1097 3394 1784 3394 
Q 2450 3394 2872 2941 
Q 3294 2488 3294 1666 
Q 3294 1616 3291 1516 
L 816 1516 
Q 847 969 1125 678 
Q 1403 388 1819 388 
Q 2128 388 2347 550 
Q 2566 713 2694 1069 
z
M 847 1978 
L 2700 1978 
Q 2663 2397 2488 2606 
Q 2219 2931 1791 2931 
Q 1403 2931 1139 2672 
Q 875 2413 847 1978 
z
" transform="scale(0.015625)"/>
       </defs>
       <use xlink:href="#ArialMT-61"/>
       <use xlink:href="#ArialMT-67" x="55.615234"/>
       <use xlink:href="#ArialMT-65" x="111.230469"/>
      </g>
     </g>
    </g>
    <g id="xtick_2">
     <g id="line2d_2">
      <path d="M 674.018466 1670.4 
L 674.018466 7.2 
" clip-path="url(#p8740ed59dd)" style="fill: none; stroke: #ffffff; stroke-linecap: round"/>
     </g>
     <g id="text_2">
      <!-- gender -->
      <g style="fill: #262626" transform="translate(687.91456 1851.139063) rotate(-90) scale(0.55 -0.55)">
       <defs>
        <path id="ArialMT-6e" d="M 422 0 
L 422 3319 
L 928 3319 
L 928 2847 
Q 1294 3394 1984 3394 
Q 2284 3394 2536 3286 
Q 2788 3178 2913 3003 
Q 3038 2828 3088 2588 
Q 3119 2431 3119 2041 
L 3119 0 
L 2556 0 
L 2556 2019 
Q 2556 2363 2490 2533 
Q 2425 2703 2258 2804 
Q 2091 2906 1866 2906 
Q 1506 2906 1245 2678 
Q 984 2450 984 1813 
L 984 0 
L 422 0 
z
" transform="scale(0.015625)"/>
        <path id="ArialMT-64" d="M 2575 0 
L 2575 419 
Q 2259 -75 1647 -75 
Q 1250 -75 917 144 
Q 584 363 401 755 
Q 219 1147 219 1656 
Q 219 2153 384 2558 
Q 550 2963 881 3178 
Q 1213 3394 1622 3394 
Q 1922 3394 2156 3267 
Q 2391 3141 2538 2938 
L 2538 4581 
L 3097 4581 
L 3097 0 
L 2575 0 
z
M 797 1656 
Q 797 1019 1065 703 
Q 1334 388 1700 388 
Q 2069 388 2326 689 
Q 2584 991 2584 1609 
Q 2584 2291 2321 2609 
Q 2059 2928 1675 2928 
Q 1300 2928 1048 2622 
Q 797 2316 797 1656 
z
" transform="scale(0.015625)"/>
        <path id="ArialMT-72" d="M 416 0 
L 416 3319 
L 922 3319 
L 922 2816 
Q 1116 3169 1280 3281 
Q 1444 3394 1641 3394 
Q 1925 3394 2219 3213 
L 2025 2691 
Q 1819 2813 1613 2813 
Q 1428 2813 1281 2702 
Q 1134 2591 1072 2394 
Q 978 2094 978 1738 
L 978 0 
L 416 0 
z
" transform="scale(0.015625)"/>
       </defs>
       <use xlink:href="#ArialMT-67"/>
       <use xlink:href="#ArialMT-65" x="55.615234"/>
       <use xlink:href="#ArialMT-6e" x="111.230469"/>
       <use xlink:href="#ArialMT-64" x="166.845703"/>
       <use xlink:href="#ArialMT-65" x="222.460938"/>
       <use xlink:href="#ArialMT-72" x="278.076172"/>
      </g>
     </g>
    </g>
    <g id="xtick_3">
     <g id="line2d_3">
      <path d="M 902.291193 1670.4 
L 902.291193 7.2 
" clip-path="url(#p8740ed59dd)" style="fill: none; stroke: #ffffff; stroke-linecap: round"/>
     </g>
     <g id="text_3">
      <!-- left_arm -->
      <g style="fill: #262626" transform="translate(916.844709 1878.561719) rotate(-90) scale(0.55 -0.55)">
       <defs>
        <path id="ArialMT-6c" d="M 409 0 
L 409 4581 
L 972 4581 
L 972 0 
L 409 0 
z
" transform="scale(0.015625)"/>
        <path id="ArialMT-66" d="M 556 0 
L 556 2881 
L 59 2881 
L 59 3319 
L 556 3319 
L 556 3672 
Q 556 4006 616 4169 
Q 697 4388 901 4523 
Q 1106 4659 1475 4659 
Q 1713 4659 2000 4603 
L 1916 4113 
Q 1741 4144 1584 4144 
Q 1328 4144 1222 4034 
Q 1116 3925 1116 3625 
L 1116 3319 
L 1763 3319 
L 1763 2881 
L 1116 2881 
L 1116 0 
L 556 0 
z
" transform="scale(0.015625)"/>
        <path id="ArialMT-74" d="M 1650 503 
L 1731 6 
Q 1494 -44 1306 -44 
Q 1000 -44 831 53 
Q 663 150 594 308 
Q 525 466 525 972 
L 525 2881 
L 113 2881 
L 113 3319 
L 525 3319 
L 525 4141 
L 1084 4478 
L 1084 3319 
L 1650 3319 
L 1650 2881 
L 1084 2881 
L 1084 941 
Q 1084 700 1114 631 
Q 1144 563 1211 522 
Q 1278 481 1403 481 
Q 1497 481 1650 503 
z
" transform="scale(0.015625)"/>
        <path id="ArialMT-5f" d="M -97 -1272 
L -97 -866 
L 3631 -866 
L 3631 -1272 
L -97 -1272 
z
" transform="scale(0.015625)"/>
        <path id="ArialMT-6d" d="M 422 0 
L 422 3319 
L 925 3319 
L 925 2853 
Q 1081 3097 1340 3245 
Q 1600 3394 1931 3394 
Q 2300 3394 2536 3241 
Q 2772 3088 2869 2813 
Q 3263 3394 3894 3394 
Q 4388 3394 4653 3120 
Q 4919 2847 4919 2278 
L 4919 0 
L 4359 0 
L 4359 2091 
Q 4359 2428 4304 2576 
Q 4250 2725 4106 2815 
Q 3963 2906 3769 2906 
Q 3419 2906 3187 2673 
Q 2956 2441 2956 1928 
L 2956 0 
L 2394 0 
L 2394 2156 
Q 2394 2531 2256 2718 
Q 2119 2906 1806 2906 
Q 1569 2906 1367 2781 
Q 1166 2656 1075 2415 
Q 984 2175 984 1722 
L 984 0 
L 422 0 
z
" transform="scale(0.015625)"/>
       </defs>
       <use xlink:href="#ArialMT-6c"/>
       <use xlink:href="#ArialMT-65" x="22.216797"/>
       <use xlink:href="#ArialMT-66" x="77.832031"/>
       <use xlink:href="#ArialMT-74" x="105.615234"/>
       <use xlink:href="#ArialMT-5f" x="133.398438"/>
       <use xlink:href="#ArialMT-61" x="189.013672"/>
       <use xlink:href="#ArialMT-72" x="244.628906"/>
       <use xlink:href="#ArialMT-6d" x="277.929688"/>
      </g>
     </g>
    </g>
    <g id="xtick_4">
     <g id="line2d_4">
      <path d="M 1130.56392 1670.4 
L 1130.56392 7.2 
" clip-path="url(#p8740ed59dd)" style="fill: none; stroke: #ffffff; stroke-linecap: round"/>
     </g>
     <g id="text_4">
      <!-- right_arm -->
      <g style="fill: #262626" transform="translate(1144.460014 1912.180469) rotate(-90) scale(0.55 -0.55)">
       <defs>
        <path id="ArialMT-69" d="M 425 3934 
L 425 4581 
L 988 4581 
L 988 3934 
L 425 3934 
z
M 425 0 
L 425 3319 
L 988 3319 
L 988 0 
L 425 0 
z
" transform="scale(0.015625)"/>
        <path id="ArialMT-68" d="M 422 0 
L 422 4581 
L 984 4581 
L 984 2938 
Q 1378 3394 1978 3394 
Q 2347 3394 2619 3248 
Q 2891 3103 3008 2847 
Q 3125 2591 3125 2103 
L 3125 0 
L 2563 0 
L 2563 2103 
Q 2563 2525 2380 2717 
Q 2197 2909 1863 2909 
Q 1613 2909 1392 2779 
Q 1172 2650 1078 2428 
Q 984 2206 984 1816 
L 984 0 
L 422 0 
z
" transform="scale(0.015625)"/>
       </defs>
       <use xlink:href="#ArialMT-72"/>
       <use xlink:href="#ArialMT-69" x="33.300781"/>
       <use xlink:href="#ArialMT-67" x="55.517578"/>
       <use xlink:href="#ArialMT-68" x="111.132812"/>
       <use xlink:href="#ArialMT-74" x="166.748047"/>
       <use xlink:href="#ArialMT-5f" x="194.53125"/>
       <use xlink:href="#ArialMT-61" x="250.146484"/>
       <use xlink:href="#ArialMT-72" x="305.761719"/>
       <use xlink:href="#ArialMT-6d" x="339.0625"/>
      </g>
     </g>
    </g>
    <g id="xtick_5">
     <g id="line2d_5">
      <path d="M 1358.836648 1670.4 
L 1358.836648 7.2 
" clip-path="url(#p8740ed59dd)" style="fill: none; stroke: #ffffff; stroke-linecap: round"/>
     </g>
     <g id="text_5">
      <!-- face -->
      <g style="fill: #262626" transform="translate(1373.055007 1783.85) rotate(-90) scale(0.55 -0.55)">
       <defs>
        <path id="ArialMT-63" d="M 2588 1216 
L 3141 1144 
Q 3050 572 2676 248 
Q 2303 -75 1759 -75 
Q 1078 -75 664 370 
Q 250 816 250 1647 
Q 250 2184 428 2587 
Q 606 2991 970 3192 
Q 1334 3394 1763 3394 
Q 2303 3394 2647 3120 
Q 2991 2847 3088 2344 
L 2541 2259 
Q 2463 2594 2264 2762 
Q 2066 2931 1784 2931 
Q 1359 2931 1093 2626 
Q 828 2322 828 1663 
Q 828 994 1084 691 
Q 1341 388 1753 388 
Q 2084 388 2306 591 
Q 2528 794 2588 1216 
z
" transform="scale(0.015625)"/>
       </defs>
       <use xlink:href="#ArialMT-66"/>
       <use xlink:href="#ArialMT-61" x="27.783203"/>
       <use xlink:href="#ArialMT-63" x="83.398438"/>
       <use xlink:href="#ArialMT-65" x="133.398438"/>
      </g>
     </g>
    </g>
    <g id="xtick_6">
     <g id="line2d_6">
      <path d="M 1587.109375 1670.4 
L 1587.109375 7.2 
" clip-path="url(#p8740ed59dd)" style="fill: none; stroke: #ffffff; stroke-linecap: round"/>
     </g>
     <g id="text_6">
      <!-- directivity -->
      <g style="fill: #262626" transform="translate(1601.005469 1909.103906) rotate(-90) scale(0.55 -0.55)">
       <defs>
        <path id="ArialMT-76" d="M 1344 0 
L 81 3319 
L 675 3319 
L 1388 1331 
Q 1503 1009 1600 663 
Q 1675 925 1809 1294 
L 2547 3319 
L 3125 3319 
L 1869 0 
L 1344 0 
z
" transform="scale(0.015625)"/>
        <path id="ArialMT-79" d="M 397 -1278 
L 334 -750 
Q 519 -800 656 -800 
Q 844 -800 956 -737 
Q 1069 -675 1141 -563 
Q 1194 -478 1313 -144 
Q 1328 -97 1363 -6 
L 103 3319 
L 709 3319 
L 1400 1397 
Q 1534 1031 1641 628 
Q 1738 1016 1872 1384 
L 2581 3319 
L 3144 3319 
L 1881 -56 
Q 1678 -603 1566 -809 
Q 1416 -1088 1222 -1217 
Q 1028 -1347 759 -1347 
Q 597 -1347 397 -1278 
z
" transform="scale(0.015625)"/>
       </defs>
       <use xlink:href="#ArialMT-64"/>
       <use xlink:href="#ArialMT-69" x="55.615234"/>
       <use xlink:href="#ArialMT-72" x="77.832031"/>
       <use xlink:href="#ArialMT-65" x="111.132812"/>
       <use xlink:href="#ArialMT-63" x="166.748047"/>
       <use xlink:href="#ArialMT-74" x="216.748047"/>
       <use xlink:href="#ArialMT-69" x="244.53125"/>
       <use xlink:href="#ArialMT-76" x="266.748047"/>
       <use xlink:href="#ArialMT-69" x="316.748047"/>
       <use xlink:href="#ArialMT-74" x="338.964844"/>
       <use xlink:href="#ArialMT-79" x="366.748047"/>
      </g>
     </g>
    </g>
    <g id="xtick_7">
     <g id="line2d_7">
      <path d="M 1815.382102 1670.4 
L 1815.382102 7.2 
" clip-path="url(#p8740ed59dd)" style="fill: none; stroke: #ffffff; stroke-linecap: round"/>
     </g>
     <g id="text_7">
      <!-- trajectory -->
      <g style="fill: #262626" transform="translate(1829.278196 1906.061719) rotate(-90) scale(0.55 -0.55)">
       <defs>
        <path id="ArialMT-6a" d="M 419 3928 
L 419 4581 
L 981 4581 
L 981 3928 
L 419 3928 
z
M -294 -1288 
L -188 -809 
Q -19 -853 78 -853 
Q 250 -853 334 -739 
Q 419 -625 419 -169 
L 419 3319 
L 981 3319 
L 981 -181 
Q 981 -794 822 -1034 
Q 619 -1347 147 -1347 
Q -81 -1347 -294 -1288 
z
" transform="scale(0.015625)"/>
        <path id="ArialMT-6f" d="M 213 1659 
Q 213 2581 725 3025 
Q 1153 3394 1769 3394 
Q 2453 3394 2887 2945 
Q 3322 2497 3322 1706 
Q 3322 1066 3130 698 
Q 2938 331 2570 128 
Q 2203 -75 1769 -75 
Q 1072 -75 642 372 
Q 213 819 213 1659 
z
M 791 1659 
Q 791 1022 1069 705 
Q 1347 388 1769 388 
Q 2188 388 2466 706 
Q 2744 1025 2744 1678 
Q 2744 2294 2464 2611 
Q 2184 2928 1769 2928 
Q 1347 2928 1069 2612 
Q 791 2297 791 1659 
z
" transform="scale(0.015625)"/>
       </defs>
       <use xlink:href="#ArialMT-74"/>
       <use xlink:href="#ArialMT-72" x="27.783203"/>
       <use xlink:href="#ArialMT-61" x="61.083984"/>
       <use xlink:href="#ArialMT-6a" x="116.699219"/>
       <use xlink:href="#ArialMT-65" x="138.916016"/>
       <use xlink:href="#ArialMT-63" x="194.53125"/>
       <use xlink:href="#ArialMT-74" x="244.53125"/>
       <use xlink:href="#ArialMT-6f" x="272.314453"/>
       <use xlink:href="#ArialMT-72" x="327.929688"/>
       <use xlink:href="#ArialMT-79" x="361.230469"/>
      </g>
     </g>
    </g>
    <g id="xtick_8">
     <g id="line2d_8">
      <path d="M 2043.65483 1670.4 
L 2043.65483 7.2 
" clip-path="url(#p8740ed59dd)" style="fill: none; stroke: #ffffff; stroke-linecap: round"/>
     </g>
     <g id="text_8">
      <!-- left_leg -->
      <g style="fill: #262626" transform="translate(2057.88608 1857.240625) rotate(-90) scale(0.55 -0.55)">
       <use xlink:href="#ArialMT-6c"/>
       <use xlink:href="#ArialMT-65" x="22.216797"/>
       <use xlink:href="#ArialMT-66" x="77.832031"/>
       <use xlink:href="#ArialMT-74" x="105.615234"/>
       <use xlink:href="#ArialMT-5f" x="133.398438"/>
       <use xlink:href="#ArialMT-6c" x="189.013672"/>
       <use xlink:href="#ArialMT-65" x="211.230469"/>
       <use xlink:href="#ArialMT-67" x="266.845703"/>
      </g>
     </g>
    </g>
    <g id="xtick_9">
     <g id="line2d_9">
      <path d="M 2271.927557 1670.4 
L 2271.927557 7.2 
" clip-path="url(#p8740ed59dd)" style="fill: none; stroke: #ffffff; stroke-linecap: round"/>
     </g>
     <g id="text_9">
      <!-- right_leg -->
      <g style="fill: #262626" transform="translate(2285.823651 1890.859375) rotate(-90) scale(0.55 -0.55)">
       <use xlink:href="#ArialMT-72"/>
       <use xlink:href="#ArialMT-69" x="33.300781"/>
       <use xlink:href="#ArialMT-67" x="55.517578"/>
       <use xlink:href="#ArialMT-68" x="111.132812"/>
       <use xlink:href="#ArialMT-74" x="166.748047"/>
       <use xlink:href="#ArialMT-5f" x="194.53125"/>
       <use xlink:href="#ArialMT-6c" x="250.146484"/>
       <use xlink:href="#ArialMT-65" x="272.363281"/>
       <use xlink:href="#ArialMT-67" x="327.978516"/>
      </g>
     </g>
    </g>
    <g id="xtick_10">
     <g id="line2d_10">
      <path d="M 2500.200284 1670.4 
L 2500.200284 7.2 
" clip-path="url(#p8740ed59dd)" style="fill: none; stroke: #ffffff; stroke-linecap: round"/>
     </g>
     <g id="text_10">
      <!-- hypertension -->
      <g style="fill: #262626" transform="translate(2514.096378 1994.809375) rotate(-90) scale(0.55 -0.55)">
       <defs>
        <path id="ArialMT-70" d="M 422 -1272 
L 422 3319 
L 934 3319 
L 934 2888 
Q 1116 3141 1344 3267 
Q 1572 3394 1897 3394 
Q 2322 3394 2647 3175 
Q 2972 2956 3137 2557 
Q 3303 2159 3303 1684 
Q 3303 1175 3120 767 
Q 2938 359 2589 142 
Q 2241 -75 1856 -75 
Q 1575 -75 1351 44 
Q 1128 163 984 344 
L 984 -1272 
L 422 -1272 
z
M 931 1641 
Q 931 1000 1190 694 
Q 1450 388 1819 388 
Q 2194 388 2461 705 
Q 2728 1022 2728 1688 
Q 2728 2322 2467 2637 
Q 2206 2953 1844 2953 
Q 1484 2953 1207 2617 
Q 931 2281 931 1641 
z
" transform="scale(0.015625)"/>
        <path id="ArialMT-73" d="M 197 991 
L 753 1078 
Q 800 744 1014 566 
Q 1228 388 1613 388 
Q 2000 388 2187 545 
Q 2375 703 2375 916 
Q 2375 1106 2209 1216 
Q 2094 1291 1634 1406 
Q 1016 1563 777 1677 
Q 538 1791 414 1992 
Q 291 2194 291 2438 
Q 291 2659 392 2848 
Q 494 3038 669 3163 
Q 800 3259 1026 3326 
Q 1253 3394 1513 3394 
Q 1903 3394 2198 3281 
Q 2494 3169 2634 2976 
Q 2775 2784 2828 2463 
L 2278 2388 
Q 2241 2644 2061 2787 
Q 1881 2931 1553 2931 
Q 1166 2931 1000 2803 
Q 834 2675 834 2503 
Q 834 2394 903 2306 
Q 972 2216 1119 2156 
Q 1203 2125 1616 2013 
Q 2213 1853 2448 1751 
Q 2684 1650 2818 1456 
Q 2953 1263 2953 975 
Q 2953 694 2789 445 
Q 2625 197 2315 61 
Q 2006 -75 1616 -75 
Q 969 -75 630 194 
Q 291 463 197 991 
z
" transform="scale(0.015625)"/>
       </defs>
       <use xlink:href="#ArialMT-68"/>
       <use xlink:href="#ArialMT-79" x="55.615234"/>
       <use xlink:href="#ArialMT-70" x="105.615234"/>
       <use xlink:href="#ArialMT-65" x="161.230469"/>
       <use xlink:href="#ArialMT-72" x="216.845703"/>
       <use xlink:href="#ArialMT-74" x="250.146484"/>
       <use xlink:href="#ArialMT-65" x="277.929688"/>
       <use xlink:href="#ArialMT-6e" x="333.544922"/>
       <use xlink:href="#ArialMT-73" x="389.160156"/>
       <use xlink:href="#ArialMT-69" x="439.160156"/>
       <use xlink:href="#ArialMT-6f" x="461.376953"/>
       <use xlink:href="#ArialMT-6e" x="516.992188"/>
      </g>
     </g>
    </g>
    <g id="xtick_11">
     <g id="line2d_11">
      <path d="M 2728.473011 1670.4 
L 2728.473011 7.2 
" clip-path="url(#p8740ed59dd)" style="fill: none; stroke: #ffffff; stroke-linecap: round"/>
     </g>
     <g id="text_11">
      <!-- labels -->
      <g style="fill: #262626" transform="translate(2742.691371 1823.596094) rotate(-90) scale(0.55 -0.55)">
       <defs>
        <path id="ArialMT-62" d="M 941 0 
L 419 0 
L 419 4581 
L 981 4581 
L 981 2947 
Q 1338 3394 1891 3394 
Q 2197 3394 2470 3270 
Q 2744 3147 2920 2923 
Q 3097 2700 3197 2384 
Q 3297 2069 3297 1709 
Q 3297 856 2875 390 
Q 2453 -75 1863 -75 
Q 1275 -75 941 416 
L 941 0 
z
M 934 1684 
Q 934 1088 1097 822 
Q 1363 388 1816 388 
Q 2184 388 2453 708 
Q 2722 1028 2722 1663 
Q 2722 2313 2464 2622 
Q 2206 2931 1841 2931 
Q 1472 2931 1203 2611 
Q 934 2291 934 1684 
z
" transform="scale(0.015625)"/>
       </defs>
       <use xlink:href="#ArialMT-6c"/>
       <use xlink:href="#ArialMT-61" x="22.216797"/>
       <use xlink:href="#ArialMT-62" x="77.832031"/>
       <use xlink:href="#ArialMT-65" x="133.447266"/>
       <use xlink:href="#ArialMT-6c" x="189.0625"/>
       <use xlink:href="#ArialMT-73" x="211.279297"/>
      </g>
     </g>
    </g>
   </g>
   <g id="matplotlib.axis_2">
    <g id="ytick_1">
     <g id="line2d_12">
      <path d="M 331.609375 82.8 
L 2842.609375 82.8 
" clip-path="url(#p8740ed59dd)" style="fill: none; stroke: #ffffff; stroke-linecap: round"/>
     </g>
     <g id="text_12">
      <!-- age -->
      <g style="fill: #262626" transform="translate(230.353906 96.373828) scale(0.55 -0.55)">
       <use xlink:href="#ArialMT-61"/>
       <use xlink:href="#ArialMT-67" x="55.615234"/>
       <use xlink:href="#ArialMT-65" x="111.230469"/>
      </g>
     </g>
    </g>
    <g id="ytick_2">
     <g id="line2d_13">
      <path d="M 331.609375 234 
L 2842.609375 234 
" clip-path="url(#p8740ed59dd)" style="fill: none; stroke: #ffffff; stroke-linecap: round"/>
     </g>
     <g id="text_13">
      <!-- gender -->
      <g style="fill: #262626" transform="translate(150.870312 247.896094) scale(0.55 -0.55)">
       <use xlink:href="#ArialMT-67"/>
       <use xlink:href="#ArialMT-65" x="55.615234"/>
       <use xlink:href="#ArialMT-6e" x="111.230469"/>
       <use xlink:href="#ArialMT-64" x="166.845703"/>
       <use xlink:href="#ArialMT-65" x="222.460938"/>
       <use xlink:href="#ArialMT-72" x="278.076172"/>
      </g>
     </g>
    </g>
    <g id="ytick_3">
     <g id="line2d_14">
      <path d="M 331.609375 385.2 
L 2842.609375 385.2 
" clip-path="url(#p8740ed59dd)" style="fill: none; stroke: #ffffff; stroke-linecap: round"/>
     </g>
     <g id="text_14">
      <!-- left_arm -->
      <g style="fill: #262626" transform="translate(123.447656 399.753516) scale(0.55 -0.55)">
       <use xlink:href="#ArialMT-6c"/>
       <use xlink:href="#ArialMT-65" x="22.216797"/>
       <use xlink:href="#ArialMT-66" x="77.832031"/>
       <use xlink:href="#ArialMT-74" x="105.615234"/>
       <use xlink:href="#ArialMT-5f" x="133.398438"/>
       <use xlink:href="#ArialMT-61" x="189.013672"/>
       <use xlink:href="#ArialMT-72" x="244.628906"/>
       <use xlink:href="#ArialMT-6d" x="277.929688"/>
      </g>
     </g>
    </g>
    <g id="ytick_4">
     <g id="line2d_15">
      <path d="M 331.609375 536.4 
L 2842.609375 536.4 
" clip-path="url(#p8740ed59dd)" style="fill: none; stroke: #ffffff; stroke-linecap: round"/>
     </g>
     <g id="text_15">
      <!-- right_arm -->
      <g style="fill: #262626" transform="translate(89.828906 550.296094) scale(0.55 -0.55)">
       <use xlink:href="#ArialMT-72"/>
       <use xlink:href="#ArialMT-69" x="33.300781"/>
       <use xlink:href="#ArialMT-67" x="55.517578"/>
       <use xlink:href="#ArialMT-68" x="111.132812"/>
       <use xlink:href="#ArialMT-74" x="166.748047"/>
       <use xlink:href="#ArialMT-5f" x="194.53125"/>
       <use xlink:href="#ArialMT-61" x="250.146484"/>
       <use xlink:href="#ArialMT-72" x="305.761719"/>
       <use xlink:href="#ArialMT-6d" x="339.0625"/>
      </g>
     </g>
    </g>
    <g id="ytick_5">
     <g id="line2d_16">
      <path d="M 331.609375 687.6 
L 2842.609375 687.6 
" clip-path="url(#p8740ed59dd)" style="fill: none; stroke: #ffffff; stroke-linecap: round"/>
     </g>
     <g id="text_16">
      <!-- face -->
      <g style="fill: #262626" transform="translate(218.159375 701.818359) scale(0.55 -0.55)">
       <use xlink:href="#ArialMT-66"/>
       <use xlink:href="#ArialMT-61" x="27.783203"/>
       <use xlink:href="#ArialMT-63" x="83.398438"/>
       <use xlink:href="#ArialMT-65" x="133.398438"/>
      </g>
     </g>
    </g>
    <g id="ytick_6">
     <g id="line2d_17">
      <path d="M 331.609375 838.8 
L 2842.609375 838.8 
" clip-path="url(#p8740ed59dd)" style="fill: none; stroke: #ffffff; stroke-linecap: round"/>
     </g>
     <g id="text_17">
      <!-- directivity -->
      <g style="fill: #262626" transform="translate(92.905469 852.696094) scale(0.55 -0.55)">
       <use xlink:href="#ArialMT-64"/>
       <use xlink:href="#ArialMT-69" x="55.615234"/>
       <use xlink:href="#ArialMT-72" x="77.832031"/>
       <use xlink:href="#ArialMT-65" x="111.132812"/>
       <use xlink:href="#ArialMT-63" x="166.748047"/>
       <use xlink:href="#ArialMT-74" x="216.748047"/>
       <use xlink:href="#ArialMT-69" x="244.53125"/>
       <use xlink:href="#ArialMT-76" x="266.748047"/>
       <use xlink:href="#ArialMT-69" x="316.748047"/>
       <use xlink:href="#ArialMT-74" x="338.964844"/>
       <use xlink:href="#ArialMT-79" x="366.748047"/>
      </g>
     </g>
    </g>
    <g id="ytick_7">
     <g id="line2d_18">
      <path d="M 331.609375 990 
L 2842.609375 990 
" clip-path="url(#p8740ed59dd)" style="fill: none; stroke: #ffffff; stroke-linecap: round"/>
     </g>
     <g id="text_18">
      <!-- trajectory -->
      <g style="fill: #262626" transform="translate(95.947656 1003.896094) scale(0.55 -0.55)">
       <use xlink:href="#ArialMT-74"/>
       <use xlink:href="#ArialMT-72" x="27.783203"/>
       <use xlink:href="#ArialMT-61" x="61.083984"/>
       <use xlink:href="#ArialMT-6a" x="116.699219"/>
       <use xlink:href="#ArialMT-65" x="138.916016"/>
       <use xlink:href="#ArialMT-63" x="194.53125"/>
       <use xlink:href="#ArialMT-74" x="244.53125"/>
       <use xlink:href="#ArialMT-6f" x="272.314453"/>
       <use xlink:href="#ArialMT-72" x="327.929688"/>
       <use xlink:href="#ArialMT-79" x="361.230469"/>
      </g>
     </g>
    </g>
    <g id="ytick_8">
     <g id="line2d_19">
      <path d="M 331.609375 1141.2 
L 2842.609375 1141.2 
" clip-path="url(#p8740ed59dd)" style="fill: none; stroke: #ffffff; stroke-linecap: round"/>
     </g>
     <g id="text_19">
      <!-- left_leg -->
      <g style="fill: #262626" transform="translate(144.76875 1155.43125) scale(0.55 -0.55)">
       <use xlink:href="#ArialMT-6c"/>
       <use xlink:href="#ArialMT-65" x="22.216797"/>
       <use xlink:href="#ArialMT-66" x="77.832031"/>
       <use xlink:href="#ArialMT-74" x="105.615234"/>
       <use xlink:href="#ArialMT-5f" x="133.398438"/>
       <use xlink:href="#ArialMT-6c" x="189.013672"/>
       <use xlink:href="#ArialMT-65" x="211.230469"/>
       <use xlink:href="#ArialMT-67" x="266.845703"/>
      </g>
     </g>
    </g>
    <g id="ytick_9">
     <g id="line2d_20">
      <path d="M 331.609375 1292.4 
L 2842.609375 1292.4 
" clip-path="url(#p8740ed59dd)" style="fill: none; stroke: #ffffff; stroke-linecap: round"/>
     </g>
     <g id="text_20">
      <!-- right_leg -->
      <g style="fill: #262626" transform="translate(111.15 1306.296094) scale(0.55 -0.55)">
       <use xlink:href="#ArialMT-72"/>
       <use xlink:href="#ArialMT-69" x="33.300781"/>
       <use xlink:href="#ArialMT-67" x="55.517578"/>
       <use xlink:href="#ArialMT-68" x="111.132812"/>
       <use xlink:href="#ArialMT-74" x="166.748047"/>
       <use xlink:href="#ArialMT-5f" x="194.53125"/>
       <use xlink:href="#ArialMT-6c" x="250.146484"/>
       <use xlink:href="#ArialMT-65" x="272.363281"/>
       <use xlink:href="#ArialMT-67" x="327.978516"/>
      </g>
     </g>
    </g>
    <g id="ytick_10">
     <g id="line2d_21">
      <path d="M 331.609375 1443.6 
L 2842.609375 1443.6 
" clip-path="url(#p8740ed59dd)" style="fill: none; stroke: #ffffff; stroke-linecap: round"/>
     </g>
     <g id="text_21">
      <!-- hypertension -->
      <g style="fill: #262626" transform="translate(7.2 1457.496094) scale(0.55 -0.55)">
       <use xlink:href="#ArialMT-68"/>
       <use xlink:href="#ArialMT-79" x="55.615234"/>
       <use xlink:href="#ArialMT-70" x="105.615234"/>
       <use xlink:href="#ArialMT-65" x="161.230469"/>
       <use xlink:href="#ArialMT-72" x="216.845703"/>
       <use xlink:href="#ArialMT-74" x="250.146484"/>
       <use xlink:href="#ArialMT-65" x="277.929688"/>
       <use xlink:href="#ArialMT-6e" x="333.544922"/>
       <use xlink:href="#ArialMT-73" x="389.160156"/>
       <use xlink:href="#ArialMT-69" x="439.160156"/>
       <use xlink:href="#ArialMT-6f" x="461.376953"/>
       <use xlink:href="#ArialMT-6e" x="516.992188"/>
      </g>
     </g>
    </g>
    <g id="ytick_11">
     <g id="line2d_22">
      <path d="M 331.609375 1594.8 
L 2842.609375 1594.8 
" clip-path="url(#p8740ed59dd)" style="fill: none; stroke: #ffffff; stroke-linecap: round"/>
     </g>
     <g id="text_22">
      <!-- labels -->
      <g style="fill: #262626" transform="translate(178.413281 1609.018359) scale(0.55 -0.55)">
       <use xlink:href="#ArialMT-6c"/>
       <use xlink:href="#ArialMT-61" x="22.216797"/>
       <use xlink:href="#ArialMT-62" x="77.832031"/>
       <use xlink:href="#ArialMT-65" x="133.447266"/>
       <use xlink:href="#ArialMT-6c" x="189.0625"/>
       <use xlink:href="#ArialMT-73" x="211.279297"/>
      </g>
     </g>
    </g>
   </g>
   <g id="QuadMesh_1">
    <path d="M 331.609375 7.2 
L 559.882102 7.2 
L 559.882102 158.4 
L 331.609375 158.4 
L 331.609375 7.2 
" clip-path="url(#p8740ed59dd)" style="fill: #faebdd"/>
    <path d="M 559.882102 7.2 
L 788.15483 7.2 
L 788.15483 158.4 
L 559.882102 158.4 
L 559.882102 7.2 
" clip-path="url(#p8740ed59dd)" style="fill: #681f55"/>
    <path d="M 788.15483 7.2 
L 1016.427557 7.2 
L 1016.427557 158.4 
L 788.15483 158.4 
L 788.15483 7.2 
" clip-path="url(#p8740ed59dd)" style="fill: #581e4f"/>
    <path d="M 1016.427557 7.2 
L 1244.700284 7.2 
L 1244.700284 158.4 
L 1016.427557 158.4 
L 1016.427557 7.2 
" clip-path="url(#p8740ed59dd)" style="fill: #6d1f56"/>
    <path d="M 1244.700284 7.2 
L 1472.973011 7.2 
L 1472.973011 158.4 
L 1244.700284 158.4 
L 1244.700284 7.2 
" clip-path="url(#p8740ed59dd)" style="fill: #591e50"/>
    <path d="M 1472.973011 7.2 
L 1701.245739 7.2 
L 1701.245739 158.4 
L 1472.973011 158.4 
L 1472.973011 7.2 
" clip-path="url(#p8740ed59dd)" style="fill: #531e4d"/>
    <path d="M 1701.245739 7.2 
L 1929.518466 7.2 
L 1929.518466 158.4 
L 1701.245739 158.4 
L 1701.245739 7.2 
" clip-path="url(#p8740ed59dd)" style="fill: #631f53"/>
    <path d="M 1929.518466 7.2 
L 2157.791193 7.2 
L 2157.791193 158.4 
L 1929.518466 158.4 
L 1929.518466 7.2 
" clip-path="url(#p8740ed59dd)" style="fill: #3f1b43"/>
    <path d="M 2157.791193 7.2 
L 2386.06392 7.2 
L 2386.06392 158.4 
L 2157.791193 158.4 
L 2157.791193 7.2 
" clip-path="url(#p8740ed59dd)" style="fill: #5b1e51"/>
    <path d="M 2386.06392 7.2 
L 2614.336648 7.2 
L 2614.336648 158.4 
L 2386.06392 158.4 
L 2386.06392 7.2 
" clip-path="url(#p8740ed59dd)" style="fill: #b41658"/>
    <path d="M 2614.336648 7.2 
L 2842.609375 7.2 
L 2842.609375 158.4 
L 2614.336648 158.4 
L 2614.336648 7.2 
" clip-path="url(#p8740ed59dd)" style="fill: #c81951"/>
    <path d="M 331.609375 158.4 
L 559.882102 158.4 
L 559.882102 309.6 
L 331.609375 309.6 
L 331.609375 158.4 
" clip-path="url(#p8740ed59dd)" style="fill: #681f55"/>
    <path d="M 559.882102 158.4 
L 788.15483 158.4 
L 788.15483 309.6 
L 559.882102 309.6 
L 559.882102 158.4 
" clip-path="url(#p8740ed59dd)" style="fill: #faebdd"/>
    <path d="M 788.15483 158.4 
L 1016.427557 158.4 
L 1016.427557 309.6 
L 788.15483 309.6 
L 788.15483 158.4 
" clip-path="url(#p8740ed59dd)" style="fill: #611f53"/>
    <path d="M 1016.427557 158.4 
L 1244.700284 158.4 
L 1244.700284 309.6 
L 1016.427557 309.6 
L 1016.427557 158.4 
" clip-path="url(#p8740ed59dd)" style="fill: #581e4f"/>
    <path d="M 1244.700284 158.4 
L 1472.973011 158.4 
L 1472.973011 309.6 
L 1244.700284 309.6 
L 1244.700284 158.4 
" clip-path="url(#p8740ed59dd)" style="fill: #4c1d4b"/>
    <path d="M 1472.973011 158.4 
L 1701.245739 158.4 
L 1701.245739 309.6 
L 1472.973011 309.6 
L 1472.973011 158.4 
" clip-path="url(#p8740ed59dd)" style="fill: #5c1e51"/>
    <path d="M 1701.245739 158.4 
L 1929.518466 158.4 
L 1929.518466 309.6 
L 1701.245739 309.6 
L 1701.245739 158.4 
" clip-path="url(#p8740ed59dd)" style="fill: #681f55"/>
    <path d="M 1929.518466 158.4 
L 2157.791193 158.4 
L 2157.791193 309.6 
L 1929.518466 309.6 
L 1929.518466 158.4 
" clip-path="url(#p8740ed59dd)" style="fill: #5e1f52"/>
    <path d="M 2157.791193 158.4 
L 2386.06392 158.4 
L 2386.06392 309.6 
L 2157.791193 309.6 
L 2157.791193 158.4 
" clip-path="url(#p8740ed59dd)" style="fill: #5e1f52"/>
    <path d="M 2386.06392 158.4 
L 2614.336648 158.4 
L 2614.336648 309.6 
L 2386.06392 309.6 
L 2386.06392 158.4 
" clip-path="url(#p8740ed59dd)" style="fill: #8c1d5b"/>
    <path d="M 2614.336648 158.4 
L 2842.609375 158.4 
L 2842.609375 309.6 
L 2614.336648 309.6 
L 2614.336648 158.4 
" clip-path="url(#p8740ed59dd)" style="fill: #b21758"/>
    <path d="M 331.609375 309.6 
L 559.882102 309.6 
L 559.882102 460.8 
L 331.609375 460.8 
L 331.609375 309.6 
" clip-path="url(#p8740ed59dd)" style="fill: #581e4f"/>
    <path d="M 559.882102 309.6 
L 788.15483 309.6 
L 788.15483 460.8 
L 559.882102 460.8 
L 559.882102 309.6 
" clip-path="url(#p8740ed59dd)" style="fill: #611f53"/>
    <path d="M 788.15483 309.6 
L 1016.427557 309.6 
L 1016.427557 460.8 
L 788.15483 460.8 
L 788.15483 309.6 
" clip-path="url(#p8740ed59dd)" style="fill: #faebdd"/>
    <path d="M 1016.427557 309.6 
L 1244.700284 309.6 
L 1244.700284 460.8 
L 1016.427557 460.8 
L 1016.427557 309.6 
" clip-path="url(#p8740ed59dd)" style="fill: #581e4f"/>
    <path d="M 1244.700284 309.6 
L 1472.973011 309.6 
L 1472.973011 460.8 
L 1244.700284 460.8 
L 1244.700284 309.6 
" clip-path="url(#p8740ed59dd)" style="fill: #971c5b"/>
    <path d="M 1472.973011 309.6 
L 1701.245739 309.6 
L 1701.245739 460.8 
L 1472.973011 460.8 
L 1472.973011 309.6 
" clip-path="url(#p8740ed59dd)" style="fill: #a6195a"/>
    <path d="M 1701.245739 309.6 
L 1929.518466 309.6 
L 1929.518466 460.8 
L 1701.245739 460.8 
L 1701.245739 309.6 
" clip-path="url(#p8740ed59dd)" style="fill: #a11a5b"/>
    <path d="M 1929.518466 309.6 
L 2157.791193 309.6 
L 2157.791193 460.8 
L 1929.518466 460.8 
L 1929.518466 309.6 
" clip-path="url(#p8740ed59dd)" style="fill: #ee543f"/>
    <path d="M 2157.791193 309.6 
L 2386.06392 309.6 
L 2386.06392 460.8 
L 2157.791193 460.8 
L 2157.791193 309.6 
" clip-path="url(#p8740ed59dd)" style="fill: #4c1d4b"/>
    <path d="M 2386.06392 309.6 
L 2614.336648 309.6 
L 2614.336648 460.8 
L 2386.06392 460.8 
L 2386.06392 309.6 
" clip-path="url(#p8740ed59dd)" style="fill: #501d4c"/>
    <path d="M 2614.336648 309.6 
L 2842.609375 309.6 
L 2842.609375 460.8 
L 2614.336648 460.8 
L 2614.336648 309.6 
" clip-path="url(#p8740ed59dd)" style="fill: #33183c"/>
    <path d="M 331.609375 460.8 
L 559.882102 460.8 
L 559.882102 612 
L 331.609375 612 
L 331.609375 460.8 
" clip-path="url(#p8740ed59dd)" style="fill: #6d1f56"/>
    <path d="M 559.882102 460.8 
L 788.15483 460.8 
L 788.15483 612 
L 559.882102 612 
L 559.882102 460.8 
" clip-path="url(#p8740ed59dd)" style="fill: #581e4f"/>
    <path d="M 788.15483 460.8 
L 1016.427557 460.8 
L 1016.427557 612 
L 788.15483 612 
L 788.15483 460.8 
" clip-path="url(#p8740ed59dd)" style="fill: #581e4f"/>
    <path d="M 1016.427557 460.8 
L 1244.700284 460.8 
L 1244.700284 612 
L 1016.427557 612 
L 1016.427557 460.8 
" clip-path="url(#p8740ed59dd)" style="fill: #faebdd"/>
    <path d="M 1244.700284 460.8 
L 1472.973011 460.8 
L 1472.973011 612 
L 1244.700284 612 
L 1244.700284 460.8 
" clip-path="url(#p8740ed59dd)" style="fill: #7a1f59"/>
    <path d="M 1472.973011 460.8 
L 1701.245739 460.8 
L 1701.245739 612 
L 1472.973011 612 
L 1472.973011 460.8 
" clip-path="url(#p8740ed59dd)" style="fill: #951c5b"/>
    <path d="M 1701.245739 460.8 
L 1929.518466 460.8 
L 1929.518466 612 
L 1701.245739 612 
L 1701.245739 460.8 
" clip-path="url(#p8740ed59dd)" style="fill: #ba1656"/>
    <path d="M 1929.518466 460.8 
L 2157.791193 460.8 
L 2157.791193 612 
L 1929.518466 612 
L 1929.518466 460.8 
" clip-path="url(#p8740ed59dd)" style="fill: #531e4d"/>
    <path d="M 2157.791193 460.8 
L 2386.06392 460.8 
L 2386.06392 612 
L 2157.791193 612 
L 2157.791193 460.8 
" clip-path="url(#p8740ed59dd)" style="fill: #f05c42"/>
    <path d="M 2386.06392 460.8 
L 2614.336648 460.8 
L 2614.336648 612 
L 2386.06392 612 
L 2386.06392 460.8 
" clip-path="url(#p8740ed59dd)" style="fill: #5e1f52"/>
    <path d="M 2614.336648 460.8 
L 2842.609375 460.8 
L 2842.609375 612 
L 2614.336648 612 
L 2614.336648 460.8 
" clip-path="url(#p8740ed59dd)" style="fill: #37193f"/>
    <path d="M 331.609375 612 
L 559.882102 612 
L 559.882102 763.2 
L 331.609375 763.2 
L 331.609375 612 
" clip-path="url(#p8740ed59dd)" style="fill: #591e50"/>
    <path d="M 559.882102 612 
L 788.15483 612 
L 788.15483 763.2 
L 559.882102 763.2 
L 559.882102 612 
" clip-path="url(#p8740ed59dd)" style="fill: #4c1d4b"/>
    <path d="M 788.15483 612 
L 1016.427557 612 
L 1016.427557 763.2 
L 788.15483 763.2 
L 788.15483 612 
" clip-path="url(#p8740ed59dd)" style="fill: #971c5b"/>
    <path d="M 1016.427557 612 
L 1244.700284 612 
L 1244.700284 763.2 
L 1016.427557 763.2 
L 1016.427557 612 
" clip-path="url(#p8740ed59dd)" style="fill: #7a1f59"/>
    <path d="M 1244.700284 612 
L 1472.973011 612 
L 1472.973011 763.2 
L 1244.700284 763.2 
L 1244.700284 612 
" clip-path="url(#p8740ed59dd)" style="fill: #faebdd"/>
    <path d="M 1472.973011 612 
L 1701.245739 612 
L 1701.245739 763.2 
L 1472.973011 763.2 
L 1472.973011 612 
" clip-path="url(#p8740ed59dd)" style="fill: #861e5b"/>
    <path d="M 1701.245739 612 
L 1929.518466 612 
L 1929.518466 763.2 
L 1701.245739 763.2 
L 1701.245739 612 
" clip-path="url(#p8740ed59dd)" style="fill: #a4195b"/>
    <path d="M 1929.518466 612 
L 2157.791193 612 
L 2157.791193 763.2 
L 1929.518466 763.2 
L 1929.518466 612 
" clip-path="url(#p8740ed59dd)" style="fill: #8e1d5b"/>
    <path d="M 2157.791193 612 
L 2386.06392 612 
L 2386.06392 763.2 
L 2157.791193 763.2 
L 2157.791193 612 
" clip-path="url(#p8740ed59dd)" style="fill: #841e5a"/>
    <path d="M 2386.06392 612 
L 2614.336648 612 
L 2614.336648 763.2 
L 2386.06392 763.2 
L 2386.06392 612 
" clip-path="url(#p8740ed59dd)" style="fill: #5e1f52"/>
    <path d="M 2614.336648 612 
L 2842.609375 612 
L 2842.609375 763.2 
L 2614.336648 763.2 
L 2614.336648 612 
" clip-path="url(#p8740ed59dd)" style="fill: #160e27"/>
    <path d="M 331.609375 763.2 
L 559.882102 763.2 
L 559.882102 914.4 
L 331.609375 914.4 
L 331.609375 763.2 
" clip-path="url(#p8740ed59dd)" style="fill: #531e4d"/>
    <path d="M 559.882102 763.2 
L 788.15483 763.2 
L 788.15483 914.4 
L 559.882102 914.4 
L 559.882102 763.2 
" clip-path="url(#p8740ed59dd)" style="fill: #5c1e51"/>
    <path d="M 788.15483 763.2 
L 1016.427557 763.2 
L 1016.427557 914.4 
L 788.15483 914.4 
L 788.15483 763.2 
" clip-path="url(#p8740ed59dd)" style="fill: #a6195a"/>
    <path d="M 1016.427557 763.2 
L 1244.700284 763.2 
L 1244.700284 914.4 
L 1016.427557 914.4 
L 1016.427557 763.2 
" clip-path="url(#p8740ed59dd)" style="fill: #951c5b"/>
    <path d="M 1244.700284 763.2 
L 1472.973011 763.2 
L 1472.973011 914.4 
L 1244.700284 914.4 
L 1244.700284 763.2 
" clip-path="url(#p8740ed59dd)" style="fill: #861e5b"/>
    <path d="M 1472.973011 763.2 
L 1701.245739 763.2 
L 1701.245739 914.4 
L 1472.973011 914.4 
L 1472.973011 763.2 
" clip-path="url(#p8740ed59dd)" style="fill: #faebdd"/>
    <path d="M 1701.245739 763.2 
L 1929.518466 763.2 
L 1929.518466 914.4 
L 1701.245739 914.4 
L 1701.245739 763.2 
" clip-path="url(#p8740ed59dd)" style="fill: #ef5640"/>
    <path d="M 1929.518466 763.2 
L 2157.791193 763.2 
L 2157.791193 914.4 
L 1929.518466 914.4 
L 1929.518466 763.2 
" clip-path="url(#p8740ed59dd)" style="fill: #a4195b"/>
    <path d="M 2157.791193 763.2 
L 2386.06392 763.2 
L 2386.06392 914.4 
L 2157.791193 914.4 
L 2157.791193 763.2 
" clip-path="url(#p8740ed59dd)" style="fill: #a8185a"/>
    <path d="M 2386.06392 763.2 
L 2614.336648 763.2 
L 2614.336648 914.4 
L 2386.06392 914.4 
L 2386.06392 763.2 
" clip-path="url(#p8740ed59dd)" style="fill: #561e4f"/>
    <path d="M 2614.336648 763.2 
L 2842.609375 763.2 
L 2842.609375 914.4 
L 2614.336648 914.4 
L 2614.336648 763.2 
" clip-path="url(#p8740ed59dd)" style="fill: #03051a"/>
    <path d="M 331.609375 914.4 
L 559.882102 914.4 
L 559.882102 1065.6 
L 331.609375 1065.6 
L 331.609375 914.4 
" clip-path="url(#p8740ed59dd)" style="fill: #631f53"/>
    <path d="M 559.882102 914.4 
L 788.15483 914.4 
L 788.15483 1065.6 
L 559.882102 1065.6 
L 559.882102 914.4 
" clip-path="url(#p8740ed59dd)" style="fill: #681f55"/>
    <path d="M 788.15483 914.4 
L 1016.427557 914.4 
L 1016.427557 1065.6 
L 788.15483 1065.6 
L 788.15483 914.4 
" clip-path="url(#p8740ed59dd)" style="fill: #a11a5b"/>
    <path d="M 1016.427557 914.4 
L 1244.700284 914.4 
L 1244.700284 1065.6 
L 1016.427557 1065.6 
L 1016.427557 914.4 
" clip-path="url(#p8740ed59dd)" style="fill: #ba1656"/>
    <path d="M 1244.700284 914.4 
L 1472.973011 914.4 
L 1472.973011 1065.6 
L 1244.700284 1065.6 
L 1244.700284 914.4 
" clip-path="url(#p8740ed59dd)" style="fill: #a4195b"/>
    <path d="M 1472.973011 914.4 
L 1701.245739 914.4 
L 1701.245739 1065.6 
L 1472.973011 1065.6 
L 1472.973011 914.4 
" clip-path="url(#p8740ed59dd)" style="fill: #ef5640"/>
    <path d="M 1701.245739 914.4 
L 1929.518466 914.4 
L 1929.518466 1065.6 
L 1701.245739 1065.6 
L 1701.245739 914.4 
" clip-path="url(#p8740ed59dd)" style="fill: #faebdd"/>
    <path d="M 1929.518466 914.4 
L 2157.791193 914.4 
L 2157.791193 1065.6 
L 1929.518466 1065.6 
L 1929.518466 914.4 
" clip-path="url(#p8740ed59dd)" style="fill: #a6195a"/>
    <path d="M 2157.791193 914.4 
L 2386.06392 914.4 
L 2386.06392 1065.6 
L 2157.791193 1065.6 
L 2157.791193 914.4 
" clip-path="url(#p8740ed59dd)" style="fill: #c41753"/>
    <path d="M 2386.06392 914.4 
L 2614.336648 914.4 
L 2614.336648 1065.6 
L 2386.06392 1065.6 
L 2386.06392 914.4 
" clip-path="url(#p8740ed59dd)" style="fill: #561e4f"/>
    <path d="M 2614.336648 914.4 
L 2842.609375 914.4 
L 2842.609375 1065.6 
L 2614.336648 1065.6 
L 2614.336648 914.4 
" clip-path="url(#p8740ed59dd)" style="fill: #130d25"/>
    <path d="M 331.609375 1065.6 
L 559.882102 1065.6 
L 559.882102 1216.8 
L 331.609375 1216.8 
L 331.609375 1065.6 
" clip-path="url(#p8740ed59dd)" style="fill: #3f1b43"/>
    <path d="M 559.882102 1065.6 
L 788.15483 1065.6 
L 788.15483 1216.8 
L 559.882102 1216.8 
L 559.882102 1065.6 
" clip-path="url(#p8740ed59dd)" style="fill: #5e1f52"/>
    <path d="M 788.15483 1065.6 
L 1016.427557 1065.6 
L 1016.427557 1216.8 
L 788.15483 1216.8 
L 788.15483 1065.6 
" clip-path="url(#p8740ed59dd)" style="fill: #ee543f"/>
    <path d="M 1016.427557 1065.6 
L 1244.700284 1065.6 
L 1244.700284 1216.8 
L 1016.427557 1216.8 
L 1016.427557 1065.6 
" clip-path="url(#p8740ed59dd)" style="fill: #531e4d"/>
    <path d="M 1244.700284 1065.6 
L 1472.973011 1065.6 
L 1472.973011 1216.8 
L 1244.700284 1216.8 
L 1244.700284 1065.6 
" clip-path="url(#p8740ed59dd)" style="fill: #8e1d5b"/>
    <path d="M 1472.973011 1065.6 
L 1701.245739 1065.6 
L 1701.245739 1216.8 
L 1472.973011 1216.8 
L 1472.973011 1065.6 
" clip-path="url(#p8740ed59dd)" style="fill: #a4195b"/>
    <path d="M 1701.245739 1065.6 
L 1929.518466 1065.6 
L 1929.518466 1216.8 
L 1701.245739 1216.8 
L 1701.245739 1065.6 
" clip-path="url(#p8740ed59dd)" style="fill: #a6195a"/>
    <path d="M 1929.518466 1065.6 
L 2157.791193 1065.6 
L 2157.791193 1216.8 
L 1929.518466 1216.8 
L 1929.518466 1065.6 
" clip-path="url(#p8740ed59dd)" style="fill: #faebdd"/>
    <path d="M 2157.791193 1065.6 
L 2386.06392 1065.6 
L 2386.06392 1216.8 
L 2157.791193 1216.8 
L 2157.791193 1065.6 
" clip-path="url(#p8740ed59dd)" style="fill: #611f53"/>
    <path d="M 2386.06392 1065.6 
L 2614.336648 1065.6 
L 2614.336648 1216.8 
L 2386.06392 1216.8 
L 2386.06392 1065.6 
" clip-path="url(#p8740ed59dd)" style="fill: #601f52"/>
    <path d="M 2614.336648 1065.6 
L 2842.609375 1065.6 
L 2842.609375 1216.8 
L 2614.336648 1216.8 
L 2614.336648 1065.6 
" clip-path="url(#p8740ed59dd)" style="fill: #0b0920"/>
    <path d="M 331.609375 1216.8 
L 559.882102 1216.8 
L 559.882102 1368 
L 331.609375 1368 
L 331.609375 1216.8 
" clip-path="url(#p8740ed59dd)" style="fill: #5b1e51"/>
    <path d="M 559.882102 1216.8 
L 788.15483 1216.8 
L 788.15483 1368 
L 559.882102 1368 
L 559.882102 1216.8 
" clip-path="url(#p8740ed59dd)" style="fill: #5e1f52"/>
    <path d="M 788.15483 1216.8 
L 1016.427557 1216.8 
L 1016.427557 1368 
L 788.15483 1368 
L 788.15483 1216.8 
" clip-path="url(#p8740ed59dd)" style="fill: #4c1d4b"/>
    <path d="M 1016.427557 1216.8 
L 1244.700284 1216.8 
L 1244.700284 1368 
L 1016.427557 1368 
L 1016.427557 1216.8 
" clip-path="url(#p8740ed59dd)" style="fill: #f05c42"/>
    <path d="M 1244.700284 1216.8 
L 1472.973011 1216.8 
L 1472.973011 1368 
L 1244.700284 1368 
L 1244.700284 1216.8 
" clip-path="url(#p8740ed59dd)" style="fill: #841e5a"/>
    <path d="M 1472.973011 1216.8 
L 1701.245739 1216.8 
L 1701.245739 1368 
L 1472.973011 1368 
L 1472.973011 1216.8 
" clip-path="url(#p8740ed59dd)" style="fill: #a8185a"/>
    <path d="M 1701.245739 1216.8 
L 1929.518466 1216.8 
L 1929.518466 1368 
L 1701.245739 1368 
L 1701.245739 1216.8 
" clip-path="url(#p8740ed59dd)" style="fill: #c41753"/>
    <path d="M 1929.518466 1216.8 
L 2157.791193 1216.8 
L 2157.791193 1368 
L 1929.518466 1368 
L 1929.518466 1216.8 
" clip-path="url(#p8740ed59dd)" style="fill: #611f53"/>
    <path d="M 2157.791193 1216.8 
L 2386.06392 1216.8 
L 2386.06392 1368 
L 2157.791193 1368 
L 2157.791193 1216.8 
" clip-path="url(#p8740ed59dd)" style="fill: #faebdd"/>
    <path d="M 2386.06392 1216.8 
L 2614.336648 1216.8 
L 2614.336648 1368 
L 2386.06392 1368 
L 2386.06392 1216.8 
" clip-path="url(#p8740ed59dd)" style="fill: #501d4c"/>
    <path d="M 2614.336648 1216.8 
L 2842.609375 1216.8 
L 2842.609375 1368 
L 2614.336648 1368 
L 2614.336648 1216.8 
" clip-path="url(#p8740ed59dd)" style="fill: #1e122d"/>
    <path d="M 331.609375 1368 
L 559.882102 1368 
L 559.882102 1519.2 
L 331.609375 1519.2 
L 331.609375 1368 
" clip-path="url(#p8740ed59dd)" style="fill: #b41658"/>
    <path d="M 559.882102 1368 
L 788.15483 1368 
L 788.15483 1519.2 
L 559.882102 1519.2 
L 559.882102 1368 
" clip-path="url(#p8740ed59dd)" style="fill: #8c1d5b"/>
    <path d="M 788.15483 1368 
L 1016.427557 1368 
L 1016.427557 1519.2 
L 788.15483 1519.2 
L 788.15483 1368 
" clip-path="url(#p8740ed59dd)" style="fill: #501d4c"/>
    <path d="M 1016.427557 1368 
L 1244.700284 1368 
L 1244.700284 1519.2 
L 1016.427557 1519.2 
L 1016.427557 1368 
" clip-path="url(#p8740ed59dd)" style="fill: #5e1f52"/>
    <path d="M 1244.700284 1368 
L 1472.973011 1368 
L 1472.973011 1519.2 
L 1244.700284 1519.2 
L 1244.700284 1368 
" clip-path="url(#p8740ed59dd)" style="fill: #5e1f52"/>
    <path d="M 1472.973011 1368 
L 1701.245739 1368 
L 1701.245739 1519.2 
L 1472.973011 1519.2 
L 1472.973011 1368 
" clip-path="url(#p8740ed59dd)" style="fill: #561e4f"/>
    <path d="M 1701.245739 1368 
L 1929.518466 1368 
L 1929.518466 1519.2 
L 1701.245739 1519.2 
L 1701.245739 1368 
" clip-path="url(#p8740ed59dd)" style="fill: #561e4f"/>
    <path d="M 1929.518466 1368 
L 2157.791193 1368 
L 2157.791193 1519.2 
L 1929.518466 1519.2 
L 1929.518466 1368 
" clip-path="url(#p8740ed59dd)" style="fill: #601f52"/>
    <path d="M 2157.791193 1368 
L 2386.06392 1368 
L 2386.06392 1519.2 
L 2157.791193 1519.2 
L 2157.791193 1368 
" clip-path="url(#p8740ed59dd)" style="fill: #501d4c"/>
    <path d="M 2386.06392 1368 
L 2614.336648 1368 
L 2614.336648 1519.2 
L 2386.06392 1519.2 
L 2386.06392 1368 
" clip-path="url(#p8740ed59dd)" style="fill: #faebdd"/>
    <path d="M 2614.336648 1368 
L 2842.609375 1368 
L 2842.609375 1519.2 
L 2614.336648 1519.2 
L 2614.336648 1368 
" clip-path="url(#p8740ed59dd)" style="fill: #a3195b"/>
    <path d="M 331.609375 1519.2 
L 559.882102 1519.2 
L 559.882102 1670.4 
L 331.609375 1670.4 
L 331.609375 1519.2 
" clip-path="url(#p8740ed59dd)" style="fill: #c81951"/>
    <path d="M 559.882102 1519.2 
L 788.15483 1519.2 
L 788.15483 1670.4 
L 559.882102 1670.4 
L 559.882102 1519.2 
" clip-path="url(#p8740ed59dd)" style="fill: #b21758"/>
    <path d="M 788.15483 1519.2 
L 1016.427557 1519.2 
L 1016.427557 1670.4 
L 788.15483 1670.4 
L 788.15483 1519.2 
" clip-path="url(#p8740ed59dd)" style="fill: #33183c"/>
    <path d="M 1016.427557 1519.2 
L 1244.700284 1519.2 
L 1244.700284 1670.4 
L 1016.427557 1670.4 
L 1016.427557 1519.2 
" clip-path="url(#p8740ed59dd)" style="fill: #37193f"/>
    <path d="M 1244.700284 1519.2 
L 1472.973011 1519.2 
L 1472.973011 1670.4 
L 1244.700284 1670.4 
L 1244.700284 1519.2 
" clip-path="url(#p8740ed59dd)" style="fill: #160e27"/>
    <path d="M 1472.973011 1519.2 
L 1701.245739 1519.2 
L 1701.245739 1670.4 
L 1472.973011 1670.4 
L 1472.973011 1519.2 
" clip-path="url(#p8740ed59dd)" style="fill: #03051a"/>
    <path d="M 1701.245739 1519.2 
L 1929.518466 1519.2 
L 1929.518466 1670.4 
L 1701.245739 1670.4 
L 1701.245739 1519.2 
" clip-path="url(#p8740ed59dd)" style="fill: #130d25"/>
    <path d="M 1929.518466 1519.2 
L 2157.791193 1519.2 
L 2157.791193 1670.4 
L 1929.518466 1670.4 
L 1929.518466 1519.2 
" clip-path="url(#p8740ed59dd)" style="fill: #0b0920"/>
    <path d="M 2157.791193 1519.2 
L 2386.06392 1519.2 
L 2386.06392 1670.4 
L 2157.791193 1670.4 
L 2157.791193 1519.2 
" clip-path="url(#p8740ed59dd)" style="fill: #1e122d"/>
    <path d="M 2386.06392 1519.2 
L 2614.336648 1519.2 
L 2614.336648 1670.4 
L 2386.06392 1670.4 
L 2386.06392 1519.2 
" clip-path="url(#p8740ed59dd)" style="fill: #a3195b"/>
    <path d="M 2614.336648 1519.2 
L 2842.609375 1519.2 
L 2842.609375 1670.4 
L 2614.336648 1670.4 
L 2614.336648 1519.2 
" clip-path="url(#p8740ed59dd)" style="fill: #faebdd"/>
   </g>
   <g id="text_23">
    <!-- 1 -->
    <g style="fill: #262626" transform="translate(429.062926 98.310937) scale(0.6 -0.6)">
     <defs>
      <path id="ArialMT-31" d="M 2384 0 
L 1822 0 
L 1822 3584 
Q 1619 3391 1289 3197 
Q 959 3003 697 2906 
L 697 3450 
Q 1169 3672 1522 3987 
Q 1875 4303 2022 4600 
L 2384 4600 
L 2384 0 
z
" transform="scale(0.015625)"/>
     </defs>
     <use xlink:href="#ArialMT-31"/>
    </g>
   </g>
   <g id="text_24">
    <!-- -0.025 -->
    <g style="fill: #ffffff" transform="translate(588.963778 98.310937) scale(0.6 -0.6)">
     <defs>
      <path id="ArialMT-2d" d="M 203 1375 
L 203 1941 
L 1931 1941 
L 1931 1375 
L 203 1375 
z
" transform="scale(0.015625)"/>
      <path id="ArialMT-30" d="M 266 2259 
Q 266 3072 433 3567 
Q 600 4063 929 4331 
Q 1259 4600 1759 4600 
Q 2128 4600 2406 4451 
Q 2684 4303 2865 4023 
Q 3047 3744 3150 3342 
Q 3253 2941 3253 2259 
Q 3253 1453 3087 958 
Q 2922 463 2592 192 
Q 2263 -78 1759 -78 
Q 1097 -78 719 397 
Q 266 969 266 2259 
z
M 844 2259 
Q 844 1131 1108 757 
Q 1372 384 1759 384 
Q 2147 384 2411 759 
Q 2675 1134 2675 2259 
Q 2675 3391 2411 3762 
Q 2147 4134 1753 4134 
Q 1366 4134 1134 3806 
Q 844 3388 844 2259 
z
" transform="scale(0.015625)"/>
      <path id="ArialMT-2e" d="M 581 0 
L 581 641 
L 1222 641 
L 1222 0 
L 581 0 
z
" transform="scale(0.015625)"/>
      <path id="ArialMT-32" d="M 3222 541 
L 3222 0 
L 194 0 
Q 188 203 259 391 
Q 375 700 629 1000 
Q 884 1300 1366 1694 
Q 2113 2306 2375 2664 
Q 2638 3022 2638 3341 
Q 2638 3675 2398 3904 
Q 2159 4134 1775 4134 
Q 1369 4134 1125 3890 
Q 881 3647 878 3216 
L 300 3275 
Q 359 3922 746 4261 
Q 1134 4600 1788 4600 
Q 2447 4600 2831 4234 
Q 3216 3869 3216 3328 
Q 3216 3053 3103 2787 
Q 2991 2522 2730 2228 
Q 2469 1934 1863 1422 
Q 1356 997 1212 845 
Q 1069 694 975 541 
L 3222 541 
z
" transform="scale(0.015625)"/>
      <path id="ArialMT-35" d="M 266 1200 
L 856 1250 
Q 922 819 1161 601 
Q 1400 384 1738 384 
Q 2144 384 2425 690 
Q 2706 997 2706 1503 
Q 2706 1984 2436 2262 
Q 2166 2541 1728 2541 
Q 1456 2541 1237 2417 
Q 1019 2294 894 2097 
L 366 2166 
L 809 4519 
L 3088 4519 
L 3088 3981 
L 1259 3981 
L 1013 2750 
Q 1425 3038 1878 3038 
Q 2478 3038 2890 2622 
Q 3303 2206 3303 1553 
Q 3303 931 2941 478 
Q 2500 -78 1738 -78 
Q 1113 -78 717 272 
Q 322 622 266 1200 
z
" transform="scale(0.015625)"/>
     </defs>
     <use xlink:href="#ArialMT-2d"/>
     <use xlink:href="#ArialMT-30" x="33.300781"/>
     <use xlink:href="#ArialMT-2e" x="88.916016"/>
     <use xlink:href="#ArialMT-30" x="116.699219"/>
     <use xlink:href="#ArialMT-32" x="172.314453"/>
     <use xlink:href="#ArialMT-35" x="227.929688"/>
    </g>
   </g>
   <g id="text_25">
    <!-- -0.08 -->
    <g style="fill: #ffffff" transform="translate(833.919318 98.310937) scale(0.6 -0.6)">
     <defs>
      <path id="ArialMT-38" d="M 1131 2484 
Q 781 2613 612 2850 
Q 444 3088 444 3419 
Q 444 3919 803 4259 
Q 1163 4600 1759 4600 
Q 2359 4600 2725 4251 
Q 3091 3903 3091 3403 
Q 3091 3084 2923 2848 
Q 2756 2613 2416 2484 
Q 2838 2347 3058 2040 
Q 3278 1734 3278 1309 
Q 3278 722 2862 322 
Q 2447 -78 1769 -78 
Q 1091 -78 675 323 
Q 259 725 259 1325 
Q 259 1772 486 2073 
Q 713 2375 1131 2484 
z
M 1019 3438 
Q 1019 3113 1228 2906 
Q 1438 2700 1772 2700 
Q 2097 2700 2305 2904 
Q 2513 3109 2513 3406 
Q 2513 3716 2298 3927 
Q 2084 4138 1766 4138 
Q 1444 4138 1231 3931 
Q 1019 3725 1019 3438 
z
M 838 1322 
Q 838 1081 952 856 
Q 1066 631 1291 507 
Q 1516 384 1775 384 
Q 2178 384 2440 643 
Q 2703 903 2703 1303 
Q 2703 1709 2433 1975 
Q 2163 2241 1756 2241 
Q 1359 2241 1098 1978 
Q 838 1716 838 1322 
z
" transform="scale(0.015625)"/>
     </defs>
     <use xlink:href="#ArialMT-2d"/>
     <use xlink:href="#ArialMT-30" x="33.300781"/>
     <use xlink:href="#ArialMT-2e" x="88.916016"/>
     <use xlink:href="#ArialMT-30" x="116.699219"/>
     <use xlink:href="#ArialMT-38" x="172.314453"/>
    </g>
   </g>
   <g id="text_26">
    <!-- -0.009 -->
    <g style="fill: #ffffff" transform="translate(1045.509233 98.310937) scale(0.6 -0.6)">
     <defs>
      <path id="ArialMT-39" d="M 350 1059 
L 891 1109 
Q 959 728 1153 556 
Q 1347 384 1650 384 
Q 1909 384 2104 503 
Q 2300 622 2425 820 
Q 2550 1019 2634 1356 
Q 2719 1694 2719 2044 
Q 2719 2081 2716 2156 
Q 2547 1888 2255 1720 
Q 1963 1553 1622 1553 
Q 1053 1553 659 1965 
Q 266 2378 266 3053 
Q 266 3750 677 4175 
Q 1088 4600 1706 4600 
Q 2153 4600 2523 4359 
Q 2894 4119 3086 3673 
Q 3278 3228 3278 2384 
Q 3278 1506 3087 986 
Q 2897 466 2520 194 
Q 2144 -78 1638 -78 
Q 1100 -78 759 220 
Q 419 519 350 1059 
z
M 2653 3081 
Q 2653 3566 2395 3850 
Q 2138 4134 1775 4134 
Q 1400 4134 1122 3828 
Q 844 3522 844 3034 
Q 844 2597 1108 2323 
Q 1372 2050 1759 2050 
Q 2150 2050 2401 2323 
Q 2653 2597 2653 3081 
z
" transform="scale(0.015625)"/>
     </defs>
     <use xlink:href="#ArialMT-2d"/>
     <use xlink:href="#ArialMT-30" x="33.300781"/>
     <use xlink:href="#ArialMT-2e" x="88.916016"/>
     <use xlink:href="#ArialMT-30" x="116.699219"/>
     <use xlink:href="#ArialMT-30" x="172.314453"/>
     <use xlink:href="#ArialMT-39" x="227.929688"/>
    </g>
   </g>
   <g id="text_27">
    <!-- -0.073 -->
    <g style="fill: #ffffff" transform="translate(1273.78196 98.310937) scale(0.6 -0.6)">
     <defs>
      <path id="ArialMT-37" d="M 303 3981 
L 303 4522 
L 3269 4522 
L 3269 4084 
Q 2831 3619 2401 2847 
Q 1972 2075 1738 1259 
Q 1569 684 1522 0 
L 944 0 
Q 953 541 1156 1306 
Q 1359 2072 1739 2783 
Q 2119 3494 2547 3981 
L 303 3981 
z
" transform="scale(0.015625)"/>
      <path id="ArialMT-33" d="M 269 1209 
L 831 1284 
Q 928 806 1161 595 
Q 1394 384 1728 384 
Q 2125 384 2398 659 
Q 2672 934 2672 1341 
Q 2672 1728 2419 1979 
Q 2166 2231 1775 2231 
Q 1616 2231 1378 2169 
L 1441 2663 
Q 1497 2656 1531 2656 
Q 1891 2656 2178 2843 
Q 2466 3031 2466 3422 
Q 2466 3731 2256 3934 
Q 2047 4138 1716 4138 
Q 1388 4138 1169 3931 
Q 950 3725 888 3313 
L 325 3413 
Q 428 3978 793 4289 
Q 1159 4600 1703 4600 
Q 2078 4600 2393 4439 
Q 2709 4278 2876 4000 
Q 3044 3722 3044 3409 
Q 3044 3113 2884 2869 
Q 2725 2625 2413 2481 
Q 2819 2388 3044 2092 
Q 3269 1797 3269 1353 
Q 3269 753 2831 336 
Q 2394 -81 1725 -81 
Q 1122 -81 723 278 
Q 325 638 269 1209 
z
" transform="scale(0.015625)"/>
     </defs>
     <use xlink:href="#ArialMT-2d"/>
     <use xlink:href="#ArialMT-30" x="33.300781"/>
     <use xlink:href="#ArialMT-2e" x="88.916016"/>
     <use xlink:href="#ArialMT-30" x="116.699219"/>
     <use xlink:href="#ArialMT-37" x="172.314453"/>
     <use xlink:href="#ArialMT-33" x="227.929688"/>
    </g>
   </g>
   <g id="text_28">
    <!-- -0.097 -->
    <g style="fill: #ffffff" transform="translate(1502.054688 98.310937) scale(0.6 -0.6)">
     <use xlink:href="#ArialMT-2d"/>
     <use xlink:href="#ArialMT-30" x="33.300781"/>
     <use xlink:href="#ArialMT-2e" x="88.916016"/>
     <use xlink:href="#ArialMT-30" x="116.699219"/>
     <use xlink:href="#ArialMT-39" x="172.314453"/>
     <use xlink:href="#ArialMT-37" x="227.929688"/>
    </g>
   </g>
   <g id="text_29">
    <!-- -0.039 -->
    <g style="fill: #ffffff" transform="translate(1730.327415 98.310937) scale(0.6 -0.6)">
     <use xlink:href="#ArialMT-2d"/>
     <use xlink:href="#ArialMT-30" x="33.300781"/>
     <use xlink:href="#ArialMT-2e" x="88.916016"/>
     <use xlink:href="#ArialMT-30" x="116.699219"/>
     <use xlink:href="#ArialMT-33" x="172.314453"/>
     <use xlink:href="#ArialMT-39" x="227.929688"/>
    </g>
   </g>
   <g id="text_30">
    <!-- -0.16 -->
    <g style="fill: #ffffff" transform="translate(1975.282955 98.310937) scale(0.6 -0.6)">
     <defs>
      <path id="ArialMT-36" d="M 3184 3459 
L 2625 3416 
Q 2550 3747 2413 3897 
Q 2184 4138 1850 4138 
Q 1581 4138 1378 3988 
Q 1113 3794 959 3422 
Q 806 3050 800 2363 
Q 1003 2672 1297 2822 
Q 1591 2972 1913 2972 
Q 2475 2972 2870 2558 
Q 3266 2144 3266 1488 
Q 3266 1056 3080 686 
Q 2894 316 2569 119 
Q 2244 -78 1831 -78 
Q 1128 -78 684 439 
Q 241 956 241 2144 
Q 241 3472 731 4075 
Q 1159 4600 1884 4600 
Q 2425 4600 2770 4297 
Q 3116 3994 3184 3459 
z
M 888 1484 
Q 888 1194 1011 928 
Q 1134 663 1356 523 
Q 1578 384 1822 384 
Q 2178 384 2434 671 
Q 2691 959 2691 1453 
Q 2691 1928 2437 2201 
Q 2184 2475 1800 2475 
Q 1419 2475 1153 2201 
Q 888 1928 888 1484 
z
" transform="scale(0.015625)"/>
     </defs>
     <use xlink:href="#ArialMT-2d"/>
     <use xlink:href="#ArialMT-30" x="33.300781"/>
     <use xlink:href="#ArialMT-2e" x="88.916016"/>
     <use xlink:href="#ArialMT-31" x="116.699219"/>
     <use xlink:href="#ArialMT-36" x="172.314453"/>
    </g>
   </g>
   <g id="text_31">
    <!-- -0.068 -->
    <g style="fill: #ffffff" transform="translate(2186.872869 98.310937) scale(0.6 -0.6)">
     <use xlink:href="#ArialMT-2d"/>
     <use xlink:href="#ArialMT-30" x="33.300781"/>
     <use xlink:href="#ArialMT-2e" x="88.916016"/>
     <use xlink:href="#ArialMT-30" x="116.699219"/>
     <use xlink:href="#ArialMT-36" x="172.314453"/>
     <use xlink:href="#ArialMT-38" x="227.929688"/>
    </g>
   </g>
   <g id="text_32">
    <!-- 0.22 -->
    <g style="fill: #ffffff" transform="translate(2441.817472 98.310937) scale(0.6 -0.6)">
     <use xlink:href="#ArialMT-30"/>
     <use xlink:href="#ArialMT-2e" x="55.615234"/>
     <use xlink:href="#ArialMT-32" x="83.398438"/>
     <use xlink:href="#ArialMT-32" x="139.013672"/>
    </g>
   </g>
   <g id="text_33">
    <!-- 0.29 -->
    <g style="fill: #ffffff" transform="translate(2670.090199 98.310937) scale(0.6 -0.6)">
     <use xlink:href="#ArialMT-30"/>
     <use xlink:href="#ArialMT-2e" x="55.615234"/>
     <use xlink:href="#ArialMT-32" x="83.398438"/>
     <use xlink:href="#ArialMT-39" x="139.013672"/>
    </g>
   </g>
   <g id="text_34">
    <!-- -0.025 -->
    <g style="fill: #ffffff" transform="translate(360.691051 249.510937) scale(0.6 -0.6)">
     <use xlink:href="#ArialMT-2d"/>
     <use xlink:href="#ArialMT-30" x="33.300781"/>
     <use xlink:href="#ArialMT-2e" x="88.916016"/>
     <use xlink:href="#ArialMT-30" x="116.699219"/>
     <use xlink:href="#ArialMT-32" x="172.314453"/>
     <use xlink:href="#ArialMT-35" x="227.929688"/>
    </g>
   </g>
   <g id="text_35">
    <!-- 1 -->
    <g style="fill: #262626" transform="translate(657.335653 249.510937) scale(0.6 -0.6)">
     <use xlink:href="#ArialMT-31"/>
    </g>
   </g>
   <g id="text_36">
    <!-- -0.043 -->
    <g style="fill: #ffffff" transform="translate(817.236506 249.510937) scale(0.6 -0.6)">
     <defs>
      <path id="ArialMT-34" d="M 2069 0 
L 2069 1097 
L 81 1097 
L 81 1613 
L 2172 4581 
L 2631 4581 
L 2631 1613 
L 3250 1613 
L 3250 1097 
L 2631 1097 
L 2631 0 
L 2069 0 
z
M 2069 1613 
L 2069 3678 
L 634 1613 
L 2069 1613 
z
" transform="scale(0.015625)"/>
     </defs>
     <use xlink:href="#ArialMT-2d"/>
     <use xlink:href="#ArialMT-30" x="33.300781"/>
     <use xlink:href="#ArialMT-2e" x="88.916016"/>
     <use xlink:href="#ArialMT-30" x="116.699219"/>
     <use xlink:href="#ArialMT-34" x="172.314453"/>
     <use xlink:href="#ArialMT-33" x="227.929688"/>
    </g>
   </g>
   <g id="text_37">
    <!-- -0.078 -->
    <g style="fill: #ffffff" transform="translate(1045.509233 249.510937) scale(0.6 -0.6)">
     <use xlink:href="#ArialMT-2d"/>
     <use xlink:href="#ArialMT-30" x="33.300781"/>
     <use xlink:href="#ArialMT-2e" x="88.916016"/>
     <use xlink:href="#ArialMT-30" x="116.699219"/>
     <use xlink:href="#ArialMT-37" x="172.314453"/>
     <use xlink:href="#ArialMT-38" x="227.929688"/>
    </g>
   </g>
   <g id="text_38">
    <!-- -0.12 -->
    <g style="fill: #ffffff" transform="translate(1290.464773 249.510937) scale(0.6 -0.6)">
     <use xlink:href="#ArialMT-2d"/>
     <use xlink:href="#ArialMT-30" x="33.300781"/>
     <use xlink:href="#ArialMT-2e" x="88.916016"/>
     <use xlink:href="#ArialMT-31" x="116.699219"/>
     <use xlink:href="#ArialMT-32" x="172.314453"/>
    </g>
   </g>
   <g id="text_39">
    <!-- -0.061 -->
    <g style="fill: #ffffff" transform="translate(1502.054688 249.510937) scale(0.6 -0.6)">
     <use xlink:href="#ArialMT-2d"/>
     <use xlink:href="#ArialMT-30" x="33.300781"/>
     <use xlink:href="#ArialMT-2e" x="88.916016"/>
     <use xlink:href="#ArialMT-30" x="116.699219"/>
     <use xlink:href="#ArialMT-36" x="172.314453"/>
     <use xlink:href="#ArialMT-31" x="227.929688"/>
    </g>
   </g>
   <g id="text_40">
    <!-- -0.023 -->
    <g style="fill: #ffffff" transform="translate(1730.327415 249.510937) scale(0.6 -0.6)">
     <use xlink:href="#ArialMT-2d"/>
     <use xlink:href="#ArialMT-30" x="33.300781"/>
     <use xlink:href="#ArialMT-2e" x="88.916016"/>
     <use xlink:href="#ArialMT-30" x="116.699219"/>
     <use xlink:href="#ArialMT-32" x="172.314453"/>
     <use xlink:href="#ArialMT-33" x="227.929688"/>
    </g>
   </g>
   <g id="text_41">
    <!-- -0.058 -->
    <g style="fill: #ffffff" transform="translate(1958.600142 249.510937) scale(0.6 -0.6)">
     <use xlink:href="#ArialMT-2d"/>
     <use xlink:href="#ArialMT-30" x="33.300781"/>
     <use xlink:href="#ArialMT-2e" x="88.916016"/>
     <use xlink:href="#ArialMT-30" x="116.699219"/>
     <use xlink:href="#ArialMT-35" x="172.314453"/>
     <use xlink:href="#ArialMT-38" x="227.929688"/>
    </g>
   </g>
   <g id="text_42">
    <!-- -0.054 -->
    <g style="fill: #ffffff" transform="translate(2186.872869 249.510937) scale(0.6 -0.6)">
     <use xlink:href="#ArialMT-2d"/>
     <use xlink:href="#ArialMT-30" x="33.300781"/>
     <use xlink:href="#ArialMT-2e" x="88.916016"/>
     <use xlink:href="#ArialMT-30" x="116.699219"/>
     <use xlink:href="#ArialMT-35" x="172.314453"/>
     <use xlink:href="#ArialMT-34" x="227.929688"/>
    </g>
   </g>
   <g id="text_43">
    <!-- 0.097 -->
    <g style="fill: #ffffff" transform="translate(2425.134659 249.510937) scale(0.6 -0.6)">
     <use xlink:href="#ArialMT-30"/>
     <use xlink:href="#ArialMT-2e" x="55.615234"/>
     <use xlink:href="#ArialMT-30" x="83.398438"/>
     <use xlink:href="#ArialMT-39" x="139.013672"/>
     <use xlink:href="#ArialMT-37" x="194.628906"/>
    </g>
   </g>
   <g id="text_44">
    <!-- 0.22 -->
    <g style="fill: #ffffff" transform="translate(2670.090199 249.510937) scale(0.6 -0.6)">
     <use xlink:href="#ArialMT-30"/>
     <use xlink:href="#ArialMT-2e" x="55.615234"/>
     <use xlink:href="#ArialMT-32" x="83.398438"/>
     <use xlink:href="#ArialMT-32" x="139.013672"/>
    </g>
   </g>
   <g id="text_45">
    <!-- -0.08 -->
    <g style="fill: #ffffff" transform="translate(377.373864 400.710938) scale(0.6 -0.6)">
     <use xlink:href="#ArialMT-2d"/>
     <use xlink:href="#ArialMT-30" x="33.300781"/>
     <use xlink:href="#ArialMT-2e" x="88.916016"/>
     <use xlink:href="#ArialMT-30" x="116.699219"/>
     <use xlink:href="#ArialMT-38" x="172.314453"/>
    </g>
   </g>
   <g id="text_46">
    <!-- -0.043 -->
    <g style="fill: #ffffff" transform="translate(588.963778 400.710938) scale(0.6 -0.6)">
     <use xlink:href="#ArialMT-2d"/>
     <use xlink:href="#ArialMT-30" x="33.300781"/>
     <use xlink:href="#ArialMT-2e" x="88.916016"/>
     <use xlink:href="#ArialMT-30" x="116.699219"/>
     <use xlink:href="#ArialMT-34" x="172.314453"/>
     <use xlink:href="#ArialMT-33" x="227.929688"/>
    </g>
   </g>
   <g id="text_47">
    <!-- 1 -->
    <g style="fill: #262626" transform="translate(885.608381 400.710938) scale(0.6 -0.6)">
     <use xlink:href="#ArialMT-31"/>
    </g>
   </g>
   <g id="text_48">
    <!-- -0.079 -->
    <g style="fill: #ffffff" transform="translate(1045.509233 400.710938) scale(0.6 -0.6)">
     <use xlink:href="#ArialMT-2d"/>
     <use xlink:href="#ArialMT-30" x="33.300781"/>
     <use xlink:href="#ArialMT-2e" x="88.916016"/>
     <use xlink:href="#ArialMT-30" x="116.699219"/>
     <use xlink:href="#ArialMT-37" x="172.314453"/>
     <use xlink:href="#ArialMT-39" x="227.929688"/>
    </g>
   </g>
   <g id="text_49">
    <!-- 0.13 -->
    <g style="fill: #ffffff" transform="translate(1300.453835 400.710938) scale(0.6 -0.6)">
     <use xlink:href="#ArialMT-30"/>
     <use xlink:href="#ArialMT-2e" x="55.615234"/>
     <use xlink:href="#ArialMT-31" x="83.398438"/>
     <use xlink:href="#ArialMT-33" x="139.013672"/>
    </g>
   </g>
   <g id="text_50">
    <!-- 0.18 -->
    <g style="fill: #ffffff" transform="translate(1528.726562 400.710938) scale(0.6 -0.6)">
     <use xlink:href="#ArialMT-30"/>
     <use xlink:href="#ArialMT-2e" x="55.615234"/>
     <use xlink:href="#ArialMT-31" x="83.398438"/>
     <use xlink:href="#ArialMT-38" x="139.013672"/>
    </g>
   </g>
   <g id="text_51">
    <!-- 0.16 -->
    <g style="fill: #ffffff" transform="translate(1756.99929 400.710938) scale(0.6 -0.6)">
     <use xlink:href="#ArialMT-30"/>
     <use xlink:href="#ArialMT-2e" x="55.615234"/>
     <use xlink:href="#ArialMT-31" x="83.398438"/>
     <use xlink:href="#ArialMT-36" x="139.013672"/>
    </g>
   </g>
   <g id="text_52">
    <!-- 0.5 -->
    <g style="fill: #ffffff" transform="translate(2001.95483 400.710938) scale(0.6 -0.6)">
     <use xlink:href="#ArialMT-30"/>
     <use xlink:href="#ArialMT-2e" x="55.615234"/>
     <use xlink:href="#ArialMT-35" x="83.398438"/>
    </g>
   </g>
   <g id="text_53">
    <!-- -0.12 -->
    <g style="fill: #ffffff" transform="translate(2203.555682 400.710938) scale(0.6 -0.6)">
     <use xlink:href="#ArialMT-2d"/>
     <use xlink:href="#ArialMT-30" x="33.300781"/>
     <use xlink:href="#ArialMT-2e" x="88.916016"/>
     <use xlink:href="#ArialMT-31" x="116.699219"/>
     <use xlink:href="#ArialMT-32" x="172.314453"/>
    </g>
   </g>
   <g id="text_54">
    <!-- -0.11 -->
    <g style="fill: #ffffff" transform="translate(2434.040909 400.710938) scale(0.6 -0.6)">
     <use xlink:href="#ArialMT-2d"/>
     <use xlink:href="#ArialMT-30" x="33.300781"/>
     <use xlink:href="#ArialMT-2e" x="88.916016"/>
     <use xlink:href="#ArialMT-31" x="116.699219"/>
     <use xlink:href="#ArialMT-31" x="164.939453"/>
    </g>
   </g>
   <g id="text_55">
    <!-- -0.21 -->
    <g style="fill: #ffffff" transform="translate(2660.101136 400.710938) scale(0.6 -0.6)">
     <use xlink:href="#ArialMT-2d"/>
     <use xlink:href="#ArialMT-30" x="33.300781"/>
     <use xlink:href="#ArialMT-2e" x="88.916016"/>
     <use xlink:href="#ArialMT-32" x="116.699219"/>
     <use xlink:href="#ArialMT-31" x="172.314453"/>
    </g>
   </g>
   <g id="text_56">
    <!-- -0.009 -->
    <g style="fill: #ffffff" transform="translate(360.691051 551.910938) scale(0.6 -0.6)">
     <use xlink:href="#ArialMT-2d"/>
     <use xlink:href="#ArialMT-30" x="33.300781"/>
     <use xlink:href="#ArialMT-2e" x="88.916016"/>
     <use xlink:href="#ArialMT-30" x="116.699219"/>
     <use xlink:href="#ArialMT-30" x="172.314453"/>
     <use xlink:href="#ArialMT-39" x="227.929688"/>
    </g>
   </g>
   <g id="text_57">
    <!-- -0.078 -->
    <g style="fill: #ffffff" transform="translate(588.963778 551.910938) scale(0.6 -0.6)">
     <use xlink:href="#ArialMT-2d"/>
     <use xlink:href="#ArialMT-30" x="33.300781"/>
     <use xlink:href="#ArialMT-2e" x="88.916016"/>
     <use xlink:href="#ArialMT-30" x="116.699219"/>
     <use xlink:href="#ArialMT-37" x="172.314453"/>
     <use xlink:href="#ArialMT-38" x="227.929688"/>
    </g>
   </g>
   <g id="text_58">
    <!-- -0.079 -->
    <g style="fill: #ffffff" transform="translate(817.236506 551.910938) scale(0.6 -0.6)">
     <use xlink:href="#ArialMT-2d"/>
     <use xlink:href="#ArialMT-30" x="33.300781"/>
     <use xlink:href="#ArialMT-2e" x="88.916016"/>
     <use xlink:href="#ArialMT-30" x="116.699219"/>
     <use xlink:href="#ArialMT-37" x="172.314453"/>
     <use xlink:href="#ArialMT-39" x="227.929688"/>
    </g>
   </g>
   <g id="text_59">
    <!-- 1 -->
    <g style="fill: #262626" transform="translate(1113.881108 551.910938) scale(0.6 -0.6)">
     <use xlink:href="#ArialMT-31"/>
    </g>
   </g>
   <g id="text_60">
    <!-- 0.038 -->
    <g style="fill: #ffffff" transform="translate(1283.771023 551.910938) scale(0.6 -0.6)">
     <use xlink:href="#ArialMT-30"/>
     <use xlink:href="#ArialMT-2e" x="55.615234"/>
     <use xlink:href="#ArialMT-30" x="83.398438"/>
     <use xlink:href="#ArialMT-33" x="139.013672"/>
     <use xlink:href="#ArialMT-38" x="194.628906"/>
    </g>
   </g>
   <g id="text_61">
    <!-- 0.13 -->
    <g style="fill: #ffffff" transform="translate(1528.726562 551.910938) scale(0.6 -0.6)">
     <use xlink:href="#ArialMT-30"/>
     <use xlink:href="#ArialMT-2e" x="55.615234"/>
     <use xlink:href="#ArialMT-31" x="83.398438"/>
     <use xlink:href="#ArialMT-33" x="139.013672"/>
    </g>
   </g>
   <g id="text_62">
    <!-- 0.24 -->
    <g style="fill: #ffffff" transform="translate(1756.99929 551.910938) scale(0.6 -0.6)">
     <use xlink:href="#ArialMT-30"/>
     <use xlink:href="#ArialMT-2e" x="55.615234"/>
     <use xlink:href="#ArialMT-32" x="83.398438"/>
     <use xlink:href="#ArialMT-34" x="139.013672"/>
    </g>
   </g>
   <g id="text_63">
    <!-- -0.097 -->
    <g style="fill: #ffffff" transform="translate(1958.600142 551.910938) scale(0.6 -0.6)">
     <use xlink:href="#ArialMT-2d"/>
     <use xlink:href="#ArialMT-30" x="33.300781"/>
     <use xlink:href="#ArialMT-2e" x="88.916016"/>
     <use xlink:href="#ArialMT-30" x="116.699219"/>
     <use xlink:href="#ArialMT-39" x="172.314453"/>
     <use xlink:href="#ArialMT-37" x="227.929688"/>
    </g>
   </g>
   <g id="text_64">
    <!-- 0.52 -->
    <g style="fill: #ffffff" transform="translate(2213.544744 551.910938) scale(0.6 -0.6)">
     <use xlink:href="#ArialMT-30"/>
     <use xlink:href="#ArialMT-2e" x="55.615234"/>
     <use xlink:href="#ArialMT-35" x="83.398438"/>
     <use xlink:href="#ArialMT-32" x="139.013672"/>
    </g>
   </g>
   <g id="text_65">
    <!-- -0.058 -->
    <g style="fill: #ffffff" transform="translate(2415.145597 551.910938) scale(0.6 -0.6)">
     <use xlink:href="#ArialMT-2d"/>
     <use xlink:href="#ArialMT-30" x="33.300781"/>
     <use xlink:href="#ArialMT-2e" x="88.916016"/>
     <use xlink:href="#ArialMT-30" x="116.699219"/>
     <use xlink:href="#ArialMT-35" x="172.314453"/>
     <use xlink:href="#ArialMT-38" x="227.929688"/>
    </g>
   </g>
   <g id="text_66">
    <!-- -0.19 -->
    <g style="fill: #ffffff" transform="translate(2660.101136 551.910938) scale(0.6 -0.6)">
     <use xlink:href="#ArialMT-2d"/>
     <use xlink:href="#ArialMT-30" x="33.300781"/>
     <use xlink:href="#ArialMT-2e" x="88.916016"/>
     <use xlink:href="#ArialMT-31" x="116.699219"/>
     <use xlink:href="#ArialMT-39" x="172.314453"/>
    </g>
   </g>
   <g id="text_67">
    <!-- -0.073 -->
    <g style="fill: #ffffff" transform="translate(360.691051 703.110938) scale(0.6 -0.6)">
     <use xlink:href="#ArialMT-2d"/>
     <use xlink:href="#ArialMT-30" x="33.300781"/>
     <use xlink:href="#ArialMT-2e" x="88.916016"/>
     <use xlink:href="#ArialMT-30" x="116.699219"/>
     <use xlink:href="#ArialMT-37" x="172.314453"/>
     <use xlink:href="#ArialMT-33" x="227.929688"/>
    </g>
   </g>
   <g id="text_68">
    <!-- -0.12 -->
    <g style="fill: #ffffff" transform="translate(605.646591 703.110938) scale(0.6 -0.6)">
     <use xlink:href="#ArialMT-2d"/>
     <use xlink:href="#ArialMT-30" x="33.300781"/>
     <use xlink:href="#ArialMT-2e" x="88.916016"/>
     <use xlink:href="#ArialMT-31" x="116.699219"/>
     <use xlink:href="#ArialMT-32" x="172.314453"/>
    </g>
   </g>
   <g id="text_69">
    <!-- 0.13 -->
    <g style="fill: #ffffff" transform="translate(843.908381 703.110938) scale(0.6 -0.6)">
     <use xlink:href="#ArialMT-30"/>
     <use xlink:href="#ArialMT-2e" x="55.615234"/>
     <use xlink:href="#ArialMT-31" x="83.398438"/>
     <use xlink:href="#ArialMT-33" x="139.013672"/>
    </g>
   </g>
   <g id="text_70">
    <!-- 0.038 -->
    <g style="fill: #ffffff" transform="translate(1055.498295 703.110938) scale(0.6 -0.6)">
     <use xlink:href="#ArialMT-30"/>
     <use xlink:href="#ArialMT-2e" x="55.615234"/>
     <use xlink:href="#ArialMT-30" x="83.398438"/>
     <use xlink:href="#ArialMT-33" x="139.013672"/>
     <use xlink:href="#ArialMT-38" x="194.628906"/>
    </g>
   </g>
   <g id="text_71">
    <!-- 1 -->
    <g style="fill: #262626" transform="translate(1342.153835 703.110938) scale(0.6 -0.6)">
     <use xlink:href="#ArialMT-31"/>
    </g>
   </g>
   <g id="text_72">
    <!-- 0.076 -->
    <g style="fill: #ffffff" transform="translate(1512.04375 703.110938) scale(0.6 -0.6)">
     <use xlink:href="#ArialMT-30"/>
     <use xlink:href="#ArialMT-2e" x="55.615234"/>
     <use xlink:href="#ArialMT-30" x="83.398438"/>
     <use xlink:href="#ArialMT-37" x="139.013672"/>
     <use xlink:href="#ArialMT-36" x="194.628906"/>
    </g>
   </g>
   <g id="text_73">
    <!-- 0.17 -->
    <g style="fill: #ffffff" transform="translate(1756.99929 703.110938) scale(0.6 -0.6)">
     <use xlink:href="#ArialMT-30"/>
     <use xlink:href="#ArialMT-2e" x="55.615234"/>
     <use xlink:href="#ArialMT-31" x="83.398438"/>
     <use xlink:href="#ArialMT-37" x="139.013672"/>
    </g>
   </g>
   <g id="text_74">
    <!-- 0.1 -->
    <g style="fill: #ffffff" transform="translate(2001.95483 703.110938) scale(0.6 -0.6)">
     <use xlink:href="#ArialMT-30"/>
     <use xlink:href="#ArialMT-2e" x="55.615234"/>
     <use xlink:href="#ArialMT-31" x="83.398438"/>
    </g>
   </g>
   <g id="text_75">
    <!-- 0.07 -->
    <g style="fill: #ffffff" transform="translate(2213.544744 703.110938) scale(0.6 -0.6)">
     <use xlink:href="#ArialMT-30"/>
     <use xlink:href="#ArialMT-2e" x="55.615234"/>
     <use xlink:href="#ArialMT-30" x="83.398438"/>
     <use xlink:href="#ArialMT-37" x="139.013672"/>
    </g>
   </g>
   <g id="text_76">
    <!-- -0.058 -->
    <g style="fill: #ffffff" transform="translate(2415.145597 703.110938) scale(0.6 -0.6)">
     <use xlink:href="#ArialMT-2d"/>
     <use xlink:href="#ArialMT-30" x="33.300781"/>
     <use xlink:href="#ArialMT-2e" x="88.916016"/>
     <use xlink:href="#ArialMT-30" x="116.699219"/>
     <use xlink:href="#ArialMT-35" x="172.314453"/>
     <use xlink:href="#ArialMT-38" x="227.929688"/>
    </g>
   </g>
   <g id="text_77">
    <!-- -0.32 -->
    <g style="fill: #ffffff" transform="translate(2660.101136 703.110938) scale(0.6 -0.6)">
     <use xlink:href="#ArialMT-2d"/>
     <use xlink:href="#ArialMT-30" x="33.300781"/>
     <use xlink:href="#ArialMT-2e" x="88.916016"/>
     <use xlink:href="#ArialMT-33" x="116.699219"/>
     <use xlink:href="#ArialMT-32" x="172.314453"/>
    </g>
   </g>
   <g id="text_78">
    <!-- -0.097 -->
    <g style="fill: #ffffff" transform="translate(360.691051 854.310938) scale(0.6 -0.6)">
     <use xlink:href="#ArialMT-2d"/>
     <use xlink:href="#ArialMT-30" x="33.300781"/>
     <use xlink:href="#ArialMT-2e" x="88.916016"/>
     <use xlink:href="#ArialMT-30" x="116.699219"/>
     <use xlink:href="#ArialMT-39" x="172.314453"/>
     <use xlink:href="#ArialMT-37" x="227.929688"/>
    </g>
   </g>
   <g id="text_79">
    <!-- -0.061 -->
    <g style="fill: #ffffff" transform="translate(588.963778 854.310938) scale(0.6 -0.6)">
     <use xlink:href="#ArialMT-2d"/>
     <use xlink:href="#ArialMT-30" x="33.300781"/>
     <use xlink:href="#ArialMT-2e" x="88.916016"/>
     <use xlink:href="#ArialMT-30" x="116.699219"/>
     <use xlink:href="#ArialMT-36" x="172.314453"/>
     <use xlink:href="#ArialMT-31" x="227.929688"/>
    </g>
   </g>
   <g id="text_80">
    <!-- 0.18 -->
    <g style="fill: #ffffff" transform="translate(843.908381 854.310938) scale(0.6 -0.6)">
     <use xlink:href="#ArialMT-30"/>
     <use xlink:href="#ArialMT-2e" x="55.615234"/>
     <use xlink:href="#ArialMT-31" x="83.398438"/>
     <use xlink:href="#ArialMT-38" x="139.013672"/>
    </g>
   </g>
   <g id="text_81">
    <!-- 0.13 -->
    <g style="fill: #ffffff" transform="translate(1072.181108 854.310938) scale(0.6 -0.6)">
     <use xlink:href="#ArialMT-30"/>
     <use xlink:href="#ArialMT-2e" x="55.615234"/>
     <use xlink:href="#ArialMT-31" x="83.398438"/>
     <use xlink:href="#ArialMT-33" x="139.013672"/>
    </g>
   </g>
   <g id="text_82">
    <!-- 0.076 -->
    <g style="fill: #ffffff" transform="translate(1283.771023 854.310938) scale(0.6 -0.6)">
     <use xlink:href="#ArialMT-30"/>
     <use xlink:href="#ArialMT-2e" x="55.615234"/>
     <use xlink:href="#ArialMT-30" x="83.398438"/>
     <use xlink:href="#ArialMT-37" x="139.013672"/>
     <use xlink:href="#ArialMT-36" x="194.628906"/>
    </g>
   </g>
   <g id="text_83">
    <!-- 1 -->
    <g style="fill: #262626" transform="translate(1570.426563 854.310938) scale(0.6 -0.6)">
     <use xlink:href="#ArialMT-31"/>
    </g>
   </g>
   <g id="text_84">
    <!-- 0.51 -->
    <g style="fill: #ffffff" transform="translate(1756.99929 854.310938) scale(0.6 -0.6)">
     <use xlink:href="#ArialMT-30"/>
     <use xlink:href="#ArialMT-2e" x="55.615234"/>
     <use xlink:href="#ArialMT-35" x="83.398438"/>
     <use xlink:href="#ArialMT-31" x="139.013672"/>
    </g>
   </g>
   <g id="text_85">
    <!-- 0.17 -->
    <g style="fill: #ffffff" transform="translate(1985.272017 854.310938) scale(0.6 -0.6)">
     <use xlink:href="#ArialMT-30"/>
     <use xlink:href="#ArialMT-2e" x="55.615234"/>
     <use xlink:href="#ArialMT-31" x="83.398438"/>
     <use xlink:href="#ArialMT-37" x="139.013672"/>
    </g>
   </g>
   <g id="text_86">
    <!-- 0.19 -->
    <g style="fill: #ffffff" transform="translate(2213.544744 854.310938) scale(0.6 -0.6)">
     <use xlink:href="#ArialMT-30"/>
     <use xlink:href="#ArialMT-2e" x="55.615234"/>
     <use xlink:href="#ArialMT-31" x="83.398438"/>
     <use xlink:href="#ArialMT-39" x="139.013672"/>
    </g>
   </g>
   <g id="text_87">
    <!-- -0.081 -->
    <g style="fill: #ffffff" transform="translate(2415.145597 854.310938) scale(0.6 -0.6)">
     <use xlink:href="#ArialMT-2d"/>
     <use xlink:href="#ArialMT-30" x="33.300781"/>
     <use xlink:href="#ArialMT-2e" x="88.916016"/>
     <use xlink:href="#ArialMT-30" x="116.699219"/>
     <use xlink:href="#ArialMT-38" x="172.314453"/>
     <use xlink:href="#ArialMT-31" x="227.929688"/>
    </g>
   </g>
   <g id="text_88">
    <!-- -0.4 -->
    <g style="fill: #ffffff" transform="translate(2676.783949 854.310938) scale(0.6 -0.6)">
     <use xlink:href="#ArialMT-2d"/>
     <use xlink:href="#ArialMT-30" x="33.300781"/>
     <use xlink:href="#ArialMT-2e" x="88.916016"/>
     <use xlink:href="#ArialMT-34" x="116.699219"/>
    </g>
   </g>
   <g id="text_89">
    <!-- -0.039 -->
    <g style="fill: #ffffff" transform="translate(360.691051 1005.510938) scale(0.6 -0.6)">
     <use xlink:href="#ArialMT-2d"/>
     <use xlink:href="#ArialMT-30" x="33.300781"/>
     <use xlink:href="#ArialMT-2e" x="88.916016"/>
     <use xlink:href="#ArialMT-30" x="116.699219"/>
     <use xlink:href="#ArialMT-33" x="172.314453"/>
     <use xlink:href="#ArialMT-39" x="227.929688"/>
    </g>
   </g>
   <g id="text_90">
    <!-- -0.023 -->
    <g style="fill: #ffffff" transform="translate(588.963778 1005.510938) scale(0.6 -0.6)">
     <use xlink:href="#ArialMT-2d"/>
     <use xlink:href="#ArialMT-30" x="33.300781"/>
     <use xlink:href="#ArialMT-2e" x="88.916016"/>
     <use xlink:href="#ArialMT-30" x="116.699219"/>
     <use xlink:href="#ArialMT-32" x="172.314453"/>
     <use xlink:href="#ArialMT-33" x="227.929688"/>
    </g>
   </g>
   <g id="text_91">
    <!-- 0.16 -->
    <g style="fill: #ffffff" transform="translate(843.908381 1005.510938) scale(0.6 -0.6)">
     <use xlink:href="#ArialMT-30"/>
     <use xlink:href="#ArialMT-2e" x="55.615234"/>
     <use xlink:href="#ArialMT-31" x="83.398438"/>
     <use xlink:href="#ArialMT-36" x="139.013672"/>
    </g>
   </g>
   <g id="text_92">
    <!-- 0.24 -->
    <g style="fill: #ffffff" transform="translate(1072.181108 1005.510938) scale(0.6 -0.6)">
     <use xlink:href="#ArialMT-30"/>
     <use xlink:href="#ArialMT-2e" x="55.615234"/>
     <use xlink:href="#ArialMT-32" x="83.398438"/>
     <use xlink:href="#ArialMT-34" x="139.013672"/>
    </g>
   </g>
   <g id="text_93">
    <!-- 0.17 -->
    <g style="fill: #ffffff" transform="translate(1300.453835 1005.510938) scale(0.6 -0.6)">
     <use xlink:href="#ArialMT-30"/>
     <use xlink:href="#ArialMT-2e" x="55.615234"/>
     <use xlink:href="#ArialMT-31" x="83.398438"/>
     <use xlink:href="#ArialMT-37" x="139.013672"/>
    </g>
   </g>
   <g id="text_94">
    <!-- 0.51 -->
    <g style="fill: #ffffff" transform="translate(1528.726562 1005.510938) scale(0.6 -0.6)">
     <use xlink:href="#ArialMT-30"/>
     <use xlink:href="#ArialMT-2e" x="55.615234"/>
     <use xlink:href="#ArialMT-35" x="83.398438"/>
     <use xlink:href="#ArialMT-31" x="139.013672"/>
    </g>
   </g>
   <g id="text_95">
    <!-- 1 -->
    <g style="fill: #262626" transform="translate(1798.69929 1005.510938) scale(0.6 -0.6)">
     <use xlink:href="#ArialMT-31"/>
    </g>
   </g>
   <g id="text_96">
    <!-- 0.18 -->
    <g style="fill: #ffffff" transform="translate(1985.272017 1005.510938) scale(0.6 -0.6)">
     <use xlink:href="#ArialMT-30"/>
     <use xlink:href="#ArialMT-2e" x="55.615234"/>
     <use xlink:href="#ArialMT-31" x="83.398438"/>
     <use xlink:href="#ArialMT-38" x="139.013672"/>
    </g>
   </g>
   <g id="text_97">
    <!-- 0.27 -->
    <g style="fill: #ffffff" transform="translate(2213.544744 1005.510938) scale(0.6 -0.6)">
     <use xlink:href="#ArialMT-30"/>
     <use xlink:href="#ArialMT-2e" x="55.615234"/>
     <use xlink:href="#ArialMT-32" x="83.398438"/>
     <use xlink:href="#ArialMT-37" x="139.013672"/>
    </g>
   </g>
   <g id="text_98">
    <!-- -0.083 -->
    <g style="fill: #ffffff" transform="translate(2415.145597 1005.510938) scale(0.6 -0.6)">
     <use xlink:href="#ArialMT-2d"/>
     <use xlink:href="#ArialMT-30" x="33.300781"/>
     <use xlink:href="#ArialMT-2e" x="88.916016"/>
     <use xlink:href="#ArialMT-30" x="116.699219"/>
     <use xlink:href="#ArialMT-38" x="172.314453"/>
     <use xlink:href="#ArialMT-33" x="227.929688"/>
    </g>
   </g>
   <g id="text_99">
    <!-- -0.33 -->
    <g style="fill: #ffffff" transform="translate(2660.101136 1005.510938) scale(0.6 -0.6)">
     <use xlink:href="#ArialMT-2d"/>
     <use xlink:href="#ArialMT-30" x="33.300781"/>
     <use xlink:href="#ArialMT-2e" x="88.916016"/>
     <use xlink:href="#ArialMT-33" x="116.699219"/>
     <use xlink:href="#ArialMT-33" x="172.314453"/>
    </g>
   </g>
   <g id="text_100">
    <!-- -0.16 -->
    <g style="fill: #ffffff" transform="translate(377.373864 1156.710938) scale(0.6 -0.6)">
     <use xlink:href="#ArialMT-2d"/>
     <use xlink:href="#ArialMT-30" x="33.300781"/>
     <use xlink:href="#ArialMT-2e" x="88.916016"/>
     <use xlink:href="#ArialMT-31" x="116.699219"/>
     <use xlink:href="#ArialMT-36" x="172.314453"/>
    </g>
   </g>
   <g id="text_101">
    <!-- -0.058 -->
    <g style="fill: #ffffff" transform="translate(588.963778 1156.710938) scale(0.6 -0.6)">
     <use xlink:href="#ArialMT-2d"/>
     <use xlink:href="#ArialMT-30" x="33.300781"/>
     <use xlink:href="#ArialMT-2e" x="88.916016"/>
     <use xlink:href="#ArialMT-30" x="116.699219"/>
     <use xlink:href="#ArialMT-35" x="172.314453"/>
     <use xlink:href="#ArialMT-38" x="227.929688"/>
    </g>
   </g>
   <g id="text_102">
    <!-- 0.5 -->
    <g style="fill: #ffffff" transform="translate(860.591193 1156.710938) scale(0.6 -0.6)">
     <use xlink:href="#ArialMT-30"/>
     <use xlink:href="#ArialMT-2e" x="55.615234"/>
     <use xlink:href="#ArialMT-35" x="83.398438"/>
    </g>
   </g>
   <g id="text_103">
    <!-- -0.097 -->
    <g style="fill: #ffffff" transform="translate(1045.509233 1156.710938) scale(0.6 -0.6)">
     <use xlink:href="#ArialMT-2d"/>
     <use xlink:href="#ArialMT-30" x="33.300781"/>
     <use xlink:href="#ArialMT-2e" x="88.916016"/>
     <use xlink:href="#ArialMT-30" x="116.699219"/>
     <use xlink:href="#ArialMT-39" x="172.314453"/>
     <use xlink:href="#ArialMT-37" x="227.929688"/>
    </g>
   </g>
   <g id="text_104">
    <!-- 0.1 -->
    <g style="fill: #ffffff" transform="translate(1317.136648 1156.710938) scale(0.6 -0.6)">
     <use xlink:href="#ArialMT-30"/>
     <use xlink:href="#ArialMT-2e" x="55.615234"/>
     <use xlink:href="#ArialMT-31" x="83.398438"/>
    </g>
   </g>
   <g id="text_105">
    <!-- 0.17 -->
    <g style="fill: #ffffff" transform="translate(1528.726562 1156.710938) scale(0.6 -0.6)">
     <use xlink:href="#ArialMT-30"/>
     <use xlink:href="#ArialMT-2e" x="55.615234"/>
     <use xlink:href="#ArialMT-31" x="83.398438"/>
     <use xlink:href="#ArialMT-37" x="139.013672"/>
    </g>
   </g>
   <g id="text_106">
    <!-- 0.18 -->
    <g style="fill: #ffffff" transform="translate(1756.99929 1156.710938) scale(0.6 -0.6)">
     <use xlink:href="#ArialMT-30"/>
     <use xlink:href="#ArialMT-2e" x="55.615234"/>
     <use xlink:href="#ArialMT-31" x="83.398438"/>
     <use xlink:href="#ArialMT-38" x="139.013672"/>
    </g>
   </g>
   <g id="text_107">
    <!-- 1 -->
    <g style="fill: #262626" transform="translate(2026.972017 1156.710938) scale(0.6 -0.6)">
     <use xlink:href="#ArialMT-31"/>
    </g>
   </g>
   <g id="text_108">
    <!-- -0.046 -->
    <g style="fill: #ffffff" transform="translate(2186.872869 1156.710938) scale(0.6 -0.6)">
     <use xlink:href="#ArialMT-2d"/>
     <use xlink:href="#ArialMT-30" x="33.300781"/>
     <use xlink:href="#ArialMT-2e" x="88.916016"/>
     <use xlink:href="#ArialMT-30" x="116.699219"/>
     <use xlink:href="#ArialMT-34" x="172.314453"/>
     <use xlink:href="#ArialMT-36" x="227.929688"/>
    </g>
   </g>
   <g id="text_109">
    <!-- -0.052 -->
    <g style="fill: #ffffff" transform="translate(2415.145597 1156.710938) scale(0.6 -0.6)">
     <use xlink:href="#ArialMT-2d"/>
     <use xlink:href="#ArialMT-30" x="33.300781"/>
     <use xlink:href="#ArialMT-2e" x="88.916016"/>
     <use xlink:href="#ArialMT-30" x="116.699219"/>
     <use xlink:href="#ArialMT-35" x="172.314453"/>
     <use xlink:href="#ArialMT-32" x="227.929688"/>
    </g>
   </g>
   <g id="text_110">
    <!-- -0.36 -->
    <g style="fill: #ffffff" transform="translate(2660.101136 1156.710938) scale(0.6 -0.6)">
     <use xlink:href="#ArialMT-2d"/>
     <use xlink:href="#ArialMT-30" x="33.300781"/>
     <use xlink:href="#ArialMT-2e" x="88.916016"/>
     <use xlink:href="#ArialMT-33" x="116.699219"/>
     <use xlink:href="#ArialMT-36" x="172.314453"/>
    </g>
   </g>
   <g id="text_111">
    <!-- -0.068 -->
    <g style="fill: #ffffff" transform="translate(360.691051 1307.910938) scale(0.6 -0.6)">
     <use xlink:href="#ArialMT-2d"/>
     <use xlink:href="#ArialMT-30" x="33.300781"/>
     <use xlink:href="#ArialMT-2e" x="88.916016"/>
     <use xlink:href="#ArialMT-30" x="116.699219"/>
     <use xlink:href="#ArialMT-36" x="172.314453"/>
     <use xlink:href="#ArialMT-38" x="227.929688"/>
    </g>
   </g>
   <g id="text_112">
    <!-- -0.054 -->
    <g style="fill: #ffffff" transform="translate(588.963778 1307.910938) scale(0.6 -0.6)">
     <use xlink:href="#ArialMT-2d"/>
     <use xlink:href="#ArialMT-30" x="33.300781"/>
     <use xlink:href="#ArialMT-2e" x="88.916016"/>
     <use xlink:href="#ArialMT-30" x="116.699219"/>
     <use xlink:href="#ArialMT-35" x="172.314453"/>
     <use xlink:href="#ArialMT-34" x="227.929688"/>
    </g>
   </g>
   <g id="text_113">
    <!-- -0.12 -->
    <g style="fill: #ffffff" transform="translate(833.919318 1307.910938) scale(0.6 -0.6)">
     <use xlink:href="#ArialMT-2d"/>
     <use xlink:href="#ArialMT-30" x="33.300781"/>
     <use xlink:href="#ArialMT-2e" x="88.916016"/>
     <use xlink:href="#ArialMT-31" x="116.699219"/>
     <use xlink:href="#ArialMT-32" x="172.314453"/>
    </g>
   </g>
   <g id="text_114">
    <!-- 0.52 -->
    <g style="fill: #ffffff" transform="translate(1072.181108 1307.910938) scale(0.6 -0.6)">
     <use xlink:href="#ArialMT-30"/>
     <use xlink:href="#ArialMT-2e" x="55.615234"/>
     <use xlink:href="#ArialMT-35" x="83.398438"/>
     <use xlink:href="#ArialMT-32" x="139.013672"/>
    </g>
   </g>
   <g id="text_115">
    <!-- 0.07 -->
    <g style="fill: #ffffff" transform="translate(1300.453835 1307.910938) scale(0.6 -0.6)">
     <use xlink:href="#ArialMT-30"/>
     <use xlink:href="#ArialMT-2e" x="55.615234"/>
     <use xlink:href="#ArialMT-30" x="83.398438"/>
     <use xlink:href="#ArialMT-37" x="139.013672"/>
    </g>
   </g>
   <g id="text_116">
    <!-- 0.19 -->
    <g style="fill: #ffffff" transform="translate(1528.726562 1307.910938) scale(0.6 -0.6)">
     <use xlink:href="#ArialMT-30"/>
     <use xlink:href="#ArialMT-2e" x="55.615234"/>
     <use xlink:href="#ArialMT-31" x="83.398438"/>
     <use xlink:href="#ArialMT-39" x="139.013672"/>
    </g>
   </g>
   <g id="text_117">
    <!-- 0.27 -->
    <g style="fill: #ffffff" transform="translate(1756.99929 1307.910938) scale(0.6 -0.6)">
     <use xlink:href="#ArialMT-30"/>
     <use xlink:href="#ArialMT-2e" x="55.615234"/>
     <use xlink:href="#ArialMT-32" x="83.398438"/>
     <use xlink:href="#ArialMT-37" x="139.013672"/>
    </g>
   </g>
   <g id="text_118">
    <!-- -0.046 -->
    <g style="fill: #ffffff" transform="translate(1958.600142 1307.910938) scale(0.6 -0.6)">
     <use xlink:href="#ArialMT-2d"/>
     <use xlink:href="#ArialMT-30" x="33.300781"/>
     <use xlink:href="#ArialMT-2e" x="88.916016"/>
     <use xlink:href="#ArialMT-30" x="116.699219"/>
     <use xlink:href="#ArialMT-34" x="172.314453"/>
     <use xlink:href="#ArialMT-36" x="227.929688"/>
    </g>
   </g>
   <g id="text_119">
    <!-- 1 -->
    <g style="fill: #262626" transform="translate(2255.244744 1307.910938) scale(0.6 -0.6)">
     <use xlink:href="#ArialMT-31"/>
    </g>
   </g>
   <g id="text_120">
    <!-- -0.1 -->
    <g style="fill: #ffffff" transform="translate(2448.511222 1307.910938) scale(0.6 -0.6)">
     <use xlink:href="#ArialMT-2d"/>
     <use xlink:href="#ArialMT-30" x="33.300781"/>
     <use xlink:href="#ArialMT-2e" x="88.916016"/>
     <use xlink:href="#ArialMT-31" x="116.699219"/>
    </g>
   </g>
   <g id="text_121">
    <!-- -0.28 -->
    <g style="fill: #ffffff" transform="translate(2660.101136 1307.910938) scale(0.6 -0.6)">
     <use xlink:href="#ArialMT-2d"/>
     <use xlink:href="#ArialMT-30" x="33.300781"/>
     <use xlink:href="#ArialMT-2e" x="88.916016"/>
     <use xlink:href="#ArialMT-32" x="116.699219"/>
     <use xlink:href="#ArialMT-38" x="172.314453"/>
    </g>
   </g>
   <g id="text_122">
    <!-- 0.22 -->
    <g style="fill: #ffffff" transform="translate(387.362926 1459.110938) scale(0.6 -0.6)">
     <use xlink:href="#ArialMT-30"/>
     <use xlink:href="#ArialMT-2e" x="55.615234"/>
     <use xlink:href="#ArialMT-32" x="83.398438"/>
     <use xlink:href="#ArialMT-32" x="139.013672"/>
    </g>
   </g>
   <g id="text_123">
    <!-- 0.097 -->
    <g style="fill: #ffffff" transform="translate(598.952841 1459.110938) scale(0.6 -0.6)">
     <use xlink:href="#ArialMT-30"/>
     <use xlink:href="#ArialMT-2e" x="55.615234"/>
     <use xlink:href="#ArialMT-30" x="83.398438"/>
     <use xlink:href="#ArialMT-39" x="139.013672"/>
     <use xlink:href="#ArialMT-37" x="194.628906"/>
    </g>
   </g>
   <g id="text_124">
    <!-- -0.11 -->
    <g style="fill: #ffffff" transform="translate(836.131818 1459.110938) scale(0.6 -0.6)">
     <use xlink:href="#ArialMT-2d"/>
     <use xlink:href="#ArialMT-30" x="33.300781"/>
     <use xlink:href="#ArialMT-2e" x="88.916016"/>
     <use xlink:href="#ArialMT-31" x="116.699219"/>
     <use xlink:href="#ArialMT-31" x="164.939453"/>
    </g>
   </g>
   <g id="text_125">
    <!-- -0.058 -->
    <g style="fill: #ffffff" transform="translate(1045.509233 1459.110938) scale(0.6 -0.6)">
     <use xlink:href="#ArialMT-2d"/>
     <use xlink:href="#ArialMT-30" x="33.300781"/>
     <use xlink:href="#ArialMT-2e" x="88.916016"/>
     <use xlink:href="#ArialMT-30" x="116.699219"/>
     <use xlink:href="#ArialMT-35" x="172.314453"/>
     <use xlink:href="#ArialMT-38" x="227.929688"/>
    </g>
   </g>
   <g id="text_126">
    <!-- -0.058 -->
    <g style="fill: #ffffff" transform="translate(1273.78196 1459.110938) scale(0.6 -0.6)">
     <use xlink:href="#ArialMT-2d"/>
     <use xlink:href="#ArialMT-30" x="33.300781"/>
     <use xlink:href="#ArialMT-2e" x="88.916016"/>
     <use xlink:href="#ArialMT-30" x="116.699219"/>
     <use xlink:href="#ArialMT-35" x="172.314453"/>
     <use xlink:href="#ArialMT-38" x="227.929688"/>
    </g>
   </g>
   <g id="text_127">
    <!-- -0.081 -->
    <g style="fill: #ffffff" transform="translate(1502.054688 1459.110938) scale(0.6 -0.6)">
     <use xlink:href="#ArialMT-2d"/>
     <use xlink:href="#ArialMT-30" x="33.300781"/>
     <use xlink:href="#ArialMT-2e" x="88.916016"/>
     <use xlink:href="#ArialMT-30" x="116.699219"/>
     <use xlink:href="#ArialMT-38" x="172.314453"/>
     <use xlink:href="#ArialMT-31" x="227.929688"/>
    </g>
   </g>
   <g id="text_128">
    <!-- -0.083 -->
    <g style="fill: #ffffff" transform="translate(1730.327415 1459.110938) scale(0.6 -0.6)">
     <use xlink:href="#ArialMT-2d"/>
     <use xlink:href="#ArialMT-30" x="33.300781"/>
     <use xlink:href="#ArialMT-2e" x="88.916016"/>
     <use xlink:href="#ArialMT-30" x="116.699219"/>
     <use xlink:href="#ArialMT-38" x="172.314453"/>
     <use xlink:href="#ArialMT-33" x="227.929688"/>
    </g>
   </g>
   <g id="text_129">
    <!-- -0.052 -->
    <g style="fill: #ffffff" transform="translate(1958.600142 1459.110938) scale(0.6 -0.6)">
     <use xlink:href="#ArialMT-2d"/>
     <use xlink:href="#ArialMT-30" x="33.300781"/>
     <use xlink:href="#ArialMT-2e" x="88.916016"/>
     <use xlink:href="#ArialMT-30" x="116.699219"/>
     <use xlink:href="#ArialMT-35" x="172.314453"/>
     <use xlink:href="#ArialMT-32" x="227.929688"/>
    </g>
   </g>
   <g id="text_130">
    <!-- -0.1 -->
    <g style="fill: #ffffff" transform="translate(2220.238494 1459.110938) scale(0.6 -0.6)">
     <use xlink:href="#ArialMT-2d"/>
     <use xlink:href="#ArialMT-30" x="33.300781"/>
     <use xlink:href="#ArialMT-2e" x="88.916016"/>
     <use xlink:href="#ArialMT-31" x="116.699219"/>
    </g>
   </g>
   <g id="text_131">
    <!-- 1 -->
    <g style="fill: #262626" transform="translate(2483.517472 1459.110938) scale(0.6 -0.6)">
     <use xlink:href="#ArialMT-31"/>
    </g>
   </g>
   <g id="text_132">
    <!-- 0.16 -->
    <g style="fill: #ffffff" transform="translate(2670.090199 1459.110938) scale(0.6 -0.6)">
     <use xlink:href="#ArialMT-30"/>
     <use xlink:href="#ArialMT-2e" x="55.615234"/>
     <use xlink:href="#ArialMT-31" x="83.398438"/>
     <use xlink:href="#ArialMT-36" x="139.013672"/>
    </g>
   </g>
   <g id="text_133">
    <!-- 0.29 -->
    <g style="fill: #ffffff" transform="translate(387.362926 1610.310938) scale(0.6 -0.6)">
     <use xlink:href="#ArialMT-30"/>
     <use xlink:href="#ArialMT-2e" x="55.615234"/>
     <use xlink:href="#ArialMT-32" x="83.398438"/>
     <use xlink:href="#ArialMT-39" x="139.013672"/>
    </g>
   </g>
   <g id="text_134">
    <!-- 0.22 -->
    <g style="fill: #ffffff" transform="translate(615.635653 1610.310938) scale(0.6 -0.6)">
     <use xlink:href="#ArialMT-30"/>
     <use xlink:href="#ArialMT-2e" x="55.615234"/>
     <use xlink:href="#ArialMT-32" x="83.398438"/>
     <use xlink:href="#ArialMT-32" x="139.013672"/>
    </g>
   </g>
   <g id="text_135">
    <!-- -0.21 -->
    <g style="fill: #ffffff" transform="translate(833.919318 1610.310938) scale(0.6 -0.6)">
     <use xlink:href="#ArialMT-2d"/>
     <use xlink:href="#ArialMT-30" x="33.300781"/>
     <use xlink:href="#ArialMT-2e" x="88.916016"/>
     <use xlink:href="#ArialMT-32" x="116.699219"/>
     <use xlink:href="#ArialMT-31" x="172.314453"/>
    </g>
   </g>
   <g id="text_136">
    <!-- -0.19 -->
    <g style="fill: #ffffff" transform="translate(1062.192045 1610.310938) scale(0.6 -0.6)">
     <use xlink:href="#ArialMT-2d"/>
     <use xlink:href="#ArialMT-30" x="33.300781"/>
     <use xlink:href="#ArialMT-2e" x="88.916016"/>
     <use xlink:href="#ArialMT-31" x="116.699219"/>
     <use xlink:href="#ArialMT-39" x="172.314453"/>
    </g>
   </g>
   <g id="text_137">
    <!-- -0.32 -->
    <g style="fill: #ffffff" transform="translate(1290.464773 1610.310938) scale(0.6 -0.6)">
     <use xlink:href="#ArialMT-2d"/>
     <use xlink:href="#ArialMT-30" x="33.300781"/>
     <use xlink:href="#ArialMT-2e" x="88.916016"/>
     <use xlink:href="#ArialMT-33" x="116.699219"/>
     <use xlink:href="#ArialMT-32" x="172.314453"/>
    </g>
   </g>
   <g id="text_138">
    <!-- -0.4 -->
    <g style="fill: #ffffff" transform="translate(1535.420312 1610.310938) scale(0.6 -0.6)">
     <use xlink:href="#ArialMT-2d"/>
     <use xlink:href="#ArialMT-30" x="33.300781"/>
     <use xlink:href="#ArialMT-2e" x="88.916016"/>
     <use xlink:href="#ArialMT-34" x="116.699219"/>
    </g>
   </g>
   <g id="text_139">
    <!-- -0.33 -->
    <g style="fill: #ffffff" transform="translate(1747.010227 1610.310938) scale(0.6 -0.6)">
     <use xlink:href="#ArialMT-2d"/>
     <use xlink:href="#ArialMT-30" x="33.300781"/>
     <use xlink:href="#ArialMT-2e" x="88.916016"/>
     <use xlink:href="#ArialMT-33" x="116.699219"/>
     <use xlink:href="#ArialMT-33" x="172.314453"/>
    </g>
   </g>
   <g id="text_140">
    <!-- -0.36 -->
    <g style="fill: #ffffff" transform="translate(1975.282955 1610.310938) scale(0.6 -0.6)">
     <use xlink:href="#ArialMT-2d"/>
     <use xlink:href="#ArialMT-30" x="33.300781"/>
     <use xlink:href="#ArialMT-2e" x="88.916016"/>
     <use xlink:href="#ArialMT-33" x="116.699219"/>
     <use xlink:href="#ArialMT-36" x="172.314453"/>
    </g>
   </g>
   <g id="text_141">
    <!-- -0.28 -->
    <g style="fill: #ffffff" transform="translate(2203.555682 1610.310938) scale(0.6 -0.6)">
     <use xlink:href="#ArialMT-2d"/>
     <use xlink:href="#ArialMT-30" x="33.300781"/>
     <use xlink:href="#ArialMT-2e" x="88.916016"/>
     <use xlink:href="#ArialMT-32" x="116.699219"/>
     <use xlink:href="#ArialMT-38" x="172.314453"/>
    </g>
   </g>
   <g id="text_142">
    <!-- 0.16 -->
    <g style="fill: #ffffff" transform="translate(2441.817472 1610.310938) scale(0.6 -0.6)">
     <use xlink:href="#ArialMT-30"/>
     <use xlink:href="#ArialMT-2e" x="55.615234"/>
     <use xlink:href="#ArialMT-31" x="83.398438"/>
     <use xlink:href="#ArialMT-36" x="139.013672"/>
    </g>
   </g>
   <g id="text_143">
    <!-- 1 -->
    <g style="fill: #262626" transform="translate(2711.790199 1610.310938) scale(0.6 -0.6)">
     <use xlink:href="#ArialMT-31"/>
    </g>
   </g>
  </g>
 </g>
 <defs>
  <clipPath id="p8740ed59dd">
   <rect x="331.609375" y="7.2" width="2511" height="1663.2"/>
  </clipPath>
 </defs>
</svg>
