<?xml version="1.0" encoding="utf-8" standalone="no"?>
<!DOCTYPE svg PUBLIC "-//W3C//DTD SVG 1.1//EN"
  "http://www.w3.org/Graphics/SVG/1.1/DTD/svg11.dtd">
<svg xmlns:xlink="http://www.w3.org/1999/xlink" width="360pt" height="216pt" viewBox="0 0 360 216" xmlns="http://www.w3.org/2000/svg" version="1.1">
 <metadata>
  <rdf:RDF xmlns:dc="http://purl.org/dc/elements/1.1/" xmlns:cc="http://creativecommons.org/ns#" xmlns:rdf="http://www.w3.org/1999/02/22-rdf-syntax-ns#">
   <cc:Work>
    <dc:type rdf:resource="http://purl.org/dc/dcmitype/StillImage"/>
    <dc:date>2025-01-26T17:00:49.840826</dc:date>
    <dc:format>image/svg+xml</dc:format>
    <dc:creator>
     <cc:Agent>
      <dc:title>Matplotlib v3.8.4, https://matplotlib.org/</dc:title>
     </cc:Agent>
    </dc:creator>
   </cc:Work>
  </rdf:RDF>
 </metadata>
 <defs>
  <style type="text/css">*{stroke-linejoin: round; stroke-linecap: butt}</style>
 </defs>
 <g id="figure_1">
  <g id="patch_1">
   <path d="M 0 216 
L 360 216 
L 360 0 
L 0 0 
z
" style="fill: #ffffff"/>
  </g>
  <g id="axes_1">
   <g id="patch_2">
    <path d="M 47 169.72 
L 349.2 169.72 
L 349.2 26.16 
L 47 26.16 
z
" style="fill: #ffffff"/>
   </g>
   <g id="PathCollection_1">
    <defs>
     <path id="C0_0_e577e175f7" d="M 0 2.738613 
C 0.726289 2.738613 1.422928 2.450055 1.936492 1.936492 
C 2.450055 1.422928 2.738613 0.726289 2.738613 -0 
C 2.738613 -0.726289 2.450055 -1.422928 1.936492 -1.936492 
C 1.422928 -2.450055 0.726289 -2.738613 0 -2.738613 
C -0.726289 -2.738613 -1.422928 -2.450055 -1.936492 -1.936492 
C -2.450055 -1.422928 -2.738613 -0.726289 -2.738613 0 
C -2.738613 0.726289 -2.450055 1.422928 -1.936492 1.936492 
C -1.422928 2.450055 -0.726289 2.738613 0 2.738613 
z
"/>
    </defs>
    <g clip-path="url(#p6b3947bb8a)">
     <use xlink:href="#C0_0_e577e175f7" x="66.123173" y="155.781555" style="fill: none; stroke: #ff0000"/>
    </g>
    <g clip-path="url(#p6b3947bb8a)">
     <use xlink:href="#C0_0_e577e175f7" x="71.509982" y="155.718281" style="fill: none; stroke: #ff0000"/>
    </g>
    <g clip-path="url(#p6b3947bb8a)">
     <use xlink:href="#C0_0_e577e175f7" x="76.896791" y="154.209645" style="fill: none; stroke: #ff0000"/>
    </g>
    <g clip-path="url(#p6b3947bb8a)">
     <use xlink:href="#C0_0_e577e175f7" x="82.283601" y="150.718337" style="fill: none; stroke: #ff0000"/>
    </g>
    <g clip-path="url(#p6b3947bb8a)">
     <use xlink:href="#C0_0_e577e175f7" x="87.67041" y="151.808496" style="fill: none; stroke: #ff0000"/>
    </g>
    <g clip-path="url(#p6b3947bb8a)">
     <use xlink:href="#C0_0_e577e175f7" x="93.057219" y="147.526084" style="fill: none; stroke: #ff0000"/>
    </g>
    <g clip-path="url(#p6b3947bb8a)">
     <use xlink:href="#C0_0_e577e175f7" x="98.444029" y="146.912029" style="fill: none; stroke: #ff0000"/>
    </g>
    <g clip-path="url(#p6b3947bb8a)">
     <use xlink:href="#C0_0_e577e175f7" x="103.830838" y="142.429601" style="fill: none; stroke: #ff0000"/>
    </g>
    <g clip-path="url(#p6b3947bb8a)">
     <use xlink:href="#C0_0_e577e175f7" x="109.217647" y="151.757527" style="fill: none; stroke: #ff0000"/>
    </g>
    <g clip-path="url(#p6b3947bb8a)">
     <use xlink:href="#C0_0_e577e175f7" x="114.604456" y="138.396424" style="fill: none; stroke: #ff0000"/>
    </g>
    <g clip-path="url(#p6b3947bb8a)">
     <use xlink:href="#C0_0_e577e175f7" x="119.991266" y="147.931088" style="fill: none; stroke: #ff0000"/>
    </g>
    <g clip-path="url(#p6b3947bb8a)">
     <use xlink:href="#C0_0_e577e175f7" x="125.378075" y="132.449261" style="fill: none; stroke: #ff0000"/>
    </g>
    <g clip-path="url(#p6b3947bb8a)">
     <use xlink:href="#C0_0_e577e175f7" x="130.764884" y="112.966233" style="fill: none; stroke: #ff0000"/>
    </g>
    <g clip-path="url(#p6b3947bb8a)">
     <use xlink:href="#C0_0_e577e175f7" x="136.151693" y="81.964695" style="fill: none; stroke: #ff0000"/>
    </g>
    <g clip-path="url(#p6b3947bb8a)">
     <use xlink:href="#C0_0_e577e175f7" x="141.538503" y="69.878089" style="fill: none; stroke: #ff0000"/>
    </g>
    <g clip-path="url(#p6b3947bb8a)">
     <use xlink:href="#C0_0_e577e175f7" x="146.925312" y="57.83915" style="fill: none; stroke: #ff0000"/>
    </g>
    <g clip-path="url(#p6b3947bb8a)">
     <use xlink:href="#C0_0_e577e175f7" x="152.312121" y="44.759528" style="fill: none; stroke: #ff0000"/>
    </g>
    <g clip-path="url(#p6b3947bb8a)">
     <use xlink:href="#C0_0_e577e175f7" x="157.69893" y="42.919515" style="fill: none; stroke: #ff0000"/>
    </g>
    <g clip-path="url(#p6b3947bb8a)">
     <use xlink:href="#C0_0_e577e175f7" x="163.08574" y="46.889219" style="fill: none; stroke: #ff0000"/>
    </g>
    <g clip-path="url(#p6b3947bb8a)">
     <use xlink:href="#C0_0_e577e175f7" x="168.472549" y="44.811807" style="fill: none; stroke: #ff0000"/>
    </g>
    <g clip-path="url(#p6b3947bb8a)">
     <use xlink:href="#C0_0_e577e175f7" x="173.859358" y="43.546696" style="fill: none; stroke: #ff0000"/>
    </g>
    <g clip-path="url(#p6b3947bb8a)">
     <use xlink:href="#C0_0_e577e175f7" x="179.246168" y="43.67351" style="fill: none; stroke: #ff0000"/>
    </g>
    <g clip-path="url(#p6b3947bb8a)">
     <use xlink:href="#C0_0_e577e175f7" x="184.632977" y="46.915034" style="fill: none; stroke: #ff0000"/>
    </g>
    <g clip-path="url(#p6b3947bb8a)">
     <use xlink:href="#C0_0_e577e175f7" x="190.019786" y="38.379468" style="fill: none; stroke: #ff0000"/>
    </g>
    <g clip-path="url(#p6b3947bb8a)">
     <use xlink:href="#C0_0_e577e175f7" x="195.406595" y="45.407088" style="fill: none; stroke: #ff0000"/>
    </g>
    <g clip-path="url(#p6b3947bb8a)">
     <use xlink:href="#C0_0_e577e175f7" x="200.793405" y="41.220254" style="fill: none; stroke: #ff0000"/>
    </g>
    <g clip-path="url(#p6b3947bb8a)">
     <use xlink:href="#C0_0_e577e175f7" x="206.180214" y="44.179343" style="fill: none; stroke: #ff0000"/>
    </g>
    <g clip-path="url(#p6b3947bb8a)">
     <use xlink:href="#C0_0_e577e175f7" x="211.567023" y="36.640526" style="fill: none; stroke: #ff0000"/>
    </g>
    <g clip-path="url(#p6b3947bb8a)">
     <use xlink:href="#C0_0_e577e175f7" x="216.953832" y="45.265934" style="fill: none; stroke: #ff0000"/>
    </g>
    <g clip-path="url(#p6b3947bb8a)">
     <use xlink:href="#C0_0_e577e175f7" x="222.340642" y="46.297873" style="fill: none; stroke: #ff0000"/>
    </g>
    <g clip-path="url(#p6b3947bb8a)">
     <use xlink:href="#C0_0_e577e175f7" x="227.727451" y="40.462282" style="fill: none; stroke: #ff0000"/>
    </g>
    <g clip-path="url(#p6b3947bb8a)">
     <use xlink:href="#C0_0_e577e175f7" x="233.11426" y="45.703516" style="fill: none; stroke: #ff0000"/>
    </g>
    <g clip-path="url(#p6b3947bb8a)">
     <use xlink:href="#C0_0_e577e175f7" x="238.50107" y="53.64561" style="fill: none; stroke: #ff0000"/>
    </g>
    <g clip-path="url(#p6b3947bb8a)">
     <use xlink:href="#C0_0_e577e175f7" x="243.887879" y="58.121508" style="fill: none; stroke: #ff0000"/>
    </g>
    <g clip-path="url(#p6b3947bb8a)">
     <use xlink:href="#C0_0_e577e175f7" x="249.274688" y="83.096281" style="fill: none; stroke: #ff0000"/>
    </g>
    <g clip-path="url(#p6b3947bb8a)">
     <use xlink:href="#C0_0_e577e175f7" x="254.661497" y="94.919667" style="fill: none; stroke: #ff0000"/>
    </g>
    <g clip-path="url(#p6b3947bb8a)">
     <use xlink:href="#C0_0_e577e175f7" x="260.048307" y="123.262323" style="fill: none; stroke: #ff0000"/>
    </g>
    <g clip-path="url(#p6b3947bb8a)">
     <use xlink:href="#C0_0_e577e175f7" x="265.435116" y="109.063806" style="fill: none; stroke: #ff0000"/>
    </g>
    <g clip-path="url(#p6b3947bb8a)">
     <use xlink:href="#C0_0_e577e175f7" x="270.821925" y="120.288613" style="fill: none; stroke: #ff0000"/>
    </g>
    <g clip-path="url(#p6b3947bb8a)">
     <use xlink:href="#C0_0_e577e175f7" x="276.208734" y="131.739802" style="fill: none; stroke: #ff0000"/>
    </g>
    <g clip-path="url(#p6b3947bb8a)">
     <use xlink:href="#C0_0_e577e175f7" x="281.595544" y="137.743106" style="fill: none; stroke: #ff0000"/>
    </g>
    <g clip-path="url(#p6b3947bb8a)">
     <use xlink:href="#C0_0_e577e175f7" x="286.982353" y="145.714938" style="fill: none; stroke: #ff0000"/>
    </g>
    <g clip-path="url(#p6b3947bb8a)">
     <use xlink:href="#C0_0_e577e175f7" x="292.369162" y="149.11901" style="fill: none; stroke: #ff0000"/>
    </g>
    <g clip-path="url(#p6b3947bb8a)">
     <use xlink:href="#C0_0_e577e175f7" x="297.755971" y="148.110914" style="fill: none; stroke: #ff0000"/>
    </g>
    <g clip-path="url(#p6b3947bb8a)">
     <use xlink:href="#C0_0_e577e175f7" x="303.142781" y="149.409624" style="fill: none; stroke: #ff0000"/>
    </g>
    <g clip-path="url(#p6b3947bb8a)">
     <use xlink:href="#C0_0_e577e175f7" x="308.52959" y="157.597212" style="fill: none; stroke: #ff0000"/>
    </g>
    <g clip-path="url(#p6b3947bb8a)">
     <use xlink:href="#C0_0_e577e175f7" x="313.916399" y="161.141831" style="fill: none; stroke: #ff0000"/>
    </g>
    <g clip-path="url(#p6b3947bb8a)">
     <use xlink:href="#C0_0_e577e175f7" x="319.303209" y="163.194545" style="fill: none; stroke: #ff0000"/>
    </g>
    <g clip-path="url(#p6b3947bb8a)">
     <use xlink:href="#C0_0_e577e175f7" x="324.690018" y="149.719958" style="fill: none; stroke: #ff0000"/>
    </g>
    <g clip-path="url(#p6b3947bb8a)">
     <use xlink:href="#C0_0_e577e175f7" x="330.076827" y="158.516978" style="fill: none; stroke: #ff0000"/>
    </g>
    <g clip-path="url(#p6b3947bb8a)">
     <use xlink:href="#C0_0_e577e175f7" x="335.463636" y="145.206371" style="fill: none; stroke: #ff0000"/>
    </g>
   </g>
   <g id="patch_3">
    <path d="M 60.736364 163.194545 
L 114.604456 163.194545 
L 114.604456 132.702411 
L 60.736364 132.702411 
L 60.736364 163.194545 
z
" clip-path="url(#p6b3947bb8a)" style="fill: none; stroke-dasharray: 5.55,2.4; stroke-dashoffset: 0; stroke: #ff0000; stroke-width: 1.5; stroke-linejoin: miter"/>
   </g>
   <g id="patch_4">
    <path d="M 141.538503 63.533164 
L 249.274688 63.533164 
L 249.274688 32.685455 
L 141.538503 32.685455 
L 141.538503 63.533164 
z
" clip-path="url(#p6b3947bb8a)" style="fill: none; stroke-dasharray: 5.55,2.4; stroke-dashoffset: 0; stroke: #ff0000; stroke-width: 1.5; stroke-linejoin: miter"/>
   </g>
   <g id="matplotlib.axis_1">
    <g id="xtick_1">
     <g id="line2d_1">
      <defs>
       <path id="m25e60201d7" d="M 0 0 
L 0 3.5 
" style="stroke: #000000; stroke-width: 0.8"/>
      </defs>
      <g>
       <use xlink:href="#m25e60201d7" x="60.736364" y="169.72" style="stroke: #000000; stroke-width: 0.8"/>
      </g>
     </g>
     <g id="text_1">
      <!-- 0 -->
      <g transform="translate(57.486364 185.328438) scale(0.13 -0.13)">
       <defs>
        <path id="TimesNewRomanPS-BoldMT-30" d="M 2966 2119 
Q 2966 1484 2788 934 
Q 2681 597 2501 381 
Q 2322 166 2094 39 
Q 1866 -88 1597 -88 
Q 1291 -88 1044 68 
Q 797 225 606 516 
Q 469 728 366 1081 
Q 231 1559 231 2069 
Q 231 2759 425 3338 
Q 584 3816 909 4070 
Q 1234 4325 1597 4325 
Q 1966 4325 2286 4073 
Q 2606 3822 2756 3397 
Q 2966 2813 2966 2119 
z
M 2003 2125 
Q 2003 3238 1991 3422 
Q 1959 3856 1841 4009 
Q 1763 4109 1588 4109 
Q 1453 4109 1375 4034 
Q 1259 3925 1218 3648 
Q 1178 3372 1178 1719 
Q 1178 819 1241 513 
Q 1288 291 1375 216 
Q 1463 141 1606 141 
Q 1763 141 1841 241 
Q 1972 416 1991 781 
L 2003 2125 
z
" transform="scale(0.015625)"/>
       </defs>
       <use xlink:href="#TimesNewRomanPS-BoldMT-30"/>
      </g>
     </g>
    </g>
    <g id="xtick_2">
     <g id="line2d_2">
      <g>
       <use xlink:href="#m25e60201d7" x="87.67041" y="169.72" style="stroke: #000000; stroke-width: 0.8"/>
      </g>
     </g>
     <g id="text_2">
      <!-- 5 -->
      <g transform="translate(84.42041 185.328438) scale(0.13 -0.13)">
       <defs>
        <path id="TimesNewRomanPS-BoldMT-35" d="M 975 4238 
L 2959 4238 
L 2644 3431 
L 975 3431 
L 816 3009 
Q 1894 2969 2475 2472 
Q 2953 2063 2953 1453 
Q 2953 1063 2731 689 
Q 2509 316 2106 114 
Q 1703 -88 1222 -88 
Q 703 -88 425 106 
Q 231 244 231 419 
Q 231 553 332 656 
Q 434 759 569 759 
Q 691 759 816 709 
Q 941 659 1244 447 
Q 1434 316 1572 266 
Q 1669 228 1791 228 
Q 2047 228 2226 415 
Q 2406 603 2406 866 
Q 2406 1416 1856 1759 
Q 1306 2103 469 2103 
Q 384 2103 216 2100 
L 975 4238 
z
" transform="scale(0.015625)"/>
       </defs>
       <use xlink:href="#TimesNewRomanPS-BoldMT-35"/>
      </g>
     </g>
    </g>
    <g id="xtick_3">
     <g id="line2d_3">
      <g>
       <use xlink:href="#m25e60201d7" x="114.604456" y="169.72" style="stroke: #000000; stroke-width: 0.8"/>
      </g>
     </g>
     <g id="text_3">
      <!-- 10 -->
      <g transform="translate(108.104456 185.328438) scale(0.13 -0.13)">
       <defs>
        <path id="TimesNewRomanPS-BoldMT-31" d="M 2084 4325 
L 2084 859 
Q 2084 469 2118 361 
Q 2153 253 2262 184 
Q 2372 116 2613 116 
L 2709 116 
L 2709 0 
L 478 0 
L 478 116 
L 591 116 
Q 863 116 978 178 
Q 1094 241 1134 350 
Q 1175 459 1175 859 
L 1175 3056 
Q 1175 3350 1147 3423 
Q 1119 3497 1042 3548 
Q 966 3600 866 3600 
Q 706 3600 478 3500 
L 422 3613 
L 1981 4325 
L 2084 4325 
z
" transform="scale(0.015625)"/>
       </defs>
       <use xlink:href="#TimesNewRomanPS-BoldMT-31"/>
       <use xlink:href="#TimesNewRomanPS-BoldMT-30" x="50"/>
      </g>
     </g>
    </g>
    <g id="xtick_4">
     <g id="line2d_4">
      <g>
       <use xlink:href="#m25e60201d7" x="141.538503" y="169.72" style="stroke: #000000; stroke-width: 0.8"/>
      </g>
     </g>
     <g id="text_4">
      <!-- 15 -->
      <g transform="translate(135.038503 185.328438) scale(0.13 -0.13)">
       <use xlink:href="#TimesNewRomanPS-BoldMT-31"/>
       <use xlink:href="#TimesNewRomanPS-BoldMT-35" x="50"/>
      </g>
     </g>
    </g>
    <g id="xtick_5">
     <g id="line2d_5">
      <g>
       <use xlink:href="#m25e60201d7" x="168.472549" y="169.72" style="stroke: #000000; stroke-width: 0.8"/>
      </g>
     </g>
     <g id="text_5">
      <!-- 20 -->
      <g transform="translate(161.972549 185.328438) scale(0.13 -0.13)">
       <defs>
        <path id="TimesNewRomanPS-BoldMT-32" d="M 2650 0 
L 156 0 
L 156 69 
Q 1303 1434 1548 1906 
Q 1794 2378 1794 2828 
Q 1794 3156 1591 3373 
Q 1388 3591 1094 3591 
Q 613 3591 347 3109 
L 231 3150 
Q 400 3750 744 4037 
Q 1088 4325 1538 4325 
Q 1859 4325 2125 4175 
Q 2391 4025 2541 3764 
Q 2691 3503 2691 3275 
Q 2691 2859 2459 2431 
Q 2144 1853 1081 819 
L 1997 819 
Q 2334 819 2436 847 
Q 2538 875 2603 942 
Q 2669 1009 2775 1225 
L 2888 1225 
L 2650 0 
z
" transform="scale(0.015625)"/>
       </defs>
       <use xlink:href="#TimesNewRomanPS-BoldMT-32"/>
       <use xlink:href="#TimesNewRomanPS-BoldMT-30" x="50"/>
      </g>
     </g>
    </g>
    <g id="xtick_6">
     <g id="line2d_6">
      <g>
       <use xlink:href="#m25e60201d7" x="195.406595" y="169.72" style="stroke: #000000; stroke-width: 0.8"/>
      </g>
     </g>
     <g id="text_6">
      <!-- 25 -->
      <g transform="translate(188.906595 185.328438) scale(0.13 -0.13)">
       <use xlink:href="#TimesNewRomanPS-BoldMT-32"/>
       <use xlink:href="#TimesNewRomanPS-BoldMT-35" x="50"/>
      </g>
     </g>
    </g>
    <g id="xtick_7">
     <g id="line2d_7">
      <g>
       <use xlink:href="#m25e60201d7" x="222.340642" y="169.72" style="stroke: #000000; stroke-width: 0.8"/>
      </g>
     </g>
     <g id="text_7">
      <!-- 30 -->
      <g transform="translate(215.840642 185.328438) scale(0.13 -0.13)">
       <defs>
        <path id="TimesNewRomanPS-BoldMT-33" d="M 947 2125 
L 947 2234 
Q 1303 2338 1440 2427 
Q 1578 2516 1678 2698 
Q 1778 2881 1778 3069 
Q 1778 3328 1589 3514 
Q 1400 3700 1119 3700 
Q 681 3700 375 3238 
L 259 3278 
Q 484 3800 836 4062 
Q 1188 4325 1619 4325 
Q 2059 4325 2345 4056 
Q 2631 3788 2631 3428 
Q 2631 3194 2498 2976 
Q 2366 2759 2081 2594 
Q 2447 2416 2639 2155 
Q 2831 1894 2831 1500 
Q 2831 838 2351 373 
Q 1872 -91 1066 -91 
Q 528 -91 281 88 
Q 103 213 103 409 
Q 103 553 206 654 
Q 309 756 444 756 
Q 547 756 638 713 
Q 688 688 992 439 
Q 1297 191 1563 191 
Q 1794 191 1959 373 
Q 2125 556 2125 838 
Q 2125 1266 1825 1627 
Q 1525 1988 947 2125 
z
" transform="scale(0.015625)"/>
       </defs>
       <use xlink:href="#TimesNewRomanPS-BoldMT-33"/>
       <use xlink:href="#TimesNewRomanPS-BoldMT-30" x="50"/>
      </g>
     </g>
    </g>
    <g id="xtick_8">
     <g id="line2d_8">
      <g>
       <use xlink:href="#m25e60201d7" x="249.274688" y="169.72" style="stroke: #000000; stroke-width: 0.8"/>
      </g>
     </g>
     <g id="text_8">
      <!-- 35 -->
      <g transform="translate(242.774688 185.328438) scale(0.13 -0.13)">
       <use xlink:href="#TimesNewRomanPS-BoldMT-33"/>
       <use xlink:href="#TimesNewRomanPS-BoldMT-35" x="50"/>
      </g>
     </g>
    </g>
    <g id="xtick_9">
     <g id="line2d_9">
      <g>
       <use xlink:href="#m25e60201d7" x="276.208734" y="169.72" style="stroke: #000000; stroke-width: 0.8"/>
      </g>
     </g>
     <g id="text_9">
      <!-- 40 -->
      <g transform="translate(269.708734 185.328438) scale(0.13 -0.13)">
       <defs>
        <path id="TimesNewRomanPS-BoldMT-34" d="M 159 1597 
L 2172 4325 
L 2553 4325 
L 2553 1597 
L 2941 1597 
L 2941 950 
L 2553 950 
L 2553 0 
L 1694 0 
L 1694 950 
L 159 950 
L 159 1597 
z
M 463 1597 
L 1694 1597 
L 1694 3269 
L 463 1597 
z
" transform="scale(0.015625)"/>
       </defs>
       <use xlink:href="#TimesNewRomanPS-BoldMT-34"/>
       <use xlink:href="#TimesNewRomanPS-BoldMT-30" x="50"/>
      </g>
     </g>
    </g>
    <g id="xtick_10">
     <g id="line2d_10">
      <g>
       <use xlink:href="#m25e60201d7" x="303.142781" y="169.72" style="stroke: #000000; stroke-width: 0.8"/>
      </g>
     </g>
     <g id="text_10">
      <!-- 45 -->
      <g transform="translate(296.642781 185.328438) scale(0.13 -0.13)">
       <use xlink:href="#TimesNewRomanPS-BoldMT-34"/>
       <use xlink:href="#TimesNewRomanPS-BoldMT-35" x="50"/>
      </g>
     </g>
    </g>
    <g id="xtick_11">
     <g id="line2d_11">
      <g>
       <use xlink:href="#m25e60201d7" x="330.076827" y="169.72" style="stroke: #000000; stroke-width: 0.8"/>
      </g>
     </g>
     <g id="text_11">
      <!-- 50 -->
      <g transform="translate(323.576827 185.328438) scale(0.13 -0.13)">
       <use xlink:href="#TimesNewRomanPS-BoldMT-35"/>
       <use xlink:href="#TimesNewRomanPS-BoldMT-30" x="50"/>
      </g>
     </g>
    </g>
    <g id="text_12">
     <!-- Frame Number -->
     <g transform="translate(154.961328 200.717656) scale(0.13 -0.13)">
      <defs>
       <path id="TimesNewRomanPS-BoldMT-46" d="M 1759 3994 
L 1759 2253 
L 1881 2253 
Q 2163 2253 2341 2337 
Q 2519 2422 2642 2622 
Q 2766 2822 2803 3163 
L 2913 3163 
L 2913 1034 
L 2803 1034 
Q 2744 1638 2480 1830 
Q 2216 2022 1881 2022 
L 1759 2022 
L 1759 725 
Q 1759 400 1795 319 
Q 1831 238 1936 177 
Q 2041 116 2219 116 
L 2359 116 
L 2359 0 
L 144 0 
L 144 116 
L 284 116 
Q 469 116 581 181 
Q 663 225 706 331 
Q 741 406 741 725 
L 741 3513 
Q 741 3838 706 3919 
Q 672 4000 567 4061 
Q 463 4122 284 4122 
L 144 4122 
L 144 4238 
L 3719 4238 
L 3719 3022 
L 3591 3022 
Q 3547 3450 3367 3656 
Q 3188 3863 2847 3947 
Q 2659 3994 2153 3994 
L 1759 3994 
z
" transform="scale(0.015625)"/>
       <path id="TimesNewRomanPS-BoldMT-72" d="M 1428 2922 
L 1428 2259 
Q 1719 2713 1937 2861 
Q 2156 3009 2359 3009 
Q 2534 3009 2639 2901 
Q 2744 2794 2744 2597 
Q 2744 2388 2642 2272 
Q 2541 2156 2397 2156 
Q 2231 2156 2109 2262 
Q 1988 2369 1966 2381 
Q 1934 2400 1894 2400 
Q 1803 2400 1722 2331 
Q 1594 2225 1528 2028 
Q 1428 1725 1428 1359 
L 1428 688 
L 1431 513 
Q 1431 334 1453 284 
Q 1491 200 1564 161 
Q 1638 122 1813 113 
L 1813 0 
L 234 0 
L 234 113 
Q 425 128 492 217 
Q 559 306 559 688 
L 559 2303 
Q 559 2553 534 2622 
Q 503 2709 443 2750 
Q 384 2791 234 2806 
L 234 2922 
L 1428 2922 
z
" transform="scale(0.015625)"/>
       <path id="TimesNewRomanPS-BoldMT-61" d="M 1828 431 
Q 1294 -41 869 -41 
Q 619 -41 453 123 
Q 288 288 288 534 
Q 288 869 575 1136 
Q 863 1403 1828 1847 
L 1828 2141 
Q 1828 2472 1792 2558 
Q 1756 2644 1656 2708 
Q 1556 2772 1431 2772 
Q 1228 2772 1097 2681 
Q 1016 2625 1016 2550 
Q 1016 2484 1103 2388 
Q 1222 2253 1222 2128 
Q 1222 1975 1108 1867 
Q 994 1759 809 1759 
Q 613 1759 480 1878 
Q 347 1997 347 2156 
Q 347 2381 525 2586 
Q 703 2791 1022 2900 
Q 1341 3009 1684 3009 
Q 2100 3009 2342 2832 
Q 2584 2656 2656 2450 
Q 2700 2319 2700 1847 
L 2700 713 
Q 2700 513 2715 461 
Q 2731 409 2762 384 
Q 2794 359 2834 359 
Q 2916 359 3000 475 
L 3094 400 
Q 2938 169 2770 64 
Q 2603 -41 2391 -41 
Q 2141 -41 2000 76 
Q 1859 194 1828 431 
z
M 1828 659 
L 1828 1638 
Q 1450 1416 1266 1163 
Q 1144 994 1144 822 
Q 1144 678 1247 569 
Q 1325 484 1466 484 
Q 1622 484 1828 659 
z
" transform="scale(0.015625)"/>
       <path id="TimesNewRomanPS-BoldMT-6d" d="M 1428 2922 
L 1428 2538 
Q 1669 2800 1873 2904 
Q 2078 3009 2322 3009 
Q 2603 3009 2793 2878 
Q 2984 2747 3088 2478 
Q 3338 2759 3567 2884 
Q 3797 3009 4047 3009 
Q 4350 3009 4529 2870 
Q 4709 2731 4779 2517 
Q 4850 2303 4850 1834 
L 4850 638 
Q 4850 300 4911 219 
Q 4972 138 5166 113 
L 5166 0 
L 3656 0 
L 3656 113 
Q 3834 128 3919 250 
Q 3975 334 3975 638 
L 3975 1894 
Q 3975 2284 3944 2390 
Q 3913 2497 3845 2548 
Q 3778 2600 3688 2600 
Q 3553 2600 3415 2501 
Q 3278 2403 3138 2206 
L 3138 638 
Q 3138 322 3191 241 
Q 3263 125 3466 113 
L 3466 0 
L 1953 0 
L 1953 113 
Q 2075 119 2145 173 
Q 2216 228 2239 304 
Q 2263 381 2263 638 
L 2263 1894 
Q 2263 2291 2231 2391 
Q 2200 2491 2126 2547 
Q 2053 2603 1969 2603 
Q 1844 2603 1741 2538 
Q 1594 2441 1428 2206 
L 1428 638 
Q 1428 328 1489 229 
Q 1550 131 1744 113 
L 1744 0 
L 238 0 
L 238 113 
Q 422 131 500 231 
Q 553 300 553 638 
L 553 2288 
Q 553 2619 492 2700 
Q 431 2781 238 2806 
L 238 2922 
L 1428 2922 
z
" transform="scale(0.015625)"/>
       <path id="TimesNewRomanPS-BoldMT-65" d="M 2691 1566 
L 1088 1566 
Q 1116 984 1397 647 
Q 1613 388 1916 388 
Q 2103 388 2256 492 
Q 2409 597 2584 869 
L 2691 800 
Q 2453 316 2165 114 
Q 1878 -88 1500 -88 
Q 850 -88 516 413 
Q 247 816 247 1413 
Q 247 2144 642 2576 
Q 1038 3009 1569 3009 
Q 2013 3009 2339 2645 
Q 2666 2281 2691 1566 
z
M 1922 1775 
Q 1922 2278 1867 2465 
Q 1813 2653 1697 2750 
Q 1631 2806 1522 2806 
Q 1359 2806 1256 2647 
Q 1072 2369 1072 1884 
L 1072 1775 
L 1922 1775 
z
" transform="scale(0.015625)"/>
       <path id="TimesNewRomanPS-BoldMT-20" transform="scale(0.015625)"/>
       <path id="TimesNewRomanPS-BoldMT-4e" d="M 1594 4238 
L 3684 1609 
L 3684 3431 
Q 3684 3813 3575 3947 
Q 3425 4128 3072 4122 
L 3072 4238 
L 4472 4238 
L 4472 4122 
Q 4203 4088 4111 4033 
Q 4019 3978 3967 3854 
Q 3916 3731 3916 3431 
L 3916 -97 
L 3809 -97 
L 944 3431 
L 944 738 
Q 944 372 1111 244 
Q 1278 116 1494 116 
L 1594 116 
L 1594 0 
L 91 0 
L 91 116 
Q 441 119 578 259 
Q 716 400 716 738 
L 716 3728 
L 625 3841 
Q 491 4009 387 4062 
Q 284 4116 91 4122 
L 91 4238 
L 1594 4238 
z
" transform="scale(0.015625)"/>
       <path id="TimesNewRomanPS-BoldMT-75" d="M 3038 2922 
L 3038 634 
Q 3038 300 3100 217 
Q 3163 134 3353 113 
L 3353 0 
L 2163 0 
L 2163 391 
Q 1953 141 1743 26 
Q 1534 -88 1275 -88 
Q 1028 -88 836 64 
Q 644 216 578 419 
Q 513 622 513 1128 
L 513 2288 
Q 513 2619 452 2700 
Q 391 2781 197 2806 
L 197 2922 
L 1388 2922 
L 1388 925 
Q 1388 613 1417 522 
Q 1447 431 1511 384 
Q 1575 338 1659 338 
Q 1772 338 1863 397 
Q 1988 478 2163 725 
L 2163 2288 
Q 2163 2619 2102 2700 
Q 2041 2781 1847 2806 
L 1847 2922 
L 3038 2922 
z
" transform="scale(0.015625)"/>
       <path id="TimesNewRomanPS-BoldMT-62" d="M 1347 4238 
L 1347 2628 
Q 1716 3009 2153 3009 
Q 2453 3009 2718 2832 
Q 2984 2656 3134 2331 
Q 3284 2006 3284 1581 
Q 3284 1103 3093 712 
Q 2903 322 2584 117 
Q 2266 -88 1856 -88 
Q 1619 -88 1434 -12 
Q 1250 63 1072 231 
L 588 -84 
L 481 -84 
L 481 3631 
Q 481 3884 459 3944 
Q 428 4031 361 4073 
Q 294 4116 134 4122 
L 134 4238 
L 1347 4238 
z
M 1347 2350 
L 1347 1050 
Q 1347 653 1366 544 
Q 1397 359 1515 245 
Q 1634 131 1819 131 
Q 1978 131 2092 222 
Q 2206 313 2282 581 
Q 2359 850 2359 1550 
Q 2359 2222 2191 2472 
Q 2069 2653 1863 2653 
Q 1594 2653 1347 2350 
z
" transform="scale(0.015625)"/>
      </defs>
      <use xlink:href="#TimesNewRomanPS-BoldMT-46"/>
      <use xlink:href="#TimesNewRomanPS-BoldMT-72" x="61.083984"/>
      <use xlink:href="#TimesNewRomanPS-BoldMT-61" x="105.46875"/>
      <use xlink:href="#TimesNewRomanPS-BoldMT-6d" x="155.46875"/>
      <use xlink:href="#TimesNewRomanPS-BoldMT-65" x="238.769531"/>
      <use xlink:href="#TimesNewRomanPS-BoldMT-20" x="283.154297"/>
      <use xlink:href="#TimesNewRomanPS-BoldMT-4e" x="308.154297"/>
      <use xlink:href="#TimesNewRomanPS-BoldMT-75" x="380.371094"/>
      <use xlink:href="#TimesNewRomanPS-BoldMT-6d" x="435.986328"/>
      <use xlink:href="#TimesNewRomanPS-BoldMT-62" x="519.287109"/>
      <use xlink:href="#TimesNewRomanPS-BoldMT-65" x="574.902344"/>
      <use xlink:href="#TimesNewRomanPS-BoldMT-72" x="619.287109"/>
     </g>
    </g>
   </g>
   <g id="matplotlib.axis_2">
    <g id="ytick_1">
     <g id="line2d_12">
      <defs>
       <path id="mdcca6fd99a" d="M 0 0 
L -3.5 0 
" style="stroke: #000000; stroke-width: 0.8"/>
      </defs>
      <g>
       <use xlink:href="#mdcca6fd99a" x="47" y="163.194545" style="stroke: #000000; stroke-width: 0.8"/>
      </g>
     </g>
     <g id="text_13">
      <!-- 0 -->
      <g transform="translate(33.5 167.498764) scale(0.13 -0.13)">
       <use xlink:href="#TimesNewRomanPS-BoldMT-30"/>
      </g>
     </g>
    </g>
    <g id="ytick_2">
     <g id="line2d_13">
      <g>
       <use xlink:href="#mdcca6fd99a" x="47" y="134.724477" style="stroke: #000000; stroke-width: 0.8"/>
      </g>
     </g>
     <g id="text_14">
      <!-- 5 -->
      <g transform="translate(33.5 139.028696) scale(0.13 -0.13)">
       <use xlink:href="#TimesNewRomanPS-BoldMT-35"/>
      </g>
     </g>
    </g>
    <g id="ytick_3">
     <g id="line2d_14">
      <g>
       <use xlink:href="#mdcca6fd99a" x="47" y="106.254408" style="stroke: #000000; stroke-width: 0.8"/>
      </g>
     </g>
     <g id="text_15">
      <!-- 10 -->
      <g transform="translate(27 110.558627) scale(0.13 -0.13)">
       <use xlink:href="#TimesNewRomanPS-BoldMT-31"/>
       <use xlink:href="#TimesNewRomanPS-BoldMT-30" x="50"/>
      </g>
     </g>
    </g>
    <g id="ytick_4">
     <g id="line2d_15">
      <g>
       <use xlink:href="#mdcca6fd99a" x="47" y="77.78434" style="stroke: #000000; stroke-width: 0.8"/>
      </g>
     </g>
     <g id="text_16">
      <!-- 15 -->
      <g transform="translate(27 82.088558) scale(0.13 -0.13)">
       <use xlink:href="#TimesNewRomanPS-BoldMT-31"/>
       <use xlink:href="#TimesNewRomanPS-BoldMT-35" x="50"/>
      </g>
     </g>
    </g>
    <g id="ytick_5">
     <g id="line2d_16">
      <g>
       <use xlink:href="#mdcca6fd99a" x="47" y="49.314271" style="stroke: #000000; stroke-width: 0.8"/>
      </g>
     </g>
     <g id="text_17">
      <!-- 20 -->
      <g transform="translate(27 53.61849) scale(0.13 -0.13)">
       <use xlink:href="#TimesNewRomanPS-BoldMT-32"/>
       <use xlink:href="#TimesNewRomanPS-BoldMT-30" x="50"/>
      </g>
     </g>
    </g>
    <g id="text_18">
     <!-- Lip Distance -->
     <g transform="translate(20.219219 133.150703) rotate(-90) scale(0.13 -0.13)">
      <defs>
       <path id="TimesNewRomanPS-BoldMT-4c" d="M 4041 1488 
L 3881 0 
L 119 0 
L 119 116 
L 259 116 
Q 444 116 556 181 
Q 638 225 681 331 
Q 716 406 716 725 
L 716 3513 
Q 716 3838 681 3919 
Q 647 4000 542 4061 
Q 438 4122 259 4122 
L 119 4122 
L 119 4238 
L 2378 4238 
L 2378 4122 
L 2194 4122 
Q 2009 4122 1897 4056 
Q 1816 4013 1769 3906 
Q 1734 3831 1734 3513 
L 1734 813 
Q 1734 488 1771 398 
Q 1809 309 1919 266 
Q 1997 238 2297 238 
L 2650 238 
Q 2988 238 3213 356 
Q 3438 475 3602 731 
Q 3766 988 3913 1488 
L 4041 1488 
z
" transform="scale(0.015625)"/>
       <path id="TimesNewRomanPS-BoldMT-69" d="M 919 4338 
Q 1122 4338 1262 4195 
Q 1403 4053 1403 3853 
Q 1403 3653 1261 3512 
Q 1119 3372 919 3372 
Q 719 3372 578 3512 
Q 438 3653 438 3853 
Q 438 4053 578 4195 
Q 719 4338 919 4338 
z
M 1356 2922 
L 1356 606 
Q 1356 297 1428 211 
Q 1500 125 1709 113 
L 1709 0 
L 131 0 
L 131 113 
Q 325 119 419 225 
Q 481 297 481 606 
L 481 2313 
Q 481 2622 409 2708 
Q 338 2794 131 2806 
L 131 2922 
L 1356 2922 
z
" transform="scale(0.015625)"/>
       <path id="TimesNewRomanPS-BoldMT-70" d="M 1347 297 
L 1347 -791 
Q 1347 -1016 1383 -1097 
Q 1419 -1178 1494 -1215 
Q 1569 -1253 1788 -1253 
L 1788 -1369 
L 122 -1369 
L 122 -1253 
Q 316 -1247 409 -1144 
Q 472 -1072 472 -772 
L 472 2313 
Q 472 2622 400 2708 
Q 328 2794 122 2806 
L 122 2922 
L 1347 2922 
L 1347 2538 
Q 1500 2763 1659 2863 
Q 1888 3009 2156 3009 
Q 2478 3009 2742 2806 
Q 3006 2603 3143 2245 
Q 3281 1888 3281 1475 
Q 3281 1031 3139 664 
Q 2997 297 2726 104 
Q 2456 -88 2125 -88 
Q 1884 -88 1675 19 
Q 1519 100 1347 297 
z
M 1347 613 
Q 1616 231 1922 231 
Q 2091 231 2200 409 
Q 2363 672 2363 1409 
Q 2363 2166 2184 2444 
Q 2066 2628 1866 2628 
Q 1550 2628 1347 2172 
L 1347 613 
z
" transform="scale(0.015625)"/>
       <path id="TimesNewRomanPS-BoldMT-44" d="M 84 0 
L 84 116 
L 225 116 
Q 409 116 507 173 
Q 606 231 653 331 
Q 681 397 681 725 
L 681 3513 
Q 681 3838 647 3919 
Q 613 4000 508 4061 
Q 403 4122 225 4122 
L 84 4122 
L 84 4238 
L 1981 4238 
Q 2741 4238 3203 4031 
Q 3769 3778 4061 3265 
Q 4353 2753 4353 2106 
Q 4353 1659 4209 1282 
Q 4066 906 3837 661 
Q 3609 416 3311 267 
Q 3013 119 2581 38 
Q 2391 0 1981 0 
L 84 0 
z
M 1700 3997 
L 1700 691 
Q 1700 428 1725 368 
Q 1750 309 1809 278 
Q 1894 231 2053 231 
Q 2575 231 2850 588 
Q 3225 1069 3225 2081 
Q 3225 2897 2969 3384 
Q 2766 3766 2447 3903 
Q 2222 4000 1700 3997 
z
" transform="scale(0.015625)"/>
       <path id="TimesNewRomanPS-BoldMT-73" d="M 2063 3003 
L 2109 2006 
L 2003 2006 
Q 1813 2450 1608 2612 
Q 1403 2775 1200 2775 
Q 1072 2775 981 2689 
Q 891 2603 891 2491 
Q 891 2406 953 2328 
Q 1053 2200 1512 1889 
Q 1972 1578 2117 1361 
Q 2263 1144 2263 875 
Q 2263 631 2141 397 
Q 2019 163 1797 37 
Q 1575 -88 1306 -88 
Q 1097 -88 747 44 
Q 653 78 619 78 
Q 516 78 447 -78 
L 344 -78 
L 294 972 
L 400 972 
Q 541 559 786 353 
Q 1031 147 1250 147 
Q 1400 147 1495 239 
Q 1591 331 1591 463 
Q 1591 613 1497 722 
Q 1403 831 1078 1053 
Q 600 1384 459 1559 
Q 253 1816 253 2125 
Q 253 2463 486 2736 
Q 719 3009 1159 3009 
Q 1397 3009 1619 2894 
Q 1703 2847 1756 2847 
Q 1813 2847 1847 2870 
Q 1881 2894 1956 3003 
L 2063 3003 
z
" transform="scale(0.015625)"/>
       <path id="TimesNewRomanPS-BoldMT-74" d="M 1375 3991 
L 1375 2922 
L 2069 2922 
L 2069 2613 
L 1375 2613 
L 1375 809 
Q 1375 556 1398 482 
Q 1422 409 1481 364 
Q 1541 319 1591 319 
Q 1794 319 1975 628 
L 2069 559 
Q 1816 -41 1247 -41 
Q 969 -41 776 114 
Q 584 269 531 459 
Q 500 566 500 1034 
L 500 2613 
L 119 2613 
L 119 2722 
Q 513 3000 789 3306 
Q 1066 3613 1272 3991 
L 1375 3991 
z
" transform="scale(0.015625)"/>
       <path id="TimesNewRomanPS-BoldMT-6e" d="M 1409 2922 
L 1409 2544 
Q 1634 2788 1840 2898 
Q 2047 3009 2284 3009 
Q 2569 3009 2756 2851 
Q 2944 2694 3006 2459 
Q 3056 2281 3056 1775 
L 3056 638 
Q 3056 300 3117 217 
Q 3178 134 3372 113 
L 3372 0 
L 1894 0 
L 1894 113 
Q 2059 134 2131 250 
Q 2181 328 2181 638 
L 2181 1938 
Q 2181 2297 2153 2390 
Q 2125 2484 2058 2536 
Q 1991 2588 1909 2588 
Q 1641 2588 1409 2203 
L 1409 638 
Q 1409 309 1470 221 
Q 1531 134 1697 113 
L 1697 0 
L 219 0 
L 219 113 
Q 403 131 481 231 
Q 534 300 534 638 
L 534 2288 
Q 534 2619 473 2700 
Q 413 2781 219 2806 
L 219 2922 
L 1409 2922 
z
" transform="scale(0.015625)"/>
       <path id="TimesNewRomanPS-BoldMT-63" d="M 2600 753 
L 2697 678 
Q 2491 291 2183 101 
Q 1875 -88 1528 -88 
Q 944 -88 594 353 
Q 244 794 244 1413 
Q 244 2009 563 2463 
Q 947 3009 1622 3009 
Q 2075 3009 2342 2781 
Q 2609 2553 2609 2272 
Q 2609 2094 2501 1987 
Q 2394 1881 2219 1881 
Q 2034 1881 1914 2003 
Q 1794 2125 1766 2438 
Q 1747 2634 1675 2713 
Q 1603 2791 1506 2791 
Q 1356 2791 1250 2631 
Q 1088 2391 1088 1894 
Q 1088 1481 1219 1104 
Q 1350 728 1578 544 
Q 1750 409 1984 409 
Q 2138 409 2275 481 
Q 2413 553 2600 753 
z
" transform="scale(0.015625)"/>
      </defs>
      <use xlink:href="#TimesNewRomanPS-BoldMT-4c"/>
      <use xlink:href="#TimesNewRomanPS-BoldMT-69" x="66.699219"/>
      <use xlink:href="#TimesNewRomanPS-BoldMT-70" x="94.482422"/>
      <use xlink:href="#TimesNewRomanPS-BoldMT-20" x="150.097656"/>
      <use xlink:href="#TimesNewRomanPS-BoldMT-44" x="175.097656"/>
      <use xlink:href="#TimesNewRomanPS-BoldMT-69" x="247.314453"/>
      <use xlink:href="#TimesNewRomanPS-BoldMT-73" x="275.097656"/>
      <use xlink:href="#TimesNewRomanPS-BoldMT-74" x="314.013672"/>
      <use xlink:href="#TimesNewRomanPS-BoldMT-61" x="347.314453"/>
      <use xlink:href="#TimesNewRomanPS-BoldMT-6e" x="397.314453"/>
      <use xlink:href="#TimesNewRomanPS-BoldMT-63" x="452.929688"/>
      <use xlink:href="#TimesNewRomanPS-BoldMT-65" x="497.314453"/>
     </g>
    </g>
   </g>
   <g id="line2d_17">
    <path d="M 66.123173 155.781555 
L 71.509982 155.718281 
L 76.896791 154.209645 
L 82.283601 150.718337 
L 87.67041 151.808496 
L 93.057219 147.526084 
L 98.444029 146.912029 
L 103.830838 142.429601 
L 109.217647 151.757527 
L 114.604456 138.396424 
L 119.991266 147.931088 
L 125.378075 132.449261 
L 130.764884 112.966233 
L 136.151693 81.964695 
L 141.538503 69.878089 
L 146.925312 57.83915 
L 152.312121 44.759528 
L 157.69893 42.919515 
L 163.08574 46.889219 
L 168.472549 44.811807 
L 173.859358 43.546696 
L 179.246168 43.67351 
L 184.632977 46.915034 
L 190.019786 38.379468 
L 195.406595 45.407088 
L 200.793405 41.220254 
L 206.180214 44.179343 
L 211.567023 36.640526 
L 216.953832 45.265934 
L 222.340642 46.297873 
L 227.727451 40.462282 
L 233.11426 45.703516 
L 238.50107 53.64561 
L 243.887879 58.121508 
L 249.274688 83.096281 
L 254.661497 94.919667 
L 260.048307 123.262323 
L 265.435116 109.063806 
L 270.821925 120.288613 
L 276.208734 131.739802 
L 281.595544 137.743106 
L 286.982353 145.714938 
L 292.369162 149.11901 
L 297.755971 148.110914 
L 303.142781 149.409624 
L 308.52959 157.597212 
L 313.916399 161.141831 
L 319.303209 163.194545 
L 324.690018 149.719958 
L 330.076827 158.516978 
L 335.463636 145.206371 
" clip-path="url(#p6b3947bb8a)" style="fill: none; stroke: #1f77b4; stroke-width: 2; stroke-linecap: square"/>
   </g>
   <g id="patch_5">
    <path d="M 47 169.72 
L 47 26.16 
" style="fill: none; stroke: #000000; stroke-width: 0.8; stroke-linejoin: miter; stroke-linecap: square"/>
   </g>
   <g id="patch_6">
    <path d="M 349.2 169.72 
L 349.2 26.16 
" style="fill: none; stroke: #000000; stroke-width: 0.8; stroke-linejoin: miter; stroke-linecap: square"/>
   </g>
   <g id="patch_7">
    <path d="M 47 169.72 
L 349.2 169.72 
" style="fill: none; stroke: #000000; stroke-width: 0.8; stroke-linejoin: miter; stroke-linecap: square"/>
   </g>
   <g id="patch_8">
    <path d="M 47 26.16 
L 349.2 26.16 
" style="fill: none; stroke: #000000; stroke-width: 0.8; stroke-linejoin: miter; stroke-linecap: square"/>
   </g>
   <g id="text_19">
    <!-- Mouth Closure -->
    <g transform="translate(66.123173 114.681022) scale(0.12 -0.12)">
     <defs>
      <path id="TimesNewRomanPS-BoldMT-4d" d="M 3050 1444 
L 4200 4238 
L 5925 4238 
L 5925 4122 
L 5788 4122 
Q 5600 4122 5488 4056 
Q 5409 4013 5363 3909 
Q 5328 3834 5328 3519 
L 5328 725 
Q 5328 400 5362 319 
Q 5397 238 5503 177 
Q 5609 116 5788 116 
L 5925 116 
L 5925 0 
L 3713 0 
L 3713 116 
L 3850 116 
Q 4038 116 4150 181 
Q 4228 225 4275 331 
Q 4309 406 4309 725 
L 4309 3866 
L 2684 0 
L 2609 0 
L 959 3838 
L 959 853 
Q 959 541 975 469 
Q 1016 313 1152 214 
Q 1288 116 1578 116 
L 1578 0 
L 128 0 
L 128 116 
L 172 116 
Q 313 113 434 161 
Q 556 209 618 290 
Q 681 372 716 519 
Q 722 553 722 838 
L 722 3519 
Q 722 3841 687 3920 
Q 653 4000 547 4061 
Q 441 4122 263 4122 
L 128 4122 
L 128 4238 
L 1859 4238 
L 3050 1444 
z
" transform="scale(0.015625)"/>
      <path id="TimesNewRomanPS-BoldMT-6f" d="M 1594 3009 
Q 1975 3009 2303 2812 
Q 2631 2616 2801 2253 
Q 2972 1891 2972 1459 
Q 2972 838 2656 419 
Q 2275 -88 1603 -88 
Q 944 -88 587 375 
Q 231 838 231 1447 
Q 231 2075 595 2542 
Q 959 3009 1594 3009 
z
M 1606 2788 
Q 1447 2788 1333 2667 
Q 1219 2547 1183 2192 
Q 1147 1838 1147 1206 
Q 1147 872 1191 581 
Q 1225 359 1337 243 
Q 1450 128 1594 128 
Q 1734 128 1828 206 
Q 1950 313 1991 503 
Q 2053 800 2053 1703 
Q 2053 2234 1993 2432 
Q 1934 2631 1819 2722 
Q 1738 2788 1606 2788 
z
" transform="scale(0.015625)"/>
      <path id="TimesNewRomanPS-BoldMT-68" d="M 1409 4238 
L 1409 2547 
Q 1650 2800 1850 2904 
Q 2050 3009 2266 3009 
Q 2541 3009 2736 2853 
Q 2931 2697 2995 2486 
Q 3059 2275 3059 1775 
L 3059 634 
Q 3059 300 3121 217 
Q 3184 134 3375 113 
L 3375 0 
L 1894 0 
L 1894 113 
Q 2050 134 2128 238 
Q 2184 319 2184 634 
L 2184 1938 
Q 2184 2300 2156 2392 
Q 2128 2484 2061 2536 
Q 1994 2588 1909 2588 
Q 1784 2588 1665 2502 
Q 1547 2416 1409 2200 
L 1409 634 
Q 1409 322 1456 244 
Q 1516 138 1700 113 
L 1700 0 
L 219 0 
L 219 113 
Q 403 131 481 231 
Q 534 300 534 634 
L 534 3603 
Q 534 3934 473 4015 
Q 413 4097 219 4122 
L 219 4238 
L 1409 4238 
z
" transform="scale(0.015625)"/>
      <path id="TimesNewRomanPS-BoldMT-43" d="M 4272 4334 
L 4272 2866 
L 4150 2866 
Q 4013 3441 3638 3747 
Q 3263 4053 2788 4053 
Q 2391 4053 2059 3825 
Q 1728 3597 1575 3228 
Q 1378 2756 1378 2178 
Q 1378 1609 1522 1142 
Q 1666 675 1972 436 
Q 2278 197 2766 197 
Q 3166 197 3498 372 
Q 3831 547 4200 975 
L 4200 609 
Q 3844 238 3458 70 
Q 3072 -97 2556 -97 
Q 1878 -97 1351 175 
Q 825 447 539 956 
Q 253 1466 253 2041 
Q 253 2647 570 3190 
Q 888 3734 1427 4034 
Q 1966 4334 2572 4334 
Q 3019 4334 3516 4141 
Q 3803 4028 3881 4028 
Q 3981 4028 4054 4101 
Q 4128 4175 4150 4334 
L 4272 4334 
z
" transform="scale(0.015625)"/>
      <path id="TimesNewRomanPS-BoldMT-6c" d="M 1359 4238 
L 1359 606 
Q 1359 297 1431 211 
Q 1503 125 1713 113 
L 1713 0 
L 134 0 
L 134 113 
Q 328 119 422 225 
Q 484 297 484 606 
L 484 3631 
Q 484 3938 412 4023 
Q 341 4109 134 4122 
L 134 4238 
L 1359 4238 
z
" transform="scale(0.015625)"/>
     </defs>
     <use xlink:href="#TimesNewRomanPS-BoldMT-4d"/>
     <use xlink:href="#TimesNewRomanPS-BoldMT-6f" x="94.384766"/>
     <use xlink:href="#TimesNewRomanPS-BoldMT-75" x="144.384766"/>
     <use xlink:href="#TimesNewRomanPS-BoldMT-74" x="200"/>
     <use xlink:href="#TimesNewRomanPS-BoldMT-68" x="233.300781"/>
     <use xlink:href="#TimesNewRomanPS-BoldMT-20" x="288.916016"/>
     <use xlink:href="#TimesNewRomanPS-BoldMT-43" x="313.916016"/>
     <use xlink:href="#TimesNewRomanPS-BoldMT-6c" x="386.132812"/>
     <use xlink:href="#TimesNewRomanPS-BoldMT-6f" x="413.916016"/>
     <use xlink:href="#TimesNewRomanPS-BoldMT-73" x="463.916016"/>
     <use xlink:href="#TimesNewRomanPS-BoldMT-75" x="502.832031"/>
     <use xlink:href="#TimesNewRomanPS-BoldMT-72" x="558.447266"/>
     <use xlink:href="#TimesNewRomanPS-BoldMT-65" x="601.082031"/>
    </g>
    <!-- Region -->
    <g transform="translate(66.123173 127.008397) scale(0.12 -0.12)">
     <defs>
      <path id="TimesNewRomanPS-BoldMT-52" d="M 1700 1931 
L 1700 744 
Q 1700 400 1742 311 
Q 1784 222 1890 169 
Q 1997 116 2288 116 
L 2288 0 
L 119 0 
L 119 116 
Q 413 116 517 170 
Q 622 225 664 312 
Q 706 400 706 744 
L 706 3494 
Q 706 3838 664 3927 
Q 622 4016 515 4069 
Q 409 4122 119 4122 
L 119 4238 
L 2088 4238 
Q 2856 4238 3212 4131 
Q 3569 4025 3794 3739 
Q 4019 3453 4019 3069 
Q 4019 2600 3681 2294 
Q 3466 2100 3078 2003 
L 4097 569 
Q 4297 291 4381 222 
Q 4509 125 4678 116 
L 4678 0 
L 3344 0 
L 1978 1931 
L 1700 1931 
z
M 1700 4009 
L 1700 2153 
L 1878 2153 
Q 2313 2153 2528 2233 
Q 2744 2313 2867 2520 
Q 2991 2728 2991 3063 
Q 2991 3547 2764 3778 
Q 2538 4009 2034 4009 
L 1700 4009 
z
" transform="scale(0.015625)"/>
      <path id="TimesNewRomanPS-BoldMT-67" d="M 2091 2888 
L 3075 2888 
L 3075 2544 
L 2516 2544 
Q 2669 2391 2728 2266 
Q 2803 2097 2803 1913 
Q 2803 1600 2629 1370 
Q 2456 1141 2157 1011 
Q 1859 881 1628 881 
Q 1609 881 1253 897 
Q 1113 897 1017 805 
Q 922 713 922 584 
Q 922 472 1008 400 
Q 1094 328 1288 328 
L 1828 334 
Q 2484 334 2731 191 
Q 3084 -9 3084 -425 
Q 3084 -691 2921 -908 
Q 2759 -1125 2494 -1228 
Q 2091 -1381 1566 -1381 
Q 1172 -1381 847 -1304 
Q 522 -1228 381 -1092 
Q 241 -956 241 -806 
Q 241 -663 348 -548 
Q 456 -434 750 -356 
Q 344 -156 344 200 
Q 344 416 509 619 
Q 675 822 1034 972 
Q 616 1125 428 1375 
Q 241 1625 241 1953 
Q 241 2381 591 2695 
Q 941 3009 1491 3009 
Q 1781 3009 2091 2888 
z
M 1550 2816 
Q 1369 2816 1244 2633 
Q 1119 2450 1119 1875 
Q 1119 1409 1242 1236 
Q 1366 1063 1534 1063 
Q 1722 1063 1847 1234 
Q 1972 1406 1972 1903 
Q 1972 2463 1831 2666 
Q 1731 2816 1550 2816 
z
M 1366 -431 
Q 1047 -431 944 -484 
Q 766 -581 766 -747 
Q 766 -906 950 -1036 
Q 1134 -1166 1644 -1166 
Q 2078 -1166 2326 -1050 
Q 2575 -934 2575 -725 
Q 2575 -647 2528 -594 
Q 2444 -500 2273 -465 
Q 2103 -431 1366 -431 
z
" transform="scale(0.015625)"/>
     </defs>
     <use xlink:href="#TimesNewRomanPS-BoldMT-52"/>
     <use xlink:href="#TimesNewRomanPS-BoldMT-65" x="72.216797"/>
     <use xlink:href="#TimesNewRomanPS-BoldMT-67" x="116.601562"/>
     <use xlink:href="#TimesNewRomanPS-BoldMT-69" x="166.601562"/>
     <use xlink:href="#TimesNewRomanPS-BoldMT-6f" x="194.384766"/>
     <use xlink:href="#TimesNewRomanPS-BoldMT-6e" x="244.384766"/>
    </g>
   </g>
   <g id="text_20">
    <!-- Mouth Opening Region -->
    <g transform="translate(152.312121 74.921192) scale(0.12 -0.12)">
     <defs>
      <path id="TimesNewRomanPS-BoldMT-4f" d="M 2472 4297 
Q 3484 4334 4117 3706 
Q 4750 3078 4750 2134 
Q 4750 1328 4278 716 
Q 3653 -97 2513 -97 
Q 1369 -97 744 678 
Q 250 1291 250 2131 
Q 250 3075 892 3704 
Q 1534 4334 2472 4297 
z
M 2509 4097 
Q 1928 4097 1625 3503 
Q 1378 3016 1378 2103 
Q 1378 1019 1759 500 
Q 2025 138 2503 138 
Q 2825 138 3041 294 
Q 3316 494 3469 933 
Q 3622 1372 3622 2078 
Q 3622 2919 3465 3336 
Q 3309 3753 3067 3925 
Q 2825 4097 2509 4097 
z
" transform="scale(0.015625)"/>
     </defs>
     <use xlink:href="#TimesNewRomanPS-BoldMT-4d"/>
     <use xlink:href="#TimesNewRomanPS-BoldMT-6f" x="94.384766"/>
     <use xlink:href="#TimesNewRomanPS-BoldMT-75" x="144.384766"/>
     <use xlink:href="#TimesNewRomanPS-BoldMT-74" x="200"/>
     <use xlink:href="#TimesNewRomanPS-BoldMT-68" x="233.300781"/>
     <use xlink:href="#TimesNewRomanPS-BoldMT-20" x="288.916016"/>
     <use xlink:href="#TimesNewRomanPS-BoldMT-4f" x="313.916016"/>
     <use xlink:href="#TimesNewRomanPS-BoldMT-70" x="391.699219"/>
     <use xlink:href="#TimesNewRomanPS-BoldMT-65" x="447.314453"/>
     <use xlink:href="#TimesNewRomanPS-BoldMT-6e" x="491.699219"/>
     <use xlink:href="#TimesNewRomanPS-BoldMT-69" x="547.314453"/>
     <use xlink:href="#TimesNewRomanPS-BoldMT-6e" x="575.097656"/>
     <use xlink:href="#TimesNewRomanPS-BoldMT-67" x="630.712891"/>
     <use xlink:href="#TimesNewRomanPS-BoldMT-20" x="680.712891"/>
     <use xlink:href="#TimesNewRomanPS-BoldMT-52" x="705.712891"/>
     <use xlink:href="#TimesNewRomanPS-BoldMT-65" x="777.929688"/>
     <use xlink:href="#TimesNewRomanPS-BoldMT-67" x="822.314453"/>
     <use xlink:href="#TimesNewRomanPS-BoldMT-69" x="872.314453"/>
     <use xlink:href="#TimesNewRomanPS-BoldMT-6f" x="900.097656"/>
     <use xlink:href="#TimesNewRomanPS-BoldMT-6e" x="950.097656"/>
    </g>
   </g>
   <g id="text_21">
    <!-- Lip Distance Across Frames -->
    <g transform="translate(114.42375 20.16) scale(0.14 -0.14)">
     <defs>
      <path id="TimesNewRomanPS-BoldMT-41" d="M 2663 1206 
L 1166 1206 
L 988 794 
Q 900 588 900 453 
Q 900 275 1044 191 
Q 1128 141 1459 116 
L 1459 0 
L 50 0 
L 50 116 
Q 278 150 425 304 
Q 572 459 788 944 
L 2303 4325 
L 2363 4325 
L 3891 850 
Q 4109 356 4250 228 
Q 4356 131 4550 116 
L 4550 0 
L 2500 0 
L 2500 116 
L 2584 116 
Q 2831 116 2931 184 
Q 3000 234 3000 328 
Q 3000 384 2981 444 
Q 2975 472 2888 678 
L 2663 1206 
z
M 2556 1438 
L 1925 2897 
L 1275 1438 
L 2556 1438 
z
" transform="scale(0.015625)"/>
     </defs>
     <use xlink:href="#TimesNewRomanPS-BoldMT-4c"/>
     <use xlink:href="#TimesNewRomanPS-BoldMT-69" x="66.699219"/>
     <use xlink:href="#TimesNewRomanPS-BoldMT-70" x="94.482422"/>
     <use xlink:href="#TimesNewRomanPS-BoldMT-20" x="150.097656"/>
     <use xlink:href="#TimesNewRomanPS-BoldMT-44" x="175.097656"/>
     <use xlink:href="#TimesNewRomanPS-BoldMT-69" x="247.314453"/>
     <use xlink:href="#TimesNewRomanPS-BoldMT-73" x="275.097656"/>
     <use xlink:href="#TimesNewRomanPS-BoldMT-74" x="314.013672"/>
     <use xlink:href="#TimesNewRomanPS-BoldMT-61" x="347.314453"/>
     <use xlink:href="#TimesNewRomanPS-BoldMT-6e" x="397.314453"/>
     <use xlink:href="#TimesNewRomanPS-BoldMT-63" x="452.929688"/>
     <use xlink:href="#TimesNewRomanPS-BoldMT-65" x="497.314453"/>
     <use xlink:href="#TimesNewRomanPS-BoldMT-20" x="541.699219"/>
     <use xlink:href="#TimesNewRomanPS-BoldMT-41" x="561.199219"/>
     <use xlink:href="#TimesNewRomanPS-BoldMT-63" x="633.416016"/>
     <use xlink:href="#TimesNewRomanPS-BoldMT-72" x="677.800781"/>
     <use xlink:href="#TimesNewRomanPS-BoldMT-6f" x="720.435547"/>
     <use xlink:href="#TimesNewRomanPS-BoldMT-73" x="770.435547"/>
     <use xlink:href="#TimesNewRomanPS-BoldMT-73" x="809.351562"/>
     <use xlink:href="#TimesNewRomanPS-BoldMT-20" x="848.267578"/>
     <use xlink:href="#TimesNewRomanPS-BoldMT-46" x="873.267578"/>
     <use xlink:href="#TimesNewRomanPS-BoldMT-72" x="934.351562"/>
     <use xlink:href="#TimesNewRomanPS-BoldMT-61" x="978.736328"/>
     <use xlink:href="#TimesNewRomanPS-BoldMT-6d" x="1028.736328"/>
     <use xlink:href="#TimesNewRomanPS-BoldMT-65" x="1112.037109"/>
     <use xlink:href="#TimesNewRomanPS-BoldMT-73" x="1156.421875"/>
    </g>
   </g>
   <g id="legend_1">
    <g id="patch_9">
     <path d="M 212.322187 67.141563 
L 342.2 67.141563 
Q 344.2 67.141563 344.2 65.141563 
L 344.2 33.16 
Q 344.2 31.16 342.2 31.16 
L 212.322187 31.16 
Q 210.322187 31.16 210.322187 33.16 
L 210.322187 65.141563 
Q 210.322187 67.141563 212.322187 67.141563 
z
" style="fill: #ffffff; opacity: 0.8; stroke: #cccccc; stroke-linejoin: miter"/>
    </g>
    <g id="line2d_18">
     <path d="M 214.322187 40.471563 
L 224.322187 40.471563 
L 234.322187 40.471563 
" style="fill: none; stroke: #1f77b4; stroke-width: 2; stroke-linecap: square"/>
    </g>
    <g id="text_22">
     <!-- Lip Distance -->
     <g transform="translate(242.322187 43.971563) scale(0.13 -0.13)">
      <use xlink:href="#TimesNewRomanPS-BoldMT-4c"/>
      <use xlink:href="#TimesNewRomanPS-BoldMT-69" x="66.699219"/>
      <use xlink:href="#TimesNewRomanPS-BoldMT-70" x="94.482422"/>
      <use xlink:href="#TimesNewRomanPS-BoldMT-20" x="150.097656"/>
      <use xlink:href="#TimesNewRomanPS-BoldMT-44" x="175.097656"/>
      <use xlink:href="#TimesNewRomanPS-BoldMT-69" x="247.314453"/>
      <use xlink:href="#TimesNewRomanPS-BoldMT-73" x="275.097656"/>
      <use xlink:href="#TimesNewRomanPS-BoldMT-74" x="314.013672"/>
      <use xlink:href="#TimesNewRomanPS-BoldMT-61" x="347.314453"/>
      <use xlink:href="#TimesNewRomanPS-BoldMT-6e" x="397.314453"/>
      <use xlink:href="#TimesNewRomanPS-BoldMT-63" x="452.929688"/>
      <use xlink:href="#TimesNewRomanPS-BoldMT-65" x="497.314453"/>
     </g>
    </g>
    <g id="PathCollection_2">
     <path d="M 224.322187 60.474394 
C 225.048476 60.474394 225.745116 60.185837 226.258679 59.672273 
C 226.772243 59.158709 227.0608 58.46207 227.0608 57.735781 
C 227.0608 57.009493 226.772243 56.312853 226.258679 55.79929 
C 225.745116 55.285726 225.048476 54.997168 224.322187 54.997168 
C 223.595899 54.997168 222.899259 55.285726 222.385696 55.79929 
C 221.872132 56.312853 221.583575 57.009493 221.583575 57.735781 
C 221.583575 58.46207 221.872132 59.158709 222.385696 59.672273 
C 222.899259 60.185837 223.595899 60.474394 224.322187 60.474394 
L 224.322187 60.474394 
z
" style="fill: none; stroke: #ff0000"/>
    </g>
    <g id="text_23">
     <!-- Landmark Points -->
     <g transform="translate(242.322187 60.360781) scale(0.13 -0.13)">
      <defs>
       <path id="TimesNewRomanPS-BoldMT-64" d="M 3056 4238 
L 3056 875 
Q 3056 534 3075 472 
Q 3100 369 3170 319 
Q 3241 269 3416 256 
L 3416 153 
L 2181 -88 
L 2181 375 
Q 1959 106 1786 9 
Q 1613 -88 1394 -88 
Q 834 -88 509 413 
Q 247 819 247 1409 
Q 247 1881 409 2254 
Q 572 2628 855 2818 
Q 1138 3009 1463 3009 
Q 1672 3009 1834 2928 
Q 1997 2847 2181 2644 
L 2181 3525 
Q 2181 3859 2153 3928 
Q 2116 4019 2041 4062 
Q 1966 4106 1759 4106 
L 1759 4238 
L 3056 4238 
z
M 2181 2256 
Q 1950 2700 1616 2700 
Q 1500 2700 1425 2638 
Q 1309 2541 1236 2297 
Q 1163 2053 1163 1550 
Q 1163 997 1244 731 
Q 1325 466 1466 347 
Q 1538 288 1663 288 
Q 1938 288 2181 719 
L 2181 2256 
z
" transform="scale(0.015625)"/>
       <path id="TimesNewRomanPS-BoldMT-6b" d="M 1403 4238 
L 1403 1450 
L 2081 2116 
Q 2291 2319 2342 2409 
Q 2394 2500 2394 2584 
Q 2394 2669 2325 2725 
Q 2256 2781 2056 2806 
L 2056 2922 
L 3366 2922 
L 3366 2806 
Q 3178 2797 3037 2717 
Q 2897 2638 2488 2238 
L 2169 1925 
L 2856 919 
Q 3272 306 3350 231 
Q 3456 125 3619 113 
L 3619 0 
L 2109 0 
L 2109 113 
Q 2209 113 2254 150 
Q 2300 188 2300 231 
Q 2300 303 2169 497 
L 1591 1344 
L 1403 1159 
L 1403 634 
Q 1403 300 1465 217 
Q 1528 134 1722 113 
L 1722 0 
L 213 0 
L 213 113 
Q 397 131 475 231 
Q 528 300 528 634 
L 528 3603 
Q 528 3934 467 4015 
Q 406 4097 213 4122 
L 213 4238 
L 1403 4238 
z
" transform="scale(0.015625)"/>
       <path id="TimesNewRomanPS-BoldMT-50" d="M 1728 1919 
L 1728 744 
Q 1728 400 1770 311 
Q 1813 222 1920 169 
Q 2028 116 2316 116 
L 2316 0 
L 163 0 
L 163 116 
Q 456 116 561 170 
Q 666 225 708 312 
Q 750 400 750 744 
L 750 3494 
Q 750 3838 708 3927 
Q 666 4016 559 4069 
Q 453 4122 163 4122 
L 163 4238 
L 2009 4238 
Q 2922 4238 3319 3913 
Q 3716 3588 3716 3100 
Q 3716 2688 3459 2394 
Q 3203 2100 2753 1994 
Q 2450 1919 1728 1919 
z
M 1728 3994 
L 1728 2163 
Q 1831 2156 1884 2156 
Q 2266 2156 2472 2382 
Q 2678 2609 2678 3084 
Q 2678 3556 2472 3775 
Q 2266 3994 1856 3994 
L 1728 3994 
z
" transform="scale(0.015625)"/>
      </defs>
      <use xlink:href="#TimesNewRomanPS-BoldMT-4c"/>
      <use xlink:href="#TimesNewRomanPS-BoldMT-61" x="66.699219"/>
      <use xlink:href="#TimesNewRomanPS-BoldMT-6e" x="116.699219"/>
      <use xlink:href="#TimesNewRomanPS-BoldMT-64" x="172.314453"/>
      <use xlink:href="#TimesNewRomanPS-BoldMT-6d" x="227.929688"/>
      <use xlink:href="#TimesNewRomanPS-BoldMT-61" x="311.230469"/>
      <use xlink:href="#TimesNewRomanPS-BoldMT-72" x="361.230469"/>
      <use xlink:href="#TimesNewRomanPS-BoldMT-6b" x="405.615234"/>
      <use xlink:href="#TimesNewRomanPS-BoldMT-20" x="461.230469"/>
      <use xlink:href="#TimesNewRomanPS-BoldMT-50" x="486.230469"/>
      <use xlink:href="#TimesNewRomanPS-BoldMT-6f" x="547.314453"/>
      <use xlink:href="#TimesNewRomanPS-BoldMT-69" x="597.314453"/>
      <use xlink:href="#TimesNewRomanPS-BoldMT-6e" x="625.097656"/>
      <use xlink:href="#TimesNewRomanPS-BoldMT-74" x="680.712891"/>
      <use xlink:href="#TimesNewRomanPS-BoldMT-73" x="714.013672"/>
     </g>
    </g>
   </g>
  </g>
 </g>
 <defs>
  <clipPath id="p6b3947bb8a">
   <rect x="47" y="26.16" width="302.2" height="143.56"/>
  </clipPath>
 </defs>
</svg>
