<?xml version="1.0" encoding="utf-8" standalone="no"?>
<!DOCTYPE svg PUBLIC "-//W3C//DTD SVG 1.1//EN"
  "http://www.w3.org/Graphics/SVG/1.1/DTD/svg11.dtd">
<svg xmlns:xlink="http://www.w3.org/1999/xlink" width="504pt" height="360pt" viewBox="0 0 504 360" xmlns="http://www.w3.org/2000/svg" version="1.1">
 <metadata>
  <rdf:RDF xmlns:dc="http://purl.org/dc/elements/1.1/" xmlns:cc="http://creativecommons.org/ns#" xmlns:rdf="http://www.w3.org/1999/02/22-rdf-syntax-ns#">
   <cc:Work>
    <dc:type rdf:resource="http://purl.org/dc/dcmitype/StillImage"/>
    <dc:date>2025-01-26T16:03:11.939615</dc:date>
    <dc:format>image/svg+xml</dc:format>
    <dc:creator>
     <cc:Agent>
      <dc:title>Matplotlib v3.8.4, https://matplotlib.org/</dc:title>
     </cc:Agent>
    </dc:creator>
   </cc:Work>
  </rdf:RDF>
 </metadata>
 <defs>
  <style type="text/css">*{stroke-linejoin: round; stroke-linecap: butt}</style>
 </defs>
 <g id="figure_1">
  <g id="patch_1">
   <path d="M 0 360 
L 504 360 
L 504 0 
L 0 0 
z
" style="fill: #ffffff"/>
  </g>
  <g id="axes_1">
   <g id="patch_2">
    <path d="M 63 320.4 
L 453.6 320.4 
L 453.6 43.2 
L 63 43.2 
z
" style="fill: #ffffff"/>
   </g>
   <g id="PolyCollection_1">
    <defs>
     <path id="m241dc94524" d="M 161.597962 -79.282155 
L 159.702038 -79.282155 
L 159.268518 -79.857954 
L 158.6825 -80.433753 
L 157.909969 -81.009553 
L 156.916226 -81.585352 
L 155.668077 -82.161151 
L 154.136265 -82.736951 
L 152.297915 -83.31275 
L 150.138697 -83.88855 
L 147.654508 -84.464349 
L 144.852479 -85.040148 
L 141.751231 -85.615948 
L 138.380395 -86.191747 
L 134.779452 -86.767546 
L 130.996008 -87.343346 
L 127.08361 -87.919145 
L 123.099257 -88.494945 
L 119.100731 -89.070744 
L 115.143964 -89.646543 
L 111.280668 -90.222343 
L 107.55649 -90.798142 
L 104.009942 -91.373941 
L 100.672248 -91.949741 
L 97.568123 -92.52554 
L 94.717238 -93.10134 
L 92.136006 -93.677139 
L 89.83913 -94.252938 
L 87.84043 -94.828738 
L 86.152591 -95.404537 
L 84.785798 -95.980337 
L 83.745608 -96.556136 
L 83.030721 -97.131935 
L 82.631501 -97.707735 
L 82.53 -98.283534 
L 82.701899 -98.859333 
L 83.120213 -99.435133 
L 83.760005 -100.010932 
L 84.602871 -100.586732 
L 85.639811 -101.162531 
L 86.871355 -101.73833 
L 88.304462 -102.31413 
L 89.946567 -102.889929 
L 91.798066 -103.465728 
L 93.845074 -104.041528 
L 96.054484 -104.617327 
L 98.372906 -105.193127 
L 100.730264 -105.768926 
L 103.047688 -106.344725 
L 105.248321 -106.920525 
L 107.268911 -107.496324 
L 109.06981 -108.072123 
L 110.641338 -108.647923 
L 112.005217 -109.223722 
L 113.210849 -109.799522 
L 114.327227 -110.375321 
L 115.432123 -110.95112 
L 116.600558 -111.52692 
L 117.894594 -112.102719 
L 119.355991 -112.678518 
L 121.002616 -113.254318 
L 122.828694 -113.830117 
L 124.808315 -114.405917 
L 126.901135 -114.981716 
L 129.059042 -115.557515 
L 131.232611 -116.133315 
L 133.376459 -116.709114 
L 135.452972 -117.284914 
L 137.434238 -117.860713 
L 139.302334 -118.436512 
L 141.048326 -119.012312 
L 142.670406 -119.588111 
L 144.171647 -120.16391 
L 145.557772 -120.73971 
L 146.835283 -121.315509 
L 148.010168 -121.891309 
L 149.0873 -122.467108 
L 150.070517 -123.042907 
L 150.963246 -123.618707 
L 151.769438 -124.194506 
L 152.49453 -124.770305 
L 153.14614 -125.346105 
L 153.734291 -125.921904 
L 154.271029 -126.497704 
L 154.769504 -127.073503 
L 155.242653 -127.649302 
L 155.701754 -128.225102 
L 156.155146 -128.800901 
L 156.607355 -129.3767 
L 157.058799 -129.9525 
L 157.506105 -130.528299 
L 157.94297 -131.104099 
L 158.361371 -131.679898 
L 158.752908 -132.255697 
L 159.11005 -132.831497 
L 159.427096 -133.407296 
L 159.700748 -133.983095 
L 159.930268 -134.558895 
L 160.11727 -135.134694 
L 160.265251 -135.710494 
L 160.37898 -136.286293 
L 160.92102 -136.286293 
L 160.92102 -136.286293 
L 161.034749 -135.710494 
L 161.18273 -135.134694 
L 161.369732 -134.558895 
L 161.599252 -133.983095 
L 161.872904 -133.407296 
L 162.18995 -132.831497 
L 162.547092 -132.255697 
L 162.938629 -131.679898 
L 163.35703 -131.104099 
L 163.793895 -130.528299 
L 164.241201 -129.9525 
L 164.692645 -129.3767 
L 165.144854 -128.800901 
L 165.598246 -128.225102 
L 166.057347 -127.649302 
L 166.530496 -127.073503 
L 167.028971 -126.497704 
L 167.565709 -125.921904 
L 168.15386 -125.346105 
L 168.80547 -124.770305 
L 169.530562 -124.194506 
L 170.336754 -123.618707 
L 171.229483 -123.042907 
L 172.2127 -122.467108 
L 173.289832 -121.891309 
L 174.464717 -121.315509 
L 175.742228 -120.73971 
L 177.128353 -120.16391 
L 178.629594 -119.588111 
L 180.251674 -119.012312 
L 181.997666 -118.436512 
L 183.865762 -117.860713 
L 185.847028 -117.284914 
L 187.923541 -116.709114 
L 190.067389 -116.133315 
L 192.240958 -115.557515 
L 194.398865 -114.981716 
L 196.491685 -114.405917 
L 198.471306 -113.830117 
L 200.297384 -113.254318 
L 201.944009 -112.678518 
L 203.405406 -112.102719 
L 204.699442 -111.52692 
L 205.867877 -110.95112 
L 206.972773 -110.375321 
L 208.089151 -109.799522 
L 209.294783 -109.223722 
L 210.658662 -108.647923 
L 212.23019 -108.072123 
L 214.031089 -107.496324 
L 216.051679 -106.920525 
L 218.252312 -106.344725 
L 220.569736 -105.768926 
L 222.927094 -105.193127 
L 225.245516 -104.617327 
L 227.454926 -104.041528 
L 229.501934 -103.465728 
L 231.353433 -102.889929 
L 232.995538 -102.31413 
L 234.428645 -101.73833 
L 235.660189 -101.162531 
L 236.697129 -100.586732 
L 237.539995 -100.010932 
L 238.179787 -99.435133 
L 238.598101 -98.859333 
L 238.77 -98.283534 
L 238.668499 -97.707735 
L 238.269279 -97.131935 
L 237.554392 -96.556136 
L 236.514202 -95.980337 
L 235.147409 -95.404537 
L 233.45957 -94.828738 
L 231.46087 -94.252938 
L 229.163994 -93.677139 
L 226.582762 -93.10134 
L 223.731877 -92.52554 
L 220.627752 -91.949741 
L 217.290058 -91.373941 
L 213.74351 -90.798142 
L 210.019332 -90.222343 
L 206.156036 -89.646543 
L 202.199269 -89.070744 
L 198.200743 -88.494945 
L 194.21639 -87.919145 
L 190.303992 -87.343346 
L 186.520548 -86.767546 
L 182.919605 -86.191747 
L 179.548769 -85.615948 
L 176.447521 -85.040148 
L 173.645492 -84.464349 
L 171.161303 -83.88855 
L 169.002085 -83.31275 
L 167.163735 -82.736951 
L 165.631923 -82.161151 
L 164.383774 -81.585352 
L 163.390031 -81.009553 
L 162.6175 -80.433753 
L 162.031482 -79.857954 
L 161.597962 -79.282155 
z
" style="stroke: #3f3f3f"/>
    </defs>
    <g clip-path="url(#p408978e0c6)">
     <use xlink:href="#m241dc94524" x="0" y="360" style="fill: #3274a1; stroke: #3f3f3f"/>
    </g>
   </g>
   <g id="PolyCollection_2">
    <defs>
     <path id="m8bd51701b0" d="M 359.215001 -52.2 
L 352.684999 -52.2 
L 351.652329 -54.745455 
L 350.367698 -57.290909 
L 348.794274 -59.836364 
L 346.897115 -62.381818 
L 344.645565 -64.927273 
L 342.015917 -67.472727 
L 338.994197 -70.018182 
L 335.578844 -72.563636 
L 331.783059 -75.109091 
L 327.636549 -77.654545 
L 323.18645 -80.2 
L 318.497221 -82.745455 
L 313.64939 -85.290909 
L 308.737122 -87.836364 
L 303.86469 -90.381818 
L 299.142026 -92.927273 
L 294.679645 -95.472727 
L 290.583288 -98.018182 
L 286.948666 -100.563636 
L 283.85671 -103.109091 
L 281.369653 -105.654545 
L 279.528232 -108.2 
L 278.350171 -110.745455 
L 277.83 -113.290909 
L 277.94017 -115.836364 
L 278.633313 -118.381818 
L 279.845416 -120.927273 
L 281.499657 -123.472727 
L 283.510606 -126.018182 
L 285.788526 -128.563636 
L 288.243514 -131.109091 
L 290.789286 -133.654545 
L 293.346435 -136.2 
L 295.845061 -138.745455 
L 298.2267 -141.290909 
L 300.445524 -143.836364 
L 302.468831 -146.381818 
L 304.276861 -148.927273 
L 305.862017 -151.472727 
L 307.227586 -154.018182 
L 308.386077 -156.563636 
L 309.357308 -159.109091 
L 310.166387 -161.654545 
L 310.84171 -164.2 
L 311.413115 -166.745455 
L 311.910275 -169.290909 
L 312.361405 -171.836364 
L 312.792319 -174.381818 
L 313.225828 -176.927273 
L 313.681448 -179.472727 
L 314.17535 -182.018182 
L 314.720479 -184.563636 
L 315.326763 -187.109091 
L 316.001334 -189.654545 
L 316.748714 -192.2 
L 317.570921 -194.745455 
L 318.467525 -197.290909 
L 319.435636 -199.836364 
L 320.46991 -202.381818 
L 321.562601 -204.927273 
L 322.703719 -207.472727 
L 323.881347 -210.018182 
L 325.082126 -212.563636 
L 326.291909 -215.109091 
L 327.496553 -217.654545 
L 328.682781 -220.2 
L 329.839051 -222.745455 
L 330.956332 -225.290909 
L 332.028714 -227.836364 
L 333.053776 -230.381818 
L 334.032676 -232.927273 
L 334.969933 -235.472727 
L 335.872924 -238.018182 
L 336.751137 -240.563636 
L 337.615249 -243.109091 
L 338.476116 -245.654545 
L 339.343758 -248.2 
L 340.226449 -250.745455 
L 341.129968 -253.290909 
L 342.057089 -255.836364 
L 343.007335 -258.381818 
L 343.977009 -260.927273 
L 344.959488 -263.472727 
L 345.945735 -266.018182 
L 346.924979 -268.563636 
L 347.88549 -271.109091 
L 348.815378 -273.654545 
L 349.703351 -276.2 
L 350.539379 -278.745455 
L 351.315207 -281.290909 
L 352.024704 -283.836364 
L 352.664032 -286.381818 
L 353.231651 -288.927273 
L 353.728171 -291.472727 
L 354.156085 -294.018182 
L 354.519432 -296.563636 
L 354.823406 -299.109091 
L 355.073965 -301.654545 
L 355.277461 -304.2 
L 356.622539 -304.2 
L 356.622539 -304.2 
L 356.826035 -301.654545 
L 357.076594 -299.109091 
L 357.380568 -296.563636 
L 357.743915 -294.018182 
L 358.171829 -291.472727 
L 358.668349 -288.927273 
L 359.235968 -286.381818 
L 359.875296 -283.836364 
L 360.584793 -281.290909 
L 361.360621 -278.745455 
L 362.196649 -276.2 
L 363.084622 -273.654545 
L 364.01451 -271.109091 
L 364.975021 -268.563636 
L 365.954265 -266.018182 
L 366.940512 -263.472727 
L 367.922991 -260.927273 
L 368.892665 -258.381818 
L 369.842911 -255.836364 
L 370.770032 -253.290909 
L 371.673551 -250.745455 
L 372.556242 -248.2 
L 373.423884 -245.654545 
L 374.284751 -243.109091 
L 375.148863 -240.563636 
L 376.027076 -238.018182 
L 376.930067 -235.472727 
L 377.867324 -232.927273 
L 378.846224 -230.381818 
L 379.871286 -227.836364 
L 380.943668 -225.290909 
L 382.060949 -222.745455 
L 383.217219 -220.2 
L 384.403447 -217.654545 
L 385.608091 -215.109091 
L 386.817874 -212.563636 
L 388.018653 -210.018182 
L 389.196281 -207.472727 
L 390.337399 -204.927273 
L 391.43009 -202.381818 
L 392.464364 -199.836364 
L 393.432475 -197.290909 
L 394.329079 -194.745455 
L 395.151286 -192.2 
L 395.898666 -189.654545 
L 396.573237 -187.109091 
L 397.179521 -184.563636 
L 397.72465 -182.018182 
L 398.218552 -179.472727 
L 398.674172 -176.927273 
L 399.107681 -174.381818 
L 399.538595 -171.836364 
L 399.989725 -169.290909 
L 400.486885 -166.745455 
L 401.05829 -164.2 
L 401.733613 -161.654545 
L 402.542692 -159.109091 
L 403.513923 -156.563636 
L 404.672414 -154.018182 
L 406.037983 -151.472727 
L 407.623139 -148.927273 
L 409.431169 -146.381818 
L 411.454476 -143.836364 
L 413.6733 -141.290909 
L 416.054939 -138.745455 
L 418.553565 -136.2 
L 421.110714 -133.654545 
L 423.656486 -131.109091 
L 426.111474 -128.563636 
L 428.389394 -126.018182 
L 430.400343 -123.472727 
L 432.054584 -120.927273 
L 433.266687 -118.381818 
L 433.95983 -115.836364 
L 434.07 -113.290909 
L 433.549829 -110.745455 
L 432.371768 -108.2 
L 430.530347 -105.654545 
L 428.04329 -103.109091 
L 424.951334 -100.563636 
L 421.316712 -98.018182 
L 417.220355 -95.472727 
L 412.757974 -92.927273 
L 408.03531 -90.381818 
L 403.162878 -87.836364 
L 398.25061 -85.290909 
L 393.402779 -82.745455 
L 388.71355 -80.2 
L 384.263451 -77.654545 
L 380.116941 -75.109091 
L 376.321156 -72.563636 
L 372.905803 -70.018182 
L 369.884083 -67.472727 
L 367.254435 -64.927273 
L 365.002885 -62.381818 
L 363.105726 -59.836364 
L 361.532302 -57.290909 
L 360.247671 -54.745455 
L 359.215001 -52.2 
z
" style="stroke: #3f3f3f"/>
    </defs>
    <g clip-path="url(#p408978e0c6)">
     <use xlink:href="#m8bd51701b0" x="0" y="360" style="fill: #e1812c; stroke: #3f3f3f"/>
    </g>
   </g>
   <g id="matplotlib.axis_1">
    <g id="xtick_1">
     <g id="line2d_1">
      <defs>
       <path id="m798d1d49f7" d="M 0 0 
L 0 3.5 
" style="stroke: #000000; stroke-width: 0.8"/>
      </defs>
      <g>
       <use xlink:href="#m798d1d49f7" x="160.65" y="320.4" style="stroke: #000000; stroke-width: 0.8"/>
      </g>
     </g>
     <g id="text_1">
      <!-- True -->
      <g transform="translate(147.408281 336.008438) scale(0.13 -0.13)">
       <defs>
        <path id="TimesNewRomanPS-BoldMT-54" d="M 4038 4238 
L 4038 3091 
L 3925 3091 
Q 3825 3488 3703 3661 
Q 3581 3834 3369 3938 
Q 3250 3994 2953 3994 
L 2638 3994 
L 2638 725 
Q 2638 400 2673 319 
Q 2709 238 2814 177 
Q 2919 116 3100 116 
L 3241 116 
L 3241 0 
L 1022 0 
L 1022 116 
L 1163 116 
Q 1347 116 1459 181 
Q 1541 225 1588 331 
Q 1622 406 1622 725 
L 1622 3994 
L 1316 3994 
Q 888 3994 694 3813 
Q 422 3559 350 3091 
L 231 3091 
L 231 4238 
L 4038 4238 
z
" transform="scale(0.015625)"/>
        <path id="TimesNewRomanPS-BoldMT-72" d="M 1428 2922 
L 1428 2259 
Q 1719 2713 1937 2861 
Q 2156 3009 2359 3009 
Q 2534 3009 2639 2901 
Q 2744 2794 2744 2597 
Q 2744 2388 2642 2272 
Q 2541 2156 2397 2156 
Q 2231 2156 2109 2262 
Q 1988 2369 1966 2381 
Q 1934 2400 1894 2400 
Q 1803 2400 1722 2331 
Q 1594 2225 1528 2028 
Q 1428 1725 1428 1359 
L 1428 688 
L 1431 513 
Q 1431 334 1453 284 
Q 1491 200 1564 161 
Q 1638 122 1813 113 
L 1813 0 
L 234 0 
L 234 113 
Q 425 128 492 217 
Q 559 306 559 688 
L 559 2303 
Q 559 2553 534 2622 
Q 503 2709 443 2750 
Q 384 2791 234 2806 
L 234 2922 
L 1428 2922 
z
" transform="scale(0.015625)"/>
        <path id="TimesNewRomanPS-BoldMT-75" d="M 3038 2922 
L 3038 634 
Q 3038 300 3100 217 
Q 3163 134 3353 113 
L 3353 0 
L 2163 0 
L 2163 391 
Q 1953 141 1743 26 
Q 1534 -88 1275 -88 
Q 1028 -88 836 64 
Q 644 216 578 419 
Q 513 622 513 1128 
L 513 2288 
Q 513 2619 452 2700 
Q 391 2781 197 2806 
L 197 2922 
L 1388 2922 
L 1388 925 
Q 1388 613 1417 522 
Q 1447 431 1511 384 
Q 1575 338 1659 338 
Q 1772 338 1863 397 
Q 1988 478 2163 725 
L 2163 2288 
Q 2163 2619 2102 2700 
Q 2041 2781 1847 2806 
L 1847 2922 
L 3038 2922 
z
" transform="scale(0.015625)"/>
        <path id="TimesNewRomanPS-BoldMT-65" d="M 2691 1566 
L 1088 1566 
Q 1116 984 1397 647 
Q 1613 388 1916 388 
Q 2103 388 2256 492 
Q 2409 597 2584 869 
L 2691 800 
Q 2453 316 2165 114 
Q 1878 -88 1500 -88 
Q 850 -88 516 413 
Q 247 816 247 1413 
Q 247 2144 642 2576 
Q 1038 3009 1569 3009 
Q 2013 3009 2339 2645 
Q 2666 2281 2691 1566 
z
M 1922 1775 
Q 1922 2278 1867 2465 
Q 1813 2653 1697 2750 
Q 1631 2806 1522 2806 
Q 1359 2806 1256 2647 
Q 1072 2369 1072 1884 
L 1072 1775 
L 1922 1775 
z
" transform="scale(0.015625)"/>
       </defs>
       <use xlink:href="#TimesNewRomanPS-BoldMT-54"/>
       <use xlink:href="#TimesNewRomanPS-BoldMT-72" x="59.324219"/>
       <use xlink:href="#TimesNewRomanPS-BoldMT-75" x="103.708984"/>
       <use xlink:href="#TimesNewRomanPS-BoldMT-65" x="159.324219"/>
      </g>
     </g>
    </g>
    <g id="xtick_2">
     <g id="line2d_2">
      <g>
       <use xlink:href="#m798d1d49f7" x="355.95" y="320.4" style="stroke: #000000; stroke-width: 0.8"/>
      </g>
     </g>
     <g id="text_2">
      <!-- False -->
      <g transform="translate(341.508828 336.008438) scale(0.13 -0.13)">
       <defs>
        <path id="TimesNewRomanPS-BoldMT-46" d="M 1759 3994 
L 1759 2253 
L 1881 2253 
Q 2163 2253 2341 2337 
Q 2519 2422 2642 2622 
Q 2766 2822 2803 3163 
L 2913 3163 
L 2913 1034 
L 2803 1034 
Q 2744 1638 2480 1830 
Q 2216 2022 1881 2022 
L 1759 2022 
L 1759 725 
Q 1759 400 1795 319 
Q 1831 238 1936 177 
Q 2041 116 2219 116 
L 2359 116 
L 2359 0 
L 144 0 
L 144 116 
L 284 116 
Q 469 116 581 181 
Q 663 225 706 331 
Q 741 406 741 725 
L 741 3513 
Q 741 3838 706 3919 
Q 672 4000 567 4061 
Q 463 4122 284 4122 
L 144 4122 
L 144 4238 
L 3719 4238 
L 3719 3022 
L 3591 3022 
Q 3547 3450 3367 3656 
Q 3188 3863 2847 3947 
Q 2659 3994 2153 3994 
L 1759 3994 
z
" transform="scale(0.015625)"/>
        <path id="TimesNewRomanPS-BoldMT-61" d="M 1828 431 
Q 1294 -41 869 -41 
Q 619 -41 453 123 
Q 288 288 288 534 
Q 288 869 575 1136 
Q 863 1403 1828 1847 
L 1828 2141 
Q 1828 2472 1792 2558 
Q 1756 2644 1656 2708 
Q 1556 2772 1431 2772 
Q 1228 2772 1097 2681 
Q 1016 2625 1016 2550 
Q 1016 2484 1103 2388 
Q 1222 2253 1222 2128 
Q 1222 1975 1108 1867 
Q 994 1759 809 1759 
Q 613 1759 480 1878 
Q 347 1997 347 2156 
Q 347 2381 525 2586 
Q 703 2791 1022 2900 
Q 1341 3009 1684 3009 
Q 2100 3009 2342 2832 
Q 2584 2656 2656 2450 
Q 2700 2319 2700 1847 
L 2700 713 
Q 2700 513 2715 461 
Q 2731 409 2762 384 
Q 2794 359 2834 359 
Q 2916 359 3000 475 
L 3094 400 
Q 2938 169 2770 64 
Q 2603 -41 2391 -41 
Q 2141 -41 2000 76 
Q 1859 194 1828 431 
z
M 1828 659 
L 1828 1638 
Q 1450 1416 1266 1163 
Q 1144 994 1144 822 
Q 1144 678 1247 569 
Q 1325 484 1466 484 
Q 1622 484 1828 659 
z
" transform="scale(0.015625)"/>
        <path id="TimesNewRomanPS-BoldMT-6c" d="M 1359 4238 
L 1359 606 
Q 1359 297 1431 211 
Q 1503 125 1713 113 
L 1713 0 
L 134 0 
L 134 113 
Q 328 119 422 225 
Q 484 297 484 606 
L 484 3631 
Q 484 3938 412 4023 
Q 341 4109 134 4122 
L 134 4238 
L 1359 4238 
z
" transform="scale(0.015625)"/>
        <path id="TimesNewRomanPS-BoldMT-73" d="M 2063 3003 
L 2109 2006 
L 2003 2006 
Q 1813 2450 1608 2612 
Q 1403 2775 1200 2775 
Q 1072 2775 981 2689 
Q 891 2603 891 2491 
Q 891 2406 953 2328 
Q 1053 2200 1512 1889 
Q 1972 1578 2117 1361 
Q 2263 1144 2263 875 
Q 2263 631 2141 397 
Q 2019 163 1797 37 
Q 1575 -88 1306 -88 
Q 1097 -88 747 44 
Q 653 78 619 78 
Q 516 78 447 -78 
L 344 -78 
L 294 972 
L 400 972 
Q 541 559 786 353 
Q 1031 147 1250 147 
Q 1400 147 1495 239 
Q 1591 331 1591 463 
Q 1591 613 1497 722 
Q 1403 831 1078 1053 
Q 600 1384 459 1559 
Q 253 1816 253 2125 
Q 253 2463 486 2736 
Q 719 3009 1159 3009 
Q 1397 3009 1619 2894 
Q 1703 2847 1756 2847 
Q 1813 2847 1847 2870 
Q 1881 2894 1956 3003 
L 2063 3003 
z
" transform="scale(0.015625)"/>
       </defs>
       <use xlink:href="#TimesNewRomanPS-BoldMT-46"/>
       <use xlink:href="#TimesNewRomanPS-BoldMT-61" x="61.083984"/>
       <use xlink:href="#TimesNewRomanPS-BoldMT-6c" x="111.083984"/>
       <use xlink:href="#TimesNewRomanPS-BoldMT-73" x="138.867188"/>
       <use xlink:href="#TimesNewRomanPS-BoldMT-65" x="177.783203"/>
      </g>
     </g>
    </g>
    <g id="text_3">
     <!-- Class -->
     <g transform="translate(243.490156 351.397656) scale(0.13 -0.13)">
      <defs>
       <path id="TimesNewRomanPS-BoldMT-43" d="M 4272 4334 
L 4272 2866 
L 4150 2866 
Q 4013 3441 3638 3747 
Q 3263 4053 2788 4053 
Q 2391 4053 2059 3825 
Q 1728 3597 1575 3228 
Q 1378 2756 1378 2178 
Q 1378 1609 1522 1142 
Q 1666 675 1972 436 
Q 2278 197 2766 197 
Q 3166 197 3498 372 
Q 3831 547 4200 975 
L 4200 609 
Q 3844 238 3458 70 
Q 3072 -97 2556 -97 
Q 1878 -97 1351 175 
Q 825 447 539 956 
Q 253 1466 253 2041 
Q 253 2647 570 3190 
Q 888 3734 1427 4034 
Q 1966 4334 2572 4334 
Q 3019 4334 3516 4141 
Q 3803 4028 3881 4028 
Q 3981 4028 4054 4101 
Q 4128 4175 4150 4334 
L 4272 4334 
z
" transform="scale(0.015625)"/>
      </defs>
      <use xlink:href="#TimesNewRomanPS-BoldMT-43"/>
      <use xlink:href="#TimesNewRomanPS-BoldMT-6c" x="72.216797"/>
      <use xlink:href="#TimesNewRomanPS-BoldMT-61" x="100"/>
      <use xlink:href="#TimesNewRomanPS-BoldMT-73" x="150"/>
      <use xlink:href="#TimesNewRomanPS-BoldMT-73" x="188.916016"/>
     </g>
    </g>
   </g>
   <g id="matplotlib.axis_2">
    <g id="ytick_1">
     <g id="line2d_3">
      <defs>
       <path id="md88e78438a" d="M 0 0 
L -3.5 0 
" style="stroke: #000000; stroke-width: 0.8"/>
      </defs>
      <g>
       <use xlink:href="#md88e78438a" x="63" y="308.249776" style="stroke: #000000; stroke-width: 0.8"/>
      </g>
     </g>
     <g id="text_4">
      <!-- −0.05 -->
      <g transform="translate(25.842031 312.553995) scale(0.13 -0.13)">
       <defs>
        <path id="TimesNewRomanPS-BoldMT-2212" d="M 125 2325 
L 3541 2325 
L 3541 1913 
L 125 1913 
L 125 2325 
z
" transform="scale(0.015625)"/>
        <path id="TimesNewRomanPS-BoldMT-30" d="M 2966 2119 
Q 2966 1484 2788 934 
Q 2681 597 2501 381 
Q 2322 166 2094 39 
Q 1866 -88 1597 -88 
Q 1291 -88 1044 68 
Q 797 225 606 516 
Q 469 728 366 1081 
Q 231 1559 231 2069 
Q 231 2759 425 3338 
Q 584 3816 909 4070 
Q 1234 4325 1597 4325 
Q 1966 4325 2286 4073 
Q 2606 3822 2756 3397 
Q 2966 2813 2966 2119 
z
M 2003 2125 
Q 2003 3238 1991 3422 
Q 1959 3856 1841 4009 
Q 1763 4109 1588 4109 
Q 1453 4109 1375 4034 
Q 1259 3925 1218 3648 
Q 1178 3372 1178 1719 
Q 1178 819 1241 513 
Q 1288 291 1375 216 
Q 1463 141 1606 141 
Q 1763 141 1841 241 
Q 1972 416 1991 781 
L 2003 2125 
z
" transform="scale(0.015625)"/>
        <path id="TimesNewRomanPS-BoldMT-2e" d="M 800 963 
Q 1019 963 1170 809 
Q 1322 656 1322 441 
Q 1322 225 1169 73 
Q 1016 -78 800 -78 
Q 584 -78 432 73 
Q 281 225 281 441 
Q 281 656 432 809 
Q 584 963 800 963 
z
" transform="scale(0.015625)"/>
        <path id="TimesNewRomanPS-BoldMT-35" d="M 975 4238 
L 2959 4238 
L 2644 3431 
L 975 3431 
L 816 3009 
Q 1894 2969 2475 2472 
Q 2953 2063 2953 1453 
Q 2953 1063 2731 689 
Q 2509 316 2106 114 
Q 1703 -88 1222 -88 
Q 703 -88 425 106 
Q 231 244 231 419 
Q 231 553 332 656 
Q 434 759 569 759 
Q 691 759 816 709 
Q 941 659 1244 447 
Q 1434 316 1572 266 
Q 1669 228 1791 228 
Q 2047 228 2226 415 
Q 2406 603 2406 866 
Q 2406 1416 1856 1759 
Q 1306 2103 469 2103 
Q 384 2103 216 2100 
L 975 4238 
z
" transform="scale(0.015625)"/>
       </defs>
       <use xlink:href="#TimesNewRomanPS-BoldMT-2212"/>
       <use xlink:href="#TimesNewRomanPS-BoldMT-30" x="56.982422"/>
       <use xlink:href="#TimesNewRomanPS-BoldMT-2e" x="106.982422"/>
       <use xlink:href="#TimesNewRomanPS-BoldMT-30" x="131.982422"/>
       <use xlink:href="#TimesNewRomanPS-BoldMT-35" x="181.982422"/>
      </g>
     </g>
    </g>
    <g id="ytick_2">
     <g id="line2d_4">
      <g>
       <use xlink:href="#md88e78438a" x="63" y="275.861477" style="stroke: #000000; stroke-width: 0.8"/>
      </g>
     </g>
     <g id="text_5">
      <!-- 0.00 -->
      <g transform="translate(33.25 280.165696) scale(0.13 -0.13)">
       <use xlink:href="#TimesNewRomanPS-BoldMT-30"/>
       <use xlink:href="#TimesNewRomanPS-BoldMT-2e" x="50"/>
       <use xlink:href="#TimesNewRomanPS-BoldMT-30" x="75"/>
       <use xlink:href="#TimesNewRomanPS-BoldMT-30" x="125"/>
      </g>
     </g>
    </g>
    <g id="ytick_3">
     <g id="line2d_5">
      <g>
       <use xlink:href="#md88e78438a" x="63" y="243.473178" style="stroke: #000000; stroke-width: 0.8"/>
      </g>
     </g>
     <g id="text_6">
      <!-- 0.05 -->
      <g transform="translate(33.25 247.777397) scale(0.13 -0.13)">
       <use xlink:href="#TimesNewRomanPS-BoldMT-30"/>
       <use xlink:href="#TimesNewRomanPS-BoldMT-2e" x="50"/>
       <use xlink:href="#TimesNewRomanPS-BoldMT-30" x="75"/>
       <use xlink:href="#TimesNewRomanPS-BoldMT-35" x="125"/>
      </g>
     </g>
    </g>
    <g id="ytick_4">
     <g id="line2d_6">
      <g>
       <use xlink:href="#md88e78438a" x="63" y="211.08488" style="stroke: #000000; stroke-width: 0.8"/>
      </g>
     </g>
     <g id="text_7">
      <!-- 0.10 -->
      <g transform="translate(33.25 215.389098) scale(0.13 -0.13)">
       <defs>
        <path id="TimesNewRomanPS-BoldMT-31" d="M 2084 4325 
L 2084 859 
Q 2084 469 2118 361 
Q 2153 253 2262 184 
Q 2372 116 2613 116 
L 2709 116 
L 2709 0 
L 478 0 
L 478 116 
L 591 116 
Q 863 116 978 178 
Q 1094 241 1134 350 
Q 1175 459 1175 859 
L 1175 3056 
Q 1175 3350 1147 3423 
Q 1119 3497 1042 3548 
Q 966 3600 866 3600 
Q 706 3600 478 3500 
L 422 3613 
L 1981 4325 
L 2084 4325 
z
" transform="scale(0.015625)"/>
       </defs>
       <use xlink:href="#TimesNewRomanPS-BoldMT-30"/>
       <use xlink:href="#TimesNewRomanPS-BoldMT-2e" x="50"/>
       <use xlink:href="#TimesNewRomanPS-BoldMT-31" x="75"/>
       <use xlink:href="#TimesNewRomanPS-BoldMT-30" x="125"/>
      </g>
     </g>
    </g>
    <g id="ytick_5">
     <g id="line2d_7">
      <g>
       <use xlink:href="#md88e78438a" x="63" y="178.696581" style="stroke: #000000; stroke-width: 0.8"/>
      </g>
     </g>
     <g id="text_8">
      <!-- 0.15 -->
      <g transform="translate(33.25 183.000799) scale(0.13 -0.13)">
       <use xlink:href="#TimesNewRomanPS-BoldMT-30"/>
       <use xlink:href="#TimesNewRomanPS-BoldMT-2e" x="50"/>
       <use xlink:href="#TimesNewRomanPS-BoldMT-31" x="75"/>
       <use xlink:href="#TimesNewRomanPS-BoldMT-35" x="125"/>
      </g>
     </g>
    </g>
    <g id="ytick_6">
     <g id="line2d_8">
      <g>
       <use xlink:href="#md88e78438a" x="63" y="146.308282" style="stroke: #000000; stroke-width: 0.8"/>
      </g>
     </g>
     <g id="text_9">
      <!-- 0.20 -->
      <g transform="translate(33.25 150.6125) scale(0.13 -0.13)">
       <defs>
        <path id="TimesNewRomanPS-BoldMT-32" d="M 2650 0 
L 156 0 
L 156 69 
Q 1303 1434 1548 1906 
Q 1794 2378 1794 2828 
Q 1794 3156 1591 3373 
Q 1388 3591 1094 3591 
Q 613 3591 347 3109 
L 231 3150 
Q 400 3750 744 4037 
Q 1088 4325 1538 4325 
Q 1859 4325 2125 4175 
Q 2391 4025 2541 3764 
Q 2691 3503 2691 3275 
Q 2691 2859 2459 2431 
Q 2144 1853 1081 819 
L 1997 819 
Q 2334 819 2436 847 
Q 2538 875 2603 942 
Q 2669 1009 2775 1225 
L 2888 1225 
L 2650 0 
z
" transform="scale(0.015625)"/>
       </defs>
       <use xlink:href="#TimesNewRomanPS-BoldMT-30"/>
       <use xlink:href="#TimesNewRomanPS-BoldMT-2e" x="50"/>
       <use xlink:href="#TimesNewRomanPS-BoldMT-32" x="75"/>
       <use xlink:href="#TimesNewRomanPS-BoldMT-30" x="125"/>
      </g>
     </g>
    </g>
    <g id="ytick_7">
     <g id="line2d_9">
      <g>
       <use xlink:href="#md88e78438a" x="63" y="113.919983" style="stroke: #000000; stroke-width: 0.8"/>
      </g>
     </g>
     <g id="text_10">
      <!-- 0.25 -->
      <g transform="translate(33.25 118.224201) scale(0.13 -0.13)">
       <use xlink:href="#TimesNewRomanPS-BoldMT-30"/>
       <use xlink:href="#TimesNewRomanPS-BoldMT-2e" x="50"/>
       <use xlink:href="#TimesNewRomanPS-BoldMT-32" x="75"/>
       <use xlink:href="#TimesNewRomanPS-BoldMT-35" x="125"/>
      </g>
     </g>
    </g>
    <g id="ytick_8">
     <g id="line2d_10">
      <g>
       <use xlink:href="#md88e78438a" x="63" y="81.531684" style="stroke: #000000; stroke-width: 0.8"/>
      </g>
     </g>
     <g id="text_11">
      <!-- 0.30 -->
      <g transform="translate(33.25 85.835902) scale(0.13 -0.13)">
       <defs>
        <path id="TimesNewRomanPS-BoldMT-33" d="M 947 2125 
L 947 2234 
Q 1303 2338 1440 2427 
Q 1578 2516 1678 2698 
Q 1778 2881 1778 3069 
Q 1778 3328 1589 3514 
Q 1400 3700 1119 3700 
Q 681 3700 375 3238 
L 259 3278 
Q 484 3800 836 4062 
Q 1188 4325 1619 4325 
Q 2059 4325 2345 4056 
Q 2631 3788 2631 3428 
Q 2631 3194 2498 2976 
Q 2366 2759 2081 2594 
Q 2447 2416 2639 2155 
Q 2831 1894 2831 1500 
Q 2831 838 2351 373 
Q 1872 -91 1066 -91 
Q 528 -91 281 88 
Q 103 213 103 409 
Q 103 553 206 654 
Q 309 756 444 756 
Q 547 756 638 713 
Q 688 688 992 439 
Q 1297 191 1563 191 
Q 1794 191 1959 373 
Q 2125 556 2125 838 
Q 2125 1266 1825 1627 
Q 1525 1988 947 2125 
z
" transform="scale(0.015625)"/>
       </defs>
       <use xlink:href="#TimesNewRomanPS-BoldMT-30"/>
       <use xlink:href="#TimesNewRomanPS-BoldMT-2e" x="50"/>
       <use xlink:href="#TimesNewRomanPS-BoldMT-33" x="75"/>
       <use xlink:href="#TimesNewRomanPS-BoldMT-30" x="125"/>
      </g>
     </g>
    </g>
    <g id="ytick_9">
     <g id="line2d_11">
      <g>
       <use xlink:href="#md88e78438a" x="63" y="49.143385" style="stroke: #000000; stroke-width: 0.8"/>
      </g>
     </g>
     <g id="text_12">
      <!-- 0.35 -->
      <g transform="translate(33.25 53.447603) scale(0.13 -0.13)">
       <use xlink:href="#TimesNewRomanPS-BoldMT-30"/>
       <use xlink:href="#TimesNewRomanPS-BoldMT-2e" x="50"/>
       <use xlink:href="#TimesNewRomanPS-BoldMT-33" x="75"/>
       <use xlink:href="#TimesNewRomanPS-BoldMT-35" x="125"/>
      </g>
     </g>
    </g>
    <g id="text_13">
     <!-- Distance -->
     <g transform="translate(19.06125 205.629609) rotate(-90) scale(0.13 -0.13)">
      <defs>
       <path id="TimesNewRomanPS-BoldMT-44" d="M 84 0 
L 84 116 
L 225 116 
Q 409 116 507 173 
Q 606 231 653 331 
Q 681 397 681 725 
L 681 3513 
Q 681 3838 647 3919 
Q 613 4000 508 4061 
Q 403 4122 225 4122 
L 84 4122 
L 84 4238 
L 1981 4238 
Q 2741 4238 3203 4031 
Q 3769 3778 4061 3265 
Q 4353 2753 4353 2106 
Q 4353 1659 4209 1282 
Q 4066 906 3837 661 
Q 3609 416 3311 267 
Q 3013 119 2581 38 
Q 2391 0 1981 0 
L 84 0 
z
M 1700 3997 
L 1700 691 
Q 1700 428 1725 368 
Q 1750 309 1809 278 
Q 1894 231 2053 231 
Q 2575 231 2850 588 
Q 3225 1069 3225 2081 
Q 3225 2897 2969 3384 
Q 2766 3766 2447 3903 
Q 2222 4000 1700 3997 
z
" transform="scale(0.015625)"/>
       <path id="TimesNewRomanPS-BoldMT-69" d="M 919 4338 
Q 1122 4338 1262 4195 
Q 1403 4053 1403 3853 
Q 1403 3653 1261 3512 
Q 1119 3372 919 3372 
Q 719 3372 578 3512 
Q 438 3653 438 3853 
Q 438 4053 578 4195 
Q 719 4338 919 4338 
z
M 1356 2922 
L 1356 606 
Q 1356 297 1428 211 
Q 1500 125 1709 113 
L 1709 0 
L 131 0 
L 131 113 
Q 325 119 419 225 
Q 481 297 481 606 
L 481 2313 
Q 481 2622 409 2708 
Q 338 2794 131 2806 
L 131 2922 
L 1356 2922 
z
" transform="scale(0.015625)"/>
       <path id="TimesNewRomanPS-BoldMT-74" d="M 1375 3991 
L 1375 2922 
L 2069 2922 
L 2069 2613 
L 1375 2613 
L 1375 809 
Q 1375 556 1398 482 
Q 1422 409 1481 364 
Q 1541 319 1591 319 
Q 1794 319 1975 628 
L 2069 559 
Q 1816 -41 1247 -41 
Q 969 -41 776 114 
Q 584 269 531 459 
Q 500 566 500 1034 
L 500 2613 
L 119 2613 
L 119 2722 
Q 513 3000 789 3306 
Q 1066 3613 1272 3991 
L 1375 3991 
z
" transform="scale(0.015625)"/>
       <path id="TimesNewRomanPS-BoldMT-6e" d="M 1409 2922 
L 1409 2544 
Q 1634 2788 1840 2898 
Q 2047 3009 2284 3009 
Q 2569 3009 2756 2851 
Q 2944 2694 3006 2459 
Q 3056 2281 3056 1775 
L 3056 638 
Q 3056 300 3117 217 
Q 3178 134 3372 113 
L 3372 0 
L 1894 0 
L 1894 113 
Q 2059 134 2131 250 
Q 2181 328 2181 638 
L 2181 1938 
Q 2181 2297 2153 2390 
Q 2125 2484 2058 2536 
Q 1991 2588 1909 2588 
Q 1641 2588 1409 2203 
L 1409 638 
Q 1409 309 1470 221 
Q 1531 134 1697 113 
L 1697 0 
L 219 0 
L 219 113 
Q 403 131 481 231 
Q 534 300 534 638 
L 534 2288 
Q 534 2619 473 2700 
Q 413 2781 219 2806 
L 219 2922 
L 1409 2922 
z
" transform="scale(0.015625)"/>
       <path id="TimesNewRomanPS-BoldMT-63" d="M 2600 753 
L 2697 678 
Q 2491 291 2183 101 
Q 1875 -88 1528 -88 
Q 944 -88 594 353 
Q 244 794 244 1413 
Q 244 2009 563 2463 
Q 947 3009 1622 3009 
Q 2075 3009 2342 2781 
Q 2609 2553 2609 2272 
Q 2609 2094 2501 1987 
Q 2394 1881 2219 1881 
Q 2034 1881 1914 2003 
Q 1794 2125 1766 2438 
Q 1747 2634 1675 2713 
Q 1603 2791 1506 2791 
Q 1356 2791 1250 2631 
Q 1088 2391 1088 1894 
Q 1088 1481 1219 1104 
Q 1350 728 1578 544 
Q 1750 409 1984 409 
Q 2138 409 2275 481 
Q 2413 553 2600 753 
z
" transform="scale(0.015625)"/>
      </defs>
      <use xlink:href="#TimesNewRomanPS-BoldMT-44"/>
      <use xlink:href="#TimesNewRomanPS-BoldMT-69" x="72.216797"/>
      <use xlink:href="#TimesNewRomanPS-BoldMT-73" x="100"/>
      <use xlink:href="#TimesNewRomanPS-BoldMT-74" x="138.916016"/>
      <use xlink:href="#TimesNewRomanPS-BoldMT-61" x="172.216797"/>
      <use xlink:href="#TimesNewRomanPS-BoldMT-6e" x="222.216797"/>
      <use xlink:href="#TimesNewRomanPS-BoldMT-63" x="277.832031"/>
      <use xlink:href="#TimesNewRomanPS-BoldMT-65" x="322.216797"/>
     </g>
    </g>
   </g>
   <g id="patch_3">
    <path d="M 63 320.4 
L 63 43.2 
" style="fill: none; stroke: #000000; stroke-width: 0.8; stroke-linejoin: miter; stroke-linecap: square"/>
   </g>
   <g id="patch_4">
    <path d="M 453.6 320.4 
L 453.6 43.2 
" style="fill: none; stroke: #000000; stroke-width: 0.8; stroke-linejoin: miter; stroke-linecap: square"/>
   </g>
   <g id="patch_5">
    <path d="M 63 320.4 
L 453.6 320.4 
" style="fill: none; stroke: #000000; stroke-width: 0.8; stroke-linejoin: miter; stroke-linecap: square"/>
   </g>
   <g id="patch_6">
    <path d="M 63 43.2 
L 453.6 43.2 
" style="fill: none; stroke: #000000; stroke-width: 0.8; stroke-linejoin: miter; stroke-linecap: square"/>
   </g>
   <g id="text_14">
    <!-- Violin Plot of distance for True and False -->
    <g transform="translate(118.36625 37.2) scale(0.16 -0.16)">
     <defs>
      <path id="TimesNewRomanPS-BoldMT-56" d="M 4556 4238 
L 4556 4122 
Q 4325 4084 4144 3875 
Q 4013 3719 3753 3141 
L 2294 -97 
L 2191 -97 
L 738 3272 
Q 475 3881 386 3987 
Q 297 4094 50 4122 
L 50 4238 
L 2081 4238 
L 2081 4122 
L 2013 4122 
Q 1738 4122 1638 4053 
Q 1566 4006 1566 3916 
Q 1566 3859 1591 3782 
Q 1616 3706 1759 3372 
L 2663 1263 
L 3500 3141 
Q 3650 3481 3684 3597 
Q 3719 3713 3719 3794 
Q 3719 3888 3669 3959 
Q 3619 4031 3522 4069 
Q 3388 4122 3166 4122 
L 3166 4238 
L 4556 4238 
z
" transform="scale(0.015625)"/>
      <path id="TimesNewRomanPS-BoldMT-6f" d="M 1594 3009 
Q 1975 3009 2303 2812 
Q 2631 2616 2801 2253 
Q 2972 1891 2972 1459 
Q 2972 838 2656 419 
Q 2275 -88 1603 -88 
Q 944 -88 587 375 
Q 231 838 231 1447 
Q 231 2075 595 2542 
Q 959 3009 1594 3009 
z
M 1606 2788 
Q 1447 2788 1333 2667 
Q 1219 2547 1183 2192 
Q 1147 1838 1147 1206 
Q 1147 872 1191 581 
Q 1225 359 1337 243 
Q 1450 128 1594 128 
Q 1734 128 1828 206 
Q 1950 313 1991 503 
Q 2053 800 2053 1703 
Q 2053 2234 1993 2432 
Q 1934 2631 1819 2722 
Q 1738 2788 1606 2788 
z
" transform="scale(0.015625)"/>
      <path id="TimesNewRomanPS-BoldMT-20" transform="scale(0.015625)"/>
      <path id="TimesNewRomanPS-BoldMT-50" d="M 1728 1919 
L 1728 744 
Q 1728 400 1770 311 
Q 1813 222 1920 169 
Q 2028 116 2316 116 
L 2316 0 
L 163 0 
L 163 116 
Q 456 116 561 170 
Q 666 225 708 312 
Q 750 400 750 744 
L 750 3494 
Q 750 3838 708 3927 
Q 666 4016 559 4069 
Q 453 4122 163 4122 
L 163 4238 
L 2009 4238 
Q 2922 4238 3319 3913 
Q 3716 3588 3716 3100 
Q 3716 2688 3459 2394 
Q 3203 2100 2753 1994 
Q 2450 1919 1728 1919 
z
M 1728 3994 
L 1728 2163 
Q 1831 2156 1884 2156 
Q 2266 2156 2472 2382 
Q 2678 2609 2678 3084 
Q 2678 3556 2472 3775 
Q 2266 3994 1856 3994 
L 1728 3994 
z
" transform="scale(0.015625)"/>
      <path id="TimesNewRomanPS-BoldMT-66" d="M 1497 2616 
L 1497 588 
Q 1497 294 1559 219 
Q 1659 103 1928 113 
L 1928 0 
L 206 0 
L 206 113 
Q 403 116 486 158 
Q 569 200 600 275 
Q 631 350 631 588 
L 631 2616 
L 206 2616 
L 206 2922 
L 631 2922 
L 631 3138 
L 628 3284 
Q 628 3734 958 4034 
Q 1288 4334 1850 4334 
Q 2234 4334 2420 4190 
Q 2606 4047 2606 3872 
Q 2606 3731 2490 3628 
Q 2375 3525 2184 3525 
Q 2022 3525 1926 3609 
Q 1831 3694 1831 3797 
Q 1831 3825 1850 3913 
Q 1863 3966 1863 4013 
Q 1863 4078 1825 4109 
Q 1775 4156 1703 4156 
Q 1613 4156 1552 4081 
Q 1491 4006 1491 3841 
L 1497 3294 
L 1497 2922 
L 1928 2922 
L 1928 2616 
L 1497 2616 
z
" transform="scale(0.015625)"/>
      <path id="TimesNewRomanPS-BoldMT-64" d="M 3056 4238 
L 3056 875 
Q 3056 534 3075 472 
Q 3100 369 3170 319 
Q 3241 269 3416 256 
L 3416 153 
L 2181 -88 
L 2181 375 
Q 1959 106 1786 9 
Q 1613 -88 1394 -88 
Q 834 -88 509 413 
Q 247 819 247 1409 
Q 247 1881 409 2254 
Q 572 2628 855 2818 
Q 1138 3009 1463 3009 
Q 1672 3009 1834 2928 
Q 1997 2847 2181 2644 
L 2181 3525 
Q 2181 3859 2153 3928 
Q 2116 4019 2041 4062 
Q 1966 4106 1759 4106 
L 1759 4238 
L 3056 4238 
z
M 2181 2256 
Q 1950 2700 1616 2700 
Q 1500 2700 1425 2638 
Q 1309 2541 1236 2297 
Q 1163 2053 1163 1550 
Q 1163 997 1244 731 
Q 1325 466 1466 347 
Q 1538 288 1663 288 
Q 1938 288 2181 719 
L 2181 2256 
z
" transform="scale(0.015625)"/>
     </defs>
     <use xlink:href="#TimesNewRomanPS-BoldMT-56"/>
     <use xlink:href="#TimesNewRomanPS-BoldMT-69" x="68.466797"/>
     <use xlink:href="#TimesNewRomanPS-BoldMT-6f" x="96.25"/>
     <use xlink:href="#TimesNewRomanPS-BoldMT-6c" x="146.25"/>
     <use xlink:href="#TimesNewRomanPS-BoldMT-69" x="174.033203"/>
     <use xlink:href="#TimesNewRomanPS-BoldMT-6e" x="201.816406"/>
     <use xlink:href="#TimesNewRomanPS-BoldMT-20" x="257.431641"/>
     <use xlink:href="#TimesNewRomanPS-BoldMT-50" x="282.431641"/>
     <use xlink:href="#TimesNewRomanPS-BoldMT-6c" x="343.515625"/>
     <use xlink:href="#TimesNewRomanPS-BoldMT-6f" x="371.298828"/>
     <use xlink:href="#TimesNewRomanPS-BoldMT-74" x="421.298828"/>
     <use xlink:href="#TimesNewRomanPS-BoldMT-20" x="454.599609"/>
     <use xlink:href="#TimesNewRomanPS-BoldMT-6f" x="479.599609"/>
     <use xlink:href="#TimesNewRomanPS-BoldMT-66" x="529.599609"/>
     <use xlink:href="#TimesNewRomanPS-BoldMT-20" x="562.900391"/>
     <use xlink:href="#TimesNewRomanPS-BoldMT-64" x="587.900391"/>
     <use xlink:href="#TimesNewRomanPS-BoldMT-69" x="643.515625"/>
     <use xlink:href="#TimesNewRomanPS-BoldMT-73" x="671.298828"/>
     <use xlink:href="#TimesNewRomanPS-BoldMT-74" x="710.214844"/>
     <use xlink:href="#TimesNewRomanPS-BoldMT-61" x="743.515625"/>
     <use xlink:href="#TimesNewRomanPS-BoldMT-6e" x="793.515625"/>
     <use xlink:href="#TimesNewRomanPS-BoldMT-63" x="849.130859"/>
     <use xlink:href="#TimesNewRomanPS-BoldMT-65" x="893.515625"/>
     <use xlink:href="#TimesNewRomanPS-BoldMT-20" x="937.900391"/>
     <use xlink:href="#TimesNewRomanPS-BoldMT-66" x="962.900391"/>
     <use xlink:href="#TimesNewRomanPS-BoldMT-6f" x="996.201172"/>
     <use xlink:href="#TimesNewRomanPS-BoldMT-72" x="1046.201172"/>
     <use xlink:href="#TimesNewRomanPS-BoldMT-20" x="1088.835938"/>
     <use xlink:href="#TimesNewRomanPS-BoldMT-54" x="1112.085938"/>
     <use xlink:href="#TimesNewRomanPS-BoldMT-72" x="1171.410156"/>
     <use xlink:href="#TimesNewRomanPS-BoldMT-75" x="1215.794922"/>
     <use xlink:href="#TimesNewRomanPS-BoldMT-65" x="1271.410156"/>
     <use xlink:href="#TimesNewRomanPS-BoldMT-20" x="1315.794922"/>
     <use xlink:href="#TimesNewRomanPS-BoldMT-61" x="1340.794922"/>
     <use xlink:href="#TimesNewRomanPS-BoldMT-6e" x="1390.794922"/>
     <use xlink:href="#TimesNewRomanPS-BoldMT-64" x="1446.410156"/>
     <use xlink:href="#TimesNewRomanPS-BoldMT-20" x="1502.025391"/>
     <use xlink:href="#TimesNewRomanPS-BoldMT-46" x="1527.025391"/>
     <use xlink:href="#TimesNewRomanPS-BoldMT-61" x="1588.109375"/>
     <use xlink:href="#TimesNewRomanPS-BoldMT-6c" x="1638.109375"/>
     <use xlink:href="#TimesNewRomanPS-BoldMT-73" x="1665.892578"/>
     <use xlink:href="#TimesNewRomanPS-BoldMT-65" x="1704.808594"/>
    </g>
   </g>
  </g>
 </g>
 <defs>
  <clipPath id="p408978e0c6">
   <rect x="63" y="43.2" width="390.6" height="277.2"/>
  </clipPath>
 </defs>
</svg>
