<?xml version="1.0" encoding="UTF-8" standalone="no"?>
<svg
   width="432pt"
   height="432pt"
   viewBox="0 0 432 432"
   version="1.1"
   id="svg172"
   sodipodi:docname="Classifier_Metrics_Radar.svg"
   inkscape:version="1.3 (0e150ed6c4, 2023-07-21)"
   xmlns:inkscape="http://www.inkscape.org/namespaces/inkscape"
   xmlns:sodipodi="http://sodipodi.sourceforge.net/DTD/sodipodi-0.dtd"
   xmlns:xlink="http://www.w3.org/1999/xlink"
   xmlns="http://www.w3.org/2000/svg"
   xmlns:svg="http://www.w3.org/2000/svg"
   xmlns:rdf="http://www.w3.org/1999/02/22-rdf-syntax-ns#"
   xmlns:cc="http://creativecommons.org/ns#"
   xmlns:dc="http://purl.org/dc/elements/1.1/">
  <sodipodi:namedview
     id="namedview172"
     pagecolor="#ffffff"
     bordercolor="#000000"
     borderopacity="0.25"
     inkscape:showpageshadow="2"
     inkscape:pageopacity="0.0"
     inkscape:pagecheckerboard="0"
     inkscape:deskcolor="#d1d1d1"
     inkscape:document-units="pt"
     inkscape:zoom="1.0277778"
     inkscape:cx="407.67567"
     inkscape:cy="319.13513"
     inkscape:window-width="1440"
     inkscape:window-height="830"
     inkscape:window-x="-6"
     inkscape:window-y="1073"
     inkscape:window-maximized="1"
     inkscape:current-layer="svg172"
     showguides="false" />
  <metadata
     id="metadata1">
    <rdf:RDF>
      <cc:Work>
        <dc:type
           rdf:resource="http://purl.org/dc/dcmitype/StillImage" />
        <dc:date>2025-01-26T15:48:25.910090</dc:date>
        <dc:format>image/svg+xml</dc:format>
        <dc:creator>
          <cc:Agent>
            <dc:title>Matplotlib v3.8.4, https://matplotlib.org/</dc:title>
          </cc:Agent>
        </dc:creator>
      </cc:Work>
    </rdf:RDF>
  </metadata>
  <defs
     id="defs1">
    <rect
       x="234.48649"
       y="54.486486"
       width="107.36045"
       height="36.665069"
       id="rect177" />
    <rect
       x="514.7027"
       y="273.40541"
       width="103.13514"
       height="39.891892"
       id="rect176" />
    <rect
       x="12.648649"
       y="241.2973"
       width="112.86486"
       height="36"
       id="rect175" />
    <rect
       x="228.64865"
       y="537.08108"
       width="110.91892"
       height="32.108108"
       id="rect174" />
    <rect
       x="153.72973"
       y="10.702703"
       width="377.96211"
       height="63.391035"
       id="rect173" />
    <style
       type="text/css"
       id="style1">*{stroke-linejoin: round; stroke-linecap: butt}</style>
  </defs>
  <g
     id="figure_1"
     transform="matrix(0.68313458,0,0,0.68214275,68.291258,78.206217)">
    <g
       id="patch_1"
       transform="matrix(0.99155406,0,0,0.98310811,3.648649,7.2972967)">
      <path
         d="M 0,432 H 432 V 0 H 0 Z"
         style="fill:#ffffff"
         id="path1" />
    </g>
    <g
       id="axes_1">
      <g
         id="patch_2">
        <path
           d="m 378.576,229.836 c 0,-21.57463 -4.24973,-42.93947 -12.50598,-62.87183 -8.25626,-19.93235 -20.35847,-38.04459 -35.61403,-53.30016 C 315.20042,98.408447 297.08818,86.306236 277.15583,78.049984 257.22347,69.793731 235.85863,65.544 214.284,65.544 c -21.57463,0 -42.93947,4.249731 -62.87183,12.505984 C 131.47982,86.306236 113.36758,98.408447 98.112013,113.66401 82.856447,128.91958 70.754236,147.03182 62.497984,166.96417 54.241731,186.89653 49.992,208.26137 49.992,229.836 c 0,21.57463 4.249731,42.93947 12.505984,62.87183 8.256252,19.93235 20.358463,38.04459 35.614029,53.30016 15.255567,15.25556 33.367807,27.35777 53.300157,35.61403 19.93236,8.25625 41.2972,12.50598 62.87183,12.50598 21.57463,0 42.93947,-4.24973 62.87183,-12.50598 19.93235,-8.25626 38.04459,-20.35847 53.30016,-35.61403 15.25556,-15.25557 27.35777,-33.36781 35.61403,-53.30016 8.25625,-19.93236 12.50598,-41.2972 12.50598,-62.87183 m -164.292,0 c 0,0 0,0 0,0 0,0 0,0 0,0 0,0 0,0 0,0 0,0 0,0 0,0 0,0 0,0 0,0 0,0 0,0 0,0 z"
           style="fill:#ffffff"
           id="path2" />
      </g>
      <g
         id="patch_3">
        <path
           d="M 364.16442,229.836 214.284,82.539724 61.727143,229.836 214.284,379.71642 Z"
           clip-path="url(#pe908bd44ca)"
           style="opacity:0.25;fill:#1f77b4"
           id="path3" />
      </g>
      <g
         id="patch_4">
        <path
           d="M 352.63516,229.836 214.284,93.870207 73.462286,229.836 214.284,368.18716 Z"
           clip-path="url(#pe908bd44ca)"
           style="opacity:0.25;fill:#ff7f0e"
           id="path4" />
      </g>
      <g
         id="patch_5">
        <path
           d="M 355.51747,229.836 214.284,79.235 85.197429,229.836 214.284,368.85231 Z"
           clip-path="url(#pe908bd44ca)"
           style="opacity:0.25;fill:#2ca02c"
           id="path5" />
      </g>
      <g
         id="patch_6">
        <path
           d="M 341.10589,229.836 214.284,94.116522 102.80014,229.836 214.284,352.24965 Z"
           clip-path="url(#pe908bd44ca)"
           style="opacity:0.25;fill:#d62728"
           id="path6" />
      </g>
      <g
         id="patch_7">
        <path
           d="M 335.34126,229.836 214.284,96.837714 114.53529,229.836 214.284,343.83453 Z"
           clip-path="url(#pe908bd44ca)"
           style="opacity:0.25;fill:#9467bd"
           id="path7" />
      </g>
      <g
         id="matplotlib.axis_1" />
      <g
         id="matplotlib.axis_2">
        <g
           id="ytick_1">
          <g
             id="line2d_1">
            <path
               d="m 247.1424,229.836 c 0,-4.31493 -0.84995,-8.58789 -2.5012,-12.57437 -1.65125,-3.98647 -4.07169,-7.60891 -7.1228,-10.66003 -3.05112,-3.05111 -6.67356,-5.47155 -10.66004,-7.1228 -3.98647,-1.65125 -8.25943,-2.5012 -12.57436,-2.5012 -4.31493,0 -8.58789,0.84995 -12.57437,2.5012 -3.98647,1.65125 -7.60891,4.07169 -10.66003,7.1228 -3.05111,3.05112 -5.47155,6.67356 -7.1228,10.66003 -1.65125,3.98648 -2.5012,8.25944 -2.5012,12.57437 0,4.31493 0.84995,8.58789 2.5012,12.57437 1.65125,3.98647 4.07169,7.60891 7.1228,10.66003 3.05112,3.05111 6.67356,5.47155 10.66003,7.1228 3.98648,1.65125 8.25944,2.5012 12.57437,2.5012 4.31493,0 8.58789,-0.84995 12.57436,-2.5012 3.98648,-1.65125 7.60892,-4.07169 10.66004,-7.1228 3.05111,-3.05112 5.47155,-6.67356 7.1228,-10.66003 1.65125,-3.98648 2.5012,-8.25944 2.5012,-12.57437"
               clip-path="url(#pe908bd44ca)"
               style="fill:none;stroke:#b0b0b0;stroke-width:0.8;stroke-linecap:square"
               id="path8" />
          </g>
          <g
             id="text_1">
            <!-- 0.2 -->
            <g
               transform="matrix(0.14,0,0,-0.14,244.6412,214.26695)"
               id="g10">
              <defs
                 id="defs8">
                <path
                   id="TimesNewRomanPS-BoldMT-30"
                   d="M 2966,2119 Q 2966,1484 2788,934 2681,597 2501,381 2322,166 2094,39 1866,-88 1597,-88 1291,-88 1044,68 797,225 606,516 469,728 366,1081 q -135,478 -135,988 0,690 194,1269 159,478 484,732 325,255 688,255 369,0 689,-252 320,-251 470,-676 210,-584 210,-1278 z m -963,6 q 0,1113 -12,1297 -32,434 -150,587 -78,100 -253,100 -135,0 -213,-75 -116,-109 -157,-386 -40,-276 -40,-1929 0,-900 63,-1206 47,-222 134,-297 88,-75 231,-75 157,0 235,100 131,175 150,540 z"
                   transform="scale(0.015625)" />
                <path
                   id="TimesNewRomanPS-BoldMT-2e"
                   d="m 800,963 q 219,0 370,-154 Q 1322,656 1322,441 1322,225 1169,73 1016,-78 800,-78 584,-78 432,73 281,225 281,441 q 0,215 151,368 152,154 368,154 z"
                   transform="scale(0.015625)" />
                <path
                   id="TimesNewRomanPS-BoldMT-32"
                   d="M 2650,0 H 156 v 69 q 1147,1365 1392,1837 246,472 246,922 0,328 -203,545 -203,218 -497,218 -481,0 -747,-482 l -116,41 q 169,600 513,887 344,288 794,288 321,0 587,-150 266,-150 416,-411 150,-261 150,-489 0,-416 -232,-844 Q 2144,1853 1081,819 h 916 q 337,0 439,28 102,28 167,95 66,67 172,283 h 113 z"
                   transform="scale(0.015625)" />
              </defs>
              <use
                 xlink:href="#TimesNewRomanPS-BoldMT-30"
                 id="use8" />
              <use
                 xlink:href="#TimesNewRomanPS-BoldMT-2e"
                 x="50"
                 id="use9" />
              <use
                 xlink:href="#TimesNewRomanPS-BoldMT-32"
                 x="75"
                 id="use10" />
            </g>
          </g>
        </g>
        <g
           id="ytick_2">
          <g
             id="line2d_2">
            <path
               d="m 280.0008,229.836 c 0,-8.62985 -1.69989,-17.17579 -5.00239,-25.14873 -3.30251,-7.97294 -8.14339,-15.21784 -14.24562,-21.32006 -6.10222,-6.10223 -13.34712,-10.94312 -21.32006,-14.24562 -7.97294,-3.3025 -16.51888,-5.00239 -25.14873,-5.00239 -8.62985,0 -17.17579,1.69989 -25.14873,5.00239 -7.97294,3.3025 -15.21784,8.14339 -21.32007,14.24562 -6.10222,6.10222 -10.94311,13.34712 -14.24561,21.32006 -3.3025,7.97294 -5.00239,16.51888 -5.00239,25.14873 0,8.62985 1.69989,17.17579 5.00239,25.14873 3.3025,7.97294 8.14339,15.21784 14.24561,21.32007 6.10223,6.10222 13.34713,10.9431 21.32007,14.24561 7.97294,3.3025 16.51888,5.00239 25.14873,5.00239 8.62985,0 17.17579,-1.69989 25.14873,-5.00239 7.97294,-3.30251 15.21784,-8.14339 21.32006,-14.24561 6.10223,-6.10223 10.94311,-13.34713 14.24562,-21.32007 3.3025,-7.97294 5.00239,-16.51888 5.00239,-25.14873"
               clip-path="url(#pe908bd44ca)"
               style="fill:none;stroke:#b0b0b0;stroke-width:0.8;stroke-linecap:square"
               id="path10" />
          </g>
          <g
             id="text_2">
            <!-- 0.4 -->
            <g
               transform="matrix(0.14,0,0,-0.14,274.99841,201.69258)"
               id="g13">
              <defs
                 id="defs10">
                <path
                   id="TimesNewRomanPS-BoldMT-34"
                   d="m 159,1597 2013,2728 h 381 V 1597 h 388 V 950 H 2553 V 0 H 1694 V 950 H 159 Z m 304,0 h 1231 v 1672 z"
                   transform="scale(0.015625)" />
              </defs>
              <use
                 xlink:href="#TimesNewRomanPS-BoldMT-30"
                 id="use11" />
              <use
                 xlink:href="#TimesNewRomanPS-BoldMT-2e"
                 x="50"
                 id="use12" />
              <use
                 xlink:href="#TimesNewRomanPS-BoldMT-34"
                 x="75"
                 id="use13" />
            </g>
          </g>
        </g>
        <g
           id="ytick_3">
          <g
             id="line2d_3">
            <path
               d="m 312.8592,229.836 c 0,-12.94478 -2.54984,-25.76368 -7.50359,-37.7231 -4.95375,-11.95941 -12.21508,-22.82675 -21.36842,-31.98009 -9.15334,-9.15334 -20.02068,-16.41467 -31.98009,-21.36842 -11.95942,-4.95375 -24.77832,-7.50359 -37.7231,-7.50359 -12.94478,0 -25.76368,2.54984 -37.7231,7.50359 -11.95941,4.95375 -22.82675,12.21508 -31.98009,21.36842 -9.15334,9.15334 -16.41467,20.02068 -21.36842,31.98009 -4.95375,11.95942 -7.50359,24.77832 -7.50359,37.7231 0,12.94478 2.54984,25.76368 7.50359,37.7231 4.95375,11.95941 12.21508,22.82675 21.36842,31.98009 9.15334,9.15334 20.02068,16.41467 31.98009,21.36842 11.95942,4.95375 24.77832,7.50359 37.7231,7.50359 12.94478,0 25.76368,-2.54984 37.7231,-7.50359 11.95941,-4.95375 22.82675,-12.21508 31.98009,-21.36842 9.15334,-9.15334 16.41467,-20.02068 21.36842,-31.98009 4.95375,-11.95942 7.50359,-24.77832 7.50359,-37.7231"
               clip-path="url(#pe908bd44ca)"
               style="fill:none;stroke:#b0b0b0;stroke-width:0.8;stroke-linecap:square"
               id="path13" />
          </g>
          <g
             id="text_3">
            <!-- 0.6 -->
            <g
               transform="matrix(0.14,0,0,-0.14,305.35561,189.11822)"
               id="g16">
              <defs
                 id="defs13">
                <path
                   id="TimesNewRomanPS-BoldMT-36"
                   d="m 3006,4325 v -87 q -565,-144 -908,-371 -342,-226 -541,-550 -198,-323 -307,-801 138,93 228,122 203,62 410,62 475,0 792,-346 317,-345 317,-941 0,-419 -172,-769 Q 2653,294 2337,103 2022,-88 1663,-88 1272,-88 940,126 609,341 423,753 q -185,413 -185,897 0,713 342,1327 342,614 971,978 630,364 1455,370 z M 1209,2263 q -25,-432 -25,-632 0,-431 83,-834 83,-403 227,-566 103,-115 244,-115 143,0 255,167 113,167 113,680 0,862 -209,1190 -134,213 -363,213 -125,0 -325,-103 z"
                   transform="scale(0.015625)" />
              </defs>
              <use
                 xlink:href="#TimesNewRomanPS-BoldMT-30"
                 id="use14" />
              <use
                 xlink:href="#TimesNewRomanPS-BoldMT-2e"
                 x="50"
                 id="use15" />
              <use
                 xlink:href="#TimesNewRomanPS-BoldMT-36"
                 x="75"
                 id="use16" />
            </g>
          </g>
        </g>
        <g
           id="ytick_4">
          <g
             id="line2d_4">
            <path
               d="m 345.7176,229.836 c 0,-17.2597 -3.39979,-34.35158 -10.00479,-50.29746 -6.605,-15.94589 -16.28677,-30.43568 -28.49122,-42.64013 C 295.01714,124.69396 280.52735,115.01219 264.58146,108.40719 248.63558,101.80218 231.5437,98.4024 214.284,98.4024 c -17.2597,0 -34.35158,3.39978 -50.29746,10.00479 -15.94589,6.605 -30.43568,16.28677 -42.64013,28.49122 -12.20445,12.20445 -21.886221,26.69424 -28.491223,42.64013 C 86.250185,195.48442 82.8504,212.5763 82.8504,229.836 c 0,17.2597 3.399785,34.35158 10.004787,50.29746 6.605002,15.94589 16.286773,30.43568 28.491223,42.64013 12.20445,12.20445 26.69424,21.88622 42.64013,28.49122 15.94588,6.60501 33.03776,10.00479 50.29746,10.00479 17.2597,0 34.35158,-3.39978 50.29746,-10.00479 15.94589,-6.605 30.43568,-16.28677 42.64013,-28.49122 12.20445,-12.20445 21.88622,-26.69424 28.49122,-42.64013 6.605,-15.94588 10.00479,-33.03776 10.00479,-50.29746"
               clip-path="url(#pe908bd44ca)"
               style="fill:none;stroke:#b0b0b0;stroke-width:0.8;stroke-linecap:square"
               id="path16" />
          </g>
          <g
             id="text_4">
            <!-- 0.8 -->
            <g
               transform="matrix(0.14,0,0,-0.14,335.71281,176.54385)"
               id="g19">
              <defs
                 id="defs16">
                <path
                   id="TimesNewRomanPS-BoldMT-38"
                   d="m 2181,2394 q 447,-328 620,-611 174,-283 174,-649 0,-512 -386,-867 Q 2203,-88 1541,-88 913,-88 569,221 225,531 225,978 q 0,341 198,597 199,256 661,469 -503,384 -645,628 -142,244 -142,566 0,425 361,748 361,323 989,323 606,0 932,-286 327,-285 327,-685 0,-300 -177,-530 -176,-230 -548,-414 z m -237,159 q 115,156 171,350 57,194 57,425 0,406 -175,622 -131,166 -363,166 -209,0 -356,-152 -147,-151 -147,-376 0,-229 164,-474 164,-245 649,-561 z m -625,-659 q -97,-88 -138,-160 -62,-109 -112,-319 -50,-209 -50,-437 0,-294 75,-492 75,-198 214,-286 139,-87 286,-87 228,0 384,167 156,167 156,458 0,606 -815,1156 z"
                   transform="scale(0.015625)" />
              </defs>
              <use
                 xlink:href="#TimesNewRomanPS-BoldMT-30"
                 id="use17" />
              <use
                 xlink:href="#TimesNewRomanPS-BoldMT-2e"
                 x="50"
                 id="use18" />
              <use
                 xlink:href="#TimesNewRomanPS-BoldMT-38"
                 x="75"
                 id="use19" />
            </g>
          </g>
        </g>
        <g
           id="ytick_5">
          <g
             id="line2d_5">
            <path
               d="m 378.576,229.836 c 0,-21.57463 -4.24973,-42.93947 -12.50598,-62.87183 -8.25626,-19.93235 -20.35847,-38.04459 -35.61403,-53.30016 C 315.20042,98.408447 297.08818,86.306236 277.15583,78.049984 257.22347,69.793731 235.85863,65.544 214.284,65.544 c -21.57463,0 -42.93947,4.249731 -62.87183,12.505984 C 131.47982,86.306236 113.36758,98.408447 98.112013,113.66401 82.856447,128.91958 70.754236,147.03182 62.497984,166.96417 54.241731,186.89653 49.992,208.26137 49.992,229.836 c 0,21.57463 4.249731,42.93947 12.505984,62.87183 8.256252,19.93235 20.358463,38.04459 35.614029,53.30016 15.255567,15.25556 33.367807,27.35777 53.300157,35.61403 19.93236,8.25625 41.2972,12.50598 62.87183,12.50598 21.57463,0 42.93947,-4.24973 62.87183,-12.50598 19.93235,-8.25626 38.04459,-20.35847 53.30016,-35.61403 15.25556,-15.25557 27.35777,-33.36781 35.61403,-53.30016 8.25625,-19.93236 12.50598,-41.2972 12.50598,-62.87183"
               clip-path="url(#pe908bd44ca)"
               style="fill:none;stroke:#b0b0b0;stroke-width:0.8;stroke-linecap:square"
               id="path19" />
          </g>
          <g
             id="text_5">
            <!-- 1.0 -->
            <g
               transform="matrix(0.14,0,0,-0.14,366.07002,163.96949)"
               id="g22">
              <defs
                 id="defs19">
                <path
                   id="TimesNewRomanPS-BoldMT-31"
                   d="M 2084,4325 V 859 q 0,-390 34,-498 35,-108 144,-177 110,-68 351,-68 h 96 V 0 H 478 v 116 h 113 q 272,0 387,62 116,63 156,172 41,109 41,509 v 2197 q 0,294 -28,367 -28,74 -105,125 -76,52 -176,52 -160,0 -388,-100 l -56,113 1559,712 z"
                   transform="scale(0.015625)" />
              </defs>
              <use
                 xlink:href="#TimesNewRomanPS-BoldMT-31"
                 id="use20" />
              <use
                 xlink:href="#TimesNewRomanPS-BoldMT-2e"
                 x="50"
                 id="use21" />
              <use
                 xlink:href="#TimesNewRomanPS-BoldMT-30"
                 x="75"
                 id="use22" />
            </g>
          </g>
        </g>
      </g>
      <g
         id="line2d_6">
        <path
           d="M 364.16442,229.836 214.284,82.539724 61.727143,229.836 214.284,379.71642 364.16442,229.836"
           clip-path="url(#pe908bd44ca)"
           style="fill:none;stroke:#1f77b4;stroke-width:1.5;stroke-linecap:square"
           id="path22" />
        <defs
           id="defs22">
          <path
             id="m66ec7a7858"
             d="M 0,3 C 0.795609,3 1.55874,2.683901 2.12132,2.12132 2.683901,1.55874 3,0.795609 3,0 3,-0.795609 2.683901,-1.55874 2.12132,-2.12132 1.55874,-2.683901 0.795609,-3 0,-3 -0.795609,-3 -1.55874,-2.683901 -2.12132,-2.12132 -2.683901,-1.55874 -3,-0.795609 -3,0 -3,0.795609 -2.683901,1.55874 -2.12132,2.12132 -1.55874,2.683901 -0.795609,3 0,3 Z"
             style="stroke:#1f77b4" />
        </defs>
        <g
           clip-path="url(#pe908bd44ca)"
           id="g27">
          <use
             xlink:href="#m66ec7a7858"
             x="364.16443"
             y="229.836"
             style="fill:#1f77b4;stroke:#1f77b4"
             id="use23" />
          <use
             xlink:href="#m66ec7a7858"
             x="214.284"
             y="82.539726"
             style="fill:#1f77b4;stroke:#1f77b4"
             id="use24" />
          <use
             xlink:href="#m66ec7a7858"
             x="61.727142"
             y="229.836"
             style="fill:#1f77b4;stroke:#1f77b4"
             id="use25" />
          <use
             xlink:href="#m66ec7a7858"
             x="214.284"
             y="379.71643"
             style="fill:#1f77b4;stroke:#1f77b4"
             id="use26" />
          <use
             xlink:href="#m66ec7a7858"
             x="364.16443"
             y="229.836"
             style="fill:#1f77b4;stroke:#1f77b4"
             id="use27" />
        </g>
      </g>
      <g
         id="line2d_7">
        <path
           d="M 352.63516,229.836 214.284,93.870207 73.462286,229.836 214.284,368.18716 352.63516,229.836"
           clip-path="url(#pe908bd44ca)"
           style="fill:none;stroke:#ff7f0e;stroke-width:1.5;stroke-linecap:square"
           id="path27" />
        <defs
           id="defs27">
          <path
             id="mb02ee89cc9"
             d="M 0,3 C 0.795609,3 1.55874,2.683901 2.12132,2.12132 2.683901,1.55874 3,0.795609 3,0 3,-0.795609 2.683901,-1.55874 2.12132,-2.12132 1.55874,-2.683901 0.795609,-3 0,-3 -0.795609,-3 -1.55874,-2.683901 -2.12132,-2.12132 -2.683901,-1.55874 -3,-0.795609 -3,0 -3,0.795609 -2.683901,1.55874 -2.12132,2.12132 -1.55874,2.683901 -0.795609,3 0,3 Z"
             style="stroke:#ff7f0e" />
        </defs>
        <g
           clip-path="url(#pe908bd44ca)"
           id="g32">
          <use
             xlink:href="#mb02ee89cc9"
             x="352.63516"
             y="229.836"
             style="fill:#ff7f0e;stroke:#ff7f0e"
             id="use28" />
          <use
             xlink:href="#mb02ee89cc9"
             x="214.284"
             y="93.870209"
             style="fill:#ff7f0e;stroke:#ff7f0e"
             id="use29" />
          <use
             xlink:href="#mb02ee89cc9"
             x="73.462288"
             y="229.836"
             style="fill:#ff7f0e;stroke:#ff7f0e"
             id="use30" />
          <use
             xlink:href="#mb02ee89cc9"
             x="214.284"
             y="368.18716"
             style="fill:#ff7f0e;stroke:#ff7f0e"
             id="use31" />
          <use
             xlink:href="#mb02ee89cc9"
             x="352.63516"
             y="229.836"
             style="fill:#ff7f0e;stroke:#ff7f0e"
             id="use32" />
        </g>
      </g>
      <g
         id="line2d_8">
        <path
           d="M 355.51747,229.836 214.284,79.235 85.197429,229.836 214.284,368.85231 355.51747,229.836"
           clip-path="url(#pe908bd44ca)"
           style="fill:none;stroke:#2ca02c;stroke-width:1.5;stroke-linecap:square"
           id="path32" />
        <defs
           id="defs32">
          <path
             id="mdd111e40ef"
             d="M 0,3 C 0.795609,3 1.55874,2.683901 2.12132,2.12132 2.683901,1.55874 3,0.795609 3,0 3,-0.795609 2.683901,-1.55874 2.12132,-2.12132 1.55874,-2.683901 0.795609,-3 0,-3 -0.795609,-3 -1.55874,-2.683901 -2.12132,-2.12132 -2.683901,-1.55874 -3,-0.795609 -3,0 -3,0.795609 -2.683901,1.55874 -2.12132,2.12132 -1.55874,2.683901 -0.795609,3 0,3 Z"
             style="stroke:#2ca02c" />
        </defs>
        <g
           clip-path="url(#pe908bd44ca)"
           id="g37">
          <use
             xlink:href="#mdd111e40ef"
             x="355.51749"
             y="229.836"
             style="fill:#2ca02c;stroke:#2ca02c"
             id="use33" />
          <use
             xlink:href="#mdd111e40ef"
             x="214.284"
             y="79.235001"
             style="fill:#2ca02c;stroke:#2ca02c"
             id="use34" />
          <use
             xlink:href="#mdd111e40ef"
             x="85.197426"
             y="229.836"
             style="fill:#2ca02c;stroke:#2ca02c"
             id="use35" />
          <use
             xlink:href="#mdd111e40ef"
             x="214.284"
             y="368.85229"
             style="fill:#2ca02c;stroke:#2ca02c"
             id="use36" />
          <use
             xlink:href="#mdd111e40ef"
             x="355.51749"
             y="229.836"
             style="fill:#2ca02c;stroke:#2ca02c"
             id="use37" />
        </g>
      </g>
      <g
         id="line2d_9">
        <path
           d="M 341.10589,229.836 214.284,94.116522 102.80014,229.836 214.284,352.24965 341.10589,229.836"
           clip-path="url(#pe908bd44ca)"
           style="fill:none;stroke:#d62728;stroke-width:1.5;stroke-linecap:square"
           id="path37" />
        <defs
           id="defs37">
          <path
             id="me295c9e8c5"
             d="M 0,3 C 0.795609,3 1.55874,2.683901 2.12132,2.12132 2.683901,1.55874 3,0.795609 3,0 3,-0.795609 2.683901,-1.55874 2.12132,-2.12132 1.55874,-2.683901 0.795609,-3 0,-3 -0.795609,-3 -1.55874,-2.683901 -2.12132,-2.12132 -2.683901,-1.55874 -3,-0.795609 -3,0 -3,0.795609 -2.683901,1.55874 -2.12132,2.12132 -1.55874,2.683901 -0.795609,3 0,3 Z"
             style="stroke:#d62728" />
        </defs>
        <g
           clip-path="url(#pe908bd44ca)"
           id="g42">
          <use
             xlink:href="#me295c9e8c5"
             x="341.1059"
             y="229.836"
             style="fill:#d62728;stroke:#d62728"
             id="use38" />
          <use
             xlink:href="#me295c9e8c5"
             x="214.284"
             y="94.116524"
             style="fill:#d62728;stroke:#d62728"
             id="use39" />
          <use
             xlink:href="#me295c9e8c5"
             x="102.80014"
             y="229.836"
             style="fill:#d62728;stroke:#d62728"
             id="use40" />
          <use
             xlink:href="#me295c9e8c5"
             x="214.284"
             y="352.24963"
             style="fill:#d62728;stroke:#d62728"
             id="use41" />
          <use
             xlink:href="#me295c9e8c5"
             x="341.1059"
             y="229.836"
             style="fill:#d62728;stroke:#d62728"
             id="use42" />
        </g>
      </g>
      <g
         id="line2d_10">
        <path
           d="M 335.34126,229.836 214.284,96.837714 114.53529,229.836 214.284,343.83453 335.34126,229.836"
           clip-path="url(#pe908bd44ca)"
           style="fill:none;stroke:#9467bd;stroke-width:1.5;stroke-linecap:square"
           id="path42" />
        <defs
           id="defs42">
          <path
             id="m6469d92eba"
             d="M 0,3 C 0.795609,3 1.55874,2.683901 2.12132,2.12132 2.683901,1.55874 3,0.795609 3,0 3,-0.795609 2.683901,-1.55874 2.12132,-2.12132 1.55874,-2.683901 0.795609,-3 0,-3 -0.795609,-3 -1.55874,-2.683901 -2.12132,-2.12132 -2.683901,-1.55874 -3,-0.795609 -3,0 -3,0.795609 -2.683901,1.55874 -2.12132,2.12132 -1.55874,2.683901 -0.795609,3 0,3 Z"
             style="stroke:#9467bd" />
        </defs>
        <g
           clip-path="url(#pe908bd44ca)"
           id="g47">
          <use
             xlink:href="#m6469d92eba"
             x="335.34128"
             y="229.836"
             style="fill:#9467bd;stroke:#9467bd"
             id="use43" />
          <use
             xlink:href="#m6469d92eba"
             x="214.284"
             y="96.837715"
             style="fill:#9467bd;stroke:#9467bd"
             id="use44" />
          <use
             xlink:href="#m6469d92eba"
             x="114.53529"
             y="229.836"
             style="fill:#9467bd;stroke:#9467bd"
             id="use45" />
          <use
             xlink:href="#m6469d92eba"
             x="214.284"
             y="343.83453"
             style="fill:#9467bd;stroke:#9467bd"
             id="use46" />
          <use
             xlink:href="#m6469d92eba"
             x="335.34128"
             y="229.836"
             style="fill:#9467bd;stroke:#9467bd"
             id="use47" />
        </g>
      </g>
      <g
         id="patch_8">
        <path
           d="m 378.576,229.836 c 0,-21.57463 -4.24973,-42.93947 -12.50598,-62.87183 -8.25626,-19.93235 -20.35847,-38.04459 -35.61403,-53.30016 C 315.20042,98.408447 297.08818,86.306236 277.15583,78.049984 257.22347,69.793731 235.85863,65.544 214.284,65.544 c -21.57463,0 -42.93947,4.249731 -62.87183,12.505984 C 131.47982,86.306236 113.36758,98.408447 98.112013,113.66401 82.856447,128.91958 70.754236,147.03182 62.497984,166.96417 54.241731,186.89653 49.992,208.26137 49.992,229.836 c 0,21.57463 4.249731,42.93947 12.505984,62.87183 8.256252,19.93235 20.358463,38.04459 35.614029,53.30016 15.255567,15.25556 33.367807,27.35777 53.300157,35.61403 19.93236,8.25625 41.2972,12.50598 62.87183,12.50598 21.57463,0 42.93947,-4.24973 62.87183,-12.50598 19.93235,-8.25626 38.04459,-20.35847 53.30016,-35.61403 15.25556,-15.25557 27.35777,-33.36781 35.61403,-53.30016 8.25625,-19.93236 12.50598,-41.2972 12.50598,-62.87183"
           style="fill:none;stroke:#000000;stroke-width:0.8;stroke-linecap:square;stroke-linejoin:miter"
           id="path47" />
      </g>
      <g
         id="legend_1"
         inkscape:label="legend_1">
        <g
           id="patch_9">
          <path
             d="m 265.1844,127.16497 h 137.85 q 2.4,0 2.4,-2.39999 V 41.0856 q 0,-2.4 -2.4,-2.4 h -137.85 q -2.4,0 -2.4,2.4 v 83.67938 q 0,2.39999 2.4,2.39999 z"
             style="opacity:0.8;fill:#ffffff;stroke:#cccccc;stroke-linejoin:miter"
             id="path106" />
        </g>
        <g
           id="line2d_11">
          <path
             d="m 267.5844,47.6856 h 12 12"
             style="fill:none;stroke:#1f77b4;stroke-width:1.5;stroke-linecap:square"
             id="path107" />
          <g
             id="g107">
            <use
               xlink:href="#m66ec7a7858"
               x="279.58441"
               y="47.6856"
               style="fill:#1f77b4;stroke:#1f77b4"
               id="use107" />
          </g>
        </g>
        <g
           id="text_11">
          <!-- SVM (Best) -->
          <g
             transform="matrix(0.12,0,0,-0.12,301.1844,51.8856)"
             id="g117">
            <defs
               id="defs107">
              <path
                 id="TimesNewRomanPS-BoldMT-56"
                 d="m 4556,4238 v -116 q -231,-38 -412,-247 -131,-156 -391,-734 L 2294,-97 H 2191 L 738,3272 q -263,609 -352,715 -89,107 -336,135 v 116 h 2031 v -116 h -68 q -275,0 -375,-69 -72,-47 -72,-137 0,-57 25,-134 25,-76 168,-410 l 904,-2109 837,1878 q 150,340 184,456 35,116 35,197 0,94 -50,165 -50,72 -147,110 -134,53 -356,53 v 116 z"
                 transform="scale(0.015625)" />
              <path
                 id="TimesNewRomanPS-BoldMT-28"
                 d="m 2056,4334 v -143 q -325,-213 -478,-416 -212,-281 -331,-722 -150,-547 -150,-1528 0,-925 136,-1438 136,-512 370,-828 163,-218 453,-384 v -156 q -753,253 -1277,1033 -523,779 -523,1792 0,1000 522,1770 522,770 1278,1020 z"
                 transform="scale(0.015625)" />
              <path
                 id="TimesNewRomanPS-BoldMT-42"
                 d="m 2847,2247 q 603,-141 847,-341 350,-284 350,-737 0,-478 -385,-791 Q 3188,0 2288,0 H 134 v 116 q 294,0 399,54 105,55 147,142 42,88 42,432 v 2750 q 0,344 -42,433 -42,89 -149,142 -106,53 -397,53 v 116 h 2032 q 728,0 1031,-130 303,-130 478,-388 175,-257 175,-548 0,-306 -222,-545 -222,-239 -781,-380 z m -1138,84 q 444,0 655,100 211,100 323,281 113,182 113,463 0,281 -111,461 -111,180 -317,273 -206,94 -663,91 z m 0,-243 V 728 l -3,-156 q 0,-169 86,-255 86,-86 255,-86 250,0 461,111 211,111 323,322 113,211 113,470 0,297 -138,533 -137,236 -378,330 -240,94 -719,91 z"
                 transform="scale(0.015625)" />
              <path
                 id="TimesNewRomanPS-BoldMT-29"
                 d="m 78,-1281 v 143 q 325,216 478,419 210,281 332,719 150,550 150,1531 0,925 -136,1436 -136,511 -371,827 -162,219 -453,384 v 156 Q 831,4081 1354,3301 1878,2522 1878,1509 1878,513 1354,-257 831,-1028 78,-1281 Z"
                 transform="scale(0.015625)" />
            </defs>
            <path
               id="use108"
               d="m 46.96875,67.71875 0.546875,-22.0625 h -2 Q 44.09375,53.953125 38.546875,59 q -5.53125,5.0625 -11.984375,5.0625 -4.984375,0 -7.890625,-2.671875 -2.90625,-2.65625 -2.90625,-6.109375 0,-2.203125 1.03125,-3.90625 1.421875,-2.296875 4.546875,-4.546875 2.296875,-1.609375 10.59375,-5.71875 11.625,-5.703125 15.671875,-10.78125 4,-5.078125 4,-11.625 0,-8.296875 -6.46875,-14.28125 Q 38.671875,-1.5625 28.71875,-1.5625 q -3.125,0 -5.921875,0.640625 -2.78125,0.625 -6.96875,2.390625 -2.34375,0.96875 -3.859375,0.96875 -1.28125,0 -2.703125,-0.984375 -1.40625,-0.96875 -2.28125,-2.96875 h -1.8125 v 25 h 1.8125 Q 9.125,12.9375 15.25,7.390625 q 6.140625,-5.53125 13.21875,-5.53125 5.46875,0 8.71875,2.96875 3.25,2.984375 3.25,6.9375 0,2.34375 -1.25,4.53125 -1.25,2.203125 -3.796875,4.1875 -2.53125,1.984375 -8.96875,5.15625 -9.03125,4.4375 -13,7.5625 -3.953125,3.125 -6.078125,6.984375 -2.125,3.859375 -2.125,8.5 0,7.90625 5.8125,13.46875 5.8125,5.5625 14.65625,5.5625 3.21875,0 6.25,-0.78125 2.296875,-0.578125 5.59375,-2.171875 3.296875,-1.578125 4.609375,-1.578125 1.265625,0 2,0.78125 0.734375,0.78125 1.375,3.75 z"
               style="stroke-width:0.015625" />
            <use
               xlink:href="#TimesNewRomanPS-BoldMT-56"
               x="55.615234"
               id="use109" />
            <path
               id="use110"
               d="m 175.48828,22.5625 17.96875,43.65625 h 26.95313 v -1.8125 h -2.14063 q -2.9375,0 -4.6875,-1.03125 -1.23437,-0.671875 -1.95312,-2.296875 -0.54688,-1.171875 -0.54688,-6.09375 v -43.65625 q 0,-5.078125 0.53125,-6.34375 0.54688,-1.265625 2.20313,-2.21875 1.65625,-0.953125 4.45312,-0.953125 h 2.14063 V 0 h -34.5625 v 1.8125 h 2.14062 q 2.9375,0 4.6875,1.015625 1.21875,0.6875 1.95313,2.34375 0.53125,1.171875 0.53125,6.15625 V 60.40625 L 169.76953,0 h -1.17187 L 142.81641,59.96875 V 13.328125 q 0,-4.875 0.25,-6 0.64062,-2.4375 2.76562,-3.984375 2.125,-1.53125 6.65625,-1.53125 V 0 h -22.65625 v 1.8125 h 0.6875 q 2.20313,-0.046875 4.09375,0.703125 1.90625,0.75 2.875,2.015625 0.98438,1.28125 1.53125,3.578125 0.0937,0.53125 0.0937,4.984375 v 41.890625 q 0,5.03125 -0.54687,6.265625 -0.53125,1.25 -2.1875,2.203125 -1.65625,0.953125 -4.4375,0.953125 h -2.10938 v 1.8125 h 27.04688 z"
               style="stroke-width:0.015625" />
            <path
               id="use111"
               d=""
               style="stroke-width:0.015625" />
          </g>
        </g>
        <g
           id="line2d_12">
          <path
             d="m 267.5844,64.652475 h 12 12"
             style="fill:none;stroke:#ff7f0e;stroke-width:1.5;stroke-linecap:square"
             id="path117" />
          <g
             id="g118">
            <use
               xlink:href="#mb02ee89cc9"
               x="279.58441"
               y="64.652473"
               style="fill:#ff7f0e;stroke:#ff7f0e"
               id="use118" />
          </g>
        </g>
        <g
           id="text_12">
          <!-- KNN -->
          <g
             transform="matrix(0.12,0,0,-0.12,301.1844,68.852475)"
             id="g121">
            <defs
               id="defs118">
              <path
                 id="TimesNewRomanPS-BoldMT-4b"
                 d="M 2666,2616 4156,750 Q 4472,356 4700,216 4866,116 5050,116 V 0 H 2844 v 116 q 209,18 270,65 61,47 61,116 0,131 -287,494 L 1916,2013 1759,1881 V 725 q 0,-331 37,-413 38,-81 144,-139 107,-57 341,-57 V 0 H 144 v 116 h 140 q 185,0 297,65 82,44 125,150 35,75 35,394 v 2788 q 0,325 -35,406 -34,81 -139,142 -104,61 -283,61 H 144 v 116 h 2109 v -116 q -215,0 -328,-63 -81,-43 -128,-146 -38,-79 -38,-400 V 2194 l 1572,1272 q 328,265 328,425 0,118 -134,187 -69,35 -341,44 v 116 h 1654 v -116 q -222,-16 -349,-80 -126,-64 -583,-433 z"
                 transform="scale(0.015625)" />
              <path
                 id="TimesNewRomanPS-BoldMT-4e"
                 d="M 1594,4238 3684,1609 v 1822 q 0,382 -109,516 -150,181 -503,175 v 116 h 1400 v -116 q -269,-34 -361,-89 -92,-55 -144,-179 -51,-123 -51,-423 V -97 H 3809 L 944,3431 V 738 q 0,-366 167,-494 167,-128 383,-128 h 100 V 0 H 91 v 116 q 350,3 487,143 138,141 138,479 v 2990 l -91,113 q -134,168 -238,221 -103,54 -296,60 v 116 z"
                 transform="scale(0.015625)" />
            </defs>
            <use
               xlink:href="#TimesNewRomanPS-BoldMT-4b"
               id="use119" />
            <use
               xlink:href="#TimesNewRomanPS-BoldMT-4e"
               x="77.783203"
               id="use120" />
            <use
               xlink:href="#TimesNewRomanPS-BoldMT-4e"
               x="150"
               id="use121" />
          </g>
        </g>
        <g
           id="line2d_13">
          <path
             d="m 267.5844,81.61935 h 12 12"
             style="fill:none;stroke:#2ca02c;stroke-width:1.5;stroke-linecap:square"
             id="path121" />
          <g
             id="g122">
            <use
               xlink:href="#mdd111e40ef"
               x="279.58441"
               y="81.619347"
               style="fill:#2ca02c;stroke:#2ca02c"
               id="use122" />
          </g>
        </g>
        <g
           id="line2d_14">
          <path
             d="m 267.5844,98.586225 h 12 12"
             style="fill:none;stroke:#d62728;stroke-width:1.5;stroke-linecap:square"
             id="path135" />
          <g
             id="g136">
            <use
               xlink:href="#me295c9e8c5"
               x="279.58441"
               y="98.586227"
               style="fill:#d62728;stroke:#d62728"
               id="use136" />
          </g>
        </g>
        <g
           id="line2d_15">
          <path
             d="m 267.5844,115.5756 h 12 12"
             style="fill:none;stroke:#9467bd;stroke-width:1.5;stroke-linecap:square"
             id="path155" />
          <g
             id="g156">
            <use
               xlink:href="#m6469d92eba"
               x="279.58441"
               y="115.5756"
               style="fill:#9467bd;stroke:#9467bd"
               id="use156" />
          </g>
        </g>
      </g>
    </g>
    <text
       xml:space="preserve"
       transform="matrix(0.75,0,0,0.75,21.796483,2.87038)"
       id="text173"
       style="font-style:normal;font-variant:normal;font-weight:bold;font-stretch:normal;font-size:24.2528px;line-height:1.2;font-family:'Times New Roman';-inkscape-font-specification:'Times New Roman,  Bold';white-space:pre;shape-inside:url(#rect173);display:inline;fill:#000000;stroke-width:1.33417"><tspan
         x="153.73047"
         y="33.970656"
         id="tspan2">不同分类器性能对比图</tspan></text>
    <text
       xml:space="preserve"
       transform="matrix(0.75,0,0,0.75,27.72973,-3.6486486)"
       id="text174"
       style="font-style:normal;font-variant:normal;font-weight:bold;font-stretch:normal;font-size:20.7881px;line-height:1.2;font-family:'Times New Roman';-inkscape-font-specification:'Times New Roman,  Bold';white-space:pre;shape-inside:url(#rect174);display:inline;fill:#000000;stroke-width:1.33417"><tspan
         x="228.64844"
         y="557.02561"
         id="tspan3">F1值</tspan></text>
    <text
       xml:space="preserve"
       transform="matrix(0,-0.75,0.75,0,-158.16743,265.47345)"
       id="text175"
       style="font-style:normal;font-variant:normal;font-weight:bold;font-stretch:normal;font-size:20.7881px;line-height:1.2;font-family:'Times New Roman';-inkscape-font-specification:'Times New Roman,  Bold';white-space:pre;shape-inside:url(#rect175);display:inline;fill:#000000;stroke-width:1.33417"><tspan
         x="12.648438"
         y="261.24046"
         id="tspan4">召回率</tspan></text>
    <text
       xml:space="preserve"
       transform="matrix(0,-0.75,0.75,0,181.89699,636.53613)"
       id="text176"
       style="font-style:normal;font-variant:normal;font-weight:bold;font-stretch:normal;font-size:20.7881px;line-height:1.2;font-family:'Times New Roman';-inkscape-font-specification:'Times New Roman,  Bold';white-space:pre;shape-inside:url(#rect176);display:inline;fill:#000000;stroke-width:1.33417"><tspan
         x="514.70312"
         y="293.34983"
         id="tspan5">准确率</tspan></text>
    <text
       xml:space="preserve"
       transform="matrix(0.75,0,0,0.75,16.074515,0.46185447)"
       id="text177"
       style="font-style:normal;font-variant:normal;font-weight:bold;font-stretch:normal;font-size:20.7881px;line-height:1.2;font-family:'Times New Roman';-inkscape-font-specification:'Times New Roman,  Bold';white-space:pre;shape-inside:url(#rect177);display:inline;fill:#000000;stroke-width:1.33417"><tspan
         x="234.48633"
         y="74.429911"
         id="tspan6">精确率</tspan></text>
  </g>
  <text
     xml:space="preserve"
     style="font-weight:bold;font-size:9px;line-height:1.2;font-family:'Times New Roman';-inkscape-font-specification:'Times New Roman,  Bold';fill:#000000;stroke-width:1.00063;stroke-linecap:butt;stroke-linejoin:round"
     x="273.67398"
     y="137.89771"
     id="text1-9"><tspan
       sodipodi:role="line"
       id="tspan1-6"
       style="font-size:9px;stroke-width:1.00063"
       x="273.67398"
       y="137.89771">随机森林</tspan></text>
  <defs
     id="defs172">
    <clipPath
       id="pe908bd44ca">
      <path
         d="M 378.576 229.836  C 378.576 208.261372 374.326269 186.896531 366.070016 166.964174  C 357.813764 147.031817 345.711553 128.919578 330.455987 113.664013  C 315.200422 98.408447 297.088183 86.306236 277.155826 78.049984  C 257.223469 69.793731 235.858628 65.544 214.284 65.544  C 192.709372 65.544 171.344531 69.793731 151.412174 78.049984  C 131.479817 86.306236 113.367578 98.408447 98.112013 113.664013  C 82.856447 128.919578 70.754236 147.031817 62.497984 166.964174  C 54.241731 186.896531 49.992 208.261372 49.992 229.836  C 49.992 251.410628 54.241731 272.775469 62.497984 292.707826  C 70.754236 312.640183 82.856447 330.752422 98.112013 346.007987  C 113.367578 361.263553 131.479817 373.365764 151.412174 381.622016  C 171.344531 389.878269 192.709372 394.128 214.284 394.128  C 235.858628 394.128 257.223469 389.878269 277.155826 381.622016  C 297.088183 373.365764 315.200422 361.263553 330.455987 346.007987  C 345.711553 330.752422 357.813764 312.640183 366.070016 292.707826  C 374.326269 272.775469 378.576 251.410628 378.576 229.836  M 214.284 229.836  C 214.284 229.836 214.284 229.836 214.284 229.836  C 214.284 229.836 214.284 229.836 214.284 229.836  C 214.284 229.836 214.284 229.836 214.284 229.836  C 214.284 229.836 214.284 229.836 214.284 229.836  C 214.284 229.836 214.284 229.836 214.284 229.836  C 214.284 229.836 214.284 229.836 214.284 229.836  C 214.284 229.836 214.284 229.836 214.284 229.836  C 214.284 229.836 214.284 229.836 214.284 229.836  C 214.284 229.836 214.284 229.836 214.284 229.836  C 214.284 229.836 214.284 229.836 214.284 229.836  C 214.284 229.836 214.284 229.836 214.284 229.836  C 214.284 229.836 214.284 229.836 214.284 229.836  C 214.284 229.836 214.284 229.836 214.284 229.836  C 214.284 229.836 214.284 229.836 214.284 229.836  C 214.284 229.836 214.284 229.836 214.284 229.836  C 214.284 229.836 214.284 229.836 214.284 229.836  z "
         id="path172" />
    </clipPath>
  </defs>
  <text
     xml:space="preserve"
     style="font-weight:bold;font-size:9px;line-height:1.2;font-family:'Times New Roman';-inkscape-font-specification:'Times New Roman,  Bold';fill:#000000;stroke-width:1.00063"
     x="273.64865"
     y="161.27026"
     id="text1"><tspan
       sodipodi:role="line"
       id="tspan1"
       style="font-size:9px;stroke-width:1.00063"
       x="273.64865"
       y="161.27026">岭回归</tspan></text>
  <text
     xml:space="preserve"
     style="font-weight:bold;font-size:9px;line-height:1.2;font-family:'Times New Roman';-inkscape-font-specification:'Times New Roman,  Bold';fill:#000000;stroke-width:1.00063;stroke-linecap:butt;stroke-linejoin:round"
     x="273.57516"
     y="149.69499"
     id="text1-9-1"><tspan
       sodipodi:role="line"
       id="tspan1-6-2"
       style="font-size:9px;stroke-width:1.00063"
       x="273.57516"
       y="149.69499">逻辑回归</tspan></text>
  <text
     xml:space="preserve"
     style="font-weight:bold;font-size:9px;line-height:1.2;font-family:'Times New Roman';-inkscape-font-specification:'Times New Roman,  Bold';fill:#000000;stroke-width:1.00063"
     x="288.24323"
     y="114.56757"
     id="text11"><tspan
       sodipodi:role="line"
       id="tspan11"
       style="stroke-width:1.00063"
       x="288.24323"
       y="114.56757">（最优）</tspan></text>
</svg>
