<?xml version="1.0" encoding="UTF-8" standalone="no"?>
<svg
   width="856.8pt"
   height="367.2pt"
   viewBox="0 0 856.8 367.2"
   version="1.1"
   id="svg249"
   sodipodi:docname="Diff_Model_ROC_Curve_resize.svg"
   inkscape:version="1.3 (0e150ed6c4, 2023-07-21)"
   xmlns:inkscape="http://www.inkscape.org/namespaces/inkscape"
   xmlns:sodipodi="http://sodipodi.sourceforge.net/DTD/sodipodi-0.dtd"
   xmlns:xlink="http://www.w3.org/1999/xlink"
   xmlns="http://www.w3.org/2000/svg"
   xmlns:svg="http://www.w3.org/2000/svg"
   xmlns:rdf="http://www.w3.org/1999/02/22-rdf-syntax-ns#"
   xmlns:cc="http://creativecommons.org/ns#"
   xmlns:dc="http://purl.org/dc/elements/1.1/">
  <sodipodi:namedview
     id="namedview249"
     pagecolor="#ffffff"
     bordercolor="#000000"
     borderopacity="0.25"
     inkscape:showpageshadow="2"
     inkscape:pageopacity="0.0"
     inkscape:pagecheckerboard="0"
     inkscape:deskcolor="#d1d1d1"
     inkscape:document-units="pt"
     showgrid="false"
     showguides="true"
     inkscape:zoom="0.61274511"
     inkscape:cx="571.19999"
     inkscape:cy="114.24"
     inkscape:window-width="1440"
     inkscape:window-height="830"
     inkscape:window-x="-6"
     inkscape:window-y="1073"
     inkscape:window-maximized="1"
     inkscape:current-layer="svg249" />
  <metadata
     id="metadata1">
    <rdf:RDF>
      <cc:Work>
        <dc:type
           rdf:resource="http://purl.org/dc/dcmitype/StillImage" />
        <dc:date>2025-01-26T15:48:25.962308</dc:date>
        <dc:format>image/svg+xml</dc:format>
        <dc:creator>
          <cc:Agent>
            <dc:title>Matplotlib v3.8.4, https://matplotlib.org/</dc:title>
          </cc:Agent>
        </dc:creator>
      </cc:Work>
    </rdf:RDF>
  </metadata>
  <defs
     id="defs1">
    <rect
       x="685.43999"
       y="210.528"
       width="305.18399"
       height="35.903999"
       id="rect1" />
    <rect
       x="479.80799"
       y="463.48799"
       width="235.008"
       height="42.431999"
       id="rect253" />
    <rect
       x="32.64"
       y="182.784"
       width="156.672"
       height="48.959999"
       id="rect252" />
    <rect
       x="350.88"
       y="4.8959999"
       width="385.152"
       height="42.431999"
       id="rect251" />
    <rect
       x="450.43199"
       y="9.7919999"
       width="241.536"
       height="44.063999"
       id="rect250" />
    <style
       type="text/css"
       id="style1">*{stroke-linejoin: round; stroke-linecap: butt}</style>
    <rect
       x="685.44"
       y="210.528"
       width="305.18399"
       height="35.903999"
       id="rect1-9" />
    <rect
       x="685.44"
       y="210.528"
       width="305.18399"
       height="35.903999"
       id="rect1-6" />
  </defs>
  <g
     id="figure_1">
    <g
       id="patch_1"
       transform="matrix(0.86,0,0,0.98666667,41.615999,4.8959999)">
      <path
         d="M 0,367.2 H 856.8 V 0 H 0 Z"
         style="fill:#ffffff"
         id="path1" />
    </g>
    <g
       id="axes_1">
      <g
         id="patch_2">
        <path
           d="M 107.1 326.808  L 771.12 326.808  L 771.12 44.064  L 107.1 44.064  z "
           style="fill:#ffffff"
           id="path2" />
      </g>
      <g
         id="matplotlib.axis_1">
        <g
           id="xtick_1">
          <g
             id="line2d_1">
            <defs
               id="defs2">
              <path
                 id="m0a75c0fd0b"
                 d="M 0 0  L 0 3.5  "
                 style="stroke: #000000; stroke-width: 0.8" />
            </defs>
            <g
               id="g2">
              <use
                 xlink:href="#m0a75c0fd0b"
                 x="137.282727"
                 y="326.808"
                 style="stroke:#000000;stroke-width:0.8"
                 id="use2" />
            </g>
          </g>
          <g
             id="text_1">
            <!-- 0.0 -->
            <g
               transform="translate(127.282727 344.918) scale(0.16 -0.16)"
               id="g5">
              <defs
                 id="defs3">
                <path
                   id="TimesNewRomanPSMT-30"
                   d="M 231 2094  Q 231 2819 450 3342  Q 669 3866 1031 4122  Q 1313 4325 1613 4325  Q 2100 4325 2488 3828  Q 2972 3213 2972 2159  Q 2972 1422 2759 906  Q 2547 391 2217 158  Q 1888 -75 1581 -75  Q 975 -75 572 641  Q 231 1244 231 2094  z M 844 2016  Q 844 1141 1059 588  Q 1238 122 1591 122  Q 1759 122 1940 273  Q 2122 425 2216 781  Q 2359 1319 2359 2297  Q 2359 3022 2209 3506  Q 2097 3866 1919 4016  Q 1791 4119 1609 4119  Q 1397 4119 1231 3928  Q 1006 3669 925 3112  Q 844 2556 844 2016  z "
                   transform="scale(0.015625)" />
                <path
                   id="TimesNewRomanPSMT-2e"
                   d="M 800 606  Q 947 606 1047 504  Q 1147 403 1147 259  Q 1147 116 1045 14  Q 944 -88 800 -88  Q 656 -88 554 14  Q 453 116 453 259  Q 453 406 554 506  Q 656 606 800 606  z "
                   transform="scale(0.015625)" />
              </defs>
              <use
                 xlink:href="#TimesNewRomanPSMT-30"
                 id="use3" />
              <use
                 xlink:href="#TimesNewRomanPSMT-2e"
                 x="50"
                 id="use4" />
              <use
                 xlink:href="#TimesNewRomanPSMT-30"
                 x="75"
                 id="use5" />
            </g>
          </g>
        </g>
        <g
           id="xtick_2">
          <g
             id="line2d_2">
            <g
               id="g6">
              <use
                 xlink:href="#m0a75c0fd0b"
                 x="258.013636"
                 y="326.808"
                 style="stroke:#000000;stroke-width:0.8"
                 id="use6" />
            </g>
          </g>
          <g
             id="text_2">
            <!-- 0.2 -->
            <g
               transform="translate(248.013636 344.918) scale(0.16 -0.16)"
               id="g9">
              <defs
                 id="defs6">
                <path
                   id="TimesNewRomanPSMT-32"
                   d="M 2934 816  L 2638 0  L 138 0  L 138 116  Q 1241 1122 1691 1759  Q 2141 2397 2141 2925  Q 2141 3328 1894 3587  Q 1647 3847 1303 3847  Q 991 3847 742 3664  Q 494 3481 375 3128  L 259 3128  Q 338 3706 661 4015  Q 984 4325 1469 4325  Q 1984 4325 2329 3994  Q 2675 3663 2675 3213  Q 2675 2891 2525 2569  Q 2294 2063 1775 1497  Q 997 647 803 472  L 1909 472  Q 2247 472 2383 497  Q 2519 522 2628 598  Q 2738 675 2819 816  L 2934 816  z "
                   transform="scale(0.015625)" />
              </defs>
              <use
                 xlink:href="#TimesNewRomanPSMT-30"
                 id="use7" />
              <use
                 xlink:href="#TimesNewRomanPSMT-2e"
                 x="50"
                 id="use8" />
              <use
                 xlink:href="#TimesNewRomanPSMT-32"
                 x="75"
                 id="use9" />
            </g>
          </g>
        </g>
        <g
           id="xtick_3">
          <g
             id="line2d_3">
            <g
               id="g10">
              <use
                 xlink:href="#m0a75c0fd0b"
                 x="378.744545"
                 y="326.808"
                 style="stroke:#000000;stroke-width:0.8"
                 id="use10" />
            </g>
          </g>
          <g
             id="text_3">
            <!-- 0.4 -->
            <g
               transform="translate(368.744545 344.918) scale(0.16 -0.16)"
               id="g13">
              <defs
                 id="defs10">
                <path
                   id="TimesNewRomanPSMT-34"
                   d="M 2978 1563  L 2978 1119  L 2409 1119  L 2409 0  L 1894 0  L 1894 1119  L 100 1119  L 100 1519  L 2066 4325  L 2409 4325  L 2409 1563  L 2978 1563  z M 1894 1563  L 1894 3666  L 406 1563  L 1894 1563  z "
                   transform="scale(0.015625)" />
              </defs>
              <use
                 xlink:href="#TimesNewRomanPSMT-30"
                 id="use11" />
              <use
                 xlink:href="#TimesNewRomanPSMT-2e"
                 x="50"
                 id="use12" />
              <use
                 xlink:href="#TimesNewRomanPSMT-34"
                 x="75"
                 id="use13" />
            </g>
          </g>
        </g>
        <g
           id="xtick_4">
          <g
             id="line2d_4">
            <g
               id="g14">
              <use
                 xlink:href="#m0a75c0fd0b"
                 x="499.475455"
                 y="326.808"
                 style="stroke:#000000;stroke-width:0.8"
                 id="use14" />
            </g>
          </g>
          <g
             id="text_4">
            <!-- 0.6 -->
            <g
               transform="translate(489.475455 344.918) scale(0.16 -0.16)"
               id="g17">
              <defs
                 id="defs14">
                <path
                   id="TimesNewRomanPSMT-36"
                   d="M 2869 4325  L 2869 4209  Q 2456 4169 2195 4045  Q 1934 3922 1679 3669  Q 1425 3416 1258 3105  Q 1091 2794 978 2366  Q 1428 2675 1881 2675  Q 2316 2675 2634 2325  Q 2953 1975 2953 1425  Q 2953 894 2631 456  Q 2244 -75 1606 -75  Q 1172 -75 869 213  Q 275 772 275 1663  Q 275 2231 503 2743  Q 731 3256 1154 3653  Q 1578 4050 1965 4187  Q 2353 4325 2688 4325  L 2869 4325  z M 925 2138  Q 869 1716 869 1456  Q 869 1156 980 804  Q 1091 453 1309 247  Q 1469 100 1697 100  Q 1969 100 2183 356  Q 2397 613 2397 1088  Q 2397 1622 2184 2012  Q 1972 2403 1581 2403  Q 1463 2403 1327 2353  Q 1191 2303 925 2138  z "
                   transform="scale(0.015625)" />
              </defs>
              <use
                 xlink:href="#TimesNewRomanPSMT-30"
                 id="use15" />
              <use
                 xlink:href="#TimesNewRomanPSMT-2e"
                 x="50"
                 id="use16" />
              <use
                 xlink:href="#TimesNewRomanPSMT-36"
                 x="75"
                 id="use17" />
            </g>
          </g>
        </g>
        <g
           id="xtick_5">
          <g
             id="line2d_5">
            <g
               id="g18">
              <use
                 xlink:href="#m0a75c0fd0b"
                 x="620.206364"
                 y="326.808"
                 style="stroke:#000000;stroke-width:0.8"
                 id="use18" />
            </g>
          </g>
          <g
             id="text_5">
            <!-- 0.8 -->
            <g
               transform="translate(610.206364 344.918) scale(0.16 -0.16)"
               id="g21">
              <defs
                 id="defs18">
                <path
                   id="TimesNewRomanPSMT-38"
                   d="M 1228 2134  Q 725 2547 579 2797  Q 434 3047 434 3316  Q 434 3728 753 4026  Q 1072 4325 1600 4325  Q 2113 4325 2425 4047  Q 2738 3769 2738 3413  Q 2738 3175 2569 2928  Q 2400 2681 1866 2347  Q 2416 1922 2594 1678  Q 2831 1359 2831 1006  Q 2831 559 2490 242  Q 2150 -75 1597 -75  Q 994 -75 656 303  Q 388 606 388 966  Q 388 1247 577 1523  Q 766 1800 1228 2134  z M 1719 2469  Q 2094 2806 2194 3001  Q 2294 3197 2294 3444  Q 2294 3772 2109 3958  Q 1925 4144 1606 4144  Q 1288 4144 1088 3959  Q 888 3775 888 3528  Q 888 3366 970 3203  Q 1053 3041 1206 2894  L 1719 2469  z M 1375 2016  Q 1116 1797 991 1539  Q 866 1281 866 981  Q 866 578 1086 336  Q 1306 94 1647 94  Q 1984 94 2187 284  Q 2391 475 2391 747  Q 2391 972 2272 1150  Q 2050 1481 1375 2016  z "
                   transform="scale(0.015625)" />
              </defs>
              <use
                 xlink:href="#TimesNewRomanPSMT-30"
                 id="use19" />
              <use
                 xlink:href="#TimesNewRomanPSMT-2e"
                 x="50"
                 id="use20" />
              <use
                 xlink:href="#TimesNewRomanPSMT-38"
                 x="75"
                 id="use21" />
            </g>
          </g>
        </g>
        <g
           id="xtick_6">
          <g
             id="line2d_6">
            <g
               id="g22">
              <use
                 xlink:href="#m0a75c0fd0b"
                 x="740.937273"
                 y="326.808"
                 style="stroke:#000000;stroke-width:0.8"
                 id="use22" />
            </g>
          </g>
          <g
             id="text_6">
            <!-- 1.0 -->
            <g
               transform="translate(730.937273 344.918) scale(0.16 -0.16)"
               id="g25">
              <defs
                 id="defs22">
                <path
                   id="TimesNewRomanPSMT-31"
                   d="M 750 3822  L 1781 4325  L 1884 4325  L 1884 747  Q 1884 391 1914 303  Q 1944 216 2037 169  Q 2131 122 2419 116  L 2419 0  L 825 0  L 825 116  Q 1125 122 1212 167  Q 1300 213 1334 289  Q 1369 366 1369 747  L 1369 3034  Q 1369 3497 1338 3628  Q 1316 3728 1258 3775  Q 1200 3822 1119 3822  Q 1003 3822 797 3725  L 750 3822  z "
                   transform="scale(0.015625)" />
              </defs>
              <use
                 xlink:href="#TimesNewRomanPSMT-31"
                 id="use23" />
              <use
                 xlink:href="#TimesNewRomanPSMT-2e"
                 x="50"
                 id="use24" />
              <use
                 xlink:href="#TimesNewRomanPSMT-30"
                 x="75"
                 id="use25" />
            </g>
          </g>
        </g>
      </g>
      <g
         id="matplotlib.axis_2">
        <g
           id="ytick_1">
          <g
             id="line2d_7">
            <defs
               id="defs44">
              <path
                 id="mf7790cc4a7"
                 d="M 0 0  L -3.5 0  "
                 style="stroke: #000000; stroke-width: 0.8" />
            </defs>
            <g
               id="g45">
              <use
                 xlink:href="#mf7790cc4a7"
                 x="107.1"
                 y="313.956"
                 style="stroke:#000000;stroke-width:0.8"
                 id="use45" />
            </g>
          </g>
          <g
             id="text_8">
            <!-- 0.0 -->
            <g
               transform="translate(80.1 319.511) scale(0.16 -0.16)"
               id="g48">
              <use
                 xlink:href="#TimesNewRomanPSMT-30"
                 id="use46" />
              <use
                 xlink:href="#TimesNewRomanPSMT-2e"
                 x="50"
                 id="use47" />
              <use
                 xlink:href="#TimesNewRomanPSMT-30"
                 x="75"
                 id="use48" />
            </g>
          </g>
        </g>
        <g
           id="ytick_2">
          <g
             id="line2d_8">
            <g
               id="g49">
              <use
                 xlink:href="#mf7790cc4a7"
                 x="107.1"
                 y="262.548"
                 style="stroke:#000000;stroke-width:0.8"
                 id="use49" />
            </g>
          </g>
          <g
             id="text_9">
            <!-- 0.2 -->
            <g
               transform="translate(80.1 268.103) scale(0.16 -0.16)"
               id="g52">
              <use
                 xlink:href="#TimesNewRomanPSMT-30"
                 id="use50" />
              <use
                 xlink:href="#TimesNewRomanPSMT-2e"
                 x="50"
                 id="use51" />
              <use
                 xlink:href="#TimesNewRomanPSMT-32"
                 x="75"
                 id="use52" />
            </g>
          </g>
        </g>
        <g
           id="ytick_3">
          <g
             id="line2d_9">
            <g
               id="g53">
              <use
                 xlink:href="#mf7790cc4a7"
                 x="107.1"
                 y="211.14"
                 style="stroke:#000000;stroke-width:0.8"
                 id="use53" />
            </g>
          </g>
          <g
             id="text_10">
            <!-- 0.4 -->
            <g
               transform="translate(80.1 216.695) scale(0.16 -0.16)"
               id="g56">
              <use
                 xlink:href="#TimesNewRomanPSMT-30"
                 id="use54" />
              <use
                 xlink:href="#TimesNewRomanPSMT-2e"
                 x="50"
                 id="use55" />
              <use
                 xlink:href="#TimesNewRomanPSMT-34"
                 x="75"
                 id="use56" />
            </g>
          </g>
        </g>
        <g
           id="ytick_4">
          <g
             id="line2d_10">
            <g
               id="g57">
              <use
                 xlink:href="#mf7790cc4a7"
                 x="107.1"
                 y="159.732"
                 style="stroke:#000000;stroke-width:0.8"
                 id="use57" />
            </g>
          </g>
          <g
             id="text_11">
            <!-- 0.6 -->
            <g
               transform="translate(80.1 165.287) scale(0.16 -0.16)"
               id="g60">
              <use
                 xlink:href="#TimesNewRomanPSMT-30"
                 id="use58" />
              <use
                 xlink:href="#TimesNewRomanPSMT-2e"
                 x="50"
                 id="use59" />
              <use
                 xlink:href="#TimesNewRomanPSMT-36"
                 x="75"
                 id="use60" />
            </g>
          </g>
        </g>
        <g
           id="ytick_5">
          <g
             id="line2d_11">
            <g
               id="g61">
              <use
                 xlink:href="#mf7790cc4a7"
                 x="107.1"
                 y="108.324"
                 style="stroke:#000000;stroke-width:0.8"
                 id="use61" />
            </g>
          </g>
          <g
             id="text_12">
            <!-- 0.8 -->
            <g
               transform="translate(80.1 113.879) scale(0.16 -0.16)"
               id="g64">
              <use
                 xlink:href="#TimesNewRomanPSMT-30"
                 id="use62" />
              <use
                 xlink:href="#TimesNewRomanPSMT-2e"
                 x="50"
                 id="use63" />
              <use
                 xlink:href="#TimesNewRomanPSMT-38"
                 x="75"
                 id="use64" />
            </g>
          </g>
        </g>
        <g
           id="ytick_6">
          <g
             id="line2d_12">
            <g
               id="g65">
              <use
                 xlink:href="#mf7790cc4a7"
                 x="107.1"
                 y="56.916"
                 style="stroke:#000000;stroke-width:0.8"
                 id="use65" />
            </g>
          </g>
          <g
             id="text_13">
            <!-- 1.0 -->
            <g
               transform="translate(80.1 62.471) scale(0.16 -0.16)"
               id="g68">
              <use
                 xlink:href="#TimesNewRomanPSMT-31"
                 id="use66" />
              <use
                 xlink:href="#TimesNewRomanPSMT-2e"
                 x="50"
                 id="use67" />
              <use
                 xlink:href="#TimesNewRomanPSMT-30"
                 x="75"
                 id="use68" />
            </g>
          </g>
        </g>
      </g>
      <g
         id="line2d_13">
        <path
           d="M 137.282727 313.956  L 137.282727 304.776  L 137.282727 130.356  L 158.098401 130.356  L 158.098401 121.176  L 178.914075 121.176  L 178.914075 93.636  L 199.729749 93.636  L 199.729749 66.096  L 324.623793 66.096  L 324.623793 56.916  L 740.937273 56.916  "
           clip-path="url(#p966f65f03c)"
           style="fill:none;stroke:#1f77b4;stroke-width:1.5;stroke-linecap:square"
           id="path86" />
      </g>
      <g
         id="line2d_14">
        <path
           d="M 137.282727 313.956  L 137.282727 240.516  L 137.282727 194.616  L 137.282727 139.536  L 178.914075 130.356  L 241.361097 93.636  L 262.176771 66.096  L 324.623793 56.916  L 428.702163 56.916  L 449.517837 56.916  L 491.149185 56.916  L 740.937273 56.916  "
           clip-path="url(#p966f65f03c)"
           style="fill:none;stroke:#ff7f0e;stroke-width:1.5;stroke-linecap:square"
           id="path87" />
      </g>
      <g
         id="line2d_15">
        <path
           d="M 137.282727 313.956  L 137.282727 304.776  L 137.282727 268.056  L 158.098401 258.876  L 158.098401 231.336  L 158.098401 212.976  L 158.098401 111.996  L 178.914075 111.996  L 178.914075 102.816  L 199.729749 102.816  L 199.729749 84.456  L 262.176771 84.456  L 262.176771 75.276  L 303.808119 75.276  L 303.808119 56.916  L 407.886489 56.916  L 449.517837 56.916  L 616.043229 56.916  L 740.937273 56.916  "
           clip-path="url(#p966f65f03c)"
           style="fill:none;stroke:#2ca02c;stroke-width:1.5;stroke-linecap:square"
           id="path88" />
      </g>
      <g
         id="line2d_16">
        <path
           d="M 137.282727 313.956  L 137.282727 304.776  L 137.282727 286.416  L 158.098401 286.416  L 158.098401 212.976  L 178.914075 212.976  L 178.914075 167.076  L 220.545423 167.076  L 220.545423 121.176  L 241.361097 121.176  L 241.361097 111.996  L 262.176771 111.996  L 262.176771 75.276  L 303.808119 75.276  L 303.808119 56.916  L 740.937273 56.916  "
           clip-path="url(#p966f65f03c)"
           style="fill:none;stroke:#d62728;stroke-width:1.5;stroke-linecap:square"
           id="path89" />
      </g>
      <g
         id="line2d_17">
        <path
           d="M 137.282727 313.956  L 137.282727 304.776  L 137.282727 286.416  L 158.098401 286.416  L 158.098401 212.976  L 178.914075 212.976  L 178.914075 167.076  L 220.545423 167.076  L 220.545423 111.996  L 241.361097 111.996  L 241.361097 102.816  L 262.176771 102.816  L 262.176771 56.916  L 740.937273 56.916  "
           clip-path="url(#p966f65f03c)"
           style="fill:none;stroke:#9467bd;stroke-width:1.5;stroke-linecap:square"
           id="path90" />
      </g>
      <g
         id="patch_3">
        <path
           d="M 107.1 326.808  L 107.1 44.064  "
           style="fill:none;stroke:#000000;stroke-width:0.8;stroke-linejoin:miter;stroke-linecap:square"
           id="path91" />
      </g>
      <g
         id="patch_4">
        <path
           d="M 771.12 326.808  L 771.12 44.064  "
           style="fill:none;stroke:#000000;stroke-width:0.8;stroke-linejoin:miter;stroke-linecap:square"
           id="path92" />
      </g>
      <g
         id="patch_5">
        <path
           d="M 107.1 326.808  L 771.12 326.808  "
           style="fill:none;stroke:#000000;stroke-width:0.8;stroke-linejoin:miter;stroke-linecap:square"
           id="path93" />
      </g>
      <g
         id="patch_6">
        <path
           d="M 107.1 44.064  L 771.12 44.064  "
           style="fill:none;stroke:#000000;stroke-width:0.8;stroke-linejoin:miter;stroke-linecap:square"
           id="path94" />
      </g>
      <g
         id="legend_1">
        <g
           id="patch_7">
          <path
             d="M 471.7175 318.808  L 759.92 318.808  Q 763.12 318.808 763.12 315.608  L 763.12 204.0355  Q 763.12 200.8355 759.92 200.8355  L 471.7175 200.8355  Q 468.5175 200.8355 468.5175 204.0355  L 468.5175 315.608  Q 468.5175 318.808 471.7175 318.808  z "
             style="fill:#ffffff;opacity:0.8;stroke:#cccccc;stroke-linejoin:miter"
             id="path113" />
        </g>
        <g
           id="line2d_18">
          <path
             d="M 474.9175 212.8355  L 490.9175 212.8355  L 506.9175 212.8355  "
             style="fill:none;stroke:#1f77b4;stroke-width:1.5;stroke-linecap:square"
             id="path114" />
        </g>
        <g
           id="text_16">
          <!-- SVM (Best) (AUC = 0.9692) -->
          <g
             transform="translate(519.7175 218.4355) scale(0.16 -0.16)"
             id="g138">
            <defs
               id="defs114">
              <path
                 id="TimesNewRomanPSMT-53"
                 d="M 2934 4334  L 2934 2869  L 2819 2869  Q 2763 3291 2617 3541  Q 2472 3791 2203 3937  Q 1934 4084 1647 4084  Q 1322 4084 1109 3886  Q 897 3688 897 3434  Q 897 3241 1031 3081  Q 1225 2847 1953 2456  Q 2547 2138 2764 1967  Q 2981 1797 3098 1565  Q 3216 1334 3216 1081  Q 3216 600 2842 251  Q 2469 -97 1881 -97  Q 1697 -97 1534 -69  Q 1438 -53 1133 45  Q 828 144 747 144  Q 669 144 623 97  Q 578 50 556 -97  L 441 -97  L 441 1356  L 556 1356  Q 638 900 775 673  Q 913 447 1195 297  Q 1478 147 1816 147  Q 2206 147 2432 353  Q 2659 559 2659 841  Q 2659 997 2573 1156  Q 2488 1316 2306 1453  Q 2184 1547 1640 1851  Q 1097 2156 867 2337  Q 638 2519 519 2737  Q 400 2956 400 3219  Q 400 3675 750 4004  Q 1100 4334 1641 4334  Q 1978 4334 2356 4169  Q 2531 4091 2603 4091  Q 2684 4091 2736 4139  Q 2788 4188 2819 4334  L 2934 4334  z "
                 transform="scale(0.015625)" />
              <path
                 id="TimesNewRomanPSMT-56"
                 d="M 4544 4238  L 4544 4122  Q 4319 4081 4203 3978  Q 4038 3825 3909 3509  L 2431 -97  L 2316 -97  L 728 3556  Q 606 3838 556 3900  Q 478 3997 364 4051  Q 250 4106 56 4122  L 56 4238  L 1788 4238  L 1788 4122  Q 1494 4094 1406 4022  Q 1319 3950 1319 3838  Q 1319 3681 1463 3350  L 2541 866  L 3541 3319  Q 3688 3681 3688 3822  Q 3688 3913 3597 3995  Q 3506 4078 3291 4113  Q 3275 4116 3238 4122  L 3238 4238  L 4544 4238  z "
                 transform="scale(0.015625)" />
              <path
                 id="TimesNewRomanPSMT-4d"
                 d="M 2619 0  L 981 3566  L 981 734  Q 981 344 1066 247  Q 1181 116 1431 116  L 1581 116  L 1581 0  L 106 0  L 106 116  L 256 116  Q 525 116 638 278  Q 706 378 706 734  L 706 3503  Q 706 3784 644 3909  Q 600 4000 483 4061  Q 366 4122 106 4122  L 106 4238  L 1306 4238  L 2844 922  L 4356 4238  L 5556 4238  L 5556 4122  L 5409 4122  Q 5138 4122 5025 3959  Q 4956 3859 4956 3503  L 4956 734  Q 4956 344 5044 247  Q 5159 116 5409 116  L 5556 116  L 5556 0  L 3756 0  L 3756 116  L 3906 116  Q 4178 116 4288 278  Q 4356 378 4356 734  L 4356 3566  L 2722 0  L 2619 0  z "
                 transform="scale(0.015625)" />
              <path
                 id="TimesNewRomanPSMT-20"
                 transform="scale(0.015625)" />
              <path
                 id="TimesNewRomanPSMT-28"
                 d="M 1988 -1253  L 1988 -1369  Q 1516 -1131 1200 -813  Q 750 -359 506 256  Q 263 872 263 1534  Q 263 2503 741 3301  Q 1219 4100 1988 4444  L 1988 4313  Q 1603 4100 1356 3731  Q 1109 3363 987 2797  Q 866 2231 866 1616  Q 866 947 969 400  Q 1050 -31 1165 -292  Q 1281 -553 1476 -793  Q 1672 -1034 1988 -1253  z "
                 transform="scale(0.015625)" />
              <path
                 id="TimesNewRomanPSMT-42"
                 d="M 2956 2163  Q 3397 2069 3616 1863  Q 3919 1575 3919 1159  Q 3919 844 3719 555  Q 3519 266 3170 133  Q 2822 0 2106 0  L 106 0  L 106 116  L 266 116  Q 531 116 647 284  Q 719 394 719 750  L 719 3488  Q 719 3881 628 3984  Q 506 4122 266 4122  L 106 4122  L 106 4238  L 1938 4238  Q 2450 4238 2759 4163  Q 3228 4050 3475 3764  Q 3722 3478 3722 3106  Q 3722 2788 3528 2536  Q 3334 2284 2956 2163  z M 1319 2331  Q 1434 2309 1582 2298  Q 1731 2288 1909 2288  Q 2366 2288 2595 2386  Q 2825 2484 2947 2687  Q 3069 2891 3069 3131  Q 3069 3503 2766 3765  Q 2463 4028 1881 4028  Q 1569 4028 1319 3959  L 1319 2331  z M 1319 306  Q 1681 222 2034 222  Q 2600 222 2897 476  Q 3194 731 3194 1106  Q 3194 1353 3059 1581  Q 2925 1809 2622 1940  Q 2319 2072 1872 2072  Q 1678 2072 1540 2065  Q 1403 2059 1319 2044  L 1319 306  z "
                 transform="scale(0.015625)" />
              <path
                 id="TimesNewRomanPSMT-65"
                 d="M 681 1784  Q 678 1147 991 784  Q 1303 422 1725 422  Q 2006 422 2214 576  Q 2422 731 2563 1106  L 2659 1044  Q 2594 616 2278 264  Q 1963 -88 1488 -88  Q 972 -88 605 314  Q 238 716 238 1394  Q 238 2128 614 2539  Q 991 2950 1559 2950  Q 2041 2950 2350 2633  Q 2659 2316 2659 1784  L 681 1784  z M 681 1966  L 2006 1966  Q 1991 2241 1941 2353  Q 1863 2528 1708 2628  Q 1553 2728 1384 2728  Q 1125 2728 920 2526  Q 716 2325 681 1966  z "
                 transform="scale(0.015625)" />
              <path
                 id="TimesNewRomanPSMT-73"
                 d="M 2050 2947  L 2050 1972  L 1947 1972  Q 1828 2431 1642 2597  Q 1456 2763 1169 2763  Q 950 2763 815 2647  Q 681 2531 681 2391  Q 681 2216 781 2091  Q 878 1963 1175 1819  L 1631 1597  Q 2266 1288 2266 781  Q 2266 391 1970 151  Q 1675 -88 1309 -88  Q 1047 -88 709 6  Q 606 38 541 38  Q 469 38 428 -44  L 325 -44  L 325 978  L 428 978  Q 516 541 762 319  Q 1009 97 1316 97  Q 1531 97 1667 223  Q 1803 350 1803 528  Q 1803 744 1651 891  Q 1500 1038 1047 1263  Q 594 1488 453 1669  Q 313 1847 313 2119  Q 313 2472 555 2709  Q 797 2947 1181 2947  Q 1350 2947 1591 2875  Q 1750 2828 1803 2828  Q 1853 2828 1881 2850  Q 1909 2872 1947 2947  L 2050 2947  z "
                 transform="scale(0.015625)" />
              <path
                 id="TimesNewRomanPSMT-74"
                 d="M 1031 3803  L 1031 2863  L 1700 2863  L 1700 2644  L 1031 2644  L 1031 788  Q 1031 509 1111 412  Q 1191 316 1316 316  Q 1419 316 1516 380  Q 1613 444 1666 569  L 1788 569  Q 1678 263 1478 108  Q 1278 -47 1066 -47  Q 922 -47 784 33  Q 647 113 581 261  Q 516 409 516 719  L 516 2644  L 63 2644  L 63 2747  Q 234 2816 414 2980  Q 594 3144 734 3369  Q 806 3488 934 3803  L 1031 3803  z "
                 transform="scale(0.015625)" />
              <path
                 id="TimesNewRomanPSMT-29"
                 d="M 144 4313  L 144 4444  Q 619 4209 934 3891  Q 1381 3434 1625 2820  Q 1869 2206 1869 1541  Q 1869 572 1392 -226  Q 916 -1025 144 -1369  L 144 -1253  Q 528 -1038 776 -670  Q 1025 -303 1145 264  Q 1266 831 1266 1447  Q 1266 2113 1163 2663  Q 1084 3094 967 3353  Q 850 3613 656 3853  Q 463 4094 144 4313  z "
                 transform="scale(0.015625)" />
              <path
                 id="TimesNewRomanPSMT-41"
                 d="M 2928 1419  L 1288 1419  L 1000 750  Q 894 503 894 381  Q 894 284 986 211  Q 1078 138 1384 116  L 1384 0  L 50 0  L 50 116  Q 316 163 394 238  Q 553 388 747 847  L 2238 4334  L 2347 4334  L 3822 809  Q 4000 384 4145 257  Q 4291 131 4550 116  L 4550 0  L 2878 0  L 2878 116  Q 3131 128 3220 200  Q 3309 272 3309 375  Q 3309 513 3184 809  L 2928 1419  z M 2841 1650  L 2122 3363  L 1384 1650  L 2841 1650  z "
                 transform="scale(0.015625)" />
              <path
                 id="TimesNewRomanPSMT-55"
                 d="M 3053 4122  L 3053 4238  L 4553 4238  L 4553 4122  L 4394 4122  Q 4144 4122 4009 3913  Q 3944 3816 3944 3463  L 3944 1744  Q 3944 1106 3817 754  Q 3691 403 3320 151  Q 2950 -100 2313 -100  Q 1619 -100 1259 140  Q 900 381 750 788  Q 650 1066 650 1831  L 650 3488  Q 650 3878 542 4000  Q 434 4122 194 4122  L 34 4122  L 34 4238  L 1866 4238  L 1866 4122  L 1703 4122  Q 1441 4122 1328 3956  Q 1250 3844 1250 3488  L 1250 1641  Q 1250 1394 1295 1075  Q 1341 756 1459 578  Q 1578 400 1801 284  Q 2025 169 2350 169  Q 2766 169 3094 350  Q 3422 531 3542 814  Q 3663 1097 3663 1772  L 3663 3488  Q 3663 3884 3575 3984  Q 3453 4122 3213 4122  L 3053 4122  z "
                 transform="scale(0.015625)" />
              <path
                 id="TimesNewRomanPSMT-43"
                 d="M 3853 4334  L 3950 2894  L 3853 2894  Q 3659 3541 3300 3825  Q 2941 4109 2438 4109  Q 2016 4109 1675 3895  Q 1334 3681 1139 3212  Q 944 2744 944 2047  Q 944 1472 1128 1050  Q 1313 628 1683 403  Q 2053 178 2528 178  Q 2941 178 3256 354  Q 3572 531 3950 1056  L 4047 994  Q 3728 428 3303 165  Q 2878 -97 2294 -97  Q 1241 -97 663 684  Q 231 1266 231 2053  Q 231 2688 515 3219  Q 800 3750 1298 4042  Q 1797 4334 2388 4334  Q 2847 4334 3294 4109  Q 3425 4041 3481 4041  Q 3566 4041 3628 4100  Q 3709 4184 3744 4334  L 3853 4334  z "
                 transform="scale(0.015625)" />
              <path
                 id="TimesNewRomanPSMT-3d"
                 d="M 116 2759  L 3488 2759  L 3488 2503  L 116 2503  L 116 2759  z M 116 1741  L 3488 1741  L 3488 1484  L 116 1484  L 116 1741  z "
                 transform="scale(0.015625)" />
              <path
                 id="TimesNewRomanPSMT-39"
                 d="M 338 -88  L 338 28  Q 744 34 1094 217  Q 1444 400 1770 856  Q 2097 1313 2225 1859  Q 1734 1544 1338 1544  Q 891 1544 572 1889  Q 253 2234 253 2806  Q 253 3363 572 3797  Q 956 4325 1575 4325  Q 2097 4325 2469 3894  Q 2925 3359 2925 2575  Q 2925 1869 2578 1258  Q 2231 647 1613 244  Q 1109 -88 516 -88  L 338 -88  z M 2275 2091  Q 2331 2497 2331 2741  Q 2331 3044 2228 3395  Q 2125 3747 1936 3934  Q 1747 4122 1506 4122  Q 1228 4122 1018 3872  Q 809 3622 809 3128  Q 809 2469 1088 2097  Q 1291 1828 1588 1828  Q 1731 1828 1928 1897  Q 2125 1966 2275 2091  z "
                 transform="scale(0.015625)" />
            </defs>
            <use
               xlink:href="#TimesNewRomanPSMT-53"
               id="use114" />
            <use
               xlink:href="#TimesNewRomanPSMT-56"
               x="55.615234"
               id="use115" />
            <use
               xlink:href="#TimesNewRomanPSMT-4d"
               x="127.832031"
               id="use116" />
            <use
               xlink:href="#TimesNewRomanPSMT-20"
               x="216.748047"
               id="use117" />
            <use
               xlink:href="#TimesNewRomanPSMT-28"
               x="241.748047"
               id="use118" />
            <use
               xlink:href="#TimesNewRomanPSMT-42"
               x="275.048828"
               id="use119" />
            <use
               xlink:href="#TimesNewRomanPSMT-65"
               x="341.748047"
               id="use120" />
            <use
               xlink:href="#TimesNewRomanPSMT-73"
               x="386.132812"
               id="use121" />
            <use
               xlink:href="#TimesNewRomanPSMT-74"
               x="425.048828"
               id="use122" />
            <use
               xlink:href="#TimesNewRomanPSMT-29"
               x="452.832031"
               id="use123" />
            <use
               xlink:href="#TimesNewRomanPSMT-20"
               x="486.132812"
               id="use124" />
            <use
               xlink:href="#TimesNewRomanPSMT-28"
               x="511.132812"
               id="use125" />
            <use
               xlink:href="#TimesNewRomanPSMT-41"
               x="544.433594"
               id="use126" />
            <use
               xlink:href="#TimesNewRomanPSMT-55"
               x="616.650391"
               id="use127" />
            <use
               xlink:href="#TimesNewRomanPSMT-43"
               x="688.867188"
               id="use128" />
            <use
               xlink:href="#TimesNewRomanPSMT-20"
               x="755.566406"
               id="use129" />
            <use
               xlink:href="#TimesNewRomanPSMT-3d"
               x="780.566406"
               id="use130" />
            <use
               xlink:href="#TimesNewRomanPSMT-20"
               x="836.962891"
               id="use131" />
            <use
               xlink:href="#TimesNewRomanPSMT-30"
               x="861.962891"
               id="use132" />
            <use
               xlink:href="#TimesNewRomanPSMT-2e"
               x="911.962891"
               id="use133" />
            <use
               xlink:href="#TimesNewRomanPSMT-39"
               x="936.962891"
               id="use134" />
            <use
               xlink:href="#TimesNewRomanPSMT-36"
               x="986.962891"
               id="use135" />
            <use
               xlink:href="#TimesNewRomanPSMT-39"
               x="1036.962891"
               id="use136" />
            <use
               xlink:href="#TimesNewRomanPSMT-32"
               x="1086.962891"
               id="use137" />
            <use
               xlink:href="#TimesNewRomanPSMT-29"
               x="1136.962891"
               id="use138" />
          </g>
        </g>
        <g
           id="line2d_19">
          <path
             d="M 474.9175 235.458  L 490.9175 235.458  L 506.9175 235.458  "
             style="fill:none;stroke:#ff7f0e;stroke-width:1.5;stroke-linecap:square"
             id="path138" />
        </g>
        <g
           id="text_17">
          <!-- KNN (AUC = 0.9520) -->
          <g
             transform="translate(519.7175 241.058) scale(0.16 -0.16)"
             id="g156">
            <defs
               id="defs138">
              <path
                 id="TimesNewRomanPSMT-4b"
                 d="M 1913 2350  L 3475 797  Q 3859 413 4131 273  Q 4403 134 4675 116  L 4675 0  L 2659 0  L 2659 116  Q 2841 116 2920 177  Q 3000 238 3000 313  Q 3000 388 2970 447  Q 2941 506 2775 669  L 1313 2116  L 1313 750  Q 1313 428 1353 325  Q 1384 247 1484 191  Q 1619 116 1769 116  L 1913 116  L 1913 0  L 106 0  L 106 116  L 256 116  Q 519 116 638 269  Q 713 369 713 750  L 713 3488  Q 713 3809 672 3916  Q 641 3991 544 4047  Q 406 4122 256 4122  L 106 4122  L 106 4238  L 1913 4238  L 1913 4122  L 1769 4122  Q 1622 4122 1484 4050  Q 1388 4000 1350 3900  Q 1313 3800 1313 3488  L 1313 2191  Q 1375 2250 1741 2588  Q 2669 3438 2863 3722  Q 2947 3847 2947 3941  Q 2947 4013 2881 4067  Q 2816 4122 2659 4122  L 2563 4122  L 2563 4238  L 4119 4238  L 4119 4122  Q 3981 4119 3868 4084  Q 3756 4050 3593 3951  Q 3431 3853 3194 3634  Q 3125 3572 2559 2994  L 1913 2350  z "
                 transform="scale(0.015625)" />
              <path
                 id="TimesNewRomanPSMT-4e"
                 d="M -84 4238  L 1066 4238  L 3656 1059  L 3656 3503  Q 3656 3894 3569 3991  Q 3453 4122 3203 4122  L 3056 4122  L 3056 4238  L 4531 4238  L 4531 4122  L 4381 4122  Q 4113 4122 4000 3959  Q 3931 3859 3931 3503  L 3931 -69  L 3819 -69  L 1025 3344  L 1025 734  Q 1025 344 1109 247  Q 1228 116 1475 116  L 1625 116  L 1625 0  L 150 0  L 150 116  L 297 116  Q 569 116 681 278  Q 750 378 750 734  L 750 3681  Q 566 3897 470 3965  Q 375 4034 191 4094  Q 100 4122 -84 4122  L -84 4238  z "
                 transform="scale(0.015625)" />
              <path
                 id="TimesNewRomanPSMT-35"
                 d="M 2778 4238  L 2534 3706  L 1259 3706  L 981 3138  Q 1809 3016 2294 2522  Q 2709 2097 2709 1522  Q 2709 1188 2573 903  Q 2438 619 2231 419  Q 2025 219 1772 97  Q 1413 -75 1034 -75  Q 653 -75 479 54  Q 306 184 306 341  Q 306 428 378 495  Q 450 563 559 563  Q 641 563 702 538  Q 763 513 909 409  Q 1144 247 1384 247  Q 1750 247 2026 523  Q 2303 800 2303 1197  Q 2303 1581 2056 1914  Q 1809 2247 1375 2428  Q 1034 2569 447 2591  L 1259 4238  L 2778 4238  z "
                 transform="scale(0.015625)" />
            </defs>
            <use
               xlink:href="#TimesNewRomanPSMT-4b"
               id="use139" />
            <use
               xlink:href="#TimesNewRomanPSMT-4e"
               x="72.216797"
               id="use140" />
            <use
               xlink:href="#TimesNewRomanPSMT-4e"
               x="144.433594"
               id="use141" />
            <use
               xlink:href="#TimesNewRomanPSMT-20"
               x="216.650391"
               id="use142" />
            <use
               xlink:href="#TimesNewRomanPSMT-28"
               x="241.650391"
               id="use143" />
            <use
               xlink:href="#TimesNewRomanPSMT-41"
               x="274.951172"
               id="use144" />
            <use
               xlink:href="#TimesNewRomanPSMT-55"
               x="347.167969"
               id="use145" />
            <use
               xlink:href="#TimesNewRomanPSMT-43"
               x="419.384766"
               id="use146" />
            <use
               xlink:href="#TimesNewRomanPSMT-20"
               x="486.083984"
               id="use147" />
            <use
               xlink:href="#TimesNewRomanPSMT-3d"
               x="511.083984"
               id="use148" />
            <use
               xlink:href="#TimesNewRomanPSMT-20"
               x="567.480469"
               id="use149" />
            <use
               xlink:href="#TimesNewRomanPSMT-30"
               x="592.480469"
               id="use150" />
            <use
               xlink:href="#TimesNewRomanPSMT-2e"
               x="642.480469"
               id="use151" />
            <use
               xlink:href="#TimesNewRomanPSMT-39"
               x="667.480469"
               id="use152" />
            <use
               xlink:href="#TimesNewRomanPSMT-35"
               x="717.480469"
               id="use153" />
            <use
               xlink:href="#TimesNewRomanPSMT-32"
               x="767.480469"
               id="use154" />
            <use
               xlink:href="#TimesNewRomanPSMT-30"
               x="817.480469"
               id="use155" />
            <use
               xlink:href="#TimesNewRomanPSMT-29"
               x="867.480469"
               id="use156" />
          </g>
        </g>
        <g
           id="line2d_20">
          <path
             d="M 474.9175 258.0805  L 490.9175 258.0805  L 506.9175 258.0805  "
             style="fill:none;stroke:#2ca02c;stroke-width:1.5;stroke-linecap:square"
             id="path156" />
        </g>
        <g
           id="line2d_21">
          <path
             d="M 474.9175 280.703  L 490.9175 280.703  L 506.9175 280.703  "
             style="fill:none;stroke:#d62728;stroke-width:1.5;stroke-linecap:square"
             id="path184" />
        </g>
        <g
           id="line2d_22">
          <path
             d="M 474.9175 303.3555  L 490.9175 303.3555  L 506.9175 303.3555  "
             style="fill:none;stroke:#9467bd;stroke-width:1.5;stroke-linecap:square"
             id="path218" />
        </g>
      </g>
    </g>
  </g>
  <text
     xml:space="preserve"
     transform="matrix(0.75,0,0,0.75,5.2174193,91.233687)"
     id="text1-1"
     style="font-weight:normal;font-size:21.3333px;line-height:1.2;font-family:'Times New Roman';-inkscape-font-specification:'Times New Roman, ';white-space:pre;shape-inside:url(#rect1-6);display:inline;fill:#000000;stroke-width:1.33417;stroke-linecap:butt;stroke-linejoin:round;font-style:normal;font-stretch:normal;font-variant:normal"><tspan
       x="685.43945"
       y="230.99398"
       id="tspan6">随机森林（AUC=0.9427）</tspan></text>
  <text
     xml:space="preserve"
     transform="matrix(0.75,0,0,0.75,4.0714194,114.14169)"
     id="text1-7"
     style="font-weight:normal;font-size:21.3333px;line-height:1.2;font-family:'Times New Roman';-inkscape-font-specification:'Times New Roman, ';white-space:pre;shape-inside:url(#rect1-9);display:inline;fill:#000000;stroke-width:1.33417;stroke-linecap:butt;stroke-linejoin:round;font-style:normal;font-stretch:normal;font-variant:normal"><tspan
       x="685.43945"
       y="230.99398"
       id="tspan7">逻辑回归（AUC=0.8978）</tspan></text>
  <defs
     id="defs249">
    <clipPath
       id="p966f65f03c">
      <rect
         x="107.1"
         y="44.064"
         width="664.02"
         height="282.744"
         id="rect249" />
    </clipPath>
  </defs>
  <text
     xml:space="preserve"
     transform="matrix(0.75,0,0,0.75,57.527999,4.8960001)"
     id="text250"
     style="font-style:normal;font-variant:normal;font-weight:bold;font-stretch:normal;font-size:29.3333px;line-height:1.2;font-family:'Times New Roman';-inkscape-font-specification:'Times New Roman,  Bold';white-space:pre;shape-inside:url(#rect251);display:inline;fill:#000000;stroke-width:1.33417"><tspan
       x="350.88086"
       y="33.038119"
       id="tspan8">不同模型ROC曲线对比图</tspan></text>
  <text
     xml:space="preserve"
     transform="matrix(0,-0.75,0.75,0,-86.017184,240.11987)"
     id="text251"
     style="font-style:normal;font-variant:normal;font-weight:bold;font-stretch:normal;font-size:24px;line-height:1.2;font-family:'Times New Roman';-inkscape-font-specification:'Times New Roman,  Bold';white-space:pre;shape-inside:url(#rect252);display:inline;fill:#000000;stroke-width:1.33417"><tspan
       x="32.640625"
       y="205.8082"
       id="tspan9">真阳率</tspan></text>
  <text
     xml:space="preserve"
     transform="matrix(0.75,0,0,0.75,47.735999,-4.8959999)"
     id="text252"
     style="font-style:normal;font-variant:normal;font-weight:bold;font-stretch:normal;font-size:24px;line-height:1.2;font-family:'Times New Roman';-inkscape-font-specification:'Times New Roman,  Bold';white-space:pre;shape-inside:url(#rect253);display:inline;fill:#000000;stroke-width:1.33417"><tspan
       x="479.80859"
       y="486.51328"
       id="tspan10">假阳率</tspan></text>
  <text
     xml:space="preserve"
     transform="matrix(0.75,0,0,0.75,5.4479994,137.364)"
     id="text1"
     style="font-weight:normal;font-size:21.3333px;line-height:1.2;font-family:'Times New Roman';-inkscape-font-specification:'Times New Roman, ';white-space:pre;shape-inside:url(#rect1);display:inline;fill:#000000;stroke-width:1.33417;font-style:normal;font-stretch:normal;font-variant:normal"><tspan
       x="685.43945"
       y="230.99398"
       id="tspan11">岭回归（AUC=0.9052）</tspan></text>
</svg>
