<?xml version="1.0" encoding="utf-8" standalone="no"?>
<!DOCTYPE svg PUBLIC "-//W3C//DTD SVG 1.1//EN"
  "http://www.w3.org/Graphics/SVG/1.1/DTD/svg11.dtd">
<svg xmlns:xlink="http://www.w3.org/1999/xlink" width="756pt" height="324pt" viewBox="0 0 756 324" xmlns="http://www.w3.org/2000/svg" version="1.1">
 <metadata>
  <rdf:RDF xmlns:dc="http://purl.org/dc/elements/1.1/" xmlns:cc="http://creativecommons.org/ns#" xmlns:rdf="http://www.w3.org/1999/02/22-rdf-syntax-ns#">
   <cc:Work>
    <dc:type rdf:resource="http://purl.org/dc/dcmitype/StillImage"/>
    <dc:date>2025-05-23T04:16:15.802167</dc:date>
    <dc:format>image/svg+xml</dc:format>
    <dc:creator>
     <cc:Agent>
      <dc:title>Matplotlib v3.8.4, https://matplotlib.org/</dc:title>
     </cc:Agent>
    </dc:creator>
   </cc:Work>
  </rdf:RDF>
 </metadata>
 <defs>
  <style type="text/css">*{stroke-linejoin: round; stroke-linecap: butt}</style>
 </defs>
 <g id="figure_1">
  <g id="patch_1">
   <path d="M 0 324 
L 756 324 
L 756 0 
L 0 0 
z
" style="fill: #ffffff"/>
  </g>
  <g id="axes_1">
   <g id="patch_2">
    <path d="M 65.63 242.097544 
L 736.56 242.097544 
L 736.56 38.00625 
L 65.63 38.00625 
z
" style="fill: #ffffff"/>
   </g>
   <g id="patch_3">
    <path d="M 96.126818 242.097544 
L 117.159107 242.097544 
L 117.159107 92.908002 
L 96.126818 92.908002 
z
" clip-path="url(#p7d818812de)" style="fill: #0173b2"/>
   </g>
   <g id="patch_4">
    <path d="M 201.28826 242.097544 
L 222.320549 242.097544 
L 222.320549 89.924211 
L 201.28826 89.924211 
z
" clip-path="url(#p7d818812de)" style="fill: #0173b2"/>
   </g>
   <g id="patch_5">
    <path d="M 306.449702 242.097544 
L 327.481991 242.097544 
L 327.481991 107.826956 
L 306.449702 107.826956 
z
" clip-path="url(#p7d818812de)" style="fill: #0173b2"/>
   </g>
   <g id="patch_6">
    <path d="M 411.611144 242.097544 
L 432.643433 242.097544 
L 432.643433 86.94042 
L 411.611144 86.94042 
z
" clip-path="url(#p7d818812de)" style="fill: #0173b2"/>
   </g>
   <g id="patch_7">
    <path d="M 516.772586 242.097544 
L 537.804875 242.097544 
L 537.804875 89.924211 
L 516.772586 89.924211 
z
" clip-path="url(#p7d818812de)" style="fill: #0173b2"/>
   </g>
   <g id="patch_8">
    <path d="M 621.934028 242.097544 
L 642.966317 242.097544 
L 642.966317 122.74591 
L 621.934028 122.74591 
z
" clip-path="url(#p7d818812de)" style="fill: #0173b2"/>
   </g>
   <g id="patch_9">
    <path d="M 117.159107 242.097544 
L 138.191395 242.097544 
L 138.191395 95.480235 
L 117.159107 95.480235 
z
" clip-path="url(#p7d818812de)" style="fill: #de8f05"/>
   </g>
   <g id="patch_10">
    <path d="M 222.320549 242.097544 
L 243.352837 242.097544 
L 243.352837 90.243903 
L 222.320549 90.243903 
z
" clip-path="url(#p7d818812de)" style="fill: #de8f05"/>
   </g>
   <g id="patch_11">
    <path d="M 327.481991 242.097544 
L 348.514279 242.097544 
L 348.514279 119.264821 
L 327.481991 119.264821 
z
" clip-path="url(#p7d818812de)" style="fill: #de8f05"/>
   </g>
   <g id="patch_12">
    <path d="M 432.643433 242.097544 
L 453.675721 242.097544 
L 453.675721 89.615543 
L 432.643433 89.615543 
z
" clip-path="url(#p7d818812de)" style="fill: #de8f05"/>
   </g>
   <g id="patch_13">
    <path d="M 537.804875 242.097544 
L 558.837163 242.097544 
L 558.837163 85.104241 
L 537.804875 85.104241 
z
" clip-path="url(#p7d818812de)" style="fill: #de8f05"/>
   </g>
   <g id="patch_14">
    <path d="M 642.966317 242.097544 
L 663.998605 242.097544 
L 663.998605 116.389138 
L 642.966317 116.389138 
z
" clip-path="url(#p7d818812de)" style="fill: #de8f05"/>
   </g>
   <g id="patch_15">
    <path d="M 138.191395 242.097544 
L 159.223683 242.097544 
L 159.223683 90.243903 
L 138.191395 90.243903 
z
" clip-path="url(#p7d818812de)" style="fill: #029e73"/>
   </g>
   <g id="patch_16">
    <path d="M 243.352837 242.097544 
L 264.385125 242.097544 
L 264.385125 90.243903 
L 243.352837 90.243903 
z
" clip-path="url(#p7d818812de)" style="fill: #029e73"/>
   </g>
   <g id="patch_17">
    <path d="M 348.514279 242.097544 
L 369.546567 242.097544 
L 369.546567 84.169757 
L 348.514279 84.169757 
z
" clip-path="url(#p7d818812de)" style="fill: #029e73"/>
   </g>
   <g id="patch_18">
    <path d="M 453.675721 242.097544 
L 474.708009 242.097544 
L 474.708009 84.169757 
L 453.675721 84.169757 
z
" clip-path="url(#p7d818812de)" style="fill: #029e73"/>
   </g>
   <g id="patch_19">
    <path d="M 558.837163 242.097544 
L 579.869451 242.097544 
L 579.869451 96.318048 
L 558.837163 96.318048 
z
" clip-path="url(#p7d818812de)" style="fill: #029e73"/>
   </g>
   <g id="patch_20">
    <path d="M 663.998605 242.097544 
L 685.030893 242.097544 
L 685.030893 138.837068 
L 663.998605 138.837068 
z
" clip-path="url(#p7d818812de)" style="fill: #029e73"/>
   </g>
   <g id="patch_21">
    <path d="M 159.223683 242.097544 
L 180.255972 242.097544 
L 180.255972 92.908002 
L 159.223683 92.908002 
z
" clip-path="url(#p7d818812de)" style="fill: #d55e00"/>
   </g>
   <g id="patch_22">
    <path d="M 264.385125 242.097544 
L 285.417414 242.097544 
L 285.417414 90.243903 
L 264.385125 90.243903 
z
" clip-path="url(#p7d818812de)" style="fill: #d55e00"/>
   </g>
   <g id="patch_23">
    <path d="M 369.546567 242.097544 
L 390.578856 242.097544 
L 390.578856 103.91073 
L 369.546567 103.91073 
z
" clip-path="url(#p7d818812de)" style="fill: #d55e00"/>
   </g>
   <g id="patch_24">
    <path d="M 474.708009 242.097544 
L 495.740298 242.097544 
L 495.740298 86.94042 
L 474.708009 86.94042 
z
" clip-path="url(#p7d818812de)" style="fill: #d55e00"/>
   </g>
   <g id="patch_25">
    <path d="M 579.869451 242.097544 
L 600.90174 242.097544 
L 600.90174 90.918808 
L 579.869451 90.918808 
z
" clip-path="url(#p7d818812de)" style="fill: #d55e00"/>
   </g>
   <g id="patch_26">
    <path d="M 685.030893 242.097544 
L 706.063182 242.097544 
L 706.063182 128.713492 
L 685.030893 128.713492 
z
" clip-path="url(#p7d818812de)" style="fill: #d55e00"/>
   </g>
   <g id="matplotlib.axis_1">
    <g id="xtick_1">
     <g id="line2d_1">
      <defs>
       <path id="m6cd41cbf78" d="M 0 0 
L 0 3.5 
" style="stroke: #000000; stroke-width: 0.8"/>
      </defs>
      <g>
       <use xlink:href="#m6cd41cbf78" x="138.191395" y="242.097544" style="stroke: #000000; stroke-width: 0.8"/>
      </g>
     </g>
     <g id="text_1">
      <!-- MCCR_MSA -->
      <g transform="translate(94.692372 272.445682) rotate(-8) scale(0.16 -0.16)">
       <defs>
        <path id="TimesNewRomanPSMT-4d" d="M 2619 0 
L 981 3566 
L 981 734 
Q 981 344 1066 247 
Q 1181 116 1431 116 
L 1581 116 
L 1581 0 
L 106 0 
L 106 116 
L 256 116 
Q 525 116 638 278 
Q 706 378 706 734 
L 706 3503 
Q 706 3784 644 3909 
Q 600 4000 483 4061 
Q 366 4122 106 4122 
L 106 4238 
L 1306 4238 
L 2844 922 
L 4356 4238 
L 5556 4238 
L 5556 4122 
L 5409 4122 
Q 5138 4122 5025 3959 
Q 4956 3859 4956 3503 
L 4956 734 
Q 4956 344 5044 247 
Q 5159 116 5409 116 
L 5556 116 
L 5556 0 
L 3756 0 
L 3756 116 
L 3906 116 
Q 4178 116 4288 278 
Q 4356 378 4356 734 
L 4356 3566 
L 2722 0 
L 2619 0 
z
" transform="scale(0.015625)"/>
        <path id="TimesNewRomanPSMT-43" d="M 3853 4334 
L 3950 2894 
L 3853 2894 
Q 3659 3541 3300 3825 
Q 2941 4109 2438 4109 
Q 2016 4109 1675 3895 
Q 1334 3681 1139 3212 
Q 944 2744 944 2047 
Q 944 1472 1128 1050 
Q 1313 628 1683 403 
Q 2053 178 2528 178 
Q 2941 178 3256 354 
Q 3572 531 3950 1056 
L 4047 994 
Q 3728 428 3303 165 
Q 2878 -97 2294 -97 
Q 1241 -97 663 684 
Q 231 1266 231 2053 
Q 231 2688 515 3219 
Q 800 3750 1298 4042 
Q 1797 4334 2388 4334 
Q 2847 4334 3294 4109 
Q 3425 4041 3481 4041 
Q 3566 4041 3628 4100 
Q 3709 4184 3744 4334 
L 3853 4334 
z
" transform="scale(0.015625)"/>
        <path id="TimesNewRomanPSMT-52" d="M 4325 0 
L 3194 0 
L 1759 1981 
Q 1600 1975 1500 1975 
Q 1459 1975 1412 1976 
Q 1366 1978 1316 1981 
L 1316 750 
Q 1316 350 1403 253 
Q 1522 116 1759 116 
L 1925 116 
L 1925 0 
L 109 0 
L 109 116 
L 269 116 
Q 538 116 653 291 
Q 719 388 719 750 
L 719 3488 
Q 719 3888 631 3984 
Q 509 4122 269 4122 
L 109 4122 
L 109 4238 
L 1653 4238 
Q 2328 4238 2648 4139 
Q 2969 4041 3192 3777 
Q 3416 3513 3416 3147 
Q 3416 2756 3161 2468 
Q 2906 2181 2372 2063 
L 3247 847 
Q 3547 428 3762 290 
Q 3978 153 4325 116 
L 4325 0 
z
M 1316 2178 
Q 1375 2178 1419 2176 
Q 1463 2175 1491 2175 
Q 2097 2175 2405 2437 
Q 2713 2700 2713 3106 
Q 2713 3503 2464 3751 
Q 2216 4000 1806 4000 
Q 1625 4000 1316 3941 
L 1316 2178 
z
" transform="scale(0.015625)"/>
        <path id="TimesNewRomanPSMT-5f" d="M 3256 -1381 
L -53 -1381 
L -53 -1119 
L 3256 -1119 
L 3256 -1381 
z
" transform="scale(0.015625)"/>
        <path id="TimesNewRomanPSMT-53" d="M 2934 4334 
L 2934 2869 
L 2819 2869 
Q 2763 3291 2617 3541 
Q 2472 3791 2203 3937 
Q 1934 4084 1647 4084 
Q 1322 4084 1109 3886 
Q 897 3688 897 3434 
Q 897 3241 1031 3081 
Q 1225 2847 1953 2456 
Q 2547 2138 2764 1967 
Q 2981 1797 3098 1565 
Q 3216 1334 3216 1081 
Q 3216 600 2842 251 
Q 2469 -97 1881 -97 
Q 1697 -97 1534 -69 
Q 1438 -53 1133 45 
Q 828 144 747 144 
Q 669 144 623 97 
Q 578 50 556 -97 
L 441 -97 
L 441 1356 
L 556 1356 
Q 638 900 775 673 
Q 913 447 1195 297 
Q 1478 147 1816 147 
Q 2206 147 2432 353 
Q 2659 559 2659 841 
Q 2659 997 2573 1156 
Q 2488 1316 2306 1453 
Q 2184 1547 1640 1851 
Q 1097 2156 867 2337 
Q 638 2519 519 2737 
Q 400 2956 400 3219 
Q 400 3675 750 4004 
Q 1100 4334 1641 4334 
Q 1978 4334 2356 4169 
Q 2531 4091 2603 4091 
Q 2684 4091 2736 4139 
Q 2788 4188 2819 4334 
L 2934 4334 
z
" transform="scale(0.015625)"/>
        <path id="TimesNewRomanPSMT-41" d="M 2928 1419 
L 1288 1419 
L 1000 750 
Q 894 503 894 381 
Q 894 284 986 211 
Q 1078 138 1384 116 
L 1384 0 
L 50 0 
L 50 116 
Q 316 163 394 238 
Q 553 388 747 847 
L 2238 4334 
L 2347 4334 
L 3822 809 
Q 4000 384 4145 257 
Q 4291 131 4550 116 
L 4550 0 
L 2878 0 
L 2878 116 
Q 3131 128 3220 200 
Q 3309 272 3309 375 
Q 3309 513 3184 809 
L 2928 1419 
z
M 2841 1650 
L 2122 3363 
L 1384 1650 
L 2841 1650 
z
" transform="scale(0.015625)"/>
       </defs>
       <use xlink:href="#TimesNewRomanPSMT-4d"/>
       <use xlink:href="#TimesNewRomanPSMT-43" x="88.916016"/>
       <use xlink:href="#TimesNewRomanPSMT-43" x="155.615234"/>
       <use xlink:href="#TimesNewRomanPSMT-52" x="222.314453"/>
       <use xlink:href="#TimesNewRomanPSMT-5f" x="289.013672"/>
       <use xlink:href="#TimesNewRomanPSMT-4d" x="339.013672"/>
       <use xlink:href="#TimesNewRomanPSMT-53" x="427.929688"/>
       <use xlink:href="#TimesNewRomanPSMT-41" x="483.544922"/>
      </g>
     </g>
    </g>
    <g id="xtick_2">
     <g id="line2d_2">
      <g>
       <use xlink:href="#m6cd41cbf78" x="243.352837" y="242.097544" style="stroke: #000000; stroke-width: 0.8"/>
      </g>
     </g>
     <g id="text_2">
      <!-- MCCR_MTA -->
      <g transform="translate(200.054344 272.389317) rotate(-8) scale(0.16 -0.16)">
       <defs>
        <path id="TimesNewRomanPSMT-54" d="M 3703 4238 
L 3750 3244 
L 3631 3244 
Q 3597 3506 3538 3619 
Q 3441 3800 3280 3886 
Q 3119 3972 2856 3972 
L 2259 3972 
L 2259 734 
Q 2259 344 2344 247 
Q 2463 116 2709 116 
L 2856 116 
L 2856 0 
L 1059 0 
L 1059 116 
L 1209 116 
Q 1478 116 1591 278 
Q 1659 378 1659 734 
L 1659 3972 
L 1150 3972 
Q 853 3972 728 3928 
Q 566 3869 450 3700 
Q 334 3531 313 3244 
L 194 3244 
L 244 4238 
L 3703 4238 
z
" transform="scale(0.015625)"/>
       </defs>
       <use xlink:href="#TimesNewRomanPSMT-4d"/>
       <use xlink:href="#TimesNewRomanPSMT-43" x="88.916016"/>
       <use xlink:href="#TimesNewRomanPSMT-43" x="155.615234"/>
       <use xlink:href="#TimesNewRomanPSMT-52" x="222.314453"/>
       <use xlink:href="#TimesNewRomanPSMT-5f" x="289.013672"/>
       <use xlink:href="#TimesNewRomanPSMT-4d" x="339.013672"/>
       <use xlink:href="#TimesNewRomanPSMT-54" x="427.929688"/>
       <use xlink:href="#TimesNewRomanPSMT-41" x="481.013672"/>
      </g>
     </g>
    </g>
    <g id="xtick_3">
     <g id="line2d_3">
      <g>
       <use xlink:href="#m6cd41cbf78" x="348.514279" y="242.097544" style="stroke: #000000; stroke-width: 0.8"/>
      </g>
     </g>
     <g id="text_3">
      <!-- MSA_MTA -->
      <g transform="translate(310.942011 270.77978) rotate(-8) scale(0.16 -0.16)">
       <use xlink:href="#TimesNewRomanPSMT-4d"/>
       <use xlink:href="#TimesNewRomanPSMT-53" x="88.916016"/>
       <use xlink:href="#TimesNewRomanPSMT-41" x="144.53125"/>
       <use xlink:href="#TimesNewRomanPSMT-5f" x="216.748047"/>
       <use xlink:href="#TimesNewRomanPSMT-4d" x="266.748047"/>
       <use xlink:href="#TimesNewRomanPSMT-54" x="355.664062"/>
       <use xlink:href="#TimesNewRomanPSMT-41" x="408.748047"/>
      </g>
     </g>
    </g>
    <g id="xtick_4">
     <g id="line2d_4">
      <g>
       <use xlink:href="#m6cd41cbf78" x="453.675721" y="242.097544" style="stroke: #000000; stroke-width: 0.8"/>
      </g>
     </g>
     <g id="text_4">
      <!-- MCCR_MSA_MTA -->
      <g transform="translate(389.244907 278.329225) rotate(-8) scale(0.16 -0.16)">
       <use xlink:href="#TimesNewRomanPSMT-4d"/>
       <use xlink:href="#TimesNewRomanPSMT-43" x="88.916016"/>
       <use xlink:href="#TimesNewRomanPSMT-43" x="155.615234"/>
       <use xlink:href="#TimesNewRomanPSMT-52" x="222.314453"/>
       <use xlink:href="#TimesNewRomanPSMT-5f" x="289.013672"/>
       <use xlink:href="#TimesNewRomanPSMT-4d" x="339.013672"/>
       <use xlink:href="#TimesNewRomanPSMT-53" x="427.929688"/>
       <use xlink:href="#TimesNewRomanPSMT-41" x="483.544922"/>
       <use xlink:href="#TimesNewRomanPSMT-5f" x="555.761719"/>
       <use xlink:href="#TimesNewRomanPSMT-4d" x="605.761719"/>
       <use xlink:href="#TimesNewRomanPSMT-54" x="694.677734"/>
       <use xlink:href="#TimesNewRomanPSMT-41" x="747.761719"/>
      </g>
     </g>
    </g>
    <g id="xtick_5">
     <g id="line2d_5">
      <g>
       <use xlink:href="#m6cd41cbf78" x="558.837163" y="242.097544" style="stroke: #000000; stroke-width: 0.8"/>
      </g>
     </g>
     <g id="text_5">
      <!-- RS_MCCR_MSA_MTA -->
      <g transform="translate(480.755504 282.166227) rotate(-8) scale(0.16 -0.16)">
       <use xlink:href="#TimesNewRomanPSMT-52"/>
       <use xlink:href="#TimesNewRomanPSMT-53" x="66.699219"/>
       <use xlink:href="#TimesNewRomanPSMT-5f" x="122.314453"/>
       <use xlink:href="#TimesNewRomanPSMT-4d" x="172.314453"/>
       <use xlink:href="#TimesNewRomanPSMT-43" x="261.230469"/>
       <use xlink:href="#TimesNewRomanPSMT-43" x="327.929688"/>
       <use xlink:href="#TimesNewRomanPSMT-52" x="394.628906"/>
       <use xlink:href="#TimesNewRomanPSMT-5f" x="461.328125"/>
       <use xlink:href="#TimesNewRomanPSMT-4d" x="511.328125"/>
       <use xlink:href="#TimesNewRomanPSMT-53" x="600.244141"/>
       <use xlink:href="#TimesNewRomanPSMT-41" x="655.859375"/>
       <use xlink:href="#TimesNewRomanPSMT-5f" x="728.076172"/>
       <use xlink:href="#TimesNewRomanPSMT-4d" x="778.076172"/>
       <use xlink:href="#TimesNewRomanPSMT-54" x="866.992188"/>
       <use xlink:href="#TimesNewRomanPSMT-41" x="920.076172"/>
      </g>
     </g>
    </g>
    <g id="xtick_6">
     <g id="line2d_6">
      <g>
       <use xlink:href="#m6cd41cbf78" x="663.998605" y="242.097544" style="stroke: #000000; stroke-width: 0.8"/>
      </g>
     </g>
     <g id="text_6">
      <!-- RS_MSA -->
      <g transform="translate(633.707283 268.73324) rotate(-8) scale(0.16 -0.16)">
       <use xlink:href="#TimesNewRomanPSMT-52"/>
       <use xlink:href="#TimesNewRomanPSMT-53" x="66.699219"/>
       <use xlink:href="#TimesNewRomanPSMT-5f" x="122.314453"/>
       <use xlink:href="#TimesNewRomanPSMT-4d" x="172.314453"/>
       <use xlink:href="#TimesNewRomanPSMT-53" x="261.230469"/>
       <use xlink:href="#TimesNewRomanPSMT-41" x="316.845703"/>
      </g>
     </g>
    </g>
    <g id="text_7">
     <!-- Feature Combination -->
     <g transform="translate(323.098203 300.842315) scale(0.17 -0.17)">
      <defs>
       <path id="TimesNewRomanPS-BoldMT-46" d="M 1759 3994 
L 1759 2253 
L 1881 2253 
Q 2163 2253 2341 2337 
Q 2519 2422 2642 2622 
Q 2766 2822 2803 3163 
L 2913 3163 
L 2913 1034 
L 2803 1034 
Q 2744 1638 2480 1830 
Q 2216 2022 1881 2022 
L 1759 2022 
L 1759 725 
Q 1759 400 1795 319 
Q 1831 238 1936 177 
Q 2041 116 2219 116 
L 2359 116 
L 2359 0 
L 144 0 
L 144 116 
L 284 116 
Q 469 116 581 181 
Q 663 225 706 331 
Q 741 406 741 725 
L 741 3513 
Q 741 3838 706 3919 
Q 672 4000 567 4061 
Q 463 4122 284 4122 
L 144 4122 
L 144 4238 
L 3719 4238 
L 3719 3022 
L 3591 3022 
Q 3547 3450 3367 3656 
Q 3188 3863 2847 3947 
Q 2659 3994 2153 3994 
L 1759 3994 
z
" transform="scale(0.015625)"/>
       <path id="TimesNewRomanPS-BoldMT-65" d="M 2691 1566 
L 1088 1566 
Q 1116 984 1397 647 
Q 1613 388 1916 388 
Q 2103 388 2256 492 
Q 2409 597 2584 869 
L 2691 800 
Q 2453 316 2165 114 
Q 1878 -88 1500 -88 
Q 850 -88 516 413 
Q 247 816 247 1413 
Q 247 2144 642 2576 
Q 1038 3009 1569 3009 
Q 2013 3009 2339 2645 
Q 2666 2281 2691 1566 
z
M 1922 1775 
Q 1922 2278 1867 2465 
Q 1813 2653 1697 2750 
Q 1631 2806 1522 2806 
Q 1359 2806 1256 2647 
Q 1072 2369 1072 1884 
L 1072 1775 
L 1922 1775 
z
" transform="scale(0.015625)"/>
       <path id="TimesNewRomanPS-BoldMT-61" d="M 1828 431 
Q 1294 -41 869 -41 
Q 619 -41 453 123 
Q 288 288 288 534 
Q 288 869 575 1136 
Q 863 1403 1828 1847 
L 1828 2141 
Q 1828 2472 1792 2558 
Q 1756 2644 1656 2708 
Q 1556 2772 1431 2772 
Q 1228 2772 1097 2681 
Q 1016 2625 1016 2550 
Q 1016 2484 1103 2388 
Q 1222 2253 1222 2128 
Q 1222 1975 1108 1867 
Q 994 1759 809 1759 
Q 613 1759 480 1878 
Q 347 1997 347 2156 
Q 347 2381 525 2586 
Q 703 2791 1022 2900 
Q 1341 3009 1684 3009 
Q 2100 3009 2342 2832 
Q 2584 2656 2656 2450 
Q 2700 2319 2700 1847 
L 2700 713 
Q 2700 513 2715 461 
Q 2731 409 2762 384 
Q 2794 359 2834 359 
Q 2916 359 3000 475 
L 3094 400 
Q 2938 169 2770 64 
Q 2603 -41 2391 -41 
Q 2141 -41 2000 76 
Q 1859 194 1828 431 
z
M 1828 659 
L 1828 1638 
Q 1450 1416 1266 1163 
Q 1144 994 1144 822 
Q 1144 678 1247 569 
Q 1325 484 1466 484 
Q 1622 484 1828 659 
z
" transform="scale(0.015625)"/>
       <path id="TimesNewRomanPS-BoldMT-74" d="M 1375 3991 
L 1375 2922 
L 2069 2922 
L 2069 2613 
L 1375 2613 
L 1375 809 
Q 1375 556 1398 482 
Q 1422 409 1481 364 
Q 1541 319 1591 319 
Q 1794 319 1975 628 
L 2069 559 
Q 1816 -41 1247 -41 
Q 969 -41 776 114 
Q 584 269 531 459 
Q 500 566 500 1034 
L 500 2613 
L 119 2613 
L 119 2722 
Q 513 3000 789 3306 
Q 1066 3613 1272 3991 
L 1375 3991 
z
" transform="scale(0.015625)"/>
       <path id="TimesNewRomanPS-BoldMT-75" d="M 3038 2922 
L 3038 634 
Q 3038 300 3100 217 
Q 3163 134 3353 113 
L 3353 0 
L 2163 0 
L 2163 391 
Q 1953 141 1743 26 
Q 1534 -88 1275 -88 
Q 1028 -88 836 64 
Q 644 216 578 419 
Q 513 622 513 1128 
L 513 2288 
Q 513 2619 452 2700 
Q 391 2781 197 2806 
L 197 2922 
L 1388 2922 
L 1388 925 
Q 1388 613 1417 522 
Q 1447 431 1511 384 
Q 1575 338 1659 338 
Q 1772 338 1863 397 
Q 1988 478 2163 725 
L 2163 2288 
Q 2163 2619 2102 2700 
Q 2041 2781 1847 2806 
L 1847 2922 
L 3038 2922 
z
" transform="scale(0.015625)"/>
       <path id="TimesNewRomanPS-BoldMT-72" d="M 1428 2922 
L 1428 2259 
Q 1719 2713 1937 2861 
Q 2156 3009 2359 3009 
Q 2534 3009 2639 2901 
Q 2744 2794 2744 2597 
Q 2744 2388 2642 2272 
Q 2541 2156 2397 2156 
Q 2231 2156 2109 2262 
Q 1988 2369 1966 2381 
Q 1934 2400 1894 2400 
Q 1803 2400 1722 2331 
Q 1594 2225 1528 2028 
Q 1428 1725 1428 1359 
L 1428 688 
L 1431 513 
Q 1431 334 1453 284 
Q 1491 200 1564 161 
Q 1638 122 1813 113 
L 1813 0 
L 234 0 
L 234 113 
Q 425 128 492 217 
Q 559 306 559 688 
L 559 2303 
Q 559 2553 534 2622 
Q 503 2709 443 2750 
Q 384 2791 234 2806 
L 234 2922 
L 1428 2922 
z
" transform="scale(0.015625)"/>
       <path id="TimesNewRomanPS-BoldMT-20" transform="scale(0.015625)"/>
       <path id="TimesNewRomanPS-BoldMT-43" d="M 4272 4334 
L 4272 2866 
L 4150 2866 
Q 4013 3441 3638 3747 
Q 3263 4053 2788 4053 
Q 2391 4053 2059 3825 
Q 1728 3597 1575 3228 
Q 1378 2756 1378 2178 
Q 1378 1609 1522 1142 
Q 1666 675 1972 436 
Q 2278 197 2766 197 
Q 3166 197 3498 372 
Q 3831 547 4200 975 
L 4200 609 
Q 3844 238 3458 70 
Q 3072 -97 2556 -97 
Q 1878 -97 1351 175 
Q 825 447 539 956 
Q 253 1466 253 2041 
Q 253 2647 570 3190 
Q 888 3734 1427 4034 
Q 1966 4334 2572 4334 
Q 3019 4334 3516 4141 
Q 3803 4028 3881 4028 
Q 3981 4028 4054 4101 
Q 4128 4175 4150 4334 
L 4272 4334 
z
" transform="scale(0.015625)"/>
       <path id="TimesNewRomanPS-BoldMT-6f" d="M 1594 3009 
Q 1975 3009 2303 2812 
Q 2631 2616 2801 2253 
Q 2972 1891 2972 1459 
Q 2972 838 2656 419 
Q 2275 -88 1603 -88 
Q 944 -88 587 375 
Q 231 838 231 1447 
Q 231 2075 595 2542 
Q 959 3009 1594 3009 
z
M 1606 2788 
Q 1447 2788 1333 2667 
Q 1219 2547 1183 2192 
Q 1147 1838 1147 1206 
Q 1147 872 1191 581 
Q 1225 359 1337 243 
Q 1450 128 1594 128 
Q 1734 128 1828 206 
Q 1950 313 1991 503 
Q 2053 800 2053 1703 
Q 2053 2234 1993 2432 
Q 1934 2631 1819 2722 
Q 1738 2788 1606 2788 
z
" transform="scale(0.015625)"/>
       <path id="TimesNewRomanPS-BoldMT-6d" d="M 1428 2922 
L 1428 2538 
Q 1669 2800 1873 2904 
Q 2078 3009 2322 3009 
Q 2603 3009 2793 2878 
Q 2984 2747 3088 2478 
Q 3338 2759 3567 2884 
Q 3797 3009 4047 3009 
Q 4350 3009 4529 2870 
Q 4709 2731 4779 2517 
Q 4850 2303 4850 1834 
L 4850 638 
Q 4850 300 4911 219 
Q 4972 138 5166 113 
L 5166 0 
L 3656 0 
L 3656 113 
Q 3834 128 3919 250 
Q 3975 334 3975 638 
L 3975 1894 
Q 3975 2284 3944 2390 
Q 3913 2497 3845 2548 
Q 3778 2600 3688 2600 
Q 3553 2600 3415 2501 
Q 3278 2403 3138 2206 
L 3138 638 
Q 3138 322 3191 241 
Q 3263 125 3466 113 
L 3466 0 
L 1953 0 
L 1953 113 
Q 2075 119 2145 173 
Q 2216 228 2239 304 
Q 2263 381 2263 638 
L 2263 1894 
Q 2263 2291 2231 2391 
Q 2200 2491 2126 2547 
Q 2053 2603 1969 2603 
Q 1844 2603 1741 2538 
Q 1594 2441 1428 2206 
L 1428 638 
Q 1428 328 1489 229 
Q 1550 131 1744 113 
L 1744 0 
L 238 0 
L 238 113 
Q 422 131 500 231 
Q 553 300 553 638 
L 553 2288 
Q 553 2619 492 2700 
Q 431 2781 238 2806 
L 238 2922 
L 1428 2922 
z
" transform="scale(0.015625)"/>
       <path id="TimesNewRomanPS-BoldMT-62" d="M 1347 4238 
L 1347 2628 
Q 1716 3009 2153 3009 
Q 2453 3009 2718 2832 
Q 2984 2656 3134 2331 
Q 3284 2006 3284 1581 
Q 3284 1103 3093 712 
Q 2903 322 2584 117 
Q 2266 -88 1856 -88 
Q 1619 -88 1434 -12 
Q 1250 63 1072 231 
L 588 -84 
L 481 -84 
L 481 3631 
Q 481 3884 459 3944 
Q 428 4031 361 4073 
Q 294 4116 134 4122 
L 134 4238 
L 1347 4238 
z
M 1347 2350 
L 1347 1050 
Q 1347 653 1366 544 
Q 1397 359 1515 245 
Q 1634 131 1819 131 
Q 1978 131 2092 222 
Q 2206 313 2282 581 
Q 2359 850 2359 1550 
Q 2359 2222 2191 2472 
Q 2069 2653 1863 2653 
Q 1594 2653 1347 2350 
z
" transform="scale(0.015625)"/>
       <path id="TimesNewRomanPS-BoldMT-69" d="M 919 4338 
Q 1122 4338 1262 4195 
Q 1403 4053 1403 3853 
Q 1403 3653 1261 3512 
Q 1119 3372 919 3372 
Q 719 3372 578 3512 
Q 438 3653 438 3853 
Q 438 4053 578 4195 
Q 719 4338 919 4338 
z
M 1356 2922 
L 1356 606 
Q 1356 297 1428 211 
Q 1500 125 1709 113 
L 1709 0 
L 131 0 
L 131 113 
Q 325 119 419 225 
Q 481 297 481 606 
L 481 2313 
Q 481 2622 409 2708 
Q 338 2794 131 2806 
L 131 2922 
L 1356 2922 
z
" transform="scale(0.015625)"/>
       <path id="TimesNewRomanPS-BoldMT-6e" d="M 1409 2922 
L 1409 2544 
Q 1634 2788 1840 2898 
Q 2047 3009 2284 3009 
Q 2569 3009 2756 2851 
Q 2944 2694 3006 2459 
Q 3056 2281 3056 1775 
L 3056 638 
Q 3056 300 3117 217 
Q 3178 134 3372 113 
L 3372 0 
L 1894 0 
L 1894 113 
Q 2059 134 2131 250 
Q 2181 328 2181 638 
L 2181 1938 
Q 2181 2297 2153 2390 
Q 2125 2484 2058 2536 
Q 1991 2588 1909 2588 
Q 1641 2588 1409 2203 
L 1409 638 
Q 1409 309 1470 221 
Q 1531 134 1697 113 
L 1697 0 
L 219 0 
L 219 113 
Q 403 131 481 231 
Q 534 300 534 638 
L 534 2288 
Q 534 2619 473 2700 
Q 413 2781 219 2806 
L 219 2922 
L 1409 2922 
z
" transform="scale(0.015625)"/>
      </defs>
      <use xlink:href="#TimesNewRomanPS-BoldMT-46"/>
      <use xlink:href="#TimesNewRomanPS-BoldMT-65" x="61.083984"/>
      <use xlink:href="#TimesNewRomanPS-BoldMT-61" x="105.46875"/>
      <use xlink:href="#TimesNewRomanPS-BoldMT-74" x="155.46875"/>
      <use xlink:href="#TimesNewRomanPS-BoldMT-75" x="188.769531"/>
      <use xlink:href="#TimesNewRomanPS-BoldMT-72" x="244.384766"/>
      <use xlink:href="#TimesNewRomanPS-BoldMT-65" x="287.019531"/>
      <use xlink:href="#TimesNewRomanPS-BoldMT-20" x="331.404297"/>
      <use xlink:href="#TimesNewRomanPS-BoldMT-43" x="356.404297"/>
      <use xlink:href="#TimesNewRomanPS-BoldMT-6f" x="428.621094"/>
      <use xlink:href="#TimesNewRomanPS-BoldMT-6d" x="478.621094"/>
      <use xlink:href="#TimesNewRomanPS-BoldMT-62" x="561.921875"/>
      <use xlink:href="#TimesNewRomanPS-BoldMT-69" x="617.537109"/>
      <use xlink:href="#TimesNewRomanPS-BoldMT-6e" x="645.320312"/>
      <use xlink:href="#TimesNewRomanPS-BoldMT-61" x="700.935547"/>
      <use xlink:href="#TimesNewRomanPS-BoldMT-74" x="750.935547"/>
      <use xlink:href="#TimesNewRomanPS-BoldMT-69" x="784.236328"/>
      <use xlink:href="#TimesNewRomanPS-BoldMT-6f" x="812.019531"/>
      <use xlink:href="#TimesNewRomanPS-BoldMT-6e" x="862.019531"/>
     </g>
    </g>
   </g>
   <g id="matplotlib.axis_2">
    <g id="ytick_1">
     <g id="line2d_7">
      <defs>
       <path id="mb6d5cba459" d="M 0 0 
L -3.5 0 
" style="stroke: #000000; stroke-width: 0.8"/>
      </defs>
      <g>
       <use xlink:href="#mb6d5cba459" x="65.63" y="242.097544" style="stroke: #000000; stroke-width: 0.8"/>
      </g>
     </g>
     <g id="text_8">
      <!-- 0.00 -->
      <g transform="translate(30.63 247.652544) scale(0.16 -0.16)">
       <defs>
        <path id="TimesNewRomanPSMT-30" d="M 231 2094 
Q 231 2819 450 3342 
Q 669 3866 1031 4122 
Q 1313 4325 1613 4325 
Q 2100 4325 2488 3828 
Q 2972 3213 2972 2159 
Q 2972 1422 2759 906 
Q 2547 391 2217 158 
Q 1888 -75 1581 -75 
Q 975 -75 572 641 
Q 231 1244 231 2094 
z
M 844 2016 
Q 844 1141 1059 588 
Q 1238 122 1591 122 
Q 1759 122 1940 273 
Q 2122 425 2216 781 
Q 2359 1319 2359 2297 
Q 2359 3022 2209 3506 
Q 2097 3866 1919 4016 
Q 1791 4119 1609 4119 
Q 1397 4119 1231 3928 
Q 1006 3669 925 3112 
Q 844 2556 844 2016 
z
" transform="scale(0.015625)"/>
        <path id="TimesNewRomanPSMT-2e" d="M 800 606 
Q 947 606 1047 504 
Q 1147 403 1147 259 
Q 1147 116 1045 14 
Q 944 -88 800 -88 
Q 656 -88 554 14 
Q 453 116 453 259 
Q 453 406 554 506 
Q 656 606 800 606 
z
" transform="scale(0.015625)"/>
       </defs>
       <use xlink:href="#TimesNewRomanPSMT-30"/>
       <use xlink:href="#TimesNewRomanPSMT-2e" x="50"/>
       <use xlink:href="#TimesNewRomanPSMT-30" x="75"/>
       <use xlink:href="#TimesNewRomanPSMT-30" x="125"/>
      </g>
     </g>
    </g>
    <g id="ytick_2">
     <g id="line2d_8">
      <g>
       <use xlink:href="#mb6d5cba459" x="65.63" y="199.578524" style="stroke: #000000; stroke-width: 0.8"/>
      </g>
     </g>
     <g id="text_9">
      <!-- 0.25 -->
      <g transform="translate(30.63 205.133524) scale(0.16 -0.16)">
       <defs>
        <path id="TimesNewRomanPSMT-32" d="M 2934 816 
L 2638 0 
L 138 0 
L 138 116 
Q 1241 1122 1691 1759 
Q 2141 2397 2141 2925 
Q 2141 3328 1894 3587 
Q 1647 3847 1303 3847 
Q 991 3847 742 3664 
Q 494 3481 375 3128 
L 259 3128 
Q 338 3706 661 4015 
Q 984 4325 1469 4325 
Q 1984 4325 2329 3994 
Q 2675 3663 2675 3213 
Q 2675 2891 2525 2569 
Q 2294 2063 1775 1497 
Q 997 647 803 472 
L 1909 472 
Q 2247 472 2383 497 
Q 2519 522 2628 598 
Q 2738 675 2819 816 
L 2934 816 
z
" transform="scale(0.015625)"/>
        <path id="TimesNewRomanPSMT-35" d="M 2778 4238 
L 2534 3706 
L 1259 3706 
L 981 3138 
Q 1809 3016 2294 2522 
Q 2709 2097 2709 1522 
Q 2709 1188 2573 903 
Q 2438 619 2231 419 
Q 2025 219 1772 97 
Q 1413 -75 1034 -75 
Q 653 -75 479 54 
Q 306 184 306 341 
Q 306 428 378 495 
Q 450 563 559 563 
Q 641 563 702 538 
Q 763 513 909 409 
Q 1144 247 1384 247 
Q 1750 247 2026 523 
Q 2303 800 2303 1197 
Q 2303 1581 2056 1914 
Q 1809 2247 1375 2428 
Q 1034 2569 447 2591 
L 1259 4238 
L 2778 4238 
z
" transform="scale(0.015625)"/>
       </defs>
       <use xlink:href="#TimesNewRomanPSMT-30"/>
       <use xlink:href="#TimesNewRomanPSMT-2e" x="50"/>
       <use xlink:href="#TimesNewRomanPSMT-32" x="75"/>
       <use xlink:href="#TimesNewRomanPSMT-35" x="125"/>
      </g>
     </g>
    </g>
    <g id="ytick_3">
     <g id="line2d_9">
      <g>
       <use xlink:href="#mb6d5cba459" x="65.63" y="157.059505" style="stroke: #000000; stroke-width: 0.8"/>
      </g>
     </g>
     <g id="text_10">
      <!-- 0.50 -->
      <g transform="translate(30.63 162.614505) scale(0.16 -0.16)">
       <use xlink:href="#TimesNewRomanPSMT-30"/>
       <use xlink:href="#TimesNewRomanPSMT-2e" x="50"/>
       <use xlink:href="#TimesNewRomanPSMT-35" x="75"/>
       <use xlink:href="#TimesNewRomanPSMT-30" x="125"/>
      </g>
     </g>
    </g>
    <g id="ytick_4">
     <g id="line2d_10">
      <g>
       <use xlink:href="#mb6d5cba459" x="65.63" y="114.540485" style="stroke: #000000; stroke-width: 0.8"/>
      </g>
     </g>
     <g id="text_11">
      <!-- 0.75 -->
      <g transform="translate(30.63 120.095485) scale(0.16 -0.16)">
       <defs>
        <path id="TimesNewRomanPSMT-37" d="M 644 4238 
L 2916 4238 
L 2916 4119 
L 1503 -88 
L 1153 -88 
L 2419 3728 
L 1253 3728 
Q 900 3728 750 3644 
Q 488 3500 328 3200 
L 238 3234 
L 644 4238 
z
" transform="scale(0.015625)"/>
       </defs>
       <use xlink:href="#TimesNewRomanPSMT-30"/>
       <use xlink:href="#TimesNewRomanPSMT-2e" x="50"/>
       <use xlink:href="#TimesNewRomanPSMT-37" x="75"/>
       <use xlink:href="#TimesNewRomanPSMT-35" x="125"/>
      </g>
     </g>
    </g>
    <g id="ytick_5">
     <g id="line2d_11">
      <g>
       <use xlink:href="#mb6d5cba459" x="65.63" y="72.021466" style="stroke: #000000; stroke-width: 0.8"/>
      </g>
     </g>
     <g id="text_12">
      <!-- 1.00 -->
      <g transform="translate(30.63 77.576466) scale(0.16 -0.16)">
       <defs>
        <path id="TimesNewRomanPSMT-31" d="M 750 3822 
L 1781 4325 
L 1884 4325 
L 1884 747 
Q 1884 391 1914 303 
Q 1944 216 2037 169 
Q 2131 122 2419 116 
L 2419 0 
L 825 0 
L 825 116 
Q 1125 122 1212 167 
Q 1300 213 1334 289 
Q 1369 366 1369 747 
L 1369 3034 
Q 1369 3497 1338 3628 
Q 1316 3728 1258 3775 
Q 1200 3822 1119 3822 
Q 1003 3822 797 3725 
L 750 3822 
z
" transform="scale(0.015625)"/>
       </defs>
       <use xlink:href="#TimesNewRomanPSMT-31"/>
       <use xlink:href="#TimesNewRomanPSMT-2e" x="50"/>
       <use xlink:href="#TimesNewRomanPSMT-30" x="75"/>
       <use xlink:href="#TimesNewRomanPSMT-30" x="125"/>
      </g>
     </g>
    </g>
    <g id="text_13">
     <!-- Metric Score -->
     <g transform="translate(22.993594 186.859006) rotate(-90) scale(0.17 -0.17)">
      <defs>
       <path id="TimesNewRomanPS-BoldMT-4d" d="M 3050 1444 
L 4200 4238 
L 5925 4238 
L 5925 4122 
L 5788 4122 
Q 5600 4122 5488 4056 
Q 5409 4013 5363 3909 
Q 5328 3834 5328 3519 
L 5328 725 
Q 5328 400 5362 319 
Q 5397 238 5503 177 
Q 5609 116 5788 116 
L 5925 116 
L 5925 0 
L 3713 0 
L 3713 116 
L 3850 116 
Q 4038 116 4150 181 
Q 4228 225 4275 331 
Q 4309 406 4309 725 
L 4309 3866 
L 2684 0 
L 2609 0 
L 959 3838 
L 959 853 
Q 959 541 975 469 
Q 1016 313 1152 214 
Q 1288 116 1578 116 
L 1578 0 
L 128 0 
L 128 116 
L 172 116 
Q 313 113 434 161 
Q 556 209 618 290 
Q 681 372 716 519 
Q 722 553 722 838 
L 722 3519 
Q 722 3841 687 3920 
Q 653 4000 547 4061 
Q 441 4122 263 4122 
L 128 4122 
L 128 4238 
L 1859 4238 
L 3050 1444 
z
" transform="scale(0.015625)"/>
       <path id="TimesNewRomanPS-BoldMT-63" d="M 2600 753 
L 2697 678 
Q 2491 291 2183 101 
Q 1875 -88 1528 -88 
Q 944 -88 594 353 
Q 244 794 244 1413 
Q 244 2009 563 2463 
Q 947 3009 1622 3009 
Q 2075 3009 2342 2781 
Q 2609 2553 2609 2272 
Q 2609 2094 2501 1987 
Q 2394 1881 2219 1881 
Q 2034 1881 1914 2003 
Q 1794 2125 1766 2438 
Q 1747 2634 1675 2713 
Q 1603 2791 1506 2791 
Q 1356 2791 1250 2631 
Q 1088 2391 1088 1894 
Q 1088 1481 1219 1104 
Q 1350 728 1578 544 
Q 1750 409 1984 409 
Q 2138 409 2275 481 
Q 2413 553 2600 753 
z
" transform="scale(0.015625)"/>
       <path id="TimesNewRomanPS-BoldMT-53" d="M 3006 4334 
L 3041 2922 
L 2913 2922 
Q 2822 3453 2467 3776 
Q 2113 4100 1700 4100 
Q 1381 4100 1195 3929 
Q 1009 3759 1009 3538 
Q 1009 3397 1075 3288 
Q 1166 3141 1366 2997 
Q 1513 2894 2044 2631 
Q 2788 2266 3047 1941 
Q 3303 1616 3303 1197 
Q 3303 666 2889 283 
Q 2475 -100 1838 -100 
Q 1638 -100 1459 -59 
Q 1281 -19 1013 94 
Q 863 156 766 156 
Q 684 156 593 93 
Q 503 31 447 -97 
L 331 -97 
L 331 1503 
L 447 1503 
Q 584 828 976 473 
Q 1369 119 1822 119 
Q 2172 119 2380 309 
Q 2588 500 2588 753 
Q 2588 903 2508 1043 
Q 2428 1184 2265 1311 
Q 2103 1438 1691 1641 
Q 1113 1925 859 2125 
Q 606 2325 470 2572 
Q 334 2819 334 3116 
Q 334 3622 706 3978 
Q 1078 4334 1644 4334 
Q 1850 4334 2044 4284 
Q 2191 4247 2402 4145 
Q 2613 4044 2697 4044 
Q 2778 4044 2825 4094 
Q 2872 4144 2913 4334 
L 3006 4334 
z
" transform="scale(0.015625)"/>
      </defs>
      <use xlink:href="#TimesNewRomanPS-BoldMT-4d"/>
      <use xlink:href="#TimesNewRomanPS-BoldMT-65" x="94.384766"/>
      <use xlink:href="#TimesNewRomanPS-BoldMT-74" x="138.769531"/>
      <use xlink:href="#TimesNewRomanPS-BoldMT-72" x="172.070312"/>
      <use xlink:href="#TimesNewRomanPS-BoldMT-69" x="216.455078"/>
      <use xlink:href="#TimesNewRomanPS-BoldMT-63" x="244.238281"/>
      <use xlink:href="#TimesNewRomanPS-BoldMT-20" x="288.623047"/>
      <use xlink:href="#TimesNewRomanPS-BoldMT-53" x="313.623047"/>
      <use xlink:href="#TimesNewRomanPS-BoldMT-63" x="369.238281"/>
      <use xlink:href="#TimesNewRomanPS-BoldMT-6f" x="413.623047"/>
      <use xlink:href="#TimesNewRomanPS-BoldMT-72" x="463.623047"/>
      <use xlink:href="#TimesNewRomanPS-BoldMT-65" x="506.257812"/>
     </g>
    </g>
   </g>
   <g id="patch_27">
    <path d="M 65.63 242.097544 
L 65.63 38.00625 
" style="fill: none; stroke: #000000; stroke-width: 0.8; stroke-linejoin: miter; stroke-linecap: square"/>
   </g>
   <g id="patch_28">
    <path d="M 736.56 242.097544 
L 736.56 38.00625 
" style="fill: none; stroke: #000000; stroke-width: 0.8; stroke-linejoin: miter; stroke-linecap: square"/>
   </g>
   <g id="patch_29">
    <path d="M 65.63 242.097544 
L 736.56 242.097544 
" style="fill: none; stroke: #000000; stroke-width: 0.8; stroke-linejoin: miter; stroke-linecap: square"/>
   </g>
   <g id="patch_30">
    <path d="M 65.63 38.00625 
L 736.56 38.00625 
" style="fill: none; stroke: #000000; stroke-width: 0.8; stroke-linejoin: miter; stroke-linecap: square"/>
   </g>
   <g id="text_14">
    <!-- 0.8772 -->
    <g transform="translate(110.229212 92.92898) rotate(-90) scale(0.16 -0.16)">
     <defs>
      <path id="TimesNewRomanPS-BoldMT-30" d="M 2966 2119 
Q 2966 1484 2788 934 
Q 2681 597 2501 381 
Q 2322 166 2094 39 
Q 1866 -88 1597 -88 
Q 1291 -88 1044 68 
Q 797 225 606 516 
Q 469 728 366 1081 
Q 231 1559 231 2069 
Q 231 2759 425 3338 
Q 584 3816 909 4070 
Q 1234 4325 1597 4325 
Q 1966 4325 2286 4073 
Q 2606 3822 2756 3397 
Q 2966 2813 2966 2119 
z
M 2003 2125 
Q 2003 3238 1991 3422 
Q 1959 3856 1841 4009 
Q 1763 4109 1588 4109 
Q 1453 4109 1375 4034 
Q 1259 3925 1218 3648 
Q 1178 3372 1178 1719 
Q 1178 819 1241 513 
Q 1288 291 1375 216 
Q 1463 141 1606 141 
Q 1763 141 1841 241 
Q 1972 416 1991 781 
L 2003 2125 
z
" transform="scale(0.015625)"/>
      <path id="TimesNewRomanPS-BoldMT-2e" d="M 800 963 
Q 1019 963 1170 809 
Q 1322 656 1322 441 
Q 1322 225 1169 73 
Q 1016 -78 800 -78 
Q 584 -78 432 73 
Q 281 225 281 441 
Q 281 656 432 809 
Q 584 963 800 963 
z
" transform="scale(0.015625)"/>
      <path id="TimesNewRomanPS-BoldMT-38" d="M 2181 2394 
Q 2628 2066 2801 1783 
Q 2975 1500 2975 1134 
Q 2975 622 2589 267 
Q 2203 -88 1541 -88 
Q 913 -88 569 221 
Q 225 531 225 978 
Q 225 1319 423 1575 
Q 622 1831 1084 2044 
Q 581 2428 439 2672 
Q 297 2916 297 3238 
Q 297 3663 658 3986 
Q 1019 4309 1647 4309 
Q 2253 4309 2579 4023 
Q 2906 3738 2906 3338 
Q 2906 3038 2729 2808 
Q 2553 2578 2181 2394 
z
M 1944 2553 
Q 2059 2709 2115 2903 
Q 2172 3097 2172 3328 
Q 2172 3734 1997 3950 
Q 1866 4116 1634 4116 
Q 1425 4116 1278 3964 
Q 1131 3813 1131 3588 
Q 1131 3359 1295 3114 
Q 1459 2869 1944 2553 
z
M 1319 1894 
Q 1222 1806 1181 1734 
Q 1119 1625 1069 1415 
Q 1019 1206 1019 978 
Q 1019 684 1094 486 
Q 1169 288 1308 200 
Q 1447 113 1594 113 
Q 1822 113 1978 280 
Q 2134 447 2134 738 
Q 2134 1344 1319 1894 
z
" transform="scale(0.015625)"/>
      <path id="TimesNewRomanPS-BoldMT-37" d="M 1134 -88 
L 2288 3409 
L 1409 3409 
Q 894 3409 634 3275 
Q 453 3181 334 2922 
L 216 2922 
L 522 4238 
L 3047 4238 
L 1625 -88 
L 1134 -88 
z
" transform="scale(0.015625)"/>
      <path id="TimesNewRomanPS-BoldMT-32" d="M 2650 0 
L 156 0 
L 156 69 
Q 1303 1434 1548 1906 
Q 1794 2378 1794 2828 
Q 1794 3156 1591 3373 
Q 1388 3591 1094 3591 
Q 613 3591 347 3109 
L 231 3150 
Q 400 3750 744 4037 
Q 1088 4325 1538 4325 
Q 1859 4325 2125 4175 
Q 2391 4025 2541 3764 
Q 2691 3503 2691 3275 
Q 2691 2859 2459 2431 
Q 2144 1853 1081 819 
L 1997 819 
Q 2334 819 2436 847 
Q 2538 875 2603 942 
Q 2669 1009 2775 1225 
L 2888 1225 
L 2650 0 
z
" transform="scale(0.015625)"/>
     </defs>
     <use xlink:href="#TimesNewRomanPS-BoldMT-30"/>
     <use xlink:href="#TimesNewRomanPS-BoldMT-2e" x="50"/>
     <use xlink:href="#TimesNewRomanPS-BoldMT-38" x="75"/>
     <use xlink:href="#TimesNewRomanPS-BoldMT-37" x="125"/>
     <use xlink:href="#TimesNewRomanPS-BoldMT-37" x="175"/>
     <use xlink:href="#TimesNewRomanPS-BoldMT-32" x="225"/>
    </g>
   </g>
   <g id="text_15">
    <!-- 0.8947 -->
    <g transform="translate(215.390654 89.945189) rotate(-90) scale(0.16 -0.16)">
     <defs>
      <path id="TimesNewRomanPS-BoldMT-39" d="M 197 -88 
L 197 0 
Q 716 119 1077 350 
Q 1438 581 1648 922 
Q 1859 1263 1944 1706 
Q 1750 1606 1614 1567 
Q 1478 1528 1328 1528 
Q 847 1528 526 1875 
Q 206 2222 206 2825 
Q 206 3244 379 3592 
Q 553 3941 875 4133 
Q 1197 4325 1544 4325 
Q 1916 4325 2247 4112 
Q 2578 3900 2775 3497 
Q 2972 3094 2972 2578 
Q 2972 1909 2651 1296 
Q 2331 684 1697 314 
Q 1063 -56 197 -88 
z
M 1991 1969 
Q 2022 2319 2022 2584 
Q 2022 3153 1891 3644 
Q 1816 3916 1669 4044 
Q 1591 4113 1466 4113 
Q 1309 4113 1222 3978 
Q 1100 3794 1100 3275 
Q 1100 2409 1306 2081 
Q 1441 1869 1669 1869 
Q 1791 1869 1991 1969 
z
" transform="scale(0.015625)"/>
      <path id="TimesNewRomanPS-BoldMT-34" d="M 159 1597 
L 2172 4325 
L 2553 4325 
L 2553 1597 
L 2941 1597 
L 2941 950 
L 2553 950 
L 2553 0 
L 1694 0 
L 1694 950 
L 159 950 
L 159 1597 
z
M 463 1597 
L 1694 1597 
L 1694 3269 
L 463 1597 
z
" transform="scale(0.015625)"/>
     </defs>
     <use xlink:href="#TimesNewRomanPS-BoldMT-30"/>
     <use xlink:href="#TimesNewRomanPS-BoldMT-2e" x="50"/>
     <use xlink:href="#TimesNewRomanPS-BoldMT-38" x="75"/>
     <use xlink:href="#TimesNewRomanPS-BoldMT-39" x="125"/>
     <use xlink:href="#TimesNewRomanPS-BoldMT-34" x="175"/>
     <use xlink:href="#TimesNewRomanPS-BoldMT-37" x="225"/>
    </g>
   </g>
   <g id="text_16">
    <!-- 0.7895 -->
    <g transform="translate(320.552096 107.847934) rotate(-90) scale(0.16 -0.16)">
     <defs>
      <path id="TimesNewRomanPS-BoldMT-35" d="M 975 4238 
L 2959 4238 
L 2644 3431 
L 975 3431 
L 816 3009 
Q 1894 2969 2475 2472 
Q 2953 2063 2953 1453 
Q 2953 1063 2731 689 
Q 2509 316 2106 114 
Q 1703 -88 1222 -88 
Q 703 -88 425 106 
Q 231 244 231 419 
Q 231 553 332 656 
Q 434 759 569 759 
Q 691 759 816 709 
Q 941 659 1244 447 
Q 1434 316 1572 266 
Q 1669 228 1791 228 
Q 2047 228 2226 415 
Q 2406 603 2406 866 
Q 2406 1416 1856 1759 
Q 1306 2103 469 2103 
Q 384 2103 216 2100 
L 975 4238 
z
" transform="scale(0.015625)"/>
     </defs>
     <use xlink:href="#TimesNewRomanPS-BoldMT-30"/>
     <use xlink:href="#TimesNewRomanPS-BoldMT-2e" x="50"/>
     <use xlink:href="#TimesNewRomanPS-BoldMT-37" x="75"/>
     <use xlink:href="#TimesNewRomanPS-BoldMT-38" x="125"/>
     <use xlink:href="#TimesNewRomanPS-BoldMT-39" x="175"/>
     <use xlink:href="#TimesNewRomanPS-BoldMT-35" x="225"/>
    </g>
   </g>
   <g id="text_17">
    <!-- 0.9123 -->
    <g transform="translate(425.713538 86.961398) rotate(-90) scale(0.16 -0.16)">
     <defs>
      <path id="TimesNewRomanPS-BoldMT-31" d="M 2084 4325 
L 2084 859 
Q 2084 469 2118 361 
Q 2153 253 2262 184 
Q 2372 116 2613 116 
L 2709 116 
L 2709 0 
L 478 0 
L 478 116 
L 591 116 
Q 863 116 978 178 
Q 1094 241 1134 350 
Q 1175 459 1175 859 
L 1175 3056 
Q 1175 3350 1147 3423 
Q 1119 3497 1042 3548 
Q 966 3600 866 3600 
Q 706 3600 478 3500 
L 422 3613 
L 1981 4325 
L 2084 4325 
z
" transform="scale(0.015625)"/>
      <path id="TimesNewRomanPS-BoldMT-33" d="M 947 2125 
L 947 2234 
Q 1303 2338 1440 2427 
Q 1578 2516 1678 2698 
Q 1778 2881 1778 3069 
Q 1778 3328 1589 3514 
Q 1400 3700 1119 3700 
Q 681 3700 375 3238 
L 259 3278 
Q 484 3800 836 4062 
Q 1188 4325 1619 4325 
Q 2059 4325 2345 4056 
Q 2631 3788 2631 3428 
Q 2631 3194 2498 2976 
Q 2366 2759 2081 2594 
Q 2447 2416 2639 2155 
Q 2831 1894 2831 1500 
Q 2831 838 2351 373 
Q 1872 -91 1066 -91 
Q 528 -91 281 88 
Q 103 213 103 409 
Q 103 553 206 654 
Q 309 756 444 756 
Q 547 756 638 713 
Q 688 688 992 439 
Q 1297 191 1563 191 
Q 1794 191 1959 373 
Q 2125 556 2125 838 
Q 2125 1266 1825 1627 
Q 1525 1988 947 2125 
z
" transform="scale(0.015625)"/>
     </defs>
     <use xlink:href="#TimesNewRomanPS-BoldMT-30"/>
     <use xlink:href="#TimesNewRomanPS-BoldMT-2e" x="50"/>
     <use xlink:href="#TimesNewRomanPS-BoldMT-39" x="75"/>
     <use xlink:href="#TimesNewRomanPS-BoldMT-31" x="125"/>
     <use xlink:href="#TimesNewRomanPS-BoldMT-32" x="175"/>
     <use xlink:href="#TimesNewRomanPS-BoldMT-33" x="225"/>
    </g>
   </g>
   <g id="text_18">
    <!-- 0.8947 -->
    <g transform="translate(530.87498 89.945189) rotate(-90) scale(0.16 -0.16)">
     <use xlink:href="#TimesNewRomanPS-BoldMT-30"/>
     <use xlink:href="#TimesNewRomanPS-BoldMT-2e" x="50"/>
     <use xlink:href="#TimesNewRomanPS-BoldMT-38" x="75"/>
     <use xlink:href="#TimesNewRomanPS-BoldMT-39" x="125"/>
     <use xlink:href="#TimesNewRomanPS-BoldMT-34" x="175"/>
     <use xlink:href="#TimesNewRomanPS-BoldMT-37" x="225"/>
    </g>
   </g>
   <g id="text_19">
    <!-- 0.7018 -->
    <g transform="translate(636.036422 122.766888) rotate(-90) scale(0.16 -0.16)">
     <use xlink:href="#TimesNewRomanPS-BoldMT-30"/>
     <use xlink:href="#TimesNewRomanPS-BoldMT-2e" x="50"/>
     <use xlink:href="#TimesNewRomanPS-BoldMT-37" x="75"/>
     <use xlink:href="#TimesNewRomanPS-BoldMT-30" x="125"/>
     <use xlink:href="#TimesNewRomanPS-BoldMT-31" x="175"/>
     <use xlink:href="#TimesNewRomanPS-BoldMT-38" x="225"/>
    </g>
   </g>
   <g id="text_20">
    <!-- 0.8621 -->
    <g transform="translate(131.261501 95.501213) rotate(-90) scale(0.16 -0.16)">
     <defs>
      <path id="TimesNewRomanPS-BoldMT-36" d="M 3006 4325 
L 3006 4238 
Q 2441 4094 2098 3867 
Q 1756 3641 1557 3317 
Q 1359 2994 1250 2516 
Q 1388 2609 1478 2638 
Q 1681 2700 1888 2700 
Q 2363 2700 2680 2354 
Q 2997 2009 2997 1413 
Q 2997 994 2825 644 
Q 2653 294 2337 103 
Q 2022 -88 1663 -88 
Q 1272 -88 940 126 
Q 609 341 423 753 
Q 238 1166 238 1650 
Q 238 2363 580 2977 
Q 922 3591 1551 3955 
Q 2181 4319 3006 4325 
z
M 1209 2263 
Q 1184 1831 1184 1631 
Q 1184 1200 1267 797 
Q 1350 394 1494 231 
Q 1597 116 1738 116 
Q 1881 116 1993 283 
Q 2106 450 2106 963 
Q 2106 1825 1897 2153 
Q 1763 2366 1534 2366 
Q 1409 2366 1209 2263 
z
" transform="scale(0.015625)"/>
     </defs>
     <use xlink:href="#TimesNewRomanPS-BoldMT-30"/>
     <use xlink:href="#TimesNewRomanPS-BoldMT-2e" x="50"/>
     <use xlink:href="#TimesNewRomanPS-BoldMT-38" x="75"/>
     <use xlink:href="#TimesNewRomanPS-BoldMT-36" x="125"/>
     <use xlink:href="#TimesNewRomanPS-BoldMT-32" x="175"/>
     <use xlink:href="#TimesNewRomanPS-BoldMT-31" x="225"/>
    </g>
   </g>
   <g id="text_21">
    <!-- 0.8929 -->
    <g transform="translate(236.422943 90.264881) rotate(-90) scale(0.16 -0.16)">
     <use xlink:href="#TimesNewRomanPS-BoldMT-30"/>
     <use xlink:href="#TimesNewRomanPS-BoldMT-2e" x="50"/>
     <use xlink:href="#TimesNewRomanPS-BoldMT-38" x="75"/>
     <use xlink:href="#TimesNewRomanPS-BoldMT-39" x="125"/>
     <use xlink:href="#TimesNewRomanPS-BoldMT-32" x="175"/>
     <use xlink:href="#TimesNewRomanPS-BoldMT-39" x="225"/>
    </g>
   </g>
   <g id="text_22">
    <!-- 0.7222 -->
    <g transform="translate(341.584385 119.285799) rotate(-90) scale(0.16 -0.16)">
     <use xlink:href="#TimesNewRomanPS-BoldMT-30"/>
     <use xlink:href="#TimesNewRomanPS-BoldMT-2e" x="50"/>
     <use xlink:href="#TimesNewRomanPS-BoldMT-37" x="75"/>
     <use xlink:href="#TimesNewRomanPS-BoldMT-32" x="125"/>
     <use xlink:href="#TimesNewRomanPS-BoldMT-32" x="175"/>
     <use xlink:href="#TimesNewRomanPS-BoldMT-32" x="225"/>
    </g>
   </g>
   <g id="text_23">
    <!-- 0.8966 -->
    <g transform="translate(446.745827 89.636521) rotate(-90) scale(0.16 -0.16)">
     <use xlink:href="#TimesNewRomanPS-BoldMT-30"/>
     <use xlink:href="#TimesNewRomanPS-BoldMT-2e" x="50"/>
     <use xlink:href="#TimesNewRomanPS-BoldMT-38" x="75"/>
     <use xlink:href="#TimesNewRomanPS-BoldMT-39" x="125"/>
     <use xlink:href="#TimesNewRomanPS-BoldMT-36" x="175"/>
     <use xlink:href="#TimesNewRomanPS-BoldMT-36" x="225"/>
    </g>
   </g>
   <g id="text_24">
    <!-- 0.9231 -->
    <g transform="translate(551.907269 85.125219) rotate(-90) scale(0.16 -0.16)">
     <use xlink:href="#TimesNewRomanPS-BoldMT-30"/>
     <use xlink:href="#TimesNewRomanPS-BoldMT-2e" x="50"/>
     <use xlink:href="#TimesNewRomanPS-BoldMT-39" x="75"/>
     <use xlink:href="#TimesNewRomanPS-BoldMT-32" x="125"/>
     <use xlink:href="#TimesNewRomanPS-BoldMT-33" x="175"/>
     <use xlink:href="#TimesNewRomanPS-BoldMT-31" x="225"/>
    </g>
   </g>
   <g id="text_25">
    <!-- 0.7391 -->
    <g transform="translate(657.068711 116.410117) rotate(-90) scale(0.16 -0.16)">
     <use xlink:href="#TimesNewRomanPS-BoldMT-30"/>
     <use xlink:href="#TimesNewRomanPS-BoldMT-2e" x="50"/>
     <use xlink:href="#TimesNewRomanPS-BoldMT-37" x="75"/>
     <use xlink:href="#TimesNewRomanPS-BoldMT-33" x="125"/>
     <use xlink:href="#TimesNewRomanPS-BoldMT-39" x="175"/>
     <use xlink:href="#TimesNewRomanPS-BoldMT-31" x="225"/>
    </g>
   </g>
   <g id="text_26">
    <!-- 0.8929 -->
    <g transform="translate(152.293789 90.264881) rotate(-90) scale(0.16 -0.16)">
     <use xlink:href="#TimesNewRomanPS-BoldMT-30"/>
     <use xlink:href="#TimesNewRomanPS-BoldMT-2e" x="50"/>
     <use xlink:href="#TimesNewRomanPS-BoldMT-38" x="75"/>
     <use xlink:href="#TimesNewRomanPS-BoldMT-39" x="125"/>
     <use xlink:href="#TimesNewRomanPS-BoldMT-32" x="175"/>
     <use xlink:href="#TimesNewRomanPS-BoldMT-39" x="225"/>
    </g>
   </g>
   <g id="text_27">
    <!-- 0.8929 -->
    <g transform="translate(257.455231 90.264881) rotate(-90) scale(0.16 -0.16)">
     <use xlink:href="#TimesNewRomanPS-BoldMT-30"/>
     <use xlink:href="#TimesNewRomanPS-BoldMT-2e" x="50"/>
     <use xlink:href="#TimesNewRomanPS-BoldMT-38" x="75"/>
     <use xlink:href="#TimesNewRomanPS-BoldMT-39" x="125"/>
     <use xlink:href="#TimesNewRomanPS-BoldMT-32" x="175"/>
     <use xlink:href="#TimesNewRomanPS-BoldMT-39" x="225"/>
    </g>
   </g>
   <g id="text_28">
    <!-- 0.9286 -->
    <g transform="translate(362.616673 84.190735) rotate(-90) scale(0.16 -0.16)">
     <use xlink:href="#TimesNewRomanPS-BoldMT-30"/>
     <use xlink:href="#TimesNewRomanPS-BoldMT-2e" x="50"/>
     <use xlink:href="#TimesNewRomanPS-BoldMT-39" x="75"/>
     <use xlink:href="#TimesNewRomanPS-BoldMT-32" x="125"/>
     <use xlink:href="#TimesNewRomanPS-BoldMT-38" x="175"/>
     <use xlink:href="#TimesNewRomanPS-BoldMT-36" x="225"/>
    </g>
   </g>
   <g id="text_29">
    <!-- 0.9286 -->
    <g transform="translate(467.778115 84.190735) rotate(-90) scale(0.16 -0.16)">
     <use xlink:href="#TimesNewRomanPS-BoldMT-30"/>
     <use xlink:href="#TimesNewRomanPS-BoldMT-2e" x="50"/>
     <use xlink:href="#TimesNewRomanPS-BoldMT-39" x="75"/>
     <use xlink:href="#TimesNewRomanPS-BoldMT-32" x="125"/>
     <use xlink:href="#TimesNewRomanPS-BoldMT-38" x="175"/>
     <use xlink:href="#TimesNewRomanPS-BoldMT-36" x="225"/>
    </g>
   </g>
   <g id="text_30">
    <!-- 0.8571 -->
    <g transform="translate(572.939557 96.339027) rotate(-90) scale(0.16 -0.16)">
     <use xlink:href="#TimesNewRomanPS-BoldMT-30"/>
     <use xlink:href="#TimesNewRomanPS-BoldMT-2e" x="50"/>
     <use xlink:href="#TimesNewRomanPS-BoldMT-38" x="75"/>
     <use xlink:href="#TimesNewRomanPS-BoldMT-35" x="125"/>
     <use xlink:href="#TimesNewRomanPS-BoldMT-37" x="175"/>
     <use xlink:href="#TimesNewRomanPS-BoldMT-31" x="225"/>
    </g>
   </g>
   <g id="text_31">
    <!-- 0.6071 -->
    <g transform="translate(678.100999 138.858046) rotate(-90) scale(0.16 -0.16)">
     <use xlink:href="#TimesNewRomanPS-BoldMT-30"/>
     <use xlink:href="#TimesNewRomanPS-BoldMT-2e" x="50"/>
     <use xlink:href="#TimesNewRomanPS-BoldMT-36" x="75"/>
     <use xlink:href="#TimesNewRomanPS-BoldMT-30" x="125"/>
     <use xlink:href="#TimesNewRomanPS-BoldMT-37" x="175"/>
     <use xlink:href="#TimesNewRomanPS-BoldMT-31" x="225"/>
    </g>
   </g>
   <g id="text_32">
    <!-- 0.8772 -->
    <g transform="translate(173.326078 92.92898) rotate(-90) scale(0.16 -0.16)">
     <use xlink:href="#TimesNewRomanPS-BoldMT-30"/>
     <use xlink:href="#TimesNewRomanPS-BoldMT-2e" x="50"/>
     <use xlink:href="#TimesNewRomanPS-BoldMT-38" x="75"/>
     <use xlink:href="#TimesNewRomanPS-BoldMT-37" x="125"/>
     <use xlink:href="#TimesNewRomanPS-BoldMT-37" x="175"/>
     <use xlink:href="#TimesNewRomanPS-BoldMT-32" x="225"/>
    </g>
   </g>
   <g id="text_33">
    <!-- 0.8929 -->
    <g transform="translate(278.48752 90.264881) rotate(-90) scale(0.16 -0.16)">
     <use xlink:href="#TimesNewRomanPS-BoldMT-30"/>
     <use xlink:href="#TimesNewRomanPS-BoldMT-2e" x="50"/>
     <use xlink:href="#TimesNewRomanPS-BoldMT-38" x="75"/>
     <use xlink:href="#TimesNewRomanPS-BoldMT-39" x="125"/>
     <use xlink:href="#TimesNewRomanPS-BoldMT-32" x="175"/>
     <use xlink:href="#TimesNewRomanPS-BoldMT-39" x="225"/>
    </g>
   </g>
   <g id="text_34">
    <!-- 0.8125 -->
    <g transform="translate(383.648962 103.931709) rotate(-90) scale(0.16 -0.16)">
     <use xlink:href="#TimesNewRomanPS-BoldMT-30"/>
     <use xlink:href="#TimesNewRomanPS-BoldMT-2e" x="50"/>
     <use xlink:href="#TimesNewRomanPS-BoldMT-38" x="75"/>
     <use xlink:href="#TimesNewRomanPS-BoldMT-31" x="125"/>
     <use xlink:href="#TimesNewRomanPS-BoldMT-32" x="175"/>
     <use xlink:href="#TimesNewRomanPS-BoldMT-35" x="225"/>
    </g>
   </g>
   <g id="text_35">
    <!-- 0.9123 -->
    <g transform="translate(488.810404 86.961398) rotate(-90) scale(0.16 -0.16)">
     <use xlink:href="#TimesNewRomanPS-BoldMT-30"/>
     <use xlink:href="#TimesNewRomanPS-BoldMT-2e" x="50"/>
     <use xlink:href="#TimesNewRomanPS-BoldMT-39" x="75"/>
     <use xlink:href="#TimesNewRomanPS-BoldMT-31" x="125"/>
     <use xlink:href="#TimesNewRomanPS-BoldMT-32" x="175"/>
     <use xlink:href="#TimesNewRomanPS-BoldMT-33" x="225"/>
    </g>
   </g>
   <g id="text_36">
    <!-- 0.8889 -->
    <g transform="translate(593.971846 90.939786) rotate(-90) scale(0.16 -0.16)">
     <use xlink:href="#TimesNewRomanPS-BoldMT-30"/>
     <use xlink:href="#TimesNewRomanPS-BoldMT-2e" x="50"/>
     <use xlink:href="#TimesNewRomanPS-BoldMT-38" x="75"/>
     <use xlink:href="#TimesNewRomanPS-BoldMT-38" x="125"/>
     <use xlink:href="#TimesNewRomanPS-BoldMT-38" x="175"/>
     <use xlink:href="#TimesNewRomanPS-BoldMT-39" x="225"/>
    </g>
   </g>
   <g id="text_37">
    <!-- 0.6667 -->
    <g transform="translate(699.133288 128.73447) rotate(-90) scale(0.16 -0.16)">
     <use xlink:href="#TimesNewRomanPS-BoldMT-30"/>
     <use xlink:href="#TimesNewRomanPS-BoldMT-2e" x="50"/>
     <use xlink:href="#TimesNewRomanPS-BoldMT-36" x="75"/>
     <use xlink:href="#TimesNewRomanPS-BoldMT-36" x="125"/>
     <use xlink:href="#TimesNewRomanPS-BoldMT-36" x="175"/>
     <use xlink:href="#TimesNewRomanPS-BoldMT-37" x="225"/>
    </g>
   </g>
   <g id="text_38">
    <!-- Comparison of Metrics Across Feature Combinations -->
    <g transform="translate(196.181875 32.00625) scale(0.18 -0.18)">
     <defs>
      <path id="TimesNewRomanPS-BoldMT-70" d="M 1347 297 
L 1347 -791 
Q 1347 -1016 1383 -1097 
Q 1419 -1178 1494 -1215 
Q 1569 -1253 1788 -1253 
L 1788 -1369 
L 122 -1369 
L 122 -1253 
Q 316 -1247 409 -1144 
Q 472 -1072 472 -772 
L 472 2313 
Q 472 2622 400 2708 
Q 328 2794 122 2806 
L 122 2922 
L 1347 2922 
L 1347 2538 
Q 1500 2763 1659 2863 
Q 1888 3009 2156 3009 
Q 2478 3009 2742 2806 
Q 3006 2603 3143 2245 
Q 3281 1888 3281 1475 
Q 3281 1031 3139 664 
Q 2997 297 2726 104 
Q 2456 -88 2125 -88 
Q 1884 -88 1675 19 
Q 1519 100 1347 297 
z
M 1347 613 
Q 1616 231 1922 231 
Q 2091 231 2200 409 
Q 2363 672 2363 1409 
Q 2363 2166 2184 2444 
Q 2066 2628 1866 2628 
Q 1550 2628 1347 2172 
L 1347 613 
z
" transform="scale(0.015625)"/>
      <path id="TimesNewRomanPS-BoldMT-73" d="M 2063 3003 
L 2109 2006 
L 2003 2006 
Q 1813 2450 1608 2612 
Q 1403 2775 1200 2775 
Q 1072 2775 981 2689 
Q 891 2603 891 2491 
Q 891 2406 953 2328 
Q 1053 2200 1512 1889 
Q 1972 1578 2117 1361 
Q 2263 1144 2263 875 
Q 2263 631 2141 397 
Q 2019 163 1797 37 
Q 1575 -88 1306 -88 
Q 1097 -88 747 44 
Q 653 78 619 78 
Q 516 78 447 -78 
L 344 -78 
L 294 972 
L 400 972 
Q 541 559 786 353 
Q 1031 147 1250 147 
Q 1400 147 1495 239 
Q 1591 331 1591 463 
Q 1591 613 1497 722 
Q 1403 831 1078 1053 
Q 600 1384 459 1559 
Q 253 1816 253 2125 
Q 253 2463 486 2736 
Q 719 3009 1159 3009 
Q 1397 3009 1619 2894 
Q 1703 2847 1756 2847 
Q 1813 2847 1847 2870 
Q 1881 2894 1956 3003 
L 2063 3003 
z
" transform="scale(0.015625)"/>
      <path id="TimesNewRomanPS-BoldMT-66" d="M 1497 2616 
L 1497 588 
Q 1497 294 1559 219 
Q 1659 103 1928 113 
L 1928 0 
L 206 0 
L 206 113 
Q 403 116 486 158 
Q 569 200 600 275 
Q 631 350 631 588 
L 631 2616 
L 206 2616 
L 206 2922 
L 631 2922 
L 631 3138 
L 628 3284 
Q 628 3734 958 4034 
Q 1288 4334 1850 4334 
Q 2234 4334 2420 4190 
Q 2606 4047 2606 3872 
Q 2606 3731 2490 3628 
Q 2375 3525 2184 3525 
Q 2022 3525 1926 3609 
Q 1831 3694 1831 3797 
Q 1831 3825 1850 3913 
Q 1863 3966 1863 4013 
Q 1863 4078 1825 4109 
Q 1775 4156 1703 4156 
Q 1613 4156 1552 4081 
Q 1491 4006 1491 3841 
L 1497 3294 
L 1497 2922 
L 1928 2922 
L 1928 2616 
L 1497 2616 
z
" transform="scale(0.015625)"/>
      <path id="TimesNewRomanPS-BoldMT-41" d="M 2663 1206 
L 1166 1206 
L 988 794 
Q 900 588 900 453 
Q 900 275 1044 191 
Q 1128 141 1459 116 
L 1459 0 
L 50 0 
L 50 116 
Q 278 150 425 304 
Q 572 459 788 944 
L 2303 4325 
L 2363 4325 
L 3891 850 
Q 4109 356 4250 228 
Q 4356 131 4550 116 
L 4550 0 
L 2500 0 
L 2500 116 
L 2584 116 
Q 2831 116 2931 184 
Q 3000 234 3000 328 
Q 3000 384 2981 444 
Q 2975 472 2888 678 
L 2663 1206 
z
M 2556 1438 
L 1925 2897 
L 1275 1438 
L 2556 1438 
z
" transform="scale(0.015625)"/>
     </defs>
     <use xlink:href="#TimesNewRomanPS-BoldMT-43"/>
     <use xlink:href="#TimesNewRomanPS-BoldMT-6f" x="72.216797"/>
     <use xlink:href="#TimesNewRomanPS-BoldMT-6d" x="122.216797"/>
     <use xlink:href="#TimesNewRomanPS-BoldMT-70" x="205.517578"/>
     <use xlink:href="#TimesNewRomanPS-BoldMT-61" x="261.132812"/>
     <use xlink:href="#TimesNewRomanPS-BoldMT-72" x="311.132812"/>
     <use xlink:href="#TimesNewRomanPS-BoldMT-69" x="355.517578"/>
     <use xlink:href="#TimesNewRomanPS-BoldMT-73" x="383.300781"/>
     <use xlink:href="#TimesNewRomanPS-BoldMT-6f" x="422.216797"/>
     <use xlink:href="#TimesNewRomanPS-BoldMT-6e" x="472.216797"/>
     <use xlink:href="#TimesNewRomanPS-BoldMT-20" x="527.832031"/>
     <use xlink:href="#TimesNewRomanPS-BoldMT-6f" x="552.832031"/>
     <use xlink:href="#TimesNewRomanPS-BoldMT-66" x="602.832031"/>
     <use xlink:href="#TimesNewRomanPS-BoldMT-20" x="636.132812"/>
     <use xlink:href="#TimesNewRomanPS-BoldMT-4d" x="661.132812"/>
     <use xlink:href="#TimesNewRomanPS-BoldMT-65" x="755.517578"/>
     <use xlink:href="#TimesNewRomanPS-BoldMT-74" x="799.902344"/>
     <use xlink:href="#TimesNewRomanPS-BoldMT-72" x="833.203125"/>
     <use xlink:href="#TimesNewRomanPS-BoldMT-69" x="877.587891"/>
     <use xlink:href="#TimesNewRomanPS-BoldMT-63" x="905.371094"/>
     <use xlink:href="#TimesNewRomanPS-BoldMT-73" x="949.755859"/>
     <use xlink:href="#TimesNewRomanPS-BoldMT-20" x="988.671875"/>
     <use xlink:href="#TimesNewRomanPS-BoldMT-41" x="1008.171875"/>
     <use xlink:href="#TimesNewRomanPS-BoldMT-63" x="1080.388672"/>
     <use xlink:href="#TimesNewRomanPS-BoldMT-72" x="1124.773438"/>
     <use xlink:href="#TimesNewRomanPS-BoldMT-6f" x="1167.408203"/>
     <use xlink:href="#TimesNewRomanPS-BoldMT-73" x="1217.408203"/>
     <use xlink:href="#TimesNewRomanPS-BoldMT-73" x="1256.324219"/>
     <use xlink:href="#TimesNewRomanPS-BoldMT-20" x="1295.240234"/>
     <use xlink:href="#TimesNewRomanPS-BoldMT-46" x="1320.240234"/>
     <use xlink:href="#TimesNewRomanPS-BoldMT-65" x="1381.324219"/>
     <use xlink:href="#TimesNewRomanPS-BoldMT-61" x="1425.708984"/>
     <use xlink:href="#TimesNewRomanPS-BoldMT-74" x="1475.708984"/>
     <use xlink:href="#TimesNewRomanPS-BoldMT-75" x="1509.009766"/>
     <use xlink:href="#TimesNewRomanPS-BoldMT-72" x="1564.625"/>
     <use xlink:href="#TimesNewRomanPS-BoldMT-65" x="1607.259766"/>
     <use xlink:href="#TimesNewRomanPS-BoldMT-20" x="1651.644531"/>
     <use xlink:href="#TimesNewRomanPS-BoldMT-43" x="1676.644531"/>
     <use xlink:href="#TimesNewRomanPS-BoldMT-6f" x="1748.861328"/>
     <use xlink:href="#TimesNewRomanPS-BoldMT-6d" x="1798.861328"/>
     <use xlink:href="#TimesNewRomanPS-BoldMT-62" x="1882.162109"/>
     <use xlink:href="#TimesNewRomanPS-BoldMT-69" x="1937.777344"/>
     <use xlink:href="#TimesNewRomanPS-BoldMT-6e" x="1965.560547"/>
     <use xlink:href="#TimesNewRomanPS-BoldMT-61" x="2021.175781"/>
     <use xlink:href="#TimesNewRomanPS-BoldMT-74" x="2071.175781"/>
     <use xlink:href="#TimesNewRomanPS-BoldMT-69" x="2104.476562"/>
     <use xlink:href="#TimesNewRomanPS-BoldMT-6f" x="2132.259766"/>
     <use xlink:href="#TimesNewRomanPS-BoldMT-6e" x="2182.259766"/>
     <use xlink:href="#TimesNewRomanPS-BoldMT-73" x="2237.875"/>
    </g>
   </g>
   <g id="legend_1">
    <g id="patch_31">
     <path d="M 609.2975 234.097544 
L 725.36 234.097544 
Q 728.56 234.097544 728.56 230.897544 
L 728.56 141.977544 
Q 728.56 138.777544 725.36 138.777544 
L 609.2975 138.777544 
Q 606.0975 138.777544 606.0975 141.977544 
L 606.0975 230.897544 
Q 606.0975 234.097544 609.2975 234.097544 
z
" style="fill: #ffffff; opacity: 0.8; stroke: #cccccc; stroke-linejoin: miter"/>
    </g>
    <g id="patch_32">
     <path d="M 612.4975 156.377544 
L 644.4975 156.377544 
L 644.4975 145.177544 
L 612.4975 145.177544 
z
" style="fill: #0173b2"/>
    </g>
    <g id="text_39">
     <!-- Accuracy -->
     <g transform="translate(657.2975 156.377544) scale(0.16 -0.16)">
      <defs>
       <path id="TimesNewRomanPS-BoldMT-79" d="M 1556 -119 
L 613 2047 
Q 400 2538 298 2650 
Q 197 2763 53 2806 
L 53 2922 
L 1606 2922 
L 1606 2806 
Q 1453 2800 1390 2747 
Q 1328 2694 1328 2619 
Q 1328 2500 1484 2150 
L 1984 1006 
L 2325 1891 
Q 2509 2363 2509 2547 
Q 2509 2663 2432 2731 
Q 2356 2800 2163 2806 
L 2163 2922 
L 3141 2922 
L 3141 2806 
Q 2997 2791 2906 2695 
Q 2816 2600 2603 2047 
L 1769 -119 
Q 1453 -931 1300 -1119 
Q 1084 -1381 759 -1381 
Q 500 -1381 339 -1232 
Q 178 -1084 178 -875 
Q 178 -694 289 -575 
Q 400 -456 563 -456 
Q 719 -456 814 -556 
Q 909 -656 913 -866 
Q 916 -984 941 -1019 
Q 966 -1053 1013 -1053 
Q 1088 -1053 1172 -963 
Q 1297 -831 1466 -363 
L 1556 -119 
z
" transform="scale(0.015625)"/>
      </defs>
      <use xlink:href="#TimesNewRomanPS-BoldMT-41"/>
      <use xlink:href="#TimesNewRomanPS-BoldMT-63" x="72.216797"/>
      <use xlink:href="#TimesNewRomanPS-BoldMT-63" x="116.601562"/>
      <use xlink:href="#TimesNewRomanPS-BoldMT-75" x="160.986328"/>
      <use xlink:href="#TimesNewRomanPS-BoldMT-72" x="216.601562"/>
      <use xlink:href="#TimesNewRomanPS-BoldMT-61" x="260.986328"/>
      <use xlink:href="#TimesNewRomanPS-BoldMT-63" x="310.986328"/>
      <use xlink:href="#TimesNewRomanPS-BoldMT-79" x="355.371094"/>
     </g>
    </g>
    <g id="patch_33">
     <path d="M 612.4975 179.030044 
L 644.4975 179.030044 
L 644.4975 167.830044 
L 612.4975 167.830044 
z
" style="fill: #de8f05"/>
    </g>
    <g id="text_40">
     <!-- Precision -->
     <g transform="translate(657.2975 179.030044) scale(0.16 -0.16)">
      <defs>
       <path id="TimesNewRomanPS-BoldMT-50" d="M 1728 1919 
L 1728 744 
Q 1728 400 1770 311 
Q 1813 222 1920 169 
Q 2028 116 2316 116 
L 2316 0 
L 163 0 
L 163 116 
Q 456 116 561 170 
Q 666 225 708 312 
Q 750 400 750 744 
L 750 3494 
Q 750 3838 708 3927 
Q 666 4016 559 4069 
Q 453 4122 163 4122 
L 163 4238 
L 2009 4238 
Q 2922 4238 3319 3913 
Q 3716 3588 3716 3100 
Q 3716 2688 3459 2394 
Q 3203 2100 2753 1994 
Q 2450 1919 1728 1919 
z
M 1728 3994 
L 1728 2163 
Q 1831 2156 1884 2156 
Q 2266 2156 2472 2382 
Q 2678 2609 2678 3084 
Q 2678 3556 2472 3775 
Q 2266 3994 1856 3994 
L 1728 3994 
z
" transform="scale(0.015625)"/>
      </defs>
      <use xlink:href="#TimesNewRomanPS-BoldMT-50"/>
      <use xlink:href="#TimesNewRomanPS-BoldMT-72" x="61.083984"/>
      <use xlink:href="#TimesNewRomanPS-BoldMT-65" x="103.71875"/>
      <use xlink:href="#TimesNewRomanPS-BoldMT-63" x="148.103516"/>
      <use xlink:href="#TimesNewRomanPS-BoldMT-69" x="192.488281"/>
      <use xlink:href="#TimesNewRomanPS-BoldMT-73" x="220.271484"/>
      <use xlink:href="#TimesNewRomanPS-BoldMT-69" x="259.1875"/>
      <use xlink:href="#TimesNewRomanPS-BoldMT-6f" x="286.970703"/>
      <use xlink:href="#TimesNewRomanPS-BoldMT-6e" x="336.970703"/>
     </g>
    </g>
    <g id="patch_34">
     <path d="M 612.4975 201.652544 
L 644.4975 201.652544 
L 644.4975 190.452544 
L 612.4975 190.452544 
z
" style="fill: #029e73"/>
    </g>
    <g id="text_41">
     <!-- Recall -->
     <g transform="translate(657.2975 201.652544) scale(0.16 -0.16)">
      <defs>
       <path id="TimesNewRomanPS-BoldMT-52" d="M 1700 1931 
L 1700 744 
Q 1700 400 1742 311 
Q 1784 222 1890 169 
Q 1997 116 2288 116 
L 2288 0 
L 119 0 
L 119 116 
Q 413 116 517 170 
Q 622 225 664 312 
Q 706 400 706 744 
L 706 3494 
Q 706 3838 664 3927 
Q 622 4016 515 4069 
Q 409 4122 119 4122 
L 119 4238 
L 2088 4238 
Q 2856 4238 3212 4131 
Q 3569 4025 3794 3739 
Q 4019 3453 4019 3069 
Q 4019 2600 3681 2294 
Q 3466 2100 3078 2003 
L 4097 569 
Q 4297 291 4381 222 
Q 4509 125 4678 116 
L 4678 0 
L 3344 0 
L 1978 1931 
L 1700 1931 
z
M 1700 4009 
L 1700 2153 
L 1878 2153 
Q 2313 2153 2528 2233 
Q 2744 2313 2867 2520 
Q 2991 2728 2991 3063 
Q 2991 3547 2764 3778 
Q 2538 4009 2034 4009 
L 1700 4009 
z
" transform="scale(0.015625)"/>
       <path id="TimesNewRomanPS-BoldMT-6c" d="M 1359 4238 
L 1359 606 
Q 1359 297 1431 211 
Q 1503 125 1713 113 
L 1713 0 
L 134 0 
L 134 113 
Q 328 119 422 225 
Q 484 297 484 606 
L 484 3631 
Q 484 3938 412 4023 
Q 341 4109 134 4122 
L 134 4238 
L 1359 4238 
z
" transform="scale(0.015625)"/>
      </defs>
      <use xlink:href="#TimesNewRomanPS-BoldMT-52"/>
      <use xlink:href="#TimesNewRomanPS-BoldMT-65" x="72.216797"/>
      <use xlink:href="#TimesNewRomanPS-BoldMT-63" x="116.601562"/>
      <use xlink:href="#TimesNewRomanPS-BoldMT-61" x="160.986328"/>
      <use xlink:href="#TimesNewRomanPS-BoldMT-6c" x="210.986328"/>
      <use xlink:href="#TimesNewRomanPS-BoldMT-6c" x="238.769531"/>
     </g>
    </g>
    <g id="patch_35">
     <path d="M 612.4975 224.275044 
L 644.4975 224.275044 
L 644.4975 213.075044 
L 612.4975 213.075044 
z
" style="fill: #d55e00"/>
    </g>
    <g id="text_42">
     <!-- F1-Score -->
     <g transform="translate(657.2975 224.275044) scale(0.16 -0.16)">
      <defs>
       <path id="TimesNewRomanPS-BoldMT-2d" d="M 1978 1147 
L 156 1147 
L 156 1794 
L 1978 1794 
L 1978 1147 
z
" transform="scale(0.015625)"/>
      </defs>
      <use xlink:href="#TimesNewRomanPS-BoldMT-46"/>
      <use xlink:href="#TimesNewRomanPS-BoldMT-31" x="61.083984"/>
      <use xlink:href="#TimesNewRomanPS-BoldMT-2d" x="111.083984"/>
      <use xlink:href="#TimesNewRomanPS-BoldMT-53" x="144.384766"/>
      <use xlink:href="#TimesNewRomanPS-BoldMT-63" x="200"/>
      <use xlink:href="#TimesNewRomanPS-BoldMT-6f" x="244.384766"/>
      <use xlink:href="#TimesNewRomanPS-BoldMT-72" x="294.384766"/>
      <use xlink:href="#TimesNewRomanPS-BoldMT-65" x="337.019531"/>
     </g>
    </g>
   </g>
  </g>
 </g>
 <defs>
  <clipPath id="p7d818812de">
   <rect x="65.63" y="38.00625" width="670.93" height="204.091294"/>
  </clipPath>
 </defs>
</svg>
