<?xml version="1.0" encoding="utf-8" standalone="no"?>
<!DOCTYPE svg PUBLIC "-//W3C//DTD SVG 1.1//EN"
  "http://www.w3.org/Graphics/SVG/1.1/DTD/svg11.dtd">
<svg xmlns:xlink="http://www.w3.org/1999/xlink" width="504pt" height="216pt" viewBox="0 0 504 216" xmlns="http://www.w3.org/2000/svg" version="1.1">
 <metadata>
  <rdf:RDF xmlns:dc="http://purl.org/dc/elements/1.1/" xmlns:cc="http://creativecommons.org/ns#" xmlns:rdf="http://www.w3.org/1999/02/22-rdf-syntax-ns#">
   <cc:Work>
    <dc:type rdf:resource="http://purl.org/dc/dcmitype/StillImage"/>
    <dc:date>2025-01-26T15:43:38.947600</dc:date>
    <dc:format>image/svg+xml</dc:format>
    <dc:creator>
     <cc:Agent>
      <dc:title>Matplotlib v3.8.4, https://matplotlib.org/</dc:title>
     </cc:Agent>
    </dc:creator>
   </cc:Work>
  </rdf:RDF>
 </metadata>
 <defs>
  <style type="text/css">*{stroke-linejoin: round; stroke-linecap: butt}</style>
 </defs>
 <g id="figure_1">
  <g id="patch_1">
   <path d="M 0 216 
L 504 216 
L 504 0 
L 0 0 
z
" style="fill: #ffffff"/>
  </g>
  <g id="axes_1">
   <g id="patch_2">
    <path d="M 63 192.24 
L 453.6 192.24 
L 453.6 25.92 
L 63 25.92 
z
" style="fill: #ffffff"/>
   </g>
   <g id="matplotlib.axis_1">
    <g id="xtick_1">
     <g id="line2d_1">
      <defs>
       <path id="ma3ec473c0a" d="M 0 0 
L 0 3.5 
" style="stroke: #000000; stroke-width: 0.8"/>
      </defs>
      <g>
       <use xlink:href="#ma3ec473c0a" x="80.754545" y="192.24" style="stroke: #000000; stroke-width: 0.8"/>
      </g>
     </g>
     <g id="text_1">
      <!-- 0.0 -->
      <g transform="translate(73.254545 207.18625) scale(0.12 -0.12)">
       <defs>
        <path id="TimesNewRomanPS-BoldMT-30" d="M 2966 2119 
Q 2966 1484 2788 934 
Q 2681 597 2501 381 
Q 2322 166 2094 39 
Q 1866 -88 1597 -88 
Q 1291 -88 1044 68 
Q 797 225 606 516 
Q 469 728 366 1081 
Q 231 1559 231 2069 
Q 231 2759 425 3338 
Q 584 3816 909 4070 
Q 1234 4325 1597 4325 
Q 1966 4325 2286 4073 
Q 2606 3822 2756 3397 
Q 2966 2813 2966 2119 
z
M 2003 2125 
Q 2003 3238 1991 3422 
Q 1959 3856 1841 4009 
Q 1763 4109 1588 4109 
Q 1453 4109 1375 4034 
Q 1259 3925 1218 3648 
Q 1178 3372 1178 1719 
Q 1178 819 1241 513 
Q 1288 291 1375 216 
Q 1463 141 1606 141 
Q 1763 141 1841 241 
Q 1972 416 1991 781 
L 2003 2125 
z
" transform="scale(0.015625)"/>
        <path id="TimesNewRomanPS-BoldMT-2e" d="M 800 963 
Q 1019 963 1170 809 
Q 1322 656 1322 441 
Q 1322 225 1169 73 
Q 1016 -78 800 -78 
Q 584 -78 432 73 
Q 281 225 281 441 
Q 281 656 432 809 
Q 584 963 800 963 
z
" transform="scale(0.015625)"/>
       </defs>
       <use xlink:href="#TimesNewRomanPS-BoldMT-30"/>
       <use xlink:href="#TimesNewRomanPS-BoldMT-2e" x="50"/>
       <use xlink:href="#TimesNewRomanPS-BoldMT-30" x="75"/>
      </g>
     </g>
    </g>
    <g id="xtick_2">
     <g id="line2d_2">
      <g>
       <use xlink:href="#ma3ec473c0a" x="151.772727" y="192.24" style="stroke: #000000; stroke-width: 0.8"/>
      </g>
     </g>
     <g id="text_2">
      <!-- 0.2 -->
      <g transform="translate(144.272727 207.18625) scale(0.12 -0.12)">
       <defs>
        <path id="TimesNewRomanPS-BoldMT-32" d="M 2650 0 
L 156 0 
L 156 69 
Q 1303 1434 1548 1906 
Q 1794 2378 1794 2828 
Q 1794 3156 1591 3373 
Q 1388 3591 1094 3591 
Q 613 3591 347 3109 
L 231 3150 
Q 400 3750 744 4037 
Q 1088 4325 1538 4325 
Q 1859 4325 2125 4175 
Q 2391 4025 2541 3764 
Q 2691 3503 2691 3275 
Q 2691 2859 2459 2431 
Q 2144 1853 1081 819 
L 1997 819 
Q 2334 819 2436 847 
Q 2538 875 2603 942 
Q 2669 1009 2775 1225 
L 2888 1225 
L 2650 0 
z
" transform="scale(0.015625)"/>
       </defs>
       <use xlink:href="#TimesNewRomanPS-BoldMT-30"/>
       <use xlink:href="#TimesNewRomanPS-BoldMT-2e" x="50"/>
       <use xlink:href="#TimesNewRomanPS-BoldMT-32" x="75"/>
      </g>
     </g>
    </g>
    <g id="xtick_3">
     <g id="line2d_3">
      <g>
       <use xlink:href="#ma3ec473c0a" x="222.790909" y="192.24" style="stroke: #000000; stroke-width: 0.8"/>
      </g>
     </g>
     <g id="text_3">
      <!-- 0.4 -->
      <g transform="translate(215.290909 207.18625) scale(0.12 -0.12)">
       <defs>
        <path id="TimesNewRomanPS-BoldMT-34" d="M 159 1597 
L 2172 4325 
L 2553 4325 
L 2553 1597 
L 2941 1597 
L 2941 950 
L 2553 950 
L 2553 0 
L 1694 0 
L 1694 950 
L 159 950 
L 159 1597 
z
M 463 1597 
L 1694 1597 
L 1694 3269 
L 463 1597 
z
" transform="scale(0.015625)"/>
       </defs>
       <use xlink:href="#TimesNewRomanPS-BoldMT-30"/>
       <use xlink:href="#TimesNewRomanPS-BoldMT-2e" x="50"/>
       <use xlink:href="#TimesNewRomanPS-BoldMT-34" x="75"/>
      </g>
     </g>
    </g>
    <g id="xtick_4">
     <g id="line2d_4">
      <g>
       <use xlink:href="#ma3ec473c0a" x="293.809091" y="192.24" style="stroke: #000000; stroke-width: 0.8"/>
      </g>
     </g>
     <g id="text_4">
      <!-- 0.6 -->
      <g transform="translate(286.309091 207.18625) scale(0.12 -0.12)">
       <defs>
        <path id="TimesNewRomanPS-BoldMT-36" d="M 3006 4325 
L 3006 4238 
Q 2441 4094 2098 3867 
Q 1756 3641 1557 3317 
Q 1359 2994 1250 2516 
Q 1388 2609 1478 2638 
Q 1681 2700 1888 2700 
Q 2363 2700 2680 2354 
Q 2997 2009 2997 1413 
Q 2997 994 2825 644 
Q 2653 294 2337 103 
Q 2022 -88 1663 -88 
Q 1272 -88 940 126 
Q 609 341 423 753 
Q 238 1166 238 1650 
Q 238 2363 580 2977 
Q 922 3591 1551 3955 
Q 2181 4319 3006 4325 
z
M 1209 2263 
Q 1184 1831 1184 1631 
Q 1184 1200 1267 797 
Q 1350 394 1494 231 
Q 1597 116 1738 116 
Q 1881 116 1993 283 
Q 2106 450 2106 963 
Q 2106 1825 1897 2153 
Q 1763 2366 1534 2366 
Q 1409 2366 1209 2263 
z
" transform="scale(0.015625)"/>
       </defs>
       <use xlink:href="#TimesNewRomanPS-BoldMT-30"/>
       <use xlink:href="#TimesNewRomanPS-BoldMT-2e" x="50"/>
       <use xlink:href="#TimesNewRomanPS-BoldMT-36" x="75"/>
      </g>
     </g>
    </g>
    <g id="xtick_5">
     <g id="line2d_5">
      <g>
       <use xlink:href="#ma3ec473c0a" x="364.827273" y="192.24" style="stroke: #000000; stroke-width: 0.8"/>
      </g>
     </g>
     <g id="text_5">
      <!-- 0.8 -->
      <g transform="translate(357.327273 207.18625) scale(0.12 -0.12)">
       <defs>
        <path id="TimesNewRomanPS-BoldMT-38" d="M 2181 2394 
Q 2628 2066 2801 1783 
Q 2975 1500 2975 1134 
Q 2975 622 2589 267 
Q 2203 -88 1541 -88 
Q 913 -88 569 221 
Q 225 531 225 978 
Q 225 1319 423 1575 
Q 622 1831 1084 2044 
Q 581 2428 439 2672 
Q 297 2916 297 3238 
Q 297 3663 658 3986 
Q 1019 4309 1647 4309 
Q 2253 4309 2579 4023 
Q 2906 3738 2906 3338 
Q 2906 3038 2729 2808 
Q 2553 2578 2181 2394 
z
M 1944 2553 
Q 2059 2709 2115 2903 
Q 2172 3097 2172 3328 
Q 2172 3734 1997 3950 
Q 1866 4116 1634 4116 
Q 1425 4116 1278 3964 
Q 1131 3813 1131 3588 
Q 1131 3359 1295 3114 
Q 1459 2869 1944 2553 
z
M 1319 1894 
Q 1222 1806 1181 1734 
Q 1119 1625 1069 1415 
Q 1019 1206 1019 978 
Q 1019 684 1094 486 
Q 1169 288 1308 200 
Q 1447 113 1594 113 
Q 1822 113 1978 280 
Q 2134 447 2134 738 
Q 2134 1344 1319 1894 
z
" transform="scale(0.015625)"/>
       </defs>
       <use xlink:href="#TimesNewRomanPS-BoldMT-30"/>
       <use xlink:href="#TimesNewRomanPS-BoldMT-2e" x="50"/>
       <use xlink:href="#TimesNewRomanPS-BoldMT-38" x="75"/>
      </g>
     </g>
    </g>
    <g id="xtick_6">
     <g id="line2d_6">
      <g>
       <use xlink:href="#ma3ec473c0a" x="435.845455" y="192.24" style="stroke: #000000; stroke-width: 0.8"/>
      </g>
     </g>
     <g id="text_6">
      <!-- 1.0 -->
      <g transform="translate(428.345455 207.18625) scale(0.12 -0.12)">
       <defs>
        <path id="TimesNewRomanPS-BoldMT-31" d="M 2084 4325 
L 2084 859 
Q 2084 469 2118 361 
Q 2153 253 2262 184 
Q 2372 116 2613 116 
L 2709 116 
L 2709 0 
L 478 0 
L 478 116 
L 591 116 
Q 863 116 978 178 
Q 1094 241 1134 350 
Q 1175 459 1175 859 
L 1175 3056 
Q 1175 3350 1147 3423 
Q 1119 3497 1042 3548 
Q 966 3600 866 3600 
Q 706 3600 478 3500 
L 422 3613 
L 1981 4325 
L 2084 4325 
z
" transform="scale(0.015625)"/>
       </defs>
       <use xlink:href="#TimesNewRomanPS-BoldMT-31"/>
       <use xlink:href="#TimesNewRomanPS-BoldMT-2e" x="50"/>
       <use xlink:href="#TimesNewRomanPS-BoldMT-30" x="75"/>
      </g>
     </g>
    </g>
    <g id="text_7">
     <!-- Recall -->
     <g transform="translate(239.640625 223.02375) scale(0.14 -0.14)">
      <defs>
       <path id="TimesNewRomanPS-BoldMT-52" d="M 1700 1931 
L 1700 744 
Q 1700 400 1742 311 
Q 1784 222 1890 169 
Q 1997 116 2288 116 
L 2288 0 
L 119 0 
L 119 116 
Q 413 116 517 170 
Q 622 225 664 312 
Q 706 400 706 744 
L 706 3494 
Q 706 3838 664 3927 
Q 622 4016 515 4069 
Q 409 4122 119 4122 
L 119 4238 
L 2088 4238 
Q 2856 4238 3212 4131 
Q 3569 4025 3794 3739 
Q 4019 3453 4019 3069 
Q 4019 2600 3681 2294 
Q 3466 2100 3078 2003 
L 4097 569 
Q 4297 291 4381 222 
Q 4509 125 4678 116 
L 4678 0 
L 3344 0 
L 1978 1931 
L 1700 1931 
z
M 1700 4009 
L 1700 2153 
L 1878 2153 
Q 2313 2153 2528 2233 
Q 2744 2313 2867 2520 
Q 2991 2728 2991 3063 
Q 2991 3547 2764 3778 
Q 2538 4009 2034 4009 
L 1700 4009 
z
" transform="scale(0.015625)"/>
       <path id="TimesNewRomanPS-BoldMT-65" d="M 2691 1566 
L 1088 1566 
Q 1116 984 1397 647 
Q 1613 388 1916 388 
Q 2103 388 2256 492 
Q 2409 597 2584 869 
L 2691 800 
Q 2453 316 2165 114 
Q 1878 -88 1500 -88 
Q 850 -88 516 413 
Q 247 816 247 1413 
Q 247 2144 642 2576 
Q 1038 3009 1569 3009 
Q 2013 3009 2339 2645 
Q 2666 2281 2691 1566 
z
M 1922 1775 
Q 1922 2278 1867 2465 
Q 1813 2653 1697 2750 
Q 1631 2806 1522 2806 
Q 1359 2806 1256 2647 
Q 1072 2369 1072 1884 
L 1072 1775 
L 1922 1775 
z
" transform="scale(0.015625)"/>
       <path id="TimesNewRomanPS-BoldMT-63" d="M 2600 753 
L 2697 678 
Q 2491 291 2183 101 
Q 1875 -88 1528 -88 
Q 944 -88 594 353 
Q 244 794 244 1413 
Q 244 2009 563 2463 
Q 947 3009 1622 3009 
Q 2075 3009 2342 2781 
Q 2609 2553 2609 2272 
Q 2609 2094 2501 1987 
Q 2394 1881 2219 1881 
Q 2034 1881 1914 2003 
Q 1794 2125 1766 2438 
Q 1747 2634 1675 2713 
Q 1603 2791 1506 2791 
Q 1356 2791 1250 2631 
Q 1088 2391 1088 1894 
Q 1088 1481 1219 1104 
Q 1350 728 1578 544 
Q 1750 409 1984 409 
Q 2138 409 2275 481 
Q 2413 553 2600 753 
z
" transform="scale(0.015625)"/>
       <path id="TimesNewRomanPS-BoldMT-61" d="M 1828 431 
Q 1294 -41 869 -41 
Q 619 -41 453 123 
Q 288 288 288 534 
Q 288 869 575 1136 
Q 863 1403 1828 1847 
L 1828 2141 
Q 1828 2472 1792 2558 
Q 1756 2644 1656 2708 
Q 1556 2772 1431 2772 
Q 1228 2772 1097 2681 
Q 1016 2625 1016 2550 
Q 1016 2484 1103 2388 
Q 1222 2253 1222 2128 
Q 1222 1975 1108 1867 
Q 994 1759 809 1759 
Q 613 1759 480 1878 
Q 347 1997 347 2156 
Q 347 2381 525 2586 
Q 703 2791 1022 2900 
Q 1341 3009 1684 3009 
Q 2100 3009 2342 2832 
Q 2584 2656 2656 2450 
Q 2700 2319 2700 1847 
L 2700 713 
Q 2700 513 2715 461 
Q 2731 409 2762 384 
Q 2794 359 2834 359 
Q 2916 359 3000 475 
L 3094 400 
Q 2938 169 2770 64 
Q 2603 -41 2391 -41 
Q 2141 -41 2000 76 
Q 1859 194 1828 431 
z
M 1828 659 
L 1828 1638 
Q 1450 1416 1266 1163 
Q 1144 994 1144 822 
Q 1144 678 1247 569 
Q 1325 484 1466 484 
Q 1622 484 1828 659 
z
" transform="scale(0.015625)"/>
       <path id="TimesNewRomanPS-BoldMT-6c" d="M 1359 4238 
L 1359 606 
Q 1359 297 1431 211 
Q 1503 125 1713 113 
L 1713 0 
L 134 0 
L 134 113 
Q 328 119 422 225 
Q 484 297 484 606 
L 484 3631 
Q 484 3938 412 4023 
Q 341 4109 134 4122 
L 134 4238 
L 1359 4238 
z
" transform="scale(0.015625)"/>
      </defs>
      <use xlink:href="#TimesNewRomanPS-BoldMT-52"/>
      <use xlink:href="#TimesNewRomanPS-BoldMT-65" x="72.216797"/>
      <use xlink:href="#TimesNewRomanPS-BoldMT-63" x="116.601562"/>
      <use xlink:href="#TimesNewRomanPS-BoldMT-61" x="160.986328"/>
      <use xlink:href="#TimesNewRomanPS-BoldMT-6c" x="210.986328"/>
      <use xlink:href="#TimesNewRomanPS-BoldMT-6c" x="238.769531"/>
     </g>
    </g>
   </g>
   <g id="matplotlib.axis_2">
    <g id="ytick_1">
     <g id="line2d_7">
      <defs>
       <path id="mfc886cdf3b" d="M 0 0 
L -3.5 0 
" style="stroke: #000000; stroke-width: 0.8"/>
      </defs>
      <g>
       <use xlink:href="#mfc886cdf3b" x="63" y="184.68" style="stroke: #000000; stroke-width: 0.8"/>
      </g>
     </g>
     <g id="text_8">
      <!-- 0.0 -->
      <g transform="translate(41 188.653125) scale(0.12 -0.12)">
       <use xlink:href="#TimesNewRomanPS-BoldMT-30"/>
       <use xlink:href="#TimesNewRomanPS-BoldMT-2e" x="50"/>
       <use xlink:href="#TimesNewRomanPS-BoldMT-30" x="75"/>
      </g>
     </g>
    </g>
    <g id="ytick_2">
     <g id="line2d_8">
      <g>
       <use xlink:href="#mfc886cdf3b" x="63" y="154.44" style="stroke: #000000; stroke-width: 0.8"/>
      </g>
     </g>
     <g id="text_9">
      <!-- 0.2 -->
      <g transform="translate(41 158.413125) scale(0.12 -0.12)">
       <use xlink:href="#TimesNewRomanPS-BoldMT-30"/>
       <use xlink:href="#TimesNewRomanPS-BoldMT-2e" x="50"/>
       <use xlink:href="#TimesNewRomanPS-BoldMT-32" x="75"/>
      </g>
     </g>
    </g>
    <g id="ytick_3">
     <g id="line2d_9">
      <g>
       <use xlink:href="#mfc886cdf3b" x="63" y="124.2" style="stroke: #000000; stroke-width: 0.8"/>
      </g>
     </g>
     <g id="text_10">
      <!-- 0.4 -->
      <g transform="translate(41 128.173125) scale(0.12 -0.12)">
       <use xlink:href="#TimesNewRomanPS-BoldMT-30"/>
       <use xlink:href="#TimesNewRomanPS-BoldMT-2e" x="50"/>
       <use xlink:href="#TimesNewRomanPS-BoldMT-34" x="75"/>
      </g>
     </g>
    </g>
    <g id="ytick_4">
     <g id="line2d_10">
      <g>
       <use xlink:href="#mfc886cdf3b" x="63" y="93.96" style="stroke: #000000; stroke-width: 0.8"/>
      </g>
     </g>
     <g id="text_11">
      <!-- 0.6 -->
      <g transform="translate(41 97.933125) scale(0.12 -0.12)">
       <use xlink:href="#TimesNewRomanPS-BoldMT-30"/>
       <use xlink:href="#TimesNewRomanPS-BoldMT-2e" x="50"/>
       <use xlink:href="#TimesNewRomanPS-BoldMT-36" x="75"/>
      </g>
     </g>
    </g>
    <g id="ytick_5">
     <g id="line2d_11">
      <g>
       <use xlink:href="#mfc886cdf3b" x="63" y="63.72" style="stroke: #000000; stroke-width: 0.8"/>
      </g>
     </g>
     <g id="text_12">
      <!-- 0.8 -->
      <g transform="translate(41 67.693125) scale(0.12 -0.12)">
       <use xlink:href="#TimesNewRomanPS-BoldMT-30"/>
       <use xlink:href="#TimesNewRomanPS-BoldMT-2e" x="50"/>
       <use xlink:href="#TimesNewRomanPS-BoldMT-38" x="75"/>
      </g>
     </g>
    </g>
    <g id="ytick_6">
     <g id="line2d_12">
      <g>
       <use xlink:href="#mfc886cdf3b" x="63" y="33.48" style="stroke: #000000; stroke-width: 0.8"/>
      </g>
     </g>
     <g id="text_13">
      <!-- 1.0 -->
      <g transform="translate(41 37.453125) scale(0.12 -0.12)">
       <use xlink:href="#TimesNewRomanPS-BoldMT-31"/>
       <use xlink:href="#TimesNewRomanPS-BoldMT-2e" x="50"/>
       <use xlink:href="#TimesNewRomanPS-BoldMT-30" x="75"/>
      </g>
     </g>
    </g>
    <g id="text_14">
     <!-- Precision -->
     <g transform="translate(34.005312 136.561562) rotate(-90) scale(0.14 -0.14)">
      <defs>
       <path id="TimesNewRomanPS-BoldMT-50" d="M 1728 1919 
L 1728 744 
Q 1728 400 1770 311 
Q 1813 222 1920 169 
Q 2028 116 2316 116 
L 2316 0 
L 163 0 
L 163 116 
Q 456 116 561 170 
Q 666 225 708 312 
Q 750 400 750 744 
L 750 3494 
Q 750 3838 708 3927 
Q 666 4016 559 4069 
Q 453 4122 163 4122 
L 163 4238 
L 2009 4238 
Q 2922 4238 3319 3913 
Q 3716 3588 3716 3100 
Q 3716 2688 3459 2394 
Q 3203 2100 2753 1994 
Q 2450 1919 1728 1919 
z
M 1728 3994 
L 1728 2163 
Q 1831 2156 1884 2156 
Q 2266 2156 2472 2382 
Q 2678 2609 2678 3084 
Q 2678 3556 2472 3775 
Q 2266 3994 1856 3994 
L 1728 3994 
z
" transform="scale(0.015625)"/>
       <path id="TimesNewRomanPS-BoldMT-72" d="M 1428 2922 
L 1428 2259 
Q 1719 2713 1937 2861 
Q 2156 3009 2359 3009 
Q 2534 3009 2639 2901 
Q 2744 2794 2744 2597 
Q 2744 2388 2642 2272 
Q 2541 2156 2397 2156 
Q 2231 2156 2109 2262 
Q 1988 2369 1966 2381 
Q 1934 2400 1894 2400 
Q 1803 2400 1722 2331 
Q 1594 2225 1528 2028 
Q 1428 1725 1428 1359 
L 1428 688 
L 1431 513 
Q 1431 334 1453 284 
Q 1491 200 1564 161 
Q 1638 122 1813 113 
L 1813 0 
L 234 0 
L 234 113 
Q 425 128 492 217 
Q 559 306 559 688 
L 559 2303 
Q 559 2553 534 2622 
Q 503 2709 443 2750 
Q 384 2791 234 2806 
L 234 2922 
L 1428 2922 
z
" transform="scale(0.015625)"/>
       <path id="TimesNewRomanPS-BoldMT-69" d="M 919 4338 
Q 1122 4338 1262 4195 
Q 1403 4053 1403 3853 
Q 1403 3653 1261 3512 
Q 1119 3372 919 3372 
Q 719 3372 578 3512 
Q 438 3653 438 3853 
Q 438 4053 578 4195 
Q 719 4338 919 4338 
z
M 1356 2922 
L 1356 606 
Q 1356 297 1428 211 
Q 1500 125 1709 113 
L 1709 0 
L 131 0 
L 131 113 
Q 325 119 419 225 
Q 481 297 481 606 
L 481 2313 
Q 481 2622 409 2708 
Q 338 2794 131 2806 
L 131 2922 
L 1356 2922 
z
" transform="scale(0.015625)"/>
       <path id="TimesNewRomanPS-BoldMT-73" d="M 2063 3003 
L 2109 2006 
L 2003 2006 
Q 1813 2450 1608 2612 
Q 1403 2775 1200 2775 
Q 1072 2775 981 2689 
Q 891 2603 891 2491 
Q 891 2406 953 2328 
Q 1053 2200 1512 1889 
Q 1972 1578 2117 1361 
Q 2263 1144 2263 875 
Q 2263 631 2141 397 
Q 2019 163 1797 37 
Q 1575 -88 1306 -88 
Q 1097 -88 747 44 
Q 653 78 619 78 
Q 516 78 447 -78 
L 344 -78 
L 294 972 
L 400 972 
Q 541 559 786 353 
Q 1031 147 1250 147 
Q 1400 147 1495 239 
Q 1591 331 1591 463 
Q 1591 613 1497 722 
Q 1403 831 1078 1053 
Q 600 1384 459 1559 
Q 253 1816 253 2125 
Q 253 2463 486 2736 
Q 719 3009 1159 3009 
Q 1397 3009 1619 2894 
Q 1703 2847 1756 2847 
Q 1813 2847 1847 2870 
Q 1881 2894 1956 3003 
L 2063 3003 
z
" transform="scale(0.015625)"/>
       <path id="TimesNewRomanPS-BoldMT-6f" d="M 1594 3009 
Q 1975 3009 2303 2812 
Q 2631 2616 2801 2253 
Q 2972 1891 2972 1459 
Q 2972 838 2656 419 
Q 2275 -88 1603 -88 
Q 944 -88 587 375 
Q 231 838 231 1447 
Q 231 2075 595 2542 
Q 959 3009 1594 3009 
z
M 1606 2788 
Q 1447 2788 1333 2667 
Q 1219 2547 1183 2192 
Q 1147 1838 1147 1206 
Q 1147 872 1191 581 
Q 1225 359 1337 243 
Q 1450 128 1594 128 
Q 1734 128 1828 206 
Q 1950 313 1991 503 
Q 2053 800 2053 1703 
Q 2053 2234 1993 2432 
Q 1934 2631 1819 2722 
Q 1738 2788 1606 2788 
z
" transform="scale(0.015625)"/>
       <path id="TimesNewRomanPS-BoldMT-6e" d="M 1409 2922 
L 1409 2544 
Q 1634 2788 1840 2898 
Q 2047 3009 2284 3009 
Q 2569 3009 2756 2851 
Q 2944 2694 3006 2459 
Q 3056 2281 3056 1775 
L 3056 638 
Q 3056 300 3117 217 
Q 3178 134 3372 113 
L 3372 0 
L 1894 0 
L 1894 113 
Q 2059 134 2131 250 
Q 2181 328 2181 638 
L 2181 1938 
Q 2181 2297 2153 2390 
Q 2125 2484 2058 2536 
Q 1991 2588 1909 2588 
Q 1641 2588 1409 2203 
L 1409 638 
Q 1409 309 1470 221 
Q 1531 134 1697 113 
L 1697 0 
L 219 0 
L 219 113 
Q 403 131 481 231 
Q 534 300 534 638 
L 534 2288 
Q 534 2619 473 2700 
Q 413 2781 219 2806 
L 219 2922 
L 1409 2922 
z
" transform="scale(0.015625)"/>
      </defs>
      <use xlink:href="#TimesNewRomanPS-BoldMT-50"/>
      <use xlink:href="#TimesNewRomanPS-BoldMT-72" x="61.083984"/>
      <use xlink:href="#TimesNewRomanPS-BoldMT-65" x="103.71875"/>
      <use xlink:href="#TimesNewRomanPS-BoldMT-63" x="148.103516"/>
      <use xlink:href="#TimesNewRomanPS-BoldMT-69" x="192.488281"/>
      <use xlink:href="#TimesNewRomanPS-BoldMT-73" x="220.271484"/>
      <use xlink:href="#TimesNewRomanPS-BoldMT-69" x="259.1875"/>
      <use xlink:href="#TimesNewRomanPS-BoldMT-6f" x="286.970703"/>
      <use xlink:href="#TimesNewRomanPS-BoldMT-6e" x="336.970703"/>
     </g>
    </g>
   </g>
   <g id="line2d_13">
    <path d="M 435.845455 110.406316 
L 435.845455 109.08 
L 435.845455 107.705455 
L 435.845455 106.28 
L 435.845455 104.800755 
L 435.845455 103.264615 
L 435.845455 101.668235 
L 435.845455 100.008 
L 435.845455 98.28 
L 435.845455 96.48 
L 435.845455 94.603404 
L 435.845455 92.645217 
L 435.845455 90.6 
L 435.845455 88.461818 
L 435.845455 86.224186 
L 435.845455 83.88 
L 435.845455 81.421463 
L 435.845455 78.84 
L 435.845455 76.126154 
L 435.845455 73.269474 
L 435.845455 70.258378 
L 423.163636 71.28 
L 423.163636 68.04 
L 423.163636 64.609412 
L 410.481818 65.552727 
L 410.481818 61.83 
L 397.8 62.744516 
L 397.8 58.68 
L 397.8 54.335172 
L 397.8 49.68 
L 385.118182 50.28 
L 385.118182 45.110769 
L 372.436364 45.576 
L 359.754545 46.08 
L 359.754545 40.053913 
L 347.072727 40.352727 
L 334.390909 40.68 
L 321.709091 41.04 
L 309.027273 41.437895 
L 296.345455 41.88 
L 283.663636 42.374118 
L 270.981818 42.93 
L 258.3 43.56 
L 245.618182 44.28 
L 232.936364 45.110769 
L 220.254545 46.08 
L 220.254545 33.48 
L 207.572727 33.48 
L 194.890909 33.48 
L 182.209091 33.48 
L 169.527273 33.48 
L 156.845455 33.48 
L 144.163636 33.48 
L 131.481818 33.48 
L 118.8 33.48 
L 106.118182 33.48 
L 93.436364 33.48 
L 80.754545 33.48 
" clip-path="url(#p5712206e81)" style="fill: none; stroke: #1f77b4; stroke-width: 1.5; stroke-linecap: square"/>
   </g>
   <g id="line2d_14">
    <path d="M 435.845455 110.406316 
L 435.845455 109.08 
L 435.845455 107.705455 
L 435.845455 106.28 
L 435.845455 104.800755 
L 435.845455 103.264615 
L 435.845455 101.668235 
L 435.845455 100.008 
L 435.845455 98.28 
L 435.845455 96.48 
L 435.845455 94.603404 
L 435.845455 92.645217 
L 435.845455 90.6 
L 435.845455 88.461818 
L 435.845455 86.224186 
L 435.845455 83.88 
L 435.845455 81.421463 
L 435.845455 78.84 
L 435.845455 76.126154 
L 435.845455 73.269474 
L 435.845455 70.258378 
L 423.163636 71.28 
L 423.163636 68.04 
L 410.481818 69.056471 
L 410.481818 65.552727 
L 410.481818 61.83 
L 397.8 62.744516 
L 397.8 58.68 
L 397.8 54.335172 
L 397.8 49.68 
L 385.118182 50.28 
L 372.436364 50.926154 
L 359.754545 51.624 
L 347.072727 52.38 
L 347.072727 46.627826 
L 334.390909 47.225455 
L 334.390909 40.68 
L 321.709091 41.04 
L 309.027273 41.437895 
L 296.345455 41.88 
L 296.345455 33.48 
L 283.663636 33.48 
L 270.981818 33.48 
L 258.3 33.48 
L 245.618182 33.48 
L 232.936364 33.48 
L 220.254545 33.48 
L 207.572727 33.48 
L 194.890909 33.48 
L 182.209091 33.48 
L 169.527273 33.48 
L 156.845455 33.48 
L 144.163636 33.48 
L 131.481818 33.48 
L 118.8 33.48 
L 106.118182 33.48 
L 93.436364 33.48 
L 80.754545 33.48 
" clip-path="url(#p5712206e81)" style="fill: none; stroke: #ff7f0e; stroke-width: 1.5; stroke-linecap: square"/>
   </g>
   <g id="line2d_15">
    <path d="M 435.845455 110.406316 
L 435.845455 109.08 
L 435.845455 107.705455 
L 435.845455 106.28 
L 435.845455 104.800755 
L 435.845455 103.264615 
L 435.845455 101.668235 
L 435.845455 100.008 
L 435.845455 98.28 
L 435.845455 96.48 
L 423.163636 97.820426 
L 410.481818 99.21913 
L 410.481818 97.32 
L 410.481818 95.334545 
L 410.481818 93.256744 
L 410.481818 91.08 
L 410.481818 88.797073 
L 410.481818 86.4 
L 410.481818 83.88 
L 410.481818 81.227368 
L 410.481818 78.431351 
L 410.481818 75.48 
L 397.8 76.68 
L 397.8 73.503529 
L 385.118182 74.716364 
L 372.436364 76.005 
L 372.436364 72.499355 
L 359.754545 73.8 
L 347.072727 75.190345 
L 334.390909 76.68 
L 321.709091 78.28 
L 309.027273 80.003077 
L 309.027273 75.816 
L 296.345455 77.58 
L 283.663636 79.497391 
L 283.663636 74.716364 
L 270.981818 76.68 
L 258.3 78.84 
L 245.618182 81.227368 
L 245.618182 75.48 
L 232.936364 77.950588 
L 220.254545 80.73 
L 207.572727 83.88 
L 194.890909 87.48 
L 182.209091 91.633846 
L 169.527273 96.48 
L 156.845455 102.207273 
L 144.163636 109.08 
L 144.163636 100.68 
L 131.481818 109.08 
L 118.8 119.88 
L 106.118182 134.28 
L 106.118182 124.2 
L 106.118182 109.08 
L 93.436364 134.28 
L 80.754545 184.68 
L 80.754545 184.68 
L 80.754545 33.48 
" clip-path="url(#p5712206e81)" style="fill: none; stroke: #2ca02c; stroke-width: 1.5; stroke-linecap: square"/>
   </g>
   <g id="line2d_16">
    <path d="M 435.845455 110.406316 
L 435.845455 109.08 
L 435.845455 107.705455 
L 435.845455 106.28 
L 435.845455 104.800755 
L 435.845455 103.264615 
L 435.845455 101.668235 
L 435.845455 100.008 
L 435.845455 98.28 
L 435.845455 96.48 
L 435.845455 94.603404 
L 435.845455 92.645217 
L 435.845455 90.6 
L 435.845455 88.461818 
L 435.845455 86.224186 
L 435.845455 83.88 
L 435.845455 81.421463 
L 435.845455 78.84 
L 435.845455 76.126154 
L 435.845455 73.269474 
L 435.845455 70.258378 
L 423.163636 71.28 
L 423.163636 68.04 
L 423.163636 64.609412 
L 423.163636 60.970909 
L 423.163636 57.105 
L 423.163636 52.989677 
L 423.163636 48.6 
L 410.481818 49.121379 
L 397.8 49.68 
L 385.118182 50.28 
L 385.118182 45.110769 
L 372.436364 45.576 
L 359.754545 46.08 
L 347.072727 46.627826 
L 347.072727 40.352727 
L 334.390909 40.68 
L 334.390909 33.48 
L 321.709091 33.48 
L 309.027273 33.48 
L 296.345455 33.48 
L 283.663636 33.48 
L 270.981818 33.48 
L 258.3 33.48 
L 245.618182 33.48 
L 232.936364 33.48 
L 220.254545 33.48 
L 207.572727 33.48 
L 194.890909 33.48 
L 182.209091 33.48 
L 169.527273 33.48 
L 156.845455 33.48 
L 144.163636 33.48 
L 131.481818 33.48 
L 118.8 33.48 
L 106.118182 33.48 
L 93.436364 33.48 
L 80.754545 33.48 
" clip-path="url(#p5712206e81)" style="fill: none; stroke: #d62728; stroke-width: 1.5; stroke-linecap: square"/>
   </g>
   <g id="line2d_17">
    <path d="M 435.845455 110.406316 
L 435.845455 109.08 
L 435.845455 107.705455 
L 435.845455 106.28 
L 435.845455 104.800755 
L 435.845455 103.264615 
L 435.845455 101.668235 
L 435.845455 100.008 
L 435.845455 98.28 
L 435.845455 96.48 
L 435.845455 94.603404 
L 435.845455 92.645217 
L 435.845455 90.6 
L 435.845455 88.461818 
L 435.845455 86.224186 
L 435.845455 83.88 
L 423.163636 85.109268 
L 423.163636 82.62 
L 423.163636 80.003077 
L 423.163636 77.248421 
L 423.163636 74.344865 
L 423.163636 71.28 
L 423.163636 68.04 
L 423.163636 64.609412 
L 423.163636 60.970909 
L 410.481818 61.83 
L 410.481818 57.867097 
L 397.8 58.68 
L 397.8 54.335172 
L 397.8 49.68 
L 385.118182 50.28 
L 385.118182 45.110769 
L 372.436364 45.576 
L 372.436364 39.78 
L 359.754545 40.053913 
L 347.072727 40.352727 
L 334.390909 40.68 
L 321.709091 41.04 
L 321.709091 33.48 
L 309.027273 33.48 
L 296.345455 33.48 
L 283.663636 33.48 
L 270.981818 33.48 
L 258.3 33.48 
L 245.618182 33.48 
L 232.936364 33.48 
L 220.254545 33.48 
L 207.572727 33.48 
L 194.890909 33.48 
L 182.209091 33.48 
L 169.527273 33.48 
L 156.845455 33.48 
L 144.163636 33.48 
L 131.481818 33.48 
L 118.8 33.48 
L 106.118182 33.48 
L 93.436364 33.48 
L 80.754545 33.48 
" clip-path="url(#p5712206e81)" style="fill: none; stroke: #9467bd; stroke-width: 1.5; stroke-linecap: square"/>
   </g>
   <g id="patch_3">
    <path d="M 63 192.24 
L 63 25.92 
" style="fill: none; stroke: #000000; stroke-width: 0.8; stroke-linejoin: miter; stroke-linecap: square"/>
   </g>
   <g id="patch_4">
    <path d="M 453.6 192.24 
L 453.6 25.92 
" style="fill: none; stroke: #000000; stroke-width: 0.8; stroke-linejoin: miter; stroke-linecap: square"/>
   </g>
   <g id="patch_5">
    <path d="M 63 192.24 
L 453.6 192.24 
" style="fill: none; stroke: #000000; stroke-width: 0.8; stroke-linejoin: miter; stroke-linecap: square"/>
   </g>
   <g id="patch_6">
    <path d="M 63 25.92 
L 453.6 25.92 
" style="fill: none; stroke: #000000; stroke-width: 0.8; stroke-linejoin: miter; stroke-linecap: square"/>
   </g>
   <g id="text_15">
    <!-- PR Curve Comparison -->
    <g transform="translate(180.08125 19.92) scale(0.16 -0.16)">
     <defs>
      <path id="TimesNewRomanPS-BoldMT-20" transform="scale(0.015625)"/>
      <path id="TimesNewRomanPS-BoldMT-43" d="M 4272 4334 
L 4272 2866 
L 4150 2866 
Q 4013 3441 3638 3747 
Q 3263 4053 2788 4053 
Q 2391 4053 2059 3825 
Q 1728 3597 1575 3228 
Q 1378 2756 1378 2178 
Q 1378 1609 1522 1142 
Q 1666 675 1972 436 
Q 2278 197 2766 197 
Q 3166 197 3498 372 
Q 3831 547 4200 975 
L 4200 609 
Q 3844 238 3458 70 
Q 3072 -97 2556 -97 
Q 1878 -97 1351 175 
Q 825 447 539 956 
Q 253 1466 253 2041 
Q 253 2647 570 3190 
Q 888 3734 1427 4034 
Q 1966 4334 2572 4334 
Q 3019 4334 3516 4141 
Q 3803 4028 3881 4028 
Q 3981 4028 4054 4101 
Q 4128 4175 4150 4334 
L 4272 4334 
z
" transform="scale(0.015625)"/>
      <path id="TimesNewRomanPS-BoldMT-75" d="M 3038 2922 
L 3038 634 
Q 3038 300 3100 217 
Q 3163 134 3353 113 
L 3353 0 
L 2163 0 
L 2163 391 
Q 1953 141 1743 26 
Q 1534 -88 1275 -88 
Q 1028 -88 836 64 
Q 644 216 578 419 
Q 513 622 513 1128 
L 513 2288 
Q 513 2619 452 2700 
Q 391 2781 197 2806 
L 197 2922 
L 1388 2922 
L 1388 925 
Q 1388 613 1417 522 
Q 1447 431 1511 384 
Q 1575 338 1659 338 
Q 1772 338 1863 397 
Q 1988 478 2163 725 
L 2163 2288 
Q 2163 2619 2102 2700 
Q 2041 2781 1847 2806 
L 1847 2922 
L 3038 2922 
z
" transform="scale(0.015625)"/>
      <path id="TimesNewRomanPS-BoldMT-76" d="M 1534 -88 
L 550 2178 
Q 372 2588 272 2697 
Q 200 2778 59 2806 
L 59 2922 
L 1613 2922 
L 1613 2806 
Q 1466 2806 1413 2753 
Q 1338 2684 1338 2591 
Q 1338 2475 1475 2156 
L 1956 1059 
L 2341 2006 
Q 2506 2413 2506 2581 
Q 2506 2678 2436 2739 
Q 2366 2800 2188 2806 
L 2188 2922 
L 3144 2922 
L 3144 2806 
Q 3006 2788 2918 2703 
Q 2831 2619 2656 2206 
L 1681 -88 
L 1534 -88 
z
" transform="scale(0.015625)"/>
      <path id="TimesNewRomanPS-BoldMT-6d" d="M 1428 2922 
L 1428 2538 
Q 1669 2800 1873 2904 
Q 2078 3009 2322 3009 
Q 2603 3009 2793 2878 
Q 2984 2747 3088 2478 
Q 3338 2759 3567 2884 
Q 3797 3009 4047 3009 
Q 4350 3009 4529 2870 
Q 4709 2731 4779 2517 
Q 4850 2303 4850 1834 
L 4850 638 
Q 4850 300 4911 219 
Q 4972 138 5166 113 
L 5166 0 
L 3656 0 
L 3656 113 
Q 3834 128 3919 250 
Q 3975 334 3975 638 
L 3975 1894 
Q 3975 2284 3944 2390 
Q 3913 2497 3845 2548 
Q 3778 2600 3688 2600 
Q 3553 2600 3415 2501 
Q 3278 2403 3138 2206 
L 3138 638 
Q 3138 322 3191 241 
Q 3263 125 3466 113 
L 3466 0 
L 1953 0 
L 1953 113 
Q 2075 119 2145 173 
Q 2216 228 2239 304 
Q 2263 381 2263 638 
L 2263 1894 
Q 2263 2291 2231 2391 
Q 2200 2491 2126 2547 
Q 2053 2603 1969 2603 
Q 1844 2603 1741 2538 
Q 1594 2441 1428 2206 
L 1428 638 
Q 1428 328 1489 229 
Q 1550 131 1744 113 
L 1744 0 
L 238 0 
L 238 113 
Q 422 131 500 231 
Q 553 300 553 638 
L 553 2288 
Q 553 2619 492 2700 
Q 431 2781 238 2806 
L 238 2922 
L 1428 2922 
z
" transform="scale(0.015625)"/>
      <path id="TimesNewRomanPS-BoldMT-70" d="M 1347 297 
L 1347 -791 
Q 1347 -1016 1383 -1097 
Q 1419 -1178 1494 -1215 
Q 1569 -1253 1788 -1253 
L 1788 -1369 
L 122 -1369 
L 122 -1253 
Q 316 -1247 409 -1144 
Q 472 -1072 472 -772 
L 472 2313 
Q 472 2622 400 2708 
Q 328 2794 122 2806 
L 122 2922 
L 1347 2922 
L 1347 2538 
Q 1500 2763 1659 2863 
Q 1888 3009 2156 3009 
Q 2478 3009 2742 2806 
Q 3006 2603 3143 2245 
Q 3281 1888 3281 1475 
Q 3281 1031 3139 664 
Q 2997 297 2726 104 
Q 2456 -88 2125 -88 
Q 1884 -88 1675 19 
Q 1519 100 1347 297 
z
M 1347 613 
Q 1616 231 1922 231 
Q 2091 231 2200 409 
Q 2363 672 2363 1409 
Q 2363 2166 2184 2444 
Q 2066 2628 1866 2628 
Q 1550 2628 1347 2172 
L 1347 613 
z
" transform="scale(0.015625)"/>
     </defs>
     <use xlink:href="#TimesNewRomanPS-BoldMT-50"/>
     <use xlink:href="#TimesNewRomanPS-BoldMT-52" x="61.083984"/>
     <use xlink:href="#TimesNewRomanPS-BoldMT-20" x="133.300781"/>
     <use xlink:href="#TimesNewRomanPS-BoldMT-43" x="158.300781"/>
     <use xlink:href="#TimesNewRomanPS-BoldMT-75" x="230.517578"/>
     <use xlink:href="#TimesNewRomanPS-BoldMT-72" x="286.132812"/>
     <use xlink:href="#TimesNewRomanPS-BoldMT-76" x="330.517578"/>
     <use xlink:href="#TimesNewRomanPS-BoldMT-65" x="380.517578"/>
     <use xlink:href="#TimesNewRomanPS-BoldMT-20" x="424.902344"/>
     <use xlink:href="#TimesNewRomanPS-BoldMT-43" x="449.902344"/>
     <use xlink:href="#TimesNewRomanPS-BoldMT-6f" x="522.119141"/>
     <use xlink:href="#TimesNewRomanPS-BoldMT-6d" x="572.119141"/>
     <use xlink:href="#TimesNewRomanPS-BoldMT-70" x="655.419922"/>
     <use xlink:href="#TimesNewRomanPS-BoldMT-61" x="711.035156"/>
     <use xlink:href="#TimesNewRomanPS-BoldMT-72" x="761.035156"/>
     <use xlink:href="#TimesNewRomanPS-BoldMT-69" x="805.419922"/>
     <use xlink:href="#TimesNewRomanPS-BoldMT-73" x="833.203125"/>
     <use xlink:href="#TimesNewRomanPS-BoldMT-6f" x="872.119141"/>
     <use xlink:href="#TimesNewRomanPS-BoldMT-6e" x="922.119141"/>
    </g>
   </g>
   <g id="legend_1">
    <g id="patch_7">
     <path d="M 71.4 186.24 
L 316.411875 186.24 
Q 318.811875 186.24 318.811875 183.84 
L 318.811875 100.093125 
Q 318.811875 97.693125 316.411875 97.693125 
L 71.4 97.693125 
Q 69 97.693125 69 100.093125 
L 69 183.84 
Q 69 186.24 71.4 186.24 
z
" style="fill: #ffffff; opacity: 0.8; stroke: #cccccc; stroke-linejoin: miter"/>
    </g>
    <g id="line2d_18">
     <path d="M 73.8 106.693125 
L 85.8 106.693125 
L 97.8 106.693125 
" style="fill: none; stroke: #1f77b4; stroke-width: 1.5; stroke-linecap: square"/>
    </g>
    <g id="text_16">
     <!-- MCCR_MSA (AUC = 0.9441) -->
     <g transform="translate(107.4 110.893125) scale(0.12 -0.12)">
      <defs>
       <path id="TimesNewRomanPS-BoldMT-4d" d="M 3050 1444 
L 4200 4238 
L 5925 4238 
L 5925 4122 
L 5788 4122 
Q 5600 4122 5488 4056 
Q 5409 4013 5363 3909 
Q 5328 3834 5328 3519 
L 5328 725 
Q 5328 400 5362 319 
Q 5397 238 5503 177 
Q 5609 116 5788 116 
L 5925 116 
L 5925 0 
L 3713 0 
L 3713 116 
L 3850 116 
Q 4038 116 4150 181 
Q 4228 225 4275 331 
Q 4309 406 4309 725 
L 4309 3866 
L 2684 0 
L 2609 0 
L 959 3838 
L 959 853 
Q 959 541 975 469 
Q 1016 313 1152 214 
Q 1288 116 1578 116 
L 1578 0 
L 128 0 
L 128 116 
L 172 116 
Q 313 113 434 161 
Q 556 209 618 290 
Q 681 372 716 519 
Q 722 553 722 838 
L 722 3519 
Q 722 3841 687 3920 
Q 653 4000 547 4061 
Q 441 4122 263 4122 
L 128 4122 
L 128 4238 
L 1859 4238 
L 3050 1444 
z
" transform="scale(0.015625)"/>
       <path id="TimesNewRomanPS-BoldMT-5f" d="M -59 -972 
L 3259 -972 
L 3259 -1381 
L -59 -1381 
L -59 -972 
z
" transform="scale(0.015625)"/>
       <path id="TimesNewRomanPS-BoldMT-53" d="M 3006 4334 
L 3041 2922 
L 2913 2922 
Q 2822 3453 2467 3776 
Q 2113 4100 1700 4100 
Q 1381 4100 1195 3929 
Q 1009 3759 1009 3538 
Q 1009 3397 1075 3288 
Q 1166 3141 1366 2997 
Q 1513 2894 2044 2631 
Q 2788 2266 3047 1941 
Q 3303 1616 3303 1197 
Q 3303 666 2889 283 
Q 2475 -100 1838 -100 
Q 1638 -100 1459 -59 
Q 1281 -19 1013 94 
Q 863 156 766 156 
Q 684 156 593 93 
Q 503 31 447 -97 
L 331 -97 
L 331 1503 
L 447 1503 
Q 584 828 976 473 
Q 1369 119 1822 119 
Q 2172 119 2380 309 
Q 2588 500 2588 753 
Q 2588 903 2508 1043 
Q 2428 1184 2265 1311 
Q 2103 1438 1691 1641 
Q 1113 1925 859 2125 
Q 606 2325 470 2572 
Q 334 2819 334 3116 
Q 334 3622 706 3978 
Q 1078 4334 1644 4334 
Q 1850 4334 2044 4284 
Q 2191 4247 2402 4145 
Q 2613 4044 2697 4044 
Q 2778 4044 2825 4094 
Q 2872 4144 2913 4334 
L 3006 4334 
z
" transform="scale(0.015625)"/>
       <path id="TimesNewRomanPS-BoldMT-41" d="M 2663 1206 
L 1166 1206 
L 988 794 
Q 900 588 900 453 
Q 900 275 1044 191 
Q 1128 141 1459 116 
L 1459 0 
L 50 0 
L 50 116 
Q 278 150 425 304 
Q 572 459 788 944 
L 2303 4325 
L 2363 4325 
L 3891 850 
Q 4109 356 4250 228 
Q 4356 131 4550 116 
L 4550 0 
L 2500 0 
L 2500 116 
L 2584 116 
Q 2831 116 2931 184 
Q 3000 234 3000 328 
Q 3000 384 2981 444 
Q 2975 472 2888 678 
L 2663 1206 
z
M 2556 1438 
L 1925 2897 
L 1275 1438 
L 2556 1438 
z
" transform="scale(0.015625)"/>
       <path id="TimesNewRomanPS-BoldMT-28" d="M 2056 4334 
L 2056 4191 
Q 1731 3978 1578 3775 
Q 1366 3494 1247 3053 
Q 1097 2506 1097 1525 
Q 1097 600 1233 87 
Q 1369 -425 1603 -741 
Q 1766 -959 2056 -1125 
L 2056 -1281 
Q 1303 -1028 779 -248 
Q 256 531 256 1544 
Q 256 2544 778 3314 
Q 1300 4084 2056 4334 
z
" transform="scale(0.015625)"/>
       <path id="TimesNewRomanPS-BoldMT-55" d="M 150 4238 
L 2338 4238 
L 2338 4122 
L 2228 4122 
Q 1981 4122 1889 4070 
Q 1797 4019 1758 3928 
Q 1719 3838 1719 3475 
L 1719 1400 
Q 1719 831 1805 647 
Q 1891 463 2087 341 
Q 2284 219 2584 219 
Q 2928 219 3170 373 
Q 3413 528 3533 800 
Q 3653 1072 3653 1747 
L 3653 3475 
Q 3653 3759 3593 3881 
Q 3534 4003 3444 4050 
Q 3303 4122 3047 4122 
L 3047 4238 
L 4513 4238 
L 4513 4122 
L 4425 4122 
Q 4247 4122 4128 4050 
Q 4009 3978 3956 3834 
Q 3916 3734 3916 3475 
L 3916 1866 
Q 3916 1119 3817 787 
Q 3719 456 3337 178 
Q 2956 -100 2297 -100 
Q 1747 -100 1447 47 
Q 1038 247 869 559 
Q 700 872 700 1400 
L 700 3475 
Q 700 3841 659 3930 
Q 619 4019 519 4072 
Q 419 4125 150 4122 
L 150 4238 
z
" transform="scale(0.015625)"/>
       <path id="TimesNewRomanPS-BoldMT-3d" d="M 125 2825 
L 3544 2825 
L 3544 2419 
L 125 2419 
L 125 2825 
z
M 125 1803 
L 3544 1803 
L 3544 1397 
L 125 1397 
L 125 1803 
z
" transform="scale(0.015625)"/>
       <path id="TimesNewRomanPS-BoldMT-39" d="M 197 -88 
L 197 0 
Q 716 119 1077 350 
Q 1438 581 1648 922 
Q 1859 1263 1944 1706 
Q 1750 1606 1614 1567 
Q 1478 1528 1328 1528 
Q 847 1528 526 1875 
Q 206 2222 206 2825 
Q 206 3244 379 3592 
Q 553 3941 875 4133 
Q 1197 4325 1544 4325 
Q 1916 4325 2247 4112 
Q 2578 3900 2775 3497 
Q 2972 3094 2972 2578 
Q 2972 1909 2651 1296 
Q 2331 684 1697 314 
Q 1063 -56 197 -88 
z
M 1991 1969 
Q 2022 2319 2022 2584 
Q 2022 3153 1891 3644 
Q 1816 3916 1669 4044 
Q 1591 4113 1466 4113 
Q 1309 4113 1222 3978 
Q 1100 3794 1100 3275 
Q 1100 2409 1306 2081 
Q 1441 1869 1669 1869 
Q 1791 1869 1991 1969 
z
" transform="scale(0.015625)"/>
       <path id="TimesNewRomanPS-BoldMT-29" d="M 78 -1281 
L 78 -1138 
Q 403 -922 556 -719 
Q 766 -438 888 0 
Q 1038 550 1038 1531 
Q 1038 2456 902 2967 
Q 766 3478 531 3794 
Q 369 4013 78 4178 
L 78 4334 
Q 831 4081 1354 3301 
Q 1878 2522 1878 1509 
Q 1878 513 1354 -257 
Q 831 -1028 78 -1281 
z
" transform="scale(0.015625)"/>
      </defs>
      <use xlink:href="#TimesNewRomanPS-BoldMT-4d"/>
      <use xlink:href="#TimesNewRomanPS-BoldMT-43" x="94.384766"/>
      <use xlink:href="#TimesNewRomanPS-BoldMT-43" x="166.601562"/>
      <use xlink:href="#TimesNewRomanPS-BoldMT-52" x="238.818359"/>
      <use xlink:href="#TimesNewRomanPS-BoldMT-5f" x="311.035156"/>
      <use xlink:href="#TimesNewRomanPS-BoldMT-4d" x="361.035156"/>
      <use xlink:href="#TimesNewRomanPS-BoldMT-53" x="455.419922"/>
      <use xlink:href="#TimesNewRomanPS-BoldMT-41" x="511.035156"/>
      <use xlink:href="#TimesNewRomanPS-BoldMT-20" x="577.751953"/>
      <use xlink:href="#TimesNewRomanPS-BoldMT-28" x="602.751953"/>
      <use xlink:href="#TimesNewRomanPS-BoldMT-41" x="636.052734"/>
      <use xlink:href="#TimesNewRomanPS-BoldMT-55" x="708.269531"/>
      <use xlink:href="#TimesNewRomanPS-BoldMT-43" x="780.486328"/>
      <use xlink:href="#TimesNewRomanPS-BoldMT-20" x="852.703125"/>
      <use xlink:href="#TimesNewRomanPS-BoldMT-3d" x="877.703125"/>
      <use xlink:href="#TimesNewRomanPS-BoldMT-20" x="934.685547"/>
      <use xlink:href="#TimesNewRomanPS-BoldMT-30" x="959.685547"/>
      <use xlink:href="#TimesNewRomanPS-BoldMT-2e" x="1009.685547"/>
      <use xlink:href="#TimesNewRomanPS-BoldMT-39" x="1034.685547"/>
      <use xlink:href="#TimesNewRomanPS-BoldMT-34" x="1084.685547"/>
      <use xlink:href="#TimesNewRomanPS-BoldMT-34" x="1134.685547"/>
      <use xlink:href="#TimesNewRomanPS-BoldMT-31" x="1184.685547"/>
      <use xlink:href="#TimesNewRomanPS-BoldMT-29" x="1234.685547"/>
     </g>
    </g>
    <g id="line2d_19">
     <path d="M 73.8 123.6825 
L 85.8 123.6825 
L 97.8 123.6825 
" style="fill: none; stroke: #ff7f0e; stroke-width: 1.5; stroke-linecap: square"/>
    </g>
    <g id="text_17">
     <!-- MCCR_MTA (AUC = 0.9509) -->
     <g transform="translate(107.4 127.8825) scale(0.12 -0.12)">
      <defs>
       <path id="TimesNewRomanPS-BoldMT-54" d="M 4038 4238 
L 4038 3091 
L 3925 3091 
Q 3825 3488 3703 3661 
Q 3581 3834 3369 3938 
Q 3250 3994 2953 3994 
L 2638 3994 
L 2638 725 
Q 2638 400 2673 319 
Q 2709 238 2814 177 
Q 2919 116 3100 116 
L 3241 116 
L 3241 0 
L 1022 0 
L 1022 116 
L 1163 116 
Q 1347 116 1459 181 
Q 1541 225 1588 331 
Q 1622 406 1622 725 
L 1622 3994 
L 1316 3994 
Q 888 3994 694 3813 
Q 422 3559 350 3091 
L 231 3091 
L 231 4238 
L 4038 4238 
z
" transform="scale(0.015625)"/>
       <path id="TimesNewRomanPS-BoldMT-35" d="M 975 4238 
L 2959 4238 
L 2644 3431 
L 975 3431 
L 816 3009 
Q 1894 2969 2475 2472 
Q 2953 2063 2953 1453 
Q 2953 1063 2731 689 
Q 2509 316 2106 114 
Q 1703 -88 1222 -88 
Q 703 -88 425 106 
Q 231 244 231 419 
Q 231 553 332 656 
Q 434 759 569 759 
Q 691 759 816 709 
Q 941 659 1244 447 
Q 1434 316 1572 266 
Q 1669 228 1791 228 
Q 2047 228 2226 415 
Q 2406 603 2406 866 
Q 2406 1416 1856 1759 
Q 1306 2103 469 2103 
Q 384 2103 216 2100 
L 975 4238 
z
" transform="scale(0.015625)"/>
      </defs>
      <use xlink:href="#TimesNewRomanPS-BoldMT-4d"/>
      <use xlink:href="#TimesNewRomanPS-BoldMT-43" x="94.384766"/>
      <use xlink:href="#TimesNewRomanPS-BoldMT-43" x="166.601562"/>
      <use xlink:href="#TimesNewRomanPS-BoldMT-52" x="238.818359"/>
      <use xlink:href="#TimesNewRomanPS-BoldMT-5f" x="311.035156"/>
      <use xlink:href="#TimesNewRomanPS-BoldMT-4d" x="361.035156"/>
      <use xlink:href="#TimesNewRomanPS-BoldMT-54" x="455.419922"/>
      <use xlink:href="#TimesNewRomanPS-BoldMT-41" x="514.744141"/>
      <use xlink:href="#TimesNewRomanPS-BoldMT-20" x="581.460938"/>
      <use xlink:href="#TimesNewRomanPS-BoldMT-28" x="606.460938"/>
      <use xlink:href="#TimesNewRomanPS-BoldMT-41" x="639.761719"/>
      <use xlink:href="#TimesNewRomanPS-BoldMT-55" x="711.978516"/>
      <use xlink:href="#TimesNewRomanPS-BoldMT-43" x="784.195312"/>
      <use xlink:href="#TimesNewRomanPS-BoldMT-20" x="856.412109"/>
      <use xlink:href="#TimesNewRomanPS-BoldMT-3d" x="881.412109"/>
      <use xlink:href="#TimesNewRomanPS-BoldMT-20" x="938.394531"/>
      <use xlink:href="#TimesNewRomanPS-BoldMT-30" x="963.394531"/>
      <use xlink:href="#TimesNewRomanPS-BoldMT-2e" x="1013.394531"/>
      <use xlink:href="#TimesNewRomanPS-BoldMT-39" x="1038.394531"/>
      <use xlink:href="#TimesNewRomanPS-BoldMT-35" x="1088.394531"/>
      <use xlink:href="#TimesNewRomanPS-BoldMT-30" x="1138.394531"/>
      <use xlink:href="#TimesNewRomanPS-BoldMT-39" x="1188.394531"/>
      <use xlink:href="#TimesNewRomanPS-BoldMT-29" x="1238.394531"/>
     </g>
    </g>
    <g id="line2d_20">
     <path d="M 73.8 140.671875 
L 85.8 140.671875 
L 97.8 140.671875 
" style="fill: none; stroke: #2ca02c; stroke-width: 1.5; stroke-linecap: square"/>
    </g>
    <g id="text_18">
     <!-- MSA_MTA (AUC = 0.6237) -->
     <g transform="translate(107.4 144.871875) scale(0.12 -0.12)">
      <defs>
       <path id="TimesNewRomanPS-BoldMT-33" d="M 947 2125 
L 947 2234 
Q 1303 2338 1440 2427 
Q 1578 2516 1678 2698 
Q 1778 2881 1778 3069 
Q 1778 3328 1589 3514 
Q 1400 3700 1119 3700 
Q 681 3700 375 3238 
L 259 3278 
Q 484 3800 836 4062 
Q 1188 4325 1619 4325 
Q 2059 4325 2345 4056 
Q 2631 3788 2631 3428 
Q 2631 3194 2498 2976 
Q 2366 2759 2081 2594 
Q 2447 2416 2639 2155 
Q 2831 1894 2831 1500 
Q 2831 838 2351 373 
Q 1872 -91 1066 -91 
Q 528 -91 281 88 
Q 103 213 103 409 
Q 103 553 206 654 
Q 309 756 444 756 
Q 547 756 638 713 
Q 688 688 992 439 
Q 1297 191 1563 191 
Q 1794 191 1959 373 
Q 2125 556 2125 838 
Q 2125 1266 1825 1627 
Q 1525 1988 947 2125 
z
" transform="scale(0.015625)"/>
       <path id="TimesNewRomanPS-BoldMT-37" d="M 1134 -88 
L 2288 3409 
L 1409 3409 
Q 894 3409 634 3275 
Q 453 3181 334 2922 
L 216 2922 
L 522 4238 
L 3047 4238 
L 1625 -88 
L 1134 -88 
z
" transform="scale(0.015625)"/>
      </defs>
      <use xlink:href="#TimesNewRomanPS-BoldMT-4d"/>
      <use xlink:href="#TimesNewRomanPS-BoldMT-53" x="94.384766"/>
      <use xlink:href="#TimesNewRomanPS-BoldMT-41" x="150"/>
      <use xlink:href="#TimesNewRomanPS-BoldMT-5f" x="222.216797"/>
      <use xlink:href="#TimesNewRomanPS-BoldMT-4d" x="272.216797"/>
      <use xlink:href="#TimesNewRomanPS-BoldMT-54" x="366.601562"/>
      <use xlink:href="#TimesNewRomanPS-BoldMT-41" x="425.925781"/>
      <use xlink:href="#TimesNewRomanPS-BoldMT-20" x="492.642578"/>
      <use xlink:href="#TimesNewRomanPS-BoldMT-28" x="517.642578"/>
      <use xlink:href="#TimesNewRomanPS-BoldMT-41" x="550.943359"/>
      <use xlink:href="#TimesNewRomanPS-BoldMT-55" x="623.160156"/>
      <use xlink:href="#TimesNewRomanPS-BoldMT-43" x="695.376953"/>
      <use xlink:href="#TimesNewRomanPS-BoldMT-20" x="767.59375"/>
      <use xlink:href="#TimesNewRomanPS-BoldMT-3d" x="792.59375"/>
      <use xlink:href="#TimesNewRomanPS-BoldMT-20" x="849.576172"/>
      <use xlink:href="#TimesNewRomanPS-BoldMT-30" x="874.576172"/>
      <use xlink:href="#TimesNewRomanPS-BoldMT-2e" x="924.576172"/>
      <use xlink:href="#TimesNewRomanPS-BoldMT-36" x="949.576172"/>
      <use xlink:href="#TimesNewRomanPS-BoldMT-32" x="999.576172"/>
      <use xlink:href="#TimesNewRomanPS-BoldMT-33" x="1049.576172"/>
      <use xlink:href="#TimesNewRomanPS-BoldMT-37" x="1099.576172"/>
      <use xlink:href="#TimesNewRomanPS-BoldMT-29" x="1149.576172"/>
     </g>
    </g>
    <g id="line2d_21">
     <path d="M 73.8 157.66125 
L 85.8 157.66125 
L 97.8 157.66125 
" style="fill: none; stroke: #d62728; stroke-width: 1.5; stroke-linecap: square"/>
    </g>
    <g id="text_19">
     <!-- MCCR_MSA_MTA (AUC = 0.9695) -->
     <g transform="translate(107.4 161.86125) scale(0.12 -0.12)">
      <use xlink:href="#TimesNewRomanPS-BoldMT-4d"/>
      <use xlink:href="#TimesNewRomanPS-BoldMT-43" x="94.384766"/>
      <use xlink:href="#TimesNewRomanPS-BoldMT-43" x="166.601562"/>
      <use xlink:href="#TimesNewRomanPS-BoldMT-52" x="238.818359"/>
      <use xlink:href="#TimesNewRomanPS-BoldMT-5f" x="311.035156"/>
      <use xlink:href="#TimesNewRomanPS-BoldMT-4d" x="361.035156"/>
      <use xlink:href="#TimesNewRomanPS-BoldMT-53" x="455.419922"/>
      <use xlink:href="#TimesNewRomanPS-BoldMT-41" x="511.035156"/>
      <use xlink:href="#TimesNewRomanPS-BoldMT-5f" x="583.251953"/>
      <use xlink:href="#TimesNewRomanPS-BoldMT-4d" x="633.251953"/>
      <use xlink:href="#TimesNewRomanPS-BoldMT-54" x="727.636719"/>
      <use xlink:href="#TimesNewRomanPS-BoldMT-41" x="786.960938"/>
      <use xlink:href="#TimesNewRomanPS-BoldMT-20" x="853.677734"/>
      <use xlink:href="#TimesNewRomanPS-BoldMT-28" x="878.677734"/>
      <use xlink:href="#TimesNewRomanPS-BoldMT-41" x="911.978516"/>
      <use xlink:href="#TimesNewRomanPS-BoldMT-55" x="984.195312"/>
      <use xlink:href="#TimesNewRomanPS-BoldMT-43" x="1056.412109"/>
      <use xlink:href="#TimesNewRomanPS-BoldMT-20" x="1128.628906"/>
      <use xlink:href="#TimesNewRomanPS-BoldMT-3d" x="1153.628906"/>
      <use xlink:href="#TimesNewRomanPS-BoldMT-20" x="1210.611328"/>
      <use xlink:href="#TimesNewRomanPS-BoldMT-30" x="1235.611328"/>
      <use xlink:href="#TimesNewRomanPS-BoldMT-2e" x="1285.611328"/>
      <use xlink:href="#TimesNewRomanPS-BoldMT-39" x="1310.611328"/>
      <use xlink:href="#TimesNewRomanPS-BoldMT-36" x="1360.611328"/>
      <use xlink:href="#TimesNewRomanPS-BoldMT-39" x="1410.611328"/>
      <use xlink:href="#TimesNewRomanPS-BoldMT-35" x="1460.611328"/>
      <use xlink:href="#TimesNewRomanPS-BoldMT-29" x="1510.611328"/>
     </g>
    </g>
    <g id="line2d_22">
     <path d="M 73.8 174.650625 
L 85.8 174.650625 
L 97.8 174.650625 
" style="fill: none; stroke: #9467bd; stroke-width: 1.5; stroke-linecap: square"/>
    </g>
    <g id="text_20">
     <!-- RS_MCCR_MSA_MTA (AUC = 0.9623) -->
     <g transform="translate(107.4 178.850625) scale(0.12 -0.12)">
      <use xlink:href="#TimesNewRomanPS-BoldMT-52"/>
      <use xlink:href="#TimesNewRomanPS-BoldMT-53" x="72.216797"/>
      <use xlink:href="#TimesNewRomanPS-BoldMT-5f" x="127.832031"/>
      <use xlink:href="#TimesNewRomanPS-BoldMT-4d" x="177.832031"/>
      <use xlink:href="#TimesNewRomanPS-BoldMT-43" x="272.216797"/>
      <use xlink:href="#TimesNewRomanPS-BoldMT-43" x="344.433594"/>
      <use xlink:href="#TimesNewRomanPS-BoldMT-52" x="416.650391"/>
      <use xlink:href="#TimesNewRomanPS-BoldMT-5f" x="488.867188"/>
      <use xlink:href="#TimesNewRomanPS-BoldMT-4d" x="538.867188"/>
      <use xlink:href="#TimesNewRomanPS-BoldMT-53" x="633.251953"/>
      <use xlink:href="#TimesNewRomanPS-BoldMT-41" x="688.867188"/>
      <use xlink:href="#TimesNewRomanPS-BoldMT-5f" x="761.083984"/>
      <use xlink:href="#TimesNewRomanPS-BoldMT-4d" x="811.083984"/>
      <use xlink:href="#TimesNewRomanPS-BoldMT-54" x="905.46875"/>
      <use xlink:href="#TimesNewRomanPS-BoldMT-41" x="964.792969"/>
      <use xlink:href="#TimesNewRomanPS-BoldMT-20" x="1031.509766"/>
      <use xlink:href="#TimesNewRomanPS-BoldMT-28" x="1056.509766"/>
      <use xlink:href="#TimesNewRomanPS-BoldMT-41" x="1089.810547"/>
      <use xlink:href="#TimesNewRomanPS-BoldMT-55" x="1162.027344"/>
      <use xlink:href="#TimesNewRomanPS-BoldMT-43" x="1234.244141"/>
      <use xlink:href="#TimesNewRomanPS-BoldMT-20" x="1306.460938"/>
      <use xlink:href="#TimesNewRomanPS-BoldMT-3d" x="1331.460938"/>
      <use xlink:href="#TimesNewRomanPS-BoldMT-20" x="1388.443359"/>
      <use xlink:href="#TimesNewRomanPS-BoldMT-30" x="1413.443359"/>
      <use xlink:href="#TimesNewRomanPS-BoldMT-2e" x="1463.443359"/>
      <use xlink:href="#TimesNewRomanPS-BoldMT-39" x="1488.443359"/>
      <use xlink:href="#TimesNewRomanPS-BoldMT-36" x="1538.443359"/>
      <use xlink:href="#TimesNewRomanPS-BoldMT-32" x="1588.443359"/>
      <use xlink:href="#TimesNewRomanPS-BoldMT-33" x="1638.443359"/>
      <use xlink:href="#TimesNewRomanPS-BoldMT-29" x="1688.443359"/>
     </g>
    </g>
   </g>
  </g>
 </g>
 <defs>
  <clipPath id="p5712206e81">
   <rect x="63" y="25.92" width="390.6" height="166.32"/>
  </clipPath>
 </defs>
</svg>
