<?xml version="1.0" encoding="UTF-8" standalone="no"?>
<svg
   width="504pt"
   height="216pt"
   viewBox="0 0 504 216"
   version="1.1"
   id="svg173"
   sodipodi:docname="Accuracy_Loss_plot_svg.svg"
   inkscape:version="1.3 (0e150ed6c4, 2023-07-21)"
   xmlns:inkscape="http://www.inkscape.org/namespaces/inkscape"
   xmlns:sodipodi="http://sodipodi.sourceforge.net/DTD/sodipodi-0.dtd"
   xmlns:xlink="http://www.w3.org/1999/xlink"
   xmlns="http://www.w3.org/2000/svg"
   xmlns:svg="http://www.w3.org/2000/svg"
   xmlns:rdf="http://www.w3.org/1999/02/22-rdf-syntax-ns#"
   xmlns:cc="http://creativecommons.org/ns#"
   xmlns:dc="http://purl.org/dc/elements/1.1/">
  <sodipodi:namedview
     id="namedview173"
     pagecolor="#ffffff"
     bordercolor="#000000"
     borderopacity="0.25"
     inkscape:showpageshadow="2"
     inkscape:pageopacity="0.0"
     inkscape:pagecheckerboard="0"
     inkscape:deskcolor="#d1d1d1"
     inkscape:document-units="pt"
     showgrid="false"
     inkscape:zoom="1.28125"
     inkscape:cx="332.4878"
     inkscape:cy="206.04878"
     inkscape:window-width="1440"
     inkscape:window-height="830"
     inkscape:window-x="-6"
     inkscape:window-y="1073"
     inkscape:window-maximized="1"
     inkscape:current-layer="legend_1" />
  <metadata
     id="metadata1">
    <rdf:RDF>
      <cc:Work>
        <dc:type
           rdf:resource="http://purl.org/dc/dcmitype/StillImage" />
        <dc:date>2025-01-26T15:28:51.298795</dc:date>
        <dc:format>image/svg+xml</dc:format>
        <dc:creator>
          <cc:Agent>
            <dc:title>Matplotlib v3.8.4, https://matplotlib.org/</dc:title>
          </cc:Agent>
        </dc:creator>
      </cc:Work>
    </rdf:RDF>
  </metadata>
  <defs
     id="defs1">
    <rect
       x="634.53659"
       y="96"
       width="55.414634"
       height="19.512195"
       id="rect180" />
    <rect
       x="283.31707"
       y="248.19512"
       width="152.97561"
       height="28.097561"
       id="rect179" />
    <rect
       x="8.5853659"
       y="74.926829"
       width="52.292683"
       height="113.17073"
       id="rect178" />
    <rect
       x="439.41463"
       y="76.487805"
       width="106.14634"
       height="17.95122"
       id="rect177" />
    <rect
       x="439.41463"
       y="98.341463"
       width="140.4878"
       height="23.414634"
       id="rect176" />
    <rect
       x="442.53659"
       y="124.09756"
       width="140.4878"
       height="20.292683"
       id="rect175" />
    <rect
       x="442.53659"
       y="147.5122"
       width="135.02439"
       height="18.731707"
       id="rect174" />
    <style
       type="text/css"
       id="style1">*{stroke-linejoin: round; stroke-linecap: butt}</style>
  </defs>
  <g
     id="figure_1">
    <g
       id="patch_1">
      <path
         d="M 0 216  L 504 216  L 504 0  L 0 0  z "
         style="fill: #ffffff"
         id="path1" />
    </g>
    <g
       id="axes_1">
      <g
         id="patch_2">
        <path
           d="M 54.92 166.48  L 454.12 166.48  L 454.12 17.64  L 54.92 17.64  z "
           style="fill: #ffffff"
           id="path2" />
      </g>
      <g
         id="matplotlib.axis_1">
        <g
           id="xtick_1">
          <g
             id="line2d_1">
            <defs
               id="defs2">
              <path
                 id="m99397c613a"
                 d="M 0 0  L 0 3.5  "
                 style="stroke: #000000; stroke-width: 0.8" />
            </defs>
            <g
               id="g2">
              <use
                 xlink:href="#m99397c613a"
                 x="73.065455"
                 y="166.48"
                 style="stroke: #000000; stroke-width: 0.8"
                 id="use2" />
            </g>
          </g>
          <g
             id="text_1">
            <!-- 0 -->
            <g
               transform="translate(69.815455 182.088437) scale(0.13 -0.13)"
               id="g3">
              <defs
                 id="defs3">
                <path
                   id="TimesNewRomanPS-BoldMT-30"
                   d="M 2966 2119  Q 2966 1484 2788 934  Q 2681 597 2501 381  Q 2322 166 2094 39  Q 1866 -88 1597 -88  Q 1291 -88 1044 68  Q 797 225 606 516  Q 469 728 366 1081  Q 231 1559 231 2069  Q 231 2759 425 3338  Q 584 3816 909 4070  Q 1234 4325 1597 4325  Q 1966 4325 2286 4073  Q 2606 3822 2756 3397  Q 2966 2813 2966 2119  z M 2003 2125  Q 2003 3238 1991 3422  Q 1959 3856 1841 4009  Q 1763 4109 1588 4109  Q 1453 4109 1375 4034  Q 1259 3925 1218 3648  Q 1178 3372 1178 1719  Q 1178 819 1241 513  Q 1288 291 1375 216  Q 1463 141 1606 141  Q 1763 141 1841 241  Q 1972 416 1991 781  L 2003 2125  z "
                   transform="scale(0.015625)" />
              </defs>
              <use
                 xlink:href="#TimesNewRomanPS-BoldMT-30"
                 id="use3" />
            </g>
          </g>
        </g>
        <g
           id="xtick_2">
          <g
             id="line2d_2">
            <g
               id="g4">
              <use
                 xlink:href="#m99397c613a"
                 x="111.266411"
                 y="166.48"
                 style="stroke: #000000; stroke-width: 0.8"
                 id="use4" />
            </g>
          </g>
          <g
             id="text_2">
            <!-- 2 -->
            <g
               transform="translate(108.016411 182.088437) scale(0.13 -0.13)"
               id="g5">
              <defs
                 id="defs4">
                <path
                   id="TimesNewRomanPS-BoldMT-32"
                   d="M 2650 0  L 156 0  L 156 69  Q 1303 1434 1548 1906  Q 1794 2378 1794 2828  Q 1794 3156 1591 3373  Q 1388 3591 1094 3591  Q 613 3591 347 3109  L 231 3150  Q 400 3750 744 4037  Q 1088 4325 1538 4325  Q 1859 4325 2125 4175  Q 2391 4025 2541 3764  Q 2691 3503 2691 3275  Q 2691 2859 2459 2431  Q 2144 1853 1081 819  L 1997 819  Q 2334 819 2436 847  Q 2538 875 2603 942  Q 2669 1009 2775 1225  L 2888 1225  L 2650 0  z "
                   transform="scale(0.015625)" />
              </defs>
              <use
                 xlink:href="#TimesNewRomanPS-BoldMT-32"
                 id="use5" />
            </g>
          </g>
        </g>
        <g
           id="xtick_3">
          <g
             id="line2d_3">
            <g
               id="g6">
              <use
                 xlink:href="#m99397c613a"
                 x="149.467368"
                 y="166.48"
                 style="stroke: #000000; stroke-width: 0.8"
                 id="use6" />
            </g>
          </g>
          <g
             id="text_3">
            <!-- 4 -->
            <g
               transform="translate(146.217368 182.088437) scale(0.13 -0.13)"
               id="g7">
              <defs
                 id="defs6">
                <path
                   id="TimesNewRomanPS-BoldMT-34"
                   d="M 159 1597  L 2172 4325  L 2553 4325  L 2553 1597  L 2941 1597  L 2941 950  L 2553 950  L 2553 0  L 1694 0  L 1694 950  L 159 950  L 159 1597  z M 463 1597  L 1694 1597  L 1694 3269  L 463 1597  z "
                   transform="scale(0.015625)" />
              </defs>
              <use
                 xlink:href="#TimesNewRomanPS-BoldMT-34"
                 id="use7" />
            </g>
          </g>
        </g>
        <g
           id="xtick_4">
          <g
             id="line2d_4">
            <g
               id="g8">
              <use
                 xlink:href="#m99397c613a"
                 x="187.668325"
                 y="166.48"
                 style="stroke: #000000; stroke-width: 0.8"
                 id="use8" />
            </g>
          </g>
          <g
             id="text_4">
            <!-- 6 -->
            <g
               transform="translate(184.418325 182.088437) scale(0.13 -0.13)"
               id="g9">
              <defs
                 id="defs8">
                <path
                   id="TimesNewRomanPS-BoldMT-36"
                   d="M 3006 4325  L 3006 4238  Q 2441 4094 2098 3867  Q 1756 3641 1557 3317  Q 1359 2994 1250 2516  Q 1388 2609 1478 2638  Q 1681 2700 1888 2700  Q 2363 2700 2680 2354  Q 2997 2009 2997 1413  Q 2997 994 2825 644  Q 2653 294 2337 103  Q 2022 -88 1663 -88  Q 1272 -88 940 126  Q 609 341 423 753  Q 238 1166 238 1650  Q 238 2363 580 2977  Q 922 3591 1551 3955  Q 2181 4319 3006 4325  z M 1209 2263  Q 1184 1831 1184 1631  Q 1184 1200 1267 797  Q 1350 394 1494 231  Q 1597 116 1738 116  Q 1881 116 1993 283  Q 2106 450 2106 963  Q 2106 1825 1897 2153  Q 1763 2366 1534 2366  Q 1409 2366 1209 2263  z "
                   transform="scale(0.015625)" />
              </defs>
              <use
                 xlink:href="#TimesNewRomanPS-BoldMT-36"
                 id="use9" />
            </g>
          </g>
        </g>
        <g
           id="xtick_5">
          <g
             id="line2d_5">
            <g
               id="g10">
              <use
                 xlink:href="#m99397c613a"
                 x="225.869282"
                 y="166.48"
                 style="stroke: #000000; stroke-width: 0.8"
                 id="use10" />
            </g>
          </g>
          <g
             id="text_5">
            <!-- 8 -->
            <g
               transform="translate(222.619282 182.088437) scale(0.13 -0.13)"
               id="g11">
              <defs
                 id="defs10">
                <path
                   id="TimesNewRomanPS-BoldMT-38"
                   d="M 2181 2394  Q 2628 2066 2801 1783  Q 2975 1500 2975 1134  Q 2975 622 2589 267  Q 2203 -88 1541 -88  Q 913 -88 569 221  Q 225 531 225 978  Q 225 1319 423 1575  Q 622 1831 1084 2044  Q 581 2428 439 2672  Q 297 2916 297 3238  Q 297 3663 658 3986  Q 1019 4309 1647 4309  Q 2253 4309 2579 4023  Q 2906 3738 2906 3338  Q 2906 3038 2729 2808  Q 2553 2578 2181 2394  z M 1944 2553  Q 2059 2709 2115 2903  Q 2172 3097 2172 3328  Q 2172 3734 1997 3950  Q 1866 4116 1634 4116  Q 1425 4116 1278 3964  Q 1131 3813 1131 3588  Q 1131 3359 1295 3114  Q 1459 2869 1944 2553  z M 1319 1894  Q 1222 1806 1181 1734  Q 1119 1625 1069 1415  Q 1019 1206 1019 978  Q 1019 684 1094 486  Q 1169 288 1308 200  Q 1447 113 1594 113  Q 1822 113 1978 280  Q 2134 447 2134 738  Q 2134 1344 1319 1894  z "
                   transform="scale(0.015625)" />
              </defs>
              <use
                 xlink:href="#TimesNewRomanPS-BoldMT-38"
                 id="use11" />
            </g>
          </g>
        </g>
        <g
           id="xtick_6">
          <g
             id="line2d_6">
            <g
               id="g12">
              <use
                 xlink:href="#m99397c613a"
                 x="264.070239"
                 y="166.48"
                 style="stroke: #000000; stroke-width: 0.8"
                 id="use12" />
            </g>
          </g>
          <g
             id="text_6">
            <!-- 10 -->
            <g
               transform="translate(257.570239 182.088437) scale(0.13 -0.13)"
               id="g14">
              <defs
                 id="defs12">
                <path
                   id="TimesNewRomanPS-BoldMT-31"
                   d="M 2084 4325  L 2084 859  Q 2084 469 2118 361  Q 2153 253 2262 184  Q 2372 116 2613 116  L 2709 116  L 2709 0  L 478 0  L 478 116  L 591 116  Q 863 116 978 178  Q 1094 241 1134 350  Q 1175 459 1175 859  L 1175 3056  Q 1175 3350 1147 3423  Q 1119 3497 1042 3548  Q 966 3600 866 3600  Q 706 3600 478 3500  L 422 3613  L 1981 4325  L 2084 4325  z "
                   transform="scale(0.015625)" />
              </defs>
              <use
                 xlink:href="#TimesNewRomanPS-BoldMT-31"
                 id="use13" />
              <use
                 xlink:href="#TimesNewRomanPS-BoldMT-30"
                 x="50"
                 id="use14" />
            </g>
          </g>
        </g>
        <g
           id="xtick_7">
          <g
             id="line2d_7">
            <g
               id="g15">
              <use
                 xlink:href="#m99397c613a"
                 x="302.271196"
                 y="166.48"
                 style="stroke: #000000; stroke-width: 0.8"
                 id="use15" />
            </g>
          </g>
          <g
             id="text_7">
            <!-- 12 -->
            <g
               transform="translate(295.771196 182.088437) scale(0.13 -0.13)"
               id="g17">
              <use
                 xlink:href="#TimesNewRomanPS-BoldMT-31"
                 id="use16" />
              <use
                 xlink:href="#TimesNewRomanPS-BoldMT-32"
                 x="50"
                 id="use17" />
            </g>
          </g>
        </g>
        <g
           id="xtick_8">
          <g
             id="line2d_8">
            <g
               id="g18">
              <use
                 xlink:href="#m99397c613a"
                 x="340.472153"
                 y="166.48"
                 style="stroke: #000000; stroke-width: 0.8"
                 id="use18" />
            </g>
          </g>
          <g
             id="text_8">
            <!-- 14 -->
            <g
               transform="translate(333.972153 182.088437) scale(0.13 -0.13)"
               id="g20">
              <use
                 xlink:href="#TimesNewRomanPS-BoldMT-31"
                 id="use19" />
              <use
                 xlink:href="#TimesNewRomanPS-BoldMT-34"
                 x="50"
                 id="use20" />
            </g>
          </g>
        </g>
        <g
           id="xtick_9">
          <g
             id="line2d_9">
            <g
               id="g21">
              <use
                 xlink:href="#m99397c613a"
                 x="378.67311"
                 y="166.48"
                 style="stroke: #000000; stroke-width: 0.8"
                 id="use21" />
            </g>
          </g>
          <g
             id="text_9">
            <!-- 16 -->
            <g
               transform="translate(372.17311 182.088437) scale(0.13 -0.13)"
               id="g23">
              <use
                 xlink:href="#TimesNewRomanPS-BoldMT-31"
                 id="use22" />
              <use
                 xlink:href="#TimesNewRomanPS-BoldMT-36"
                 x="50"
                 id="use23" />
            </g>
          </g>
        </g>
        <g
           id="xtick_10">
          <g
             id="line2d_10">
            <g
               id="g24">
              <use
                 xlink:href="#m99397c613a"
                 x="416.874067"
                 y="166.48"
                 style="stroke: #000000; stroke-width: 0.8"
                 id="use24" />
            </g>
          </g>
          <g
             id="text_10">
            <!-- 18 -->
            <g
               transform="translate(410.374067 182.088437) scale(0.13 -0.13)"
               id="g26">
              <use
                 xlink:href="#TimesNewRomanPS-BoldMT-31"
                 id="use25" />
              <use
                 xlink:href="#TimesNewRomanPS-BoldMT-38"
                 x="50"
                 id="use26" />
            </g>
          </g>
        </g>
        <g
           id="text_11">
          <!-- Epoch -->
          <text
             xml:space="preserve"
             transform="matrix(0.75,0,0,0.75,31.23932,1.1707317)"
             id="text178"
             style="font-style:normal;font-variant:normal;font-weight:normal;font-stretch:normal;font-size:16px;line-height:1.2;font-family:SimSun;-inkscape-font-specification:SimSun;font-variant-ligatures:normal;font-variant-caps:normal;font-variant-numeric:normal;font-variant-east-asian:normal;writing-mode:lr-tb;direction:ltr;white-space:pre;shape-inside:url(#rect179);fill:#000000;stroke-width:1.33417;stroke-dasharray:none"><tspan
               x="283.31641"
               y="263.54531"
               id="tspan8">训练轮次</tspan></text>
        </g>
      </g>
      <g
         id="matplotlib.axis_2">
        <g
           id="ytick_1">
          <g
             id="line2d_11">
            <defs
               id="defs31">
              <path
                 id="mbfdb4482be"
                 d="M 0 0  L -3.5 0  "
                 style="stroke: #000000" />
            </defs>
            <g
               id="g32">
              <use
                 xlink:href="#mbfdb4482be"
                 x="54.92"
                 y="166.48"
                 style="stroke: #000000"
                 id="use32" />
            </g>
          </g>
          <g
             id="text_12">
            <!-- 0.65 -->
            <g
               transform="translate(30.42 169.790937) scale(0.1 -0.1)"
               id="g36">
              <defs
                 id="defs32">
                <path
                   id="TimesNewRomanPS-BoldMT-2e"
                   d="M 800 963  Q 1019 963 1170 809  Q 1322 656 1322 441  Q 1322 225 1169 73  Q 1016 -78 800 -78  Q 584 -78 432 73  Q 281 225 281 441  Q 281 656 432 809  Q 584 963 800 963  z "
                   transform="scale(0.015625)" />
                <path
                   id="TimesNewRomanPS-BoldMT-35"
                   d="M 975 4238  L 2959 4238  L 2644 3431  L 975 3431  L 816 3009  Q 1894 2969 2475 2472  Q 2953 2063 2953 1453  Q 2953 1063 2731 689  Q 2509 316 2106 114  Q 1703 -88 1222 -88  Q 703 -88 425 106  Q 231 244 231 419  Q 231 553 332 656  Q 434 759 569 759  Q 691 759 816 709  Q 941 659 1244 447  Q 1434 316 1572 266  Q 1669 228 1791 228  Q 2047 228 2226 415  Q 2406 603 2406 866  Q 2406 1416 1856 1759  Q 1306 2103 469 2103  Q 384 2103 216 2100  L 975 4238  z "
                   transform="scale(0.015625)" />
              </defs>
              <use
                 xlink:href="#TimesNewRomanPS-BoldMT-30"
                 id="use33" />
              <use
                 xlink:href="#TimesNewRomanPS-BoldMT-2e"
                 x="50"
                 id="use34" />
              <use
                 xlink:href="#TimesNewRomanPS-BoldMT-36"
                 x="75"
                 id="use35" />
              <use
                 xlink:href="#TimesNewRomanPS-BoldMT-35"
                 x="125"
                 id="use36" />
            </g>
          </g>
        </g>
        <g
           id="ytick_2">
          <g
             id="line2d_12">
            <g
               id="g37">
              <use
                 xlink:href="#mbfdb4482be"
                 x="54.92"
                 y="144.594181"
                 style="stroke: #000000"
                 id="use37" />
            </g>
          </g>
          <g
             id="text_13">
            <!-- 0.70 -->
            <g
               transform="translate(30.42 147.905118) scale(0.1 -0.1)"
               id="g41">
              <defs
                 id="defs37">
                <path
                   id="TimesNewRomanPS-BoldMT-37"
                   d="M 1134 -88  L 2288 3409  L 1409 3409  Q 894 3409 634 3275  Q 453 3181 334 2922  L 216 2922  L 522 4238  L 3047 4238  L 1625 -88  L 1134 -88  z "
                   transform="scale(0.015625)" />
              </defs>
              <use
                 xlink:href="#TimesNewRomanPS-BoldMT-30"
                 id="use38" />
              <use
                 xlink:href="#TimesNewRomanPS-BoldMT-2e"
                 x="50"
                 id="use39" />
              <use
                 xlink:href="#TimesNewRomanPS-BoldMT-37"
                 x="75"
                 id="use40" />
              <use
                 xlink:href="#TimesNewRomanPS-BoldMT-30"
                 x="125"
                 id="use41" />
            </g>
          </g>
        </g>
        <g
           id="ytick_3">
          <g
             id="line2d_13">
            <g
               id="g42">
              <use
                 xlink:href="#mbfdb4482be"
                 x="54.92"
                 y="122.708361"
                 style="stroke: #000000"
                 id="use42" />
            </g>
          </g>
          <g
             id="text_14">
            <!-- 0.75 -->
            <g
               transform="translate(30.42 126.019299) scale(0.1 -0.1)"
               id="g46">
              <use
                 xlink:href="#TimesNewRomanPS-BoldMT-30"
                 id="use43" />
              <use
                 xlink:href="#TimesNewRomanPS-BoldMT-2e"
                 x="50"
                 id="use44" />
              <use
                 xlink:href="#TimesNewRomanPS-BoldMT-37"
                 x="75"
                 id="use45" />
              <use
                 xlink:href="#TimesNewRomanPS-BoldMT-35"
                 x="125"
                 id="use46" />
            </g>
          </g>
        </g>
        <g
           id="ytick_4">
          <g
             id="line2d_14">
            <g
               id="g47">
              <use
                 xlink:href="#mbfdb4482be"
                 x="54.92"
                 y="100.822542"
                 style="stroke: #000000"
                 id="use47" />
            </g>
          </g>
          <g
             id="text_15">
            <!-- 0.80 -->
            <g
               transform="translate(30.42 104.133479) scale(0.1 -0.1)"
               id="g51">
              <use
                 xlink:href="#TimesNewRomanPS-BoldMT-30"
                 id="use48" />
              <use
                 xlink:href="#TimesNewRomanPS-BoldMT-2e"
                 x="50"
                 id="use49" />
              <use
                 xlink:href="#TimesNewRomanPS-BoldMT-38"
                 x="75"
                 id="use50" />
              <use
                 xlink:href="#TimesNewRomanPS-BoldMT-30"
                 x="125"
                 id="use51" />
            </g>
          </g>
        </g>
        <g
           id="ytick_5">
          <g
             id="line2d_15">
            <g
               id="g52">
              <use
                 xlink:href="#mbfdb4482be"
                 x="54.92"
                 y="78.936722"
                 style="stroke: #000000"
                 id="use52" />
            </g>
          </g>
          <g
             id="text_16">
            <!-- 0.85 -->
            <g
               transform="translate(30.42 82.24766) scale(0.1 -0.1)"
               id="g56">
              <use
                 xlink:href="#TimesNewRomanPS-BoldMT-30"
                 id="use53" />
              <use
                 xlink:href="#TimesNewRomanPS-BoldMT-2e"
                 x="50"
                 id="use54" />
              <use
                 xlink:href="#TimesNewRomanPS-BoldMT-38"
                 x="75"
                 id="use55" />
              <use
                 xlink:href="#TimesNewRomanPS-BoldMT-35"
                 x="125"
                 id="use56" />
            </g>
          </g>
        </g>
        <g
           id="ytick_6">
          <g
             id="line2d_16">
            <g
               id="g57">
              <use
                 xlink:href="#mbfdb4482be"
                 x="54.92"
                 y="57.050903"
                 style="stroke: #000000"
                 id="use57" />
            </g>
          </g>
          <g
             id="text_17">
            <!-- 0.90 -->
            <g
               transform="translate(30.42 60.36184) scale(0.1 -0.1)"
               id="g61">
              <defs
                 id="defs57">
                <path
                   id="TimesNewRomanPS-BoldMT-39"
                   d="M 197 -88  L 197 0  Q 716 119 1077 350  Q 1438 581 1648 922  Q 1859 1263 1944 1706  Q 1750 1606 1614 1567  Q 1478 1528 1328 1528  Q 847 1528 526 1875  Q 206 2222 206 2825  Q 206 3244 379 3592  Q 553 3941 875 4133  Q 1197 4325 1544 4325  Q 1916 4325 2247 4112  Q 2578 3900 2775 3497  Q 2972 3094 2972 2578  Q 2972 1909 2651 1296  Q 2331 684 1697 314  Q 1063 -56 197 -88  z M 1991 1969  Q 2022 2319 2022 2584  Q 2022 3153 1891 3644  Q 1816 3916 1669 4044  Q 1591 4113 1466 4113  Q 1309 4113 1222 3978  Q 1100 3794 1100 3275  Q 1100 2409 1306 2081  Q 1441 1869 1669 1869  Q 1791 1869 1991 1969  z "
                   transform="scale(0.015625)" />
              </defs>
              <use
                 xlink:href="#TimesNewRomanPS-BoldMT-30"
                 id="use58" />
              <use
                 xlink:href="#TimesNewRomanPS-BoldMT-2e"
                 x="50"
                 id="use59" />
              <use
                 xlink:href="#TimesNewRomanPS-BoldMT-39"
                 x="75"
                 id="use60" />
              <use
                 xlink:href="#TimesNewRomanPS-BoldMT-30"
                 x="125"
                 id="use61" />
            </g>
          </g>
        </g>
        <g
           id="ytick_7">
          <g
             id="line2d_17">
            <g
               id="g62">
              <use
                 xlink:href="#mbfdb4482be"
                 x="54.92"
                 y="35.165083"
                 style="stroke: #000000"
                 id="use62" />
            </g>
          </g>
          <g
             id="text_18">
            <!-- 0.95 -->
            <g
               transform="translate(30.42 38.476021) scale(0.1 -0.1)"
               id="g66">
              <use
                 xlink:href="#TimesNewRomanPS-BoldMT-30"
                 id="use63" />
              <use
                 xlink:href="#TimesNewRomanPS-BoldMT-2e"
                 x="50"
                 id="use64" />
              <use
                 xlink:href="#TimesNewRomanPS-BoldMT-39"
                 x="75"
                 id="use65" />
              <use
                 xlink:href="#TimesNewRomanPS-BoldMT-35"
                 x="125"
                 id="use66" />
            </g>
          </g>
        </g>
        <g
           id="text_19">
          <!-- Accuracy -->
          <text
             xml:space="preserve"
             transform="matrix(0,-0.76935488,0.75,0,-44.024551,112.95665)"
             id="text177"
             style="font-style:normal;font-variant:normal;font-weight:normal;font-stretch:normal;font-size:15.79745977px;line-height:1.2;font-family:SimSun;-inkscape-font-specification:SimSun;font-variant-ligatures:normal;font-variant-caps:normal;font-variant-numeric:normal;font-variant-east-asian:normal;writing-mode:lr-tb;direction:ltr;white-space:pre;shape-inside:url(#rect178);fill:#000000;stroke-width:1.33417;stroke-dasharray:none"><tspan
               x="8.5859375"
               y="90.083461"
               id="tspan9">准确率</tspan></text>
        </g>
      </g>
      <g
         id="line2d_18">
        <path
           d="M 73.065455 127.883038  L 92.165933 83.593921  L 111.266411 75.375332  L 130.36689 60.155693  L 149.467368 50.567331  L 168.567847 46.305854  L 187.668325 41.73996  L 206.768804 38.543839  L 225.869282 37.174065  L 244.969761 35.347718  L 264.070239 33.977945  L 283.170718 30.781824  L 302.271196 28.498877  L 321.371675 26.215956  L 340.472153 24.541791  L 359.572632 27.129129  L 378.67311 25.302756  L 397.773589 24.846182  L 416.874067 23.324226  L 435.974545 25.150573  "
           clip-path="url(#pdc1e25061c)"
           style="fill: none; stroke: #1f77b4; stroke-width: 2; stroke-linecap: square"
           id="path74" />
      </g>
      <g
         id="line2d_19">
        <path
           d="M 73.065455 137.008747  L 92.165933 84.781221  L 111.266411 79.185427  L 130.36689 58.045722  L 149.467368 45.610583  L 168.567847 46.232332  L 187.668325 45.610583  L 206.768804 41.880063  L 225.869282 43.123561  L 244.969761 43.123561  L 264.070239 40.014789  L 283.170718 42.501812  L 302.271196 25.092628  L 321.371675 31.310197  L 340.472153 32.553695  L 359.572632 37.527767  L 378.67311 48.097606  L 397.773589 24.470878  L 416.874067 35.040744  L 435.974545 39.393014  "
           clip-path="url(#pdc1e25061c)"
           style="fill: none; stroke: #ff7f0e; stroke-width: 2; stroke-linecap: square"
           id="path75" />
      </g>
      <g
         id="patch_3">
        <path
           d="M 54.92 166.48  L 54.92 17.64  "
           style="fill: none; stroke: #000000; stroke-width: 0.8; stroke-linejoin: miter; stroke-linecap: square"
           id="path76" />
      </g>
      <g
         id="patch_4">
        <path
           d="M 454.12 166.48  L 454.12 17.64  "
           style="fill: none; stroke: #000000; stroke-width: 0.8; stroke-linejoin: miter; stroke-linecap: square"
           id="path77" />
      </g>
      <g
         id="patch_5">
        <path
           d="M 54.92 166.48  L 454.12 166.48  "
           style="fill: none; stroke: #000000; stroke-width: 0.8; stroke-linejoin: miter; stroke-linecap: square"
           id="path78" />
      </g>
      <g
         id="patch_6">
        <path
           d="M 54.92 17.64  L 454.12 17.64  "
           style="fill: none; stroke: #000000; stroke-width: 0.8; stroke-linejoin: miter; stroke-linecap: square"
           id="path79" />
      </g>
      <g
         id="legend_1"
         transform="translate(44.487805,0.58536585)">
        <g
           id="patch_7"
           transform="matrix(0.74007215,0,0,1.001793,74.857406,-0.16506815)">
          <path
             d="M 290.86031,130.80812 H 445.02 q 2.6,0 2.6,-2.6 V 55.911875 q 0,-2.6 -2.6,-2.6 H 290.86031 q -2.6,0 -2.6,2.6 v 72.296245 q 0,2.6 2.6,2.6 z"
             style="opacity:0.8;fill:#ffffff;stroke:#cccccc;stroke-linejoin:miter"
             id="path80" />
        </g>
        <g
           id="line2d_20">
          <path
             d="m 293.46031,63.061875 h 13 13"
             style="fill:none;stroke:#1f77b4;stroke-width:2;stroke-linecap:square"
             id="path81" />
        </g>
        <g
           id="text_20"
           transform="translate(2.9268293,0.58536585)">
          <!-- Training Accuracy -->
          <text
             xml:space="preserve"
             transform="scale(0.75)"
             id="text176"
             style="font-style:normal;font-variant:normal;font-weight:normal;font-stretch:normal;font-size:16px;line-height:1.2;font-family:SimSun;-inkscape-font-specification:SimSun;font-variant-ligatures:normal;font-variant-caps:normal;font-variant-numeric:normal;font-variant-east-asian:normal;writing-mode:lr-tb;direction:ltr;white-space:pre;shape-inside:url(#rect177);fill:#000000;stroke-width:1.33417;stroke-dasharray:none"><tspan
               x="439.41406"
               y="91.838282"
               id="tspan10">训练集准确率</tspan></text>
        </g>
        <g
           id="line2d_21">
          <path
             d="m 293.46031,81.467031 h 13 13"
             style="fill:none;stroke:#ff7f0e;stroke-width:2;stroke-linecap:square"
             id="path97" />
        </g>
        <g
           id="text_21"
           transform="translate(1.1707317,0.58536585)">
          <!-- Validation Accuracy -->
          <text
             xml:space="preserve"
             id="text175"
             style="font-style:normal;font-variant:normal;font-weight:normal;font-stretch:normal;font-size:16px;line-height:1.2;font-family:SimSun;-inkscape-font-specification:SimSun;font-variant-ligatures:normal;font-variant-caps:normal;font-variant-numeric:normal;font-variant-east-asian:normal;writing-mode:lr-tb;direction:ltr;white-space:pre;shape-inside:url(#rect176);fill:#000000;stroke-width:1.33417;stroke-dasharray:none"
             transform="matrix(0.75,0,0,0.75,2.3414634,1.1707317)"><tspan
               x="439.41406"
               y="113.6918"
               id="tspan11">验证集准确率</tspan></text>
        </g>
        <g
           id="line2d_22">
          <path
             d="m 293.46031,99.872187 h 13 13"
             style="fill:none;stroke:#1f77b4;stroke-width:2;stroke-dasharray:7.4, 3.2;stroke-dashoffset:0"
             id="path116" />
        </g>
        <g
           id="text_22">
          <!-- Training Loss -->
          <text
             xml:space="preserve"
             id="text174"
             style="font-style:normal;font-variant:normal;font-weight:normal;font-stretch:normal;font-size:16px;line-height:1.2;font-family:SimSun;-inkscape-font-specification:SimSun;font-variant-ligatures:normal;font-variant-caps:normal;font-variant-numeric:normal;font-variant-east-asian:normal;writing-mode:lr-tb;direction:ltr;white-space:pre;shape-inside:url(#rect175);fill:#000000;stroke-width:1.33417;stroke-dasharray:none"
             transform="scale(0.75)"><tspan
               x="442.53711"
               y="139.44766"
               id="tspan12">训练集损失率</tspan></text>
        </g>
        <g
           id="line2d_23">
          <path
             d="m 293.46031,118.27734 h 13 13"
             style="fill:none;stroke:#ff7f0e;stroke-width:2;stroke-dasharray:7.4, 3.2;stroke-dashoffset:0"
             id="path129" />
        </g>
        <g
           id="text_23">
          <!-- Validation Loss -->
          <text
             xml:space="preserve"
             transform="scale(0.75)"
             id="text173"
             style="font-style:normal;font-variant:normal;font-weight:normal;font-stretch:normal;font-size:16px;line-height:1.2;font-family:SimSun;-inkscape-font-specification:SimSun;font-variant-ligatures:normal;font-variant-caps:normal;font-variant-numeric:normal;font-variant-east-asian:normal;writing-mode:lr-tb;direction:ltr;white-space:pre;shape-inside:url(#rect174);fill:#000000;stroke-width:1.33417;stroke-dasharray:none"><tspan
               x="442.53711"
               y="162.86172"
               id="tspan13">验证集损失率</tspan></text>
        </g>
      </g>
    </g>
    <g
       id="axes_2">
      <g
         id="matplotlib.axis_3">
        <g
           id="ytick_8">
          <g
             id="line2d_24">
            <defs
               id="defs144">
              <path
                 id="m2683cbba84"
                 d="M 0 0  L 3.5 0  "
                 style="stroke: #000000" />
            </defs>
            <g
               id="g145">
              <use
                 xlink:href="#m2683cbba84"
                 x="454.12"
                 y="138.96847"
                 style="stroke: #000000"
                 id="use145" />
            </g>
          </g>
          <g
             id="text_24">
            <!-- 0.5 -->
            <g
               transform="translate(461.12 142.279407) scale(0.1 -0.1)"
               id="g148">
              <use
                 xlink:href="#TimesNewRomanPS-BoldMT-30"
                 id="use146" />
              <use
                 xlink:href="#TimesNewRomanPS-BoldMT-2e"
                 x="50"
                 id="use147" />
              <use
                 xlink:href="#TimesNewRomanPS-BoldMT-35"
                 x="75"
                 id="use148" />
            </g>
          </g>
        </g>
        <g
           id="ytick_9">
          <g
             id="line2d_25">
            <g
               id="g149">
              <use
                 xlink:href="#m2683cbba84"
                 x="454.12"
                 y="108.636352"
                 style="stroke: #000000"
                 id="use149" />
            </g>
          </g>
          <g
             id="text_25">
            <!-- 1.0 -->
            <g
               transform="translate(461.12 111.94729) scale(0.1 -0.1)"
               id="g152">
              <use
                 xlink:href="#TimesNewRomanPS-BoldMT-31"
                 id="use150" />
              <use
                 xlink:href="#TimesNewRomanPS-BoldMT-2e"
                 x="50"
                 id="use151" />
              <use
                 xlink:href="#TimesNewRomanPS-BoldMT-30"
                 x="75"
                 id="use152" />
            </g>
          </g>
        </g>
        <g
           id="ytick_10">
          <g
             id="line2d_26">
            <g
               id="g153">
              <use
                 xlink:href="#m2683cbba84"
                 x="454.12"
                 y="78.304235"
                 style="stroke: #000000"
                 id="use153" />
            </g>
          </g>
          <g
             id="text_26">
            <!-- 1.5 -->
            <g
               transform="translate(461.12 81.615172) scale(0.1 -0.1)"
               id="g156">
              <use
                 xlink:href="#TimesNewRomanPS-BoldMT-31"
                 id="use154" />
              <use
                 xlink:href="#TimesNewRomanPS-BoldMT-2e"
                 x="50"
                 id="use155" />
              <use
                 xlink:href="#TimesNewRomanPS-BoldMT-35"
                 x="75"
                 id="use156" />
            </g>
          </g>
        </g>
        <g
           id="ytick_11">
          <g
             id="line2d_27">
            <g
               id="g157">
              <use
                 xlink:href="#m2683cbba84"
                 x="454.12"
                 y="47.972117"
                 style="stroke: #000000"
                 id="use157" />
            </g>
          </g>
          <g
             id="text_27">
            <!-- 2.0 -->
            <g
               transform="translate(461.12 51.283055) scale(0.1 -0.1)"
               id="g160">
              <use
                 xlink:href="#TimesNewRomanPS-BoldMT-32"
                 id="use158" />
              <use
                 xlink:href="#TimesNewRomanPS-BoldMT-2e"
                 x="50"
                 id="use159" />
              <use
                 xlink:href="#TimesNewRomanPS-BoldMT-30"
                 x="75"
                 id="use160" />
            </g>
          </g>
        </g>
        <g
           id="ytick_12">
          <g
             id="line2d_28">
            <g
               id="g161">
              <use
                 xlink:href="#m2683cbba84"
                 x="454.12"
                 y="17.64"
                 style="stroke: #000000"
                 id="use161" />
            </g>
          </g>
          <g
             id="text_28">
            <!-- 2.5 -->
            <g
               transform="translate(461.12 20.950938) scale(0.1 -0.1)"
               id="g164">
              <use
                 xlink:href="#TimesNewRomanPS-BoldMT-32"
                 id="use162" />
              <use
                 xlink:href="#TimesNewRomanPS-BoldMT-2e"
                 x="50"
                 id="use163" />
              <use
                 xlink:href="#TimesNewRomanPS-BoldMT-35"
                 x="75"
                 id="use164" />
            </g>
          </g>
        </g>
        <g
           id="text_29">
          <!-- Loss -->
        </g>
      </g>
      <g
         id="line2d_29">
        <path
           d="M 73.065455 110.911671  L 92.165933 129.238998  L 111.266411 136.769377  L 130.36689 144.481093  L 149.467368 149.123073  L 168.567847 150.939148  L 187.668325 153.87046  L 206.768804 155.553077  L 225.869282 156.326218  L 244.969761 157.803078  L 264.070239 158.912154  L 283.170718 159.51392  L 302.271196 160.570599  L 321.371675 162.052852  L 340.472153 162.176044  L 359.572632 162.503216  L 378.67311 162.633128  L 397.773589 162.772985  L 416.874067 163.795214  L 435.974545 163.144274  "
           clip-path="url(#pdc1e25061c)"
           style="fill: none; stroke-dasharray: 7.4,3.2; stroke-dashoffset: 0; stroke: #1f77b4; stroke-width: 2"
           id="path168" />
      </g>
      <g
         id="line2d_30">
        <path
           d="M 73.065455 110.099489  L 92.165933 132.780458  L 111.266411 129.234847  L 130.36689 144.873365  L 149.467368 149.115099  L 168.567847 150.857832  L 187.668325 150.444486  L 206.768804 151.311944  L 225.869282 150.93645  L 244.969761 155.380898  L 264.070239 156.310602  L 283.170718 156.100732  L 302.271196 161.579973  L 321.371675 160.375806  L 340.472153 158.219339  L 359.572632 156.185841  L 378.67311 151.566666  L 397.773589 162.322741  L 416.874067 158.772908  L 435.974545 154.564326  "
           clip-path="url(#pdc1e25061c)"
           style="fill: none; stroke-dasharray: 7.4,3.2; stroke-dashoffset: 0; stroke: #ff7f0e; stroke-width: 2"
           id="path169" />
      </g>
      <g
         id="patch_8">
        <path
           d="M 54.92 166.48  L 54.92 17.64  "
           style="fill: none; stroke: #000000; stroke-width: 0.8; stroke-linejoin: miter; stroke-linecap: square"
           id="path170" />
      </g>
      <g
         id="patch_9">
        <path
           d="M 454.12 166.48  L 454.12 17.64  "
           style="fill: none; stroke: #000000; stroke-width: 0.8; stroke-linejoin: miter; stroke-linecap: square"
           id="path171" />
      </g>
      <g
         id="patch_10">
        <path
           d="M 54.92 166.48  L 454.12 166.48  "
           style="fill: none; stroke: #000000; stroke-width: 0.8; stroke-linejoin: miter; stroke-linecap: square"
           id="path172" />
      </g>
      <g
         id="patch_11">
        <path
           d="M 54.92 17.64  L 454.12 17.64  "
           style="fill: none; stroke: #000000; stroke-width: 0.8; stroke-linejoin: miter; stroke-linecap: square"
           id="path173" />
      </g>
    </g>
    <text
       xml:space="preserve"
       transform="matrix(0,-0.75,0.75,0,403.53401,581.33933)"
       id="text179"
       style="font-style:normal;font-variant:normal;font-weight:normal;font-stretch:normal;font-size:16px;line-height:1.2;font-family:SimSun;-inkscape-font-specification:SimSun;font-variant-ligatures:normal;font-variant-caps:normal;font-variant-numeric:normal;font-variant-east-asian:normal;writing-mode:lr-tb;direction:ltr;white-space:pre;shape-inside:url(#rect180);fill:#000000;stroke-width:1.33417;stroke-dasharray:none"><tspan
         x="634.53711"
         y="111.35"
         id="tspan14">损失率</tspan></text>
  </g>
  <defs
     id="defs173">
    <clipPath
       id="pdc1e25061c">
      <rect
         x="54.92"
         y="17.64"
         width="399.2"
         height="148.84"
         id="rect173" />
    </clipPath>
  </defs>
</svg>
